{
	"patcher" : 	{
		"fileversion" : 1,
		"rect" : [ 49.0, 137.0, 332.0, 283.0 ],
		"bglocked" : 0,
		"defrect" : [ 49.0, 137.0, 332.0, 283.0 ],
		"openrect" : [ 0.0, 0.0, 0.0, 0.0 ],
		"openinpresentation" : 0,
		"default_fontsize" : 12.0,
		"default_fontface" : 0,
		"default_fontname" : "Arial",
		"gridonopen" : 0,
		"gridsize" : [ 15.0, 15.0 ],
		"gridsnaponopen" : 0,
		"toolbarvisible" : 1,
		"boxanimatetime" : 200,
		"imprint" : 0,
		"boxes" : [ 			{
				"box" : 				{
					"maxclass" : "newobj",
					"text" : "p engine",
					"fontsize" : 12.0,
					"id" : "obj-6",
					"numinlets" : 0,
					"patching_rect" : [ 21.0, 19.0, 57.0, 20.0 ],
					"numoutlets" : 0,
					"fontname" : "Arial",
					"patcher" : 					{
						"fileversion" : 1,
						"rect" : [ 29.0, 69.0, 859.0, 470.0 ],
						"bglocked" : 0,
						"defrect" : [ 29.0, 69.0, 859.0, 470.0 ],
						"openrect" : [ 0.0, 0.0, 0.0, 0.0 ],
						"openinpresentation" : 0,
						"default_fontsize" : 12.0,
						"default_fontface" : 0,
						"default_fontname" : "Arial",
						"gridonopen" : 0,
						"gridsize" : [ 15.0, 15.0 ],
						"gridsnaponopen" : 0,
						"toolbarvisible" : 1,
						"boxanimatetime" : 200,
						"imprint" : 0,
						"boxes" : [ 							{
								"box" : 								{
									"maxclass" : "newobj",
									"text" : "p.sampler_core~ #1 #187",
									"fontsize" : 12.0,
									"id" : "obj-51",
									"numinlets" : 0,
									"patching_rect" : [ 617.0, 433.0, 147.0, 20.0 ],
									"numoutlets" : 0,
									"fontname" : "Arial"
								}

							}
, 							{
								"box" : 								{
									"maxclass" : "newobj",
									"text" : "p.sampler_core~ #1 #186",
									"fontsize" : 12.0,
									"id" : "obj-52",
									"numinlets" : 0,
									"patching_rect" : [ 617.0, 413.0, 147.0, 20.0 ],
									"numoutlets" : 0,
									"fontname" : "Arial"
								}

							}
, 							{
								"box" : 								{
									"maxclass" : "newobj",
									"text" : "p.sampler_core~ #1 #185",
									"fontsize" : 12.0,
									"id" : "obj-53",
									"numinlets" : 0,
									"patching_rect" : [ 617.0, 393.0, 147.0, 20.0 ],
									"numoutlets" : 0,
									"fontname" : "Arial"
								}

							}
, 							{
								"box" : 								{
									"maxclass" : "newobj",
									"text" : "p.sampler_core~ #1 #184",
									"fontsize" : 12.0,
									"id" : "obj-54",
									"numinlets" : 0,
									"patching_rect" : [ 617.0, 373.0, 147.0, 20.0 ],
									"numoutlets" : 0,
									"fontname" : "Arial"
								}

							}
, 							{
								"box" : 								{
									"maxclass" : "newobj",
									"text" : "p.sampler_core~ #1 #183",
									"fontsize" : 12.0,
									"id" : "obj-55",
									"numinlets" : 0,
									"patching_rect" : [ 617.0, 353.0, 147.0, 20.0 ],
									"numoutlets" : 0,
									"fontname" : "Arial"
								}

							}
, 							{
								"box" : 								{
									"maxclass" : "newobj",
									"text" : "p.sampler_core~ #1 #182",
									"fontsize" : 12.0,
									"id" : "obj-56",
									"numinlets" : 0,
									"patching_rect" : [ 617.0, 333.0, 147.0, 20.0 ],
									"numoutlets" : 0,
									"fontname" : "Arial"
								}

							}
, 							{
								"box" : 								{
									"maxclass" : "newobj",
									"text" : "p.sampler_core~ #1 #181",
									"fontsize" : 12.0,
									"id" : "obj-57",
									"numinlets" : 0,
									"patching_rect" : [ 617.0, 313.0, 147.0, 20.0 ],
									"numoutlets" : 0,
									"fontname" : "Arial"
								}

							}
, 							{
								"box" : 								{
									"maxclass" : "newobj",
									"text" : "p.sampler_core~ #1 #180",
									"fontsize" : 12.0,
									"id" : "obj-58",
									"numinlets" : 0,
									"patching_rect" : [ 617.0, 293.0, 147.0, 20.0 ],
									"numoutlets" : 0,
									"fontname" : "Arial"
								}

							}
, 							{
								"box" : 								{
									"maxclass" : "newobj",
									"text" : "p.sampler_core~ #1 #179",
									"fontsize" : 12.0,
									"id" : "obj-59",
									"numinlets" : 0,
									"patching_rect" : [ 617.0, 273.0, 147.0, 20.0 ],
									"numoutlets" : 0,
									"fontname" : "Arial"
								}

							}
, 							{
								"box" : 								{
									"maxclass" : "newobj",
									"text" : "p.sampler_core~ #1 #178",
									"fontsize" : 12.0,
									"id" : "obj-60",
									"numinlets" : 0,
									"patching_rect" : [ 617.0, 253.0, 147.0, 20.0 ],
									"numoutlets" : 0,
									"fontname" : "Arial"
								}

							}
, 							{
								"box" : 								{
									"maxclass" : "newobj",
									"text" : "p.sampler_core~ #1 #177",
									"fontsize" : 12.0,
									"id" : "obj-61",
									"numinlets" : 0,
									"patching_rect" : [ 617.0, 233.0, 147.0, 20.0 ],
									"numoutlets" : 0,
									"fontname" : "Arial"
								}

							}
, 							{
								"box" : 								{
									"maxclass" : "newobj",
									"text" : "p.sampler_core~ #1 #176",
									"fontsize" : 12.0,
									"id" : "obj-62",
									"numinlets" : 0,
									"patching_rect" : [ 617.0, 213.0, 147.0, 20.0 ],
									"numoutlets" : 0,
									"fontname" : "Arial"
								}

							}
, 							{
								"box" : 								{
									"maxclass" : "newobj",
									"text" : "p.sampler_core~ #1 #175",
									"fontsize" : 12.0,
									"id" : "obj-63",
									"numinlets" : 0,
									"patching_rect" : [ 617.0, 193.0, 147.0, 20.0 ],
									"numoutlets" : 0,
									"fontname" : "Arial"
								}

							}
, 							{
								"box" : 								{
									"maxclass" : "newobj",
									"text" : "p.sampler_core~ #1 #174",
									"fontsize" : 12.0,
									"id" : "obj-64",
									"numinlets" : 0,
									"patching_rect" : [ 617.0, 173.0, 147.0, 20.0 ],
									"numoutlets" : 0,
									"fontname" : "Arial"
								}

							}
, 							{
								"box" : 								{
									"maxclass" : "newobj",
									"text" : "p.sampler_core~ #1 #173",
									"fontsize" : 12.0,
									"id" : "obj-65",
									"numinlets" : 0,
									"patching_rect" : [ 617.0, 153.0, 147.0, 20.0 ],
									"numoutlets" : 0,
									"fontname" : "Arial"
								}

							}
, 							{
								"box" : 								{
									"maxclass" : "newobj",
									"text" : "p.sampler_core~ #1 #172",
									"fontsize" : 12.0,
									"id" : "obj-66",
									"numinlets" : 0,
									"patching_rect" : [ 617.0, 133.0, 147.0, 20.0 ],
									"numoutlets" : 0,
									"fontname" : "Arial"
								}

							}
, 							{
								"box" : 								{
									"maxclass" : "newobj",
									"text" : "p.sampler_core~ #1 #171",
									"fontsize" : 12.0,
									"id" : "obj-67",
									"numinlets" : 0,
									"patching_rect" : [ 617.0, 113.0, 147.0, 20.0 ],
									"numoutlets" : 0,
									"fontname" : "Arial"
								}

							}
, 							{
								"box" : 								{
									"maxclass" : "newobj",
									"text" : "p.sampler_core~ #1 #170",
									"fontsize" : 12.0,
									"id" : "obj-68",
									"numinlets" : 0,
									"patching_rect" : [ 617.0, 93.0, 147.0, 20.0 ],
									"numoutlets" : 0,
									"fontname" : "Arial"
								}

							}
, 							{
								"box" : 								{
									"maxclass" : "newobj",
									"text" : "p.sampler_core~ #1 #169",
									"fontsize" : 12.0,
									"id" : "obj-69",
									"numinlets" : 0,
									"patching_rect" : [ 617.0, 73.0, 147.0, 20.0 ],
									"numoutlets" : 0,
									"fontname" : "Arial"
								}

							}
, 							{
								"box" : 								{
									"maxclass" : "newobj",
									"text" : "p.sampler_core~ #1 #168",
									"fontsize" : 12.0,
									"id" : "obj-70",
									"numinlets" : 0,
									"patching_rect" : [ 617.0, 53.0, 147.0, 20.0 ],
									"numoutlets" : 0,
									"fontname" : "Arial"
								}

							}
, 							{
								"box" : 								{
									"maxclass" : "newobj",
									"text" : "p.sampler_core~ #1 #167",
									"fontsize" : 12.0,
									"id" : "obj-71",
									"numinlets" : 0,
									"patching_rect" : [ 617.0, 33.0, 147.0, 20.0 ],
									"numoutlets" : 0,
									"fontname" : "Arial"
								}

							}
, 							{
								"box" : 								{
									"maxclass" : "newobj",
									"text" : "p.sampler_core~ #1 #166",
									"fontsize" : 12.0,
									"id" : "obj-72",
									"numinlets" : 0,
									"patching_rect" : [ 617.0, 13.0, 147.0, 20.0 ],
									"numoutlets" : 0,
									"fontname" : "Arial"
								}

							}
, 							{
								"box" : 								{
									"maxclass" : "newobj",
									"text" : "p.sampler_core~ #1 #165",
									"fontsize" : 12.0,
									"id" : "obj-73",
									"numinlets" : 0,
									"patching_rect" : [ 414.0, 433.0, 147.0, 20.0 ],
									"numoutlets" : 0,
									"fontname" : "Arial"
								}

							}
, 							{
								"box" : 								{
									"maxclass" : "newobj",
									"text" : "p.sampler_core~ #1 #164",
									"fontsize" : 12.0,
									"id" : "obj-74",
									"numinlets" : 0,
									"patching_rect" : [ 414.0, 413.0, 147.0, 20.0 ],
									"numoutlets" : 0,
									"fontname" : "Arial"
								}

							}
, 							{
								"box" : 								{
									"maxclass" : "newobj",
									"text" : "p.sampler_core~ #1 #163",
									"fontsize" : 12.0,
									"id" : "obj-75",
									"numinlets" : 0,
									"patching_rect" : [ 414.0, 393.0, 147.0, 20.0 ],
									"numoutlets" : 0,
									"fontname" : "Arial"
								}

							}
, 							{
								"box" : 								{
									"maxclass" : "newobj",
									"text" : "p.sampler_core~ #1 #162",
									"fontsize" : 12.0,
									"id" : "obj-76",
									"numinlets" : 0,
									"patching_rect" : [ 414.0, 373.0, 147.0, 20.0 ],
									"numoutlets" : 0,
									"fontname" : "Arial"
								}

							}
, 							{
								"box" : 								{
									"maxclass" : "newobj",
									"text" : "p.sampler_core~ #1 #161",
									"fontsize" : 12.0,
									"id" : "obj-77",
									"numinlets" : 0,
									"patching_rect" : [ 414.0, 353.0, 147.0, 20.0 ],
									"numoutlets" : 0,
									"fontname" : "Arial"
								}

							}
, 							{
								"box" : 								{
									"maxclass" : "newobj",
									"text" : "p.sampler_core~ #1 #160",
									"fontsize" : 12.0,
									"id" : "obj-78",
									"numinlets" : 0,
									"patching_rect" : [ 414.0, 333.0, 147.0, 20.0 ],
									"numoutlets" : 0,
									"fontname" : "Arial"
								}

							}
, 							{
								"box" : 								{
									"maxclass" : "newobj",
									"text" : "p.sampler_core~ #1 #159",
									"fontsize" : 12.0,
									"id" : "obj-79",
									"numinlets" : 0,
									"patching_rect" : [ 414.0, 313.0, 147.0, 20.0 ],
									"numoutlets" : 0,
									"fontname" : "Arial"
								}

							}
, 							{
								"box" : 								{
									"maxclass" : "newobj",
									"text" : "p.sampler_core~ #1 #158",
									"fontsize" : 12.0,
									"id" : "obj-80",
									"numinlets" : 0,
									"patching_rect" : [ 414.0, 293.0, 147.0, 20.0 ],
									"numoutlets" : 0,
									"fontname" : "Arial"
								}

							}
, 							{
								"box" : 								{
									"maxclass" : "newobj",
									"text" : "p.sampler_core~ #1 #157",
									"fontsize" : 12.0,
									"id" : "obj-81",
									"numinlets" : 0,
									"patching_rect" : [ 414.0, 273.0, 147.0, 20.0 ],
									"numoutlets" : 0,
									"fontname" : "Arial"
								}

							}
, 							{
								"box" : 								{
									"maxclass" : "newobj",
									"text" : "p.sampler_core~ #1 #156",
									"fontsize" : 12.0,
									"id" : "obj-82",
									"numinlets" : 0,
									"patching_rect" : [ 414.0, 253.0, 147.0, 20.0 ],
									"numoutlets" : 0,
									"fontname" : "Arial"
								}

							}
, 							{
								"box" : 								{
									"maxclass" : "newobj",
									"text" : "p.sampler_core~ #1 #155",
									"fontsize" : 12.0,
									"id" : "obj-83",
									"numinlets" : 0,
									"patching_rect" : [ 414.0, 233.0, 147.0, 20.0 ],
									"numoutlets" : 0,
									"fontname" : "Arial"
								}

							}
, 							{
								"box" : 								{
									"maxclass" : "newobj",
									"text" : "p.sampler_core~ #1 #154",
									"fontsize" : 12.0,
									"id" : "obj-84",
									"numinlets" : 0,
									"patching_rect" : [ 414.0, 213.0, 147.0, 20.0 ],
									"numoutlets" : 0,
									"fontname" : "Arial"
								}

							}
, 							{
								"box" : 								{
									"maxclass" : "newobj",
									"text" : "p.sampler_core~ #1 #153",
									"fontsize" : 12.0,
									"id" : "obj-85",
									"numinlets" : 0,
									"patching_rect" : [ 414.0, 193.0, 147.0, 20.0 ],
									"numoutlets" : 0,
									"fontname" : "Arial"
								}

							}
, 							{
								"box" : 								{
									"maxclass" : "newobj",
									"text" : "p.sampler_core~ #1 #152",
									"fontsize" : 12.0,
									"id" : "obj-86",
									"numinlets" : 0,
									"patching_rect" : [ 414.0, 173.0, 147.0, 20.0 ],
									"numoutlets" : 0,
									"fontname" : "Arial"
								}

							}
, 							{
								"box" : 								{
									"maxclass" : "newobj",
									"text" : "p.sampler_core~ #1 #151",
									"fontsize" : 12.0,
									"id" : "obj-87",
									"numinlets" : 0,
									"patching_rect" : [ 414.0, 153.0, 147.0, 20.0 ],
									"numoutlets" : 0,
									"fontname" : "Arial"
								}

							}
, 							{
								"box" : 								{
									"maxclass" : "newobj",
									"text" : "p.sampler_core~ #1 #150",
									"fontsize" : 12.0,
									"id" : "obj-88",
									"numinlets" : 0,
									"patching_rect" : [ 414.0, 133.0, 147.0, 20.0 ],
									"numoutlets" : 0,
									"fontname" : "Arial"
								}

							}
, 							{
								"box" : 								{
									"maxclass" : "newobj",
									"text" : "p.sampler_core~ #1 #149",
									"fontsize" : 12.0,
									"id" : "obj-89",
									"numinlets" : 0,
									"patching_rect" : [ 414.0, 113.0, 147.0, 20.0 ],
									"numoutlets" : 0,
									"fontname" : "Arial"
								}

							}
, 							{
								"box" : 								{
									"maxclass" : "newobj",
									"text" : "p.sampler_core~ #1 #148",
									"fontsize" : 12.0,
									"id" : "obj-90",
									"numinlets" : 0,
									"patching_rect" : [ 414.0, 93.0, 147.0, 20.0 ],
									"numoutlets" : 0,
									"fontname" : "Arial"
								}

							}
, 							{
								"box" : 								{
									"maxclass" : "newobj",
									"text" : "p.sampler_core~ #1 #147",
									"fontsize" : 12.0,
									"id" : "obj-91",
									"numinlets" : 0,
									"patching_rect" : [ 414.0, 73.0, 147.0, 20.0 ],
									"numoutlets" : 0,
									"fontname" : "Arial"
								}

							}
, 							{
								"box" : 								{
									"maxclass" : "newobj",
									"text" : "p.sampler_core~ #1 #146",
									"fontsize" : 12.0,
									"id" : "obj-92",
									"numinlets" : 0,
									"patching_rect" : [ 414.0, 53.0, 147.0, 20.0 ],
									"numoutlets" : 0,
									"fontname" : "Arial"
								}

							}
, 							{
								"box" : 								{
									"maxclass" : "newobj",
									"text" : "p.sampler_core~ #1 #145",
									"fontsize" : 12.0,
									"id" : "obj-93",
									"numinlets" : 0,
									"patching_rect" : [ 414.0, 33.0, 147.0, 20.0 ],
									"numoutlets" : 0,
									"fontname" : "Arial"
								}

							}
, 							{
								"box" : 								{
									"maxclass" : "newobj",
									"text" : "p.sampler_core~ #1 #144",
									"fontsize" : 12.0,
									"id" : "obj-94",
									"numinlets" : 0,
									"patching_rect" : [ 414.0, 13.0, 147.0, 20.0 ],
									"numoutlets" : 0,
									"fontname" : "Arial"
								}

							}
, 							{
								"box" : 								{
									"maxclass" : "newobj",
									"text" : "p.sampler_core~ #1 #143",
									"fontsize" : 12.0,
									"id" : "obj-29",
									"numinlets" : 0,
									"patching_rect" : [ 210.0, 433.0, 147.0, 20.0 ],
									"numoutlets" : 0,
									"fontname" : "Arial"
								}

							}
, 							{
								"box" : 								{
									"maxclass" : "newobj",
									"text" : "p.sampler_core~ #1 #142",
									"fontsize" : 12.0,
									"id" : "obj-30",
									"numinlets" : 0,
									"patching_rect" : [ 210.0, 413.0, 147.0, 20.0 ],
									"numoutlets" : 0,
									"fontname" : "Arial"
								}

							}
, 							{
								"box" : 								{
									"maxclass" : "newobj",
									"text" : "p.sampler_core~ #1 #141",
									"fontsize" : 12.0,
									"id" : "obj-31",
									"numinlets" : 0,
									"patching_rect" : [ 210.0, 393.0, 147.0, 20.0 ],
									"numoutlets" : 0,
									"fontname" : "Arial"
								}

							}
, 							{
								"box" : 								{
									"maxclass" : "newobj",
									"text" : "p.sampler_core~ #1 #140",
									"fontsize" : 12.0,
									"id" : "obj-32",
									"numinlets" : 0,
									"patching_rect" : [ 210.0, 373.0, 147.0, 20.0 ],
									"numoutlets" : 0,
									"fontname" : "Arial"
								}

							}
, 							{
								"box" : 								{
									"maxclass" : "newobj",
									"text" : "p.sampler_core~ #1 #139",
									"fontsize" : 12.0,
									"id" : "obj-33",
									"numinlets" : 0,
									"patching_rect" : [ 210.0, 353.0, 147.0, 20.0 ],
									"numoutlets" : 0,
									"fontname" : "Arial"
								}

							}
, 							{
								"box" : 								{
									"maxclass" : "newobj",
									"text" : "p.sampler_core~ #1 #138",
									"fontsize" : 12.0,
									"id" : "obj-34",
									"numinlets" : 0,
									"patching_rect" : [ 210.0, 333.0, 147.0, 20.0 ],
									"numoutlets" : 0,
									"fontname" : "Arial"
								}

							}
, 							{
								"box" : 								{
									"maxclass" : "newobj",
									"text" : "p.sampler_core~ #1 #137",
									"fontsize" : 12.0,
									"id" : "obj-35",
									"numinlets" : 0,
									"patching_rect" : [ 210.0, 313.0, 147.0, 20.0 ],
									"numoutlets" : 0,
									"fontname" : "Arial"
								}

							}
, 							{
								"box" : 								{
									"maxclass" : "newobj",
									"text" : "p.sampler_core~ #1 #136",
									"fontsize" : 12.0,
									"id" : "obj-36",
									"numinlets" : 0,
									"patching_rect" : [ 210.0, 293.0, 147.0, 20.0 ],
									"numoutlets" : 0,
									"fontname" : "Arial"
								}

							}
, 							{
								"box" : 								{
									"maxclass" : "newobj",
									"text" : "p.sampler_core~ #1 #135",
									"fontsize" : 12.0,
									"id" : "obj-37",
									"numinlets" : 0,
									"patching_rect" : [ 210.0, 273.0, 147.0, 20.0 ],
									"numoutlets" : 0,
									"fontname" : "Arial"
								}

							}
, 							{
								"box" : 								{
									"maxclass" : "newobj",
									"text" : "p.sampler_core~ #1 #134",
									"fontsize" : 12.0,
									"id" : "obj-38",
									"numinlets" : 0,
									"patching_rect" : [ 210.0, 253.0, 147.0, 20.0 ],
									"numoutlets" : 0,
									"fontname" : "Arial"
								}

							}
, 							{
								"box" : 								{
									"maxclass" : "newobj",
									"text" : "p.sampler_core~ #1 #133",
									"fontsize" : 12.0,
									"id" : "obj-39",
									"numinlets" : 0,
									"patching_rect" : [ 210.0, 233.0, 147.0, 20.0 ],
									"numoutlets" : 0,
									"fontname" : "Arial"
								}

							}
, 							{
								"box" : 								{
									"maxclass" : "newobj",
									"text" : "p.sampler_core~ #1 #132",
									"fontsize" : 12.0,
									"id" : "obj-40",
									"numinlets" : 0,
									"patching_rect" : [ 210.0, 213.0, 147.0, 20.0 ],
									"numoutlets" : 0,
									"fontname" : "Arial"
								}

							}
, 							{
								"box" : 								{
									"maxclass" : "newobj",
									"text" : "p.sampler_core~ #1 #131",
									"fontsize" : 12.0,
									"id" : "obj-41",
									"numinlets" : 0,
									"patching_rect" : [ 210.0, 193.0, 147.0, 20.0 ],
									"numoutlets" : 0,
									"fontname" : "Arial"
								}

							}
, 							{
								"box" : 								{
									"maxclass" : "newobj",
									"text" : "p.sampler_core~ #1 #130",
									"fontsize" : 12.0,
									"id" : "obj-42",
									"numinlets" : 0,
									"patching_rect" : [ 210.0, 173.0, 147.0, 20.0 ],
									"numoutlets" : 0,
									"fontname" : "Arial"
								}

							}
, 							{
								"box" : 								{
									"maxclass" : "newobj",
									"text" : "p.sampler_core~ #1 #129",
									"fontsize" : 12.0,
									"id" : "obj-43",
									"numinlets" : 0,
									"patching_rect" : [ 210.0, 153.0, 147.0, 20.0 ],
									"numoutlets" : 0,
									"fontname" : "Arial"
								}

							}
, 							{
								"box" : 								{
									"maxclass" : "newobj",
									"text" : "p.sampler_core~ #1 #128",
									"fontsize" : 12.0,
									"id" : "obj-44",
									"numinlets" : 0,
									"patching_rect" : [ 210.0, 133.0, 147.0, 20.0 ],
									"numoutlets" : 0,
									"fontname" : "Arial"
								}

							}
, 							{
								"box" : 								{
									"maxclass" : "newobj",
									"text" : "p.sampler_core~ #1 #127",
									"fontsize" : 12.0,
									"id" : "obj-45",
									"numinlets" : 0,
									"patching_rect" : [ 210.0, 113.0, 147.0, 20.0 ],
									"numoutlets" : 0,
									"fontname" : "Arial"
								}

							}
, 							{
								"box" : 								{
									"maxclass" : "newobj",
									"text" : "p.sampler_core~ #1 #126",
									"fontsize" : 12.0,
									"id" : "obj-46",
									"numinlets" : 0,
									"patching_rect" : [ 210.0, 93.0, 147.0, 20.0 ],
									"numoutlets" : 0,
									"fontname" : "Arial"
								}

							}
, 							{
								"box" : 								{
									"maxclass" : "newobj",
									"text" : "p.sampler_core~ #1 #125",
									"fontsize" : 12.0,
									"id" : "obj-47",
									"numinlets" : 0,
									"patching_rect" : [ 210.0, 73.0, 147.0, 20.0 ],
									"numoutlets" : 0,
									"fontname" : "Arial"
								}

							}
, 							{
								"box" : 								{
									"maxclass" : "newobj",
									"text" : "p.sampler_core~ #1 #124",
									"fontsize" : 12.0,
									"id" : "obj-48",
									"numinlets" : 0,
									"patching_rect" : [ 210.0, 53.0, 147.0, 20.0 ],
									"numoutlets" : 0,
									"fontname" : "Arial"
								}

							}
, 							{
								"box" : 								{
									"maxclass" : "newobj",
									"text" : "p.sampler_core~ #1 #123",
									"fontsize" : 12.0,
									"id" : "obj-49",
									"numinlets" : 0,
									"patching_rect" : [ 210.0, 33.0, 147.0, 20.0 ],
									"numoutlets" : 0,
									"fontname" : "Arial"
								}

							}
, 							{
								"box" : 								{
									"maxclass" : "newobj",
									"text" : "p.sampler_core~ #1 #122",
									"fontsize" : 12.0,
									"id" : "obj-50",
									"numinlets" : 0,
									"patching_rect" : [ 210.0, 13.0, 147.0, 20.0 ],
									"numoutlets" : 0,
									"fontname" : "Arial"
								}

							}
, 							{
								"box" : 								{
									"maxclass" : "newobj",
									"text" : "p.sampler_core~ #1 #121",
									"fontsize" : 12.0,
									"id" : "obj-27",
									"numinlets" : 0,
									"patching_rect" : [ 11.0, 433.0, 147.0, 20.0 ],
									"numoutlets" : 0,
									"fontname" : "Arial"
								}

							}
, 							{
								"box" : 								{
									"maxclass" : "newobj",
									"text" : "p.sampler_core~ #1 #120",
									"fontsize" : 12.0,
									"id" : "obj-28",
									"numinlets" : 0,
									"patching_rect" : [ 11.0, 413.0, 147.0, 20.0 ],
									"numoutlets" : 0,
									"fontname" : "Arial"
								}

							}
, 							{
								"box" : 								{
									"maxclass" : "newobj",
									"text" : "p.sampler_core~ #1 #119",
									"fontsize" : 12.0,
									"id" : "obj-17",
									"numinlets" : 0,
									"patching_rect" : [ 11.0, 393.0, 147.0, 20.0 ],
									"numoutlets" : 0,
									"fontname" : "Arial"
								}

							}
, 							{
								"box" : 								{
									"maxclass" : "newobj",
									"text" : "p.sampler_core~ #1 #118",
									"fontsize" : 12.0,
									"id" : "obj-18",
									"numinlets" : 0,
									"patching_rect" : [ 11.0, 373.0, 147.0, 20.0 ],
									"numoutlets" : 0,
									"fontname" : "Arial"
								}

							}
, 							{
								"box" : 								{
									"maxclass" : "newobj",
									"text" : "p.sampler_core~ #1 #117",
									"fontsize" : 12.0,
									"id" : "obj-19",
									"numinlets" : 0,
									"patching_rect" : [ 11.0, 353.0, 147.0, 20.0 ],
									"numoutlets" : 0,
									"fontname" : "Arial"
								}

							}
, 							{
								"box" : 								{
									"maxclass" : "newobj",
									"text" : "p.sampler_core~ #1 #116",
									"fontsize" : 12.0,
									"id" : "obj-20",
									"numinlets" : 0,
									"patching_rect" : [ 11.0, 333.0, 147.0, 20.0 ],
									"numoutlets" : 0,
									"fontname" : "Arial"
								}

							}
, 							{
								"box" : 								{
									"maxclass" : "newobj",
									"text" : "p.sampler_core~ #1 #115",
									"fontsize" : 12.0,
									"id" : "obj-21",
									"numinlets" : 0,
									"patching_rect" : [ 11.0, 313.0, 147.0, 20.0 ],
									"numoutlets" : 0,
									"fontname" : "Arial"
								}

							}
, 							{
								"box" : 								{
									"maxclass" : "newobj",
									"text" : "p.sampler_core~ #1 #114",
									"fontsize" : 12.0,
									"id" : "obj-22",
									"numinlets" : 0,
									"patching_rect" : [ 11.0, 293.0, 147.0, 20.0 ],
									"numoutlets" : 0,
									"fontname" : "Arial"
								}

							}
, 							{
								"box" : 								{
									"maxclass" : "newobj",
									"text" : "p.sampler_core~ #1 #113",
									"fontsize" : 12.0,
									"id" : "obj-23",
									"numinlets" : 0,
									"patching_rect" : [ 11.0, 273.0, 147.0, 20.0 ],
									"numoutlets" : 0,
									"fontname" : "Arial"
								}

							}
, 							{
								"box" : 								{
									"maxclass" : "newobj",
									"text" : "p.sampler_core~ #1 #112",
									"fontsize" : 12.0,
									"id" : "obj-24",
									"numinlets" : 0,
									"patching_rect" : [ 11.0, 253.0, 147.0, 20.0 ],
									"numoutlets" : 0,
									"fontname" : "Arial"
								}

							}
, 							{
								"box" : 								{
									"maxclass" : "newobj",
									"text" : "p.sampler_core~ #1 #111",
									"fontsize" : 12.0,
									"id" : "obj-25",
									"numinlets" : 0,
									"patching_rect" : [ 11.0, 233.0, 147.0, 20.0 ],
									"numoutlets" : 0,
									"fontname" : "Arial"
								}

							}
, 							{
								"box" : 								{
									"maxclass" : "newobj",
									"text" : "p.sampler_core~ #1 #110",
									"fontsize" : 12.0,
									"id" : "obj-26",
									"numinlets" : 0,
									"patching_rect" : [ 11.0, 213.0, 147.0, 20.0 ],
									"numoutlets" : 0,
									"fontname" : "Arial"
								}

							}
, 							{
								"box" : 								{
									"maxclass" : "newobj",
									"text" : "p.sampler_core~ #1 #109",
									"fontsize" : 12.0,
									"id" : "obj-10",
									"numinlets" : 0,
									"patching_rect" : [ 11.0, 193.0, 147.0, 20.0 ],
									"numoutlets" : 0,
									"fontname" : "Arial"
								}

							}
, 							{
								"box" : 								{
									"maxclass" : "newobj",
									"text" : "p.sampler_core~ #1 #108",
									"fontsize" : 12.0,
									"id" : "obj-9",
									"numinlets" : 0,
									"patching_rect" : [ 11.0, 173.0, 147.0, 20.0 ],
									"numoutlets" : 0,
									"fontname" : "Arial"
								}

							}
, 							{
								"box" : 								{
									"maxclass" : "newobj",
									"text" : "p.sampler_core~ #1 #107",
									"fontsize" : 12.0,
									"id" : "obj-8",
									"numinlets" : 0,
									"patching_rect" : [ 11.0, 153.0, 147.0, 20.0 ],
									"numoutlets" : 0,
									"fontname" : "Arial"
								}

							}
, 							{
								"box" : 								{
									"maxclass" : "newobj",
									"text" : "p.sampler_core~ #1 #106",
									"fontsize" : 12.0,
									"id" : "obj-7",
									"numinlets" : 0,
									"patching_rect" : [ 11.0, 133.0, 147.0, 20.0 ],
									"numoutlets" : 0,
									"fontname" : "Arial"
								}

							}
, 							{
								"box" : 								{
									"maxclass" : "newobj",
									"text" : "p.sampler_core~ #1 #105",
									"fontsize" : 12.0,
									"id" : "obj-6",
									"numinlets" : 0,
									"patching_rect" : [ 11.0, 113.0, 147.0, 20.0 ],
									"numoutlets" : 0,
									"fontname" : "Arial"
								}

							}
, 							{
								"box" : 								{
									"maxclass" : "newobj",
									"text" : "p.sampler_core~ #1 #104",
									"fontsize" : 12.0,
									"id" : "obj-5",
									"numinlets" : 0,
									"patching_rect" : [ 11.0, 93.0, 147.0, 20.0 ],
									"numoutlets" : 0,
									"fontname" : "Arial"
								}

							}
, 							{
								"box" : 								{
									"maxclass" : "newobj",
									"text" : "p.sampler_core~ #1 #103",
									"fontsize" : 12.0,
									"id" : "obj-4",
									"numinlets" : 0,
									"patching_rect" : [ 11.0, 73.0, 147.0, 20.0 ],
									"numoutlets" : 0,
									"fontname" : "Arial"
								}

							}
, 							{
								"box" : 								{
									"maxclass" : "newobj",
									"text" : "p.sampler_core~ #1 #102",
									"fontsize" : 12.0,
									"id" : "obj-3",
									"numinlets" : 0,
									"patching_rect" : [ 11.0, 53.0, 147.0, 20.0 ],
									"numoutlets" : 0,
									"fontname" : "Arial"
								}

							}
, 							{
								"box" : 								{
									"maxclass" : "newobj",
									"text" : "p.sampler_core~ #1 #101",
									"fontsize" : 12.0,
									"id" : "obj-1",
									"numinlets" : 0,
									"patching_rect" : [ 11.0, 33.0, 147.0, 20.0 ],
									"numoutlets" : 0,
									"fontname" : "Arial"
								}

							}
, 							{
								"box" : 								{
									"maxclass" : "newobj",
									"text" : "p.sampler_core~ #1 #100",
									"fontsize" : 12.0,
									"id" : "obj-2",
									"numinlets" : 0,
									"patching_rect" : [ 11.0, 13.0, 147.0, 20.0 ],
									"numoutlets" : 0,
									"fontname" : "Arial"
								}

							}
 ],
						"lines" : [  ]
					}
,
					"saved_object_attributes" : 					{
						"fontsize" : 12.0,
						"default_fontface" : 0,
						"globalpatchername" : "",
						"default_fontname" : "Arial",
						"fontname" : "Arial",
						"default_fontsize" : 12.0,
						"fontface" : 0
					}

				}

			}
, 			{
				"box" : 				{
					"maxclass" : "outlet",
					"id" : "obj-5",
					"numinlets" : 1,
					"patching_rect" : [ 134.0, 107.0, 25.0, 25.0 ],
					"numoutlets" : 0,
					"comment" : "(int) num loaded files, end of load indicator"
				}

			}
, 			{
				"box" : 				{
					"maxclass" : "newobj",
					"text" : "p inputFilter",
					"fontsize" : 12.0,
					"id" : "obj-103",
					"numinlets" : 1,
					"patching_rect" : [ 134.239594, 63.003342, 73.0, 20.0 ],
					"numoutlets" : 1,
					"fontname" : "Arial",
					"outlettype" : [ "" ],
					"patcher" : 					{
						"fileversion" : 1,
						"rect" : [ 122.0, 111.0, 611.0, 249.0 ],
						"bglocked" : 0,
						"defrect" : [ 122.0, 111.0, 611.0, 249.0 ],
						"openrect" : [ 0.0, 0.0, 0.0, 0.0 ],
						"openinpresentation" : 0,
						"default_fontsize" : 12.0,
						"default_fontface" : 0,
						"default_fontname" : "Arial",
						"gridonopen" : 0,
						"gridsize" : [ 15.0, 15.0 ],
						"gridsnaponopen" : 0,
						"toolbarvisible" : 1,
						"boxanimatetime" : 200,
						"imprint" : 0,
						"boxes" : [ 							{
								"box" : 								{
									"maxclass" : "newobj",
									"text" : "p panic",
									"fontsize" : 12.0,
									"id" : "obj-1",
									"numinlets" : 1,
									"patching_rect" : [ 222.0, 98.0, 49.0, 20.0 ],
									"numoutlets" : 0,
									"fontname" : "Arial",
									"patcher" : 									{
										"fileversion" : 1,
										"rect" : [ 29.0, 69.0, 200.0, 143.0 ],
										"bglocked" : 0,
										"defrect" : [ 29.0, 69.0, 200.0, 143.0 ],
										"openrect" : [ 0.0, 0.0, 0.0, 0.0 ],
										"openinpresentation" : 0,
										"default_fontsize" : 12.0,
										"default_fontface" : 0,
										"default_fontname" : "Arial",
										"gridonopen" : 0,
										"gridsize" : [ 15.0, 15.0 ],
										"gridsnaponopen" : 0,
										"toolbarvisible" : 1,
										"boxanimatetime" : 200,
										"imprint" : 0,
										"boxes" : [ 											{
												"box" : 												{
													"maxclass" : "newobj",
													"text" : "send #1_playCommands",
													"fontsize" : 12.0,
													"id" : "obj-3",
													"numinlets" : 1,
													"patching_rect" : [ 22.0, 91.0, 143.0, 20.0 ],
													"numoutlets" : 0,
													"fontname" : "Arial"
												}

											}
, 											{
												"box" : 												{
													"maxclass" : "message",
													"text" : "stop",
													"fontsize" : 12.0,
													"id" : "obj-2",
													"numinlets" : 2,
													"patching_rect" : [ 22.0, 58.0, 33.0, 18.0 ],
													"numoutlets" : 1,
													"fontname" : "Arial",
													"outlettype" : [ "" ]
												}

											}
, 											{
												"box" : 												{
													"maxclass" : "inlet",
													"id" : "obj-1",
													"numinlets" : 0,
													"patching_rect" : [ 22.0, 16.0, 25.0, 25.0 ],
													"numoutlets" : 1,
													"outlettype" : [ "" ],
													"comment" : ""
												}

											}
 ],
										"lines" : [ 											{
												"patchline" : 												{
													"source" : [ "obj-2", 0 ],
													"destination" : [ "obj-3", 0 ],
													"hidden" : 0,
													"midpoints" : [  ]
												}

											}
, 											{
												"patchline" : 												{
													"source" : [ "obj-1", 0 ],
													"destination" : [ "obj-2", 0 ],
													"hidden" : 0,
													"midpoints" : [  ]
												}

											}
 ]
									}
,
									"saved_object_attributes" : 									{
										"fontsize" : 12.0,
										"default_fontface" : 0,
										"globalpatchername" : "",
										"default_fontname" : "Arial",
										"fontname" : "Arial",
										"default_fontsize" : 12.0,
										"fontface" : 0
									}

								}

							}
, 							{
								"box" : 								{
									"maxclass" : "message",
									"text" : "0",
									"fontsize" : 12.0,
									"id" : "obj-5",
									"numinlets" : 2,
									"patching_rect" : [ 78.0, 103.0, 32.5, 18.0 ],
									"numoutlets" : 1,
									"fontname" : "Arial",
									"outlettype" : [ "" ]
								}

							}
, 							{
								"box" : 								{
									"maxclass" : "inlet",
									"id" : "obj-8",
									"numinlets" : 0,
									"patching_rect" : [ 19.0, 16.0, 25.0, 25.0 ],
									"numoutlets" : 1,
									"outlettype" : [ "" ],
									"comment" : ""
								}

							}
, 							{
								"box" : 								{
									"maxclass" : "outlet",
									"id" : "obj-2",
									"numinlets" : 1,
									"patching_rect" : [ 19.0, 206.0, 25.0, 25.0 ],
									"numoutlets" : 0,
									"comment" : ""
								}

							}
, 							{
								"box" : 								{
									"maxclass" : "newobj",
									"text" : "p loadBuffers",
									"fontsize" : 12.0,
									"id" : "obj-30",
									"numinlets" : 1,
									"patching_rect" : [ 19.0, 136.0, 81.0, 20.0 ],
									"numoutlets" : 2,
									"fontname" : "Arial",
									"outlettype" : [ "", "int" ],
									"patcher" : 									{
										"fileversion" : 1,
										"rect" : [ 272.0, 55.0, 387.0, 584.0 ],
										"bglocked" : 0,
										"defrect" : [ 272.0, 55.0, 387.0, 584.0 ],
										"openrect" : [ 0.0, 0.0, 0.0, 0.0 ],
										"openinpresentation" : 0,
										"default_fontsize" : 12.0,
										"default_fontface" : 0,
										"default_fontname" : "Arial",
										"gridonopen" : 0,
										"gridsize" : [ 15.0, 15.0 ],
										"gridsnaponopen" : 0,
										"toolbarvisible" : 1,
										"boxanimatetime" : 200,
										"imprint" : 0,
										"boxes" : [ 											{
												"box" : 												{
													"maxclass" : "message",
													"text" : "length",
													"fontsize" : 12.0,
													"id" : "obj-33",
													"numinlets" : 2,
													"patching_rect" : [ 64.0, 482.0, 43.0, 18.0 ],
													"numoutlets" : 1,
													"fontname" : "Arial",
													"outlettype" : [ "" ]
												}

											}
, 											{
												"box" : 												{
													"maxclass" : "newobj",
													"text" : "coll #1_buffers",
													"fontsize" : 12.0,
													"id" : "obj-32",
													"numinlets" : 1,
													"patching_rect" : [ 64.0, 509.0, 89.0, 20.0 ],
													"numoutlets" : 4,
													"fontname" : "Arial",
													"outlettype" : [ "", "", "", "" ],
													"saved_object_attributes" : 													{
														"embed" : 0
													}

												}

											}
, 											{
												"box" : 												{
													"maxclass" : "outlet",
													"id" : "obj-19",
													"numinlets" : 1,
													"patching_rect" : [ 293.0, 114.0, 25.0, 25.0 ],
													"numoutlets" : 0,
													"comment" : ""
												}

											}
, 											{
												"box" : 												{
													"maxclass" : "newobj",
													"text" : "if $i1 >= ($i2 - 1) || $i1 >= 87 then 2 else 1",
													"linecount" : 2,
													"fontsize" : 12.0,
													"id" : "obj-16",
													"numinlets" : 2,
													"patching_rect" : [ 110.0, 228.0, 162.0, 34.0 ],
													"numoutlets" : 1,
													"fontname" : "Arial",
													"outlettype" : [ "" ]
												}

											}
, 											{
												"box" : 												{
													"maxclass" : "outlet",
													"id" : "obj-12",
													"numinlets" : 1,
													"patching_rect" : [ 64.0, 543.0, 25.0, 25.0 ],
													"numoutlets" : 0,
													"comment" : ""
												}

											}
, 											{
												"box" : 												{
													"maxclass" : "button",
													"id" : "obj-11",
													"numinlets" : 1,
													"patching_rect" : [ 64.0, 455.0, 20.0, 20.0 ],
													"numoutlets" : 1,
													"outlettype" : [ "bang" ]
												}

											}
, 											{
												"box" : 												{
													"maxclass" : "newobj",
													"text" : "gate 2",
													"fontsize" : 12.0,
													"id" : "obj-9",
													"numinlets" : 2,
													"patching_rect" : [ 24.0, 411.0, 59.0, 20.0 ],
													"numoutlets" : 2,
													"fontname" : "Arial",
													"outlettype" : [ "", "" ]
												}

											}
, 											{
												"box" : 												{
													"maxclass" : "newobj",
													"text" : "t i i i",
													"fontsize" : 12.0,
													"id" : "obj-6",
													"numinlets" : 1,
													"patching_rect" : [ 18.0, 202.0, 111.0, 20.0 ],
													"numoutlets" : 3,
													"fontname" : "Arial",
													"outlettype" : [ "int", "int", "int" ]
												}

											}
, 											{
												"box" : 												{
													"maxclass" : "newobj",
													"text" : "p send",
													"fontsize" : 12.0,
													"id" : "obj-24",
													"numinlets" : 2,
													"patching_rect" : [ 18.0, 328.0, 47.0, 20.0 ],
													"numoutlets" : 1,
													"fontname" : "Arial",
													"outlettype" : [ "" ],
													"patcher" : 													{
														"fileversion" : 1,
														"rect" : [ 695.0, 112.0, 409.0, 314.0 ],
														"bglocked" : 0,
														"defrect" : [ 695.0, 112.0, 409.0, 314.0 ],
														"openrect" : [ 0.0, 0.0, 0.0, 0.0 ],
														"openinpresentation" : 0,
														"default_fontsize" : 12.0,
														"default_fontface" : 0,
														"default_fontname" : "Arial",
														"gridonopen" : 0,
														"gridsize" : [ 15.0, 15.0 ],
														"gridsnaponopen" : 0,
														"toolbarvisible" : 1,
														"boxanimatetime" : 200,
														"imprint" : 0,
														"boxes" : [ 															{
																"box" : 																{
																	"maxclass" : "outlet",
																	"id" : "obj-2",
																	"numinlets" : 1,
																	"patching_rect" : [ 92.0, 143.0, 25.0, 25.0 ],
																	"numoutlets" : 0,
																	"comment" : ""
																}

															}
, 															{
																"box" : 																{
																	"maxclass" : "inlet",
																	"id" : "obj-1",
																	"numinlets" : 0,
																	"patching_rect" : [ 17.0, 20.0, 25.0, 25.0 ],
																	"numoutlets" : 1,
																	"outlettype" : [ "int" ],
																	"comment" : ""
																}

															}
, 															{
																"box" : 																{
																	"maxclass" : "inlet",
																	"id" : "obj-29",
																	"numinlets" : 0,
																	"patching_rect" : [ 62.0, 58.0, 25.0, 25.0 ],
																	"numoutlets" : 1,
																	"outlettype" : [ "" ],
																	"comment" : ""
																}

															}
, 															{
																"box" : 																{
																	"maxclass" : "newobj",
																	"text" : "forward",
																	"fontsize" : 12.0,
																	"id" : "obj-12",
																	"numinlets" : 1,
																	"patching_rect" : [ 63.0, 271.0, 51.0, 20.0 ],
																	"numoutlets" : 0,
																	"fontname" : "Arial"
																}

															}
, 															{
																"box" : 																{
																	"maxclass" : "message",
																	"fontsize" : 12.0,
																	"id" : "obj-11",
																	"numinlets" : 2,
																	"patching_rect" : [ 63.0, 234.0, 93.0, 18.0 ],
																	"numoutlets" : 1,
																	"fontname" : "Arial",
																	"outlettype" : [ "" ]
																}

															}
, 															{
																"box" : 																{
																	"maxclass" : "button",
																	"id" : "obj-9",
																	"numinlets" : 1,
																	"patching_rect" : [ 48.0, 204.0, 20.0, 20.0 ],
																	"numoutlets" : 1,
																	"outlettype" : [ "bang" ]
																}

															}
, 															{
																"box" : 																{
																	"maxclass" : "message",
																	"text" : "append $1",
																	"fontsize" : 12.0,
																	"id" : "obj-8",
																	"numinlets" : 2,
																	"patching_rect" : [ 63.0, 174.0, 67.0, 18.0 ],
																	"numoutlets" : 1,
																	"fontname" : "Arial",
																	"outlettype" : [ "" ]
																}

															}
, 															{
																"box" : 																{
																	"maxclass" : "newobj",
																	"text" : "sprintf send #1%.2d_playCommands\\, replace",
																	"fontsize" : 12.0,
																	"id" : "obj-22",
																	"numinlets" : 1,
																	"patching_rect" : [ 137.0, 147.0, 256.0, 20.0 ],
																	"numoutlets" : 1,
																	"fontname" : "Arial",
																	"outlettype" : [ "" ]
																}

															}
, 															{
																"box" : 																{
																	"maxclass" : "umenu",
																	"fontsize" : 11.595187,
																	"id" : "obj-10",
																	"numinlets" : 1,
																	"types" : [  ],
																	"patching_rect" : [ 17.0, 112.0, 110.0, 20.0 ],
																	"numoutlets" : 3,
																	"fontname" : "Arial",
																	"outlettype" : [ "int", "", "" ],
																	"items" : [  ]
																}

															}
 ],
														"lines" : [ 															{
																"patchline" : 																{
																	"source" : [ "obj-1", 0 ],
																	"destination" : [ "obj-10", 0 ],
																	"hidden" : 0,
																	"midpoints" : [  ]
																}

															}
, 															{
																"patchline" : 																{
																	"source" : [ "obj-10", 1 ],
																	"destination" : [ "obj-2", 0 ],
																	"hidden" : 0,
																	"midpoints" : [  ]
																}

															}
, 															{
																"patchline" : 																{
																	"source" : [ "obj-1", 0 ],
																	"destination" : [ "obj-22", 0 ],
																	"hidden" : 0,
																	"midpoints" : [ 26.5, 51.5, 146.5, 51.5 ]
																}

															}
, 															{
																"patchline" : 																{
																	"source" : [ "obj-29", 0 ],
																	"destination" : [ "obj-10", 0 ],
																	"hidden" : 0,
																	"midpoints" : [  ]
																}

															}
, 															{
																"patchline" : 																{
																	"source" : [ "obj-22", 0 ],
																	"destination" : [ "obj-11", 1 ],
																	"hidden" : 0,
																	"midpoints" : [  ]
																}

															}
, 															{
																"patchline" : 																{
																	"source" : [ "obj-10", 1 ],
																	"destination" : [ "obj-8", 0 ],
																	"hidden" : 0,
																	"midpoints" : [  ]
																}

															}
, 															{
																"patchline" : 																{
																	"source" : [ "obj-8", 0 ],
																	"destination" : [ "obj-11", 0 ],
																	"hidden" : 0,
																	"midpoints" : [  ]
																}

															}
, 															{
																"patchline" : 																{
																	"source" : [ "obj-11", 0 ],
																	"destination" : [ "obj-12", 0 ],
																	"hidden" : 0,
																	"midpoints" : [  ]
																}

															}
, 															{
																"patchline" : 																{
																	"source" : [ "obj-8", 0 ],
																	"destination" : [ "obj-9", 0 ],
																	"hidden" : 0,
																	"midpoints" : [  ]
																}

															}
, 															{
																"patchline" : 																{
																	"source" : [ "obj-9", 0 ],
																	"destination" : [ "obj-11", 0 ],
																	"hidden" : 0,
																	"midpoints" : [  ]
																}

															}
 ]
													}
,
													"saved_object_attributes" : 													{
														"fontsize" : 12.0,
														"default_fontface" : 0,
														"globalpatchername" : "",
														"default_fontname" : "Arial",
														"fontname" : "Arial",
														"default_fontsize" : 12.0,
														"fontface" : 0
													}

												}

											}
, 											{
												"box" : 												{
													"maxclass" : "newobj",
													"text" : "p receive",
													"fontsize" : 12.0,
													"id" : "obj-23",
													"numinlets" : 2,
													"patching_rect" : [ 64.0, 367.0, 59.0, 20.0 ],
													"numoutlets" : 1,
													"fontname" : "Arial",
													"outlettype" : [ "bang" ],
													"patcher" : 													{
														"fileversion" : 1,
														"rect" : [ 813.0, 62.0, 305.0, 431.0 ],
														"bglocked" : 0,
														"defrect" : [ 813.0, 62.0, 305.0, 431.0 ],
														"openrect" : [ 0.0, 0.0, 0.0, 0.0 ],
														"openinpresentation" : 0,
														"default_fontsize" : 12.0,
														"default_fontface" : 0,
														"default_fontname" : "Arial",
														"gridonopen" : 0,
														"gridsize" : [ 15.0, 15.0 ],
														"gridsnaponopen" : 0,
														"toolbarvisible" : 1,
														"boxanimatetime" : 200,
														"imprint" : 0,
														"boxes" : [ 															{
																"box" : 																{
																	"maxclass" : "newobj",
																	"text" : "prepend open",
																	"fontsize" : 12.0,
																	"id" : "obj-12",
																	"numinlets" : 1,
																	"patching_rect" : [ 201.0, 260.0, 85.0, 20.0 ],
																	"numoutlets" : 1,
																	"fontname" : "Arial",
																	"outlettype" : [ "" ]
																}

															}
, 															{
																"box" : 																{
																	"maxclass" : "message",
																	"fontsize" : 12.0,
																	"id" : "obj-11",
																	"numinlets" : 2,
																	"patching_rect" : [ 42.0, 298.0, 178.0, 18.0 ],
																	"numoutlets" : 1,
																	"fontname" : "Arial",
																	"outlettype" : [ "" ]
																}

															}
, 															{
																"box" : 																{
																	"maxclass" : "button",
																	"id" : "obj-10",
																	"numinlets" : 1,
																	"patching_rect" : [ 229.0, 164.0, 20.0, 20.0 ],
																	"numoutlets" : 1,
																	"outlettype" : [ "bang" ]
																}

															}
, 															{
																"box" : 																{
																	"maxclass" : "inlet",
																	"id" : "obj-8",
																	"numinlets" : 0,
																	"patching_rect" : [ 201.0, 210.0, 25.0, 25.0 ],
																	"numoutlets" : 1,
																	"outlettype" : [ "" ],
																	"comment" : ""
																}

															}
, 															{
																"box" : 																{
																	"maxclass" : "newobj",
																	"text" : "sprintf %d 0 %i %i %f %f %s %s",
																	"fontsize" : 12.0,
																	"id" : "obj-5",
																	"numinlets" : 7,
																	"patching_rect" : [ 15.0, 359.0, 182.0, 20.0 ],
																	"numoutlets" : 1,
																	"fontname" : "Arial",
																	"outlettype" : [ "" ]
																}

															}
, 															{
																"box" : 																{
																	"maxclass" : "newobj",
																	"text" : "sfinfo~",
																	"fontsize" : 12.0,
																	"id" : "obj-2",
																	"numinlets" : 1,
																	"patching_rect" : [ 42.0, 324.0, 155.5, 20.0 ],
																	"numoutlets" : 6,
																	"fontname" : "Arial",
																	"outlettype" : [ "int", "int", "float", "float", "", "" ]
																}

															}
, 															{
																"box" : 																{
																	"maxclass" : "newobj",
																	"text" : "t b b f",
																	"fontsize" : 12.0,
																	"id" : "obj-1",
																	"numinlets" : 1,
																	"patching_rect" : [ 58.0, 135.0, 190.0, 20.0 ],
																	"numoutlets" : 3,
																	"fontname" : "Arial",
																	"outlettype" : [ "bang", "bang", "float" ]
																}

															}
, 															{
																"box" : 																{
																	"maxclass" : "outlet",
																	"id" : "obj-20",
																	"numinlets" : 1,
																	"patching_rect" : [ 58.0, 176.0, 25.0, 25.0 ],
																	"numoutlets" : 0,
																	"comment" : ""
																}

															}
, 															{
																"box" : 																{
																	"maxclass" : "inlet",
																	"id" : "obj-19",
																	"numinlets" : 0,
																	"patching_rect" : [ 58.0, 9.0, 25.0, 25.0 ],
																	"numoutlets" : 1,
																	"outlettype" : [ "int" ],
																	"comment" : ""
																}

															}
, 															{
																"box" : 																{
																	"maxclass" : "newobj",
																	"text" : "int",
																	"fontsize" : 12.0,
																	"id" : "obj-17",
																	"numinlets" : 2,
																	"patching_rect" : [ 15.0, 243.0, 41.5, 20.0 ],
																	"numoutlets" : 1,
																	"fontname" : "Arial",
																	"outlettype" : [ "int" ]
																}

															}
, 															{
																"box" : 																{
																	"maxclass" : "newobj",
																	"text" : "coll #1_buffers",
																	"fontsize" : 12.0,
																	"id" : "obj-15",
																	"numinlets" : 1,
																	"patching_rect" : [ 15.0, 392.0, 89.0, 20.0 ],
																	"numoutlets" : 4,
																	"fontname" : "Arial",
																	"outlettype" : [ "", "", "", "" ],
																	"saved_object_attributes" : 																	{
																		"embed" : 0
																	}

																}

															}
, 															{
																"box" : 																{
																	"maxclass" : "newobj",
																	"text" : "sprintf set #1%.2d_playFileLength",
																	"fontsize" : 12.0,
																	"id" : "obj-6",
																	"numinlets" : 1,
																	"patching_rect" : [ 58.0, 82.0, 191.0, 20.0 ],
																	"numoutlets" : 1,
																	"fontname" : "Arial",
																	"outlettype" : [ "" ]
																}

															}
, 															{
																"box" : 																{
																	"maxclass" : "newobj",
																	"text" : "receive",
																	"fontsize" : 12.0,
																	"id" : "obj-7",
																	"numinlets" : 1,
																	"patching_rect" : [ 58.0, 109.0, 49.0, 20.0 ],
																	"numoutlets" : 1,
																	"fontname" : "Arial",
																	"outlettype" : [ "" ]
																}

															}
 ],
														"lines" : [ 															{
																"patchline" : 																{
																	"source" : [ "obj-17", 0 ],
																	"destination" : [ "obj-5", 0 ],
																	"hidden" : 0,
																	"midpoints" : [  ]
																}

															}
, 															{
																"patchline" : 																{
																	"source" : [ "obj-12", 0 ],
																	"destination" : [ "obj-11", 1 ],
																	"hidden" : 0,
																	"midpoints" : [  ]
																}

															}
, 															{
																"patchline" : 																{
																	"source" : [ "obj-8", 0 ],
																	"destination" : [ "obj-12", 0 ],
																	"hidden" : 0,
																	"midpoints" : [  ]
																}

															}
, 															{
																"patchline" : 																{
																	"source" : [ "obj-11", 0 ],
																	"destination" : [ "obj-2", 0 ],
																	"hidden" : 0,
																	"midpoints" : [  ]
																}

															}
, 															{
																"patchline" : 																{
																	"source" : [ "obj-10", 0 ],
																	"destination" : [ "obj-11", 0 ],
																	"hidden" : 0,
																	"midpoints" : [  ]
																}

															}
, 															{
																"patchline" : 																{
																	"source" : [ "obj-2", 0 ],
																	"destination" : [ "obj-5", 1 ],
																	"hidden" : 0,
																	"midpoints" : [  ]
																}

															}
, 															{
																"patchline" : 																{
																	"source" : [ "obj-2", 1 ],
																	"destination" : [ "obj-5", 2 ],
																	"hidden" : 0,
																	"midpoints" : [  ]
																}

															}
, 															{
																"patchline" : 																{
																	"source" : [ "obj-2", 2 ],
																	"destination" : [ "obj-5", 3 ],
																	"hidden" : 0,
																	"midpoints" : [  ]
																}

															}
, 															{
																"patchline" : 																{
																	"source" : [ "obj-2", 3 ],
																	"destination" : [ "obj-5", 4 ],
																	"hidden" : 0,
																	"midpoints" : [  ]
																}

															}
, 															{
																"patchline" : 																{
																	"source" : [ "obj-2", 4 ],
																	"destination" : [ "obj-5", 5 ],
																	"hidden" : 0,
																	"midpoints" : [  ]
																}

															}
, 															{
																"patchline" : 																{
																	"source" : [ "obj-5", 0 ],
																	"destination" : [ "obj-15", 0 ],
																	"hidden" : 0,
																	"midpoints" : [  ]
																}

															}
, 															{
																"patchline" : 																{
																	"source" : [ "obj-1", 2 ],
																	"destination" : [ "obj-10", 0 ],
																	"hidden" : 0,
																	"midpoints" : [  ]
																}

															}
, 															{
																"patchline" : 																{
																	"source" : [ "obj-6", 0 ],
																	"destination" : [ "obj-7", 0 ],
																	"hidden" : 0,
																	"midpoints" : [  ]
																}

															}
, 															{
																"patchline" : 																{
																	"source" : [ "obj-19", 0 ],
																	"destination" : [ "obj-6", 0 ],
																	"hidden" : 0,
																	"midpoints" : [  ]
																}

															}
, 															{
																"patchline" : 																{
																	"source" : [ "obj-19", 0 ],
																	"destination" : [ "obj-17", 1 ],
																	"hidden" : 0,
																	"midpoints" : [ 67.5, 72.0, 47.0, 72.0 ]
																}

															}
, 															{
																"patchline" : 																{
																	"source" : [ "obj-7", 0 ],
																	"destination" : [ "obj-1", 0 ],
																	"hidden" : 0,
																	"midpoints" : [  ]
																}

															}
, 															{
																"patchline" : 																{
																	"source" : [ "obj-1", 1 ],
																	"destination" : [ "obj-17", 0 ],
																	"hidden" : 0,
																	"midpoints" : [  ]
																}

															}
, 															{
																"patchline" : 																{
																	"source" : [ "obj-1", 0 ],
																	"destination" : [ "obj-20", 0 ],
																	"hidden" : 0,
																	"midpoints" : [  ]
																}

															}
, 															{
																"patchline" : 																{
																	"source" : [ "obj-8", 0 ],
																	"destination" : [ "obj-5", 6 ],
																	"hidden" : 0,
																	"midpoints" : [ 210.5, 248.0, 292.0, 248.0, 292.0, 350.0, 188.0, 350.0, 187.5, 357.0 ]
																}

															}
 ]
													}
,
													"saved_object_attributes" : 													{
														"fontsize" : 12.0,
														"default_fontface" : 0,
														"globalpatchername" : "",
														"default_fontname" : "Arial",
														"fontname" : "Arial",
														"default_fontsize" : 12.0,
														"fontface" : 0
													}

												}

											}
, 											{
												"box" : 												{
													"maxclass" : "newobj",
													"text" : "p.count -1",
													"fontsize" : 12.0,
													"id" : "obj-28",
													"numinlets" : 2,
													"patching_rect" : [ 18.0, 176.0, 64.0, 20.0 ],
													"numoutlets" : 1,
													"fontname" : "Arial",
													"outlettype" : [ "int" ]
												}

											}
, 											{
												"box" : 												{
													"maxclass" : "newobj",
													"text" : "sel 1",
													"fontsize" : 12.0,
													"id" : "obj-26",
													"numinlets" : 2,
													"patching_rect" : [ 63.0, 131.0, 152.0, 20.0 ],
													"numoutlets" : 2,
													"fontname" : "Arial",
													"outlettype" : [ "bang", "" ]
												}

											}
, 											{
												"box" : 												{
													"maxclass" : "newobj",
													"text" : "> 0",
													"fontsize" : 12.0,
													"id" : "obj-25",
													"numinlets" : 2,
													"patching_rect" : [ 63.0, 105.0, 32.5, 20.0 ],
													"numoutlets" : 1,
													"fontname" : "Arial",
													"outlettype" : [ "int" ]
												}

											}
, 											{
												"box" : 												{
													"maxclass" : "newobj",
													"text" : "p.getsoundfilepaths",
													"fontsize" : 12.0,
													"id" : "obj-4",
													"numinlets" : 1,
													"patching_rect" : [ 253.0, 64.0, 117.0, 20.0 ],
													"numoutlets" : 2,
													"fontname" : "Arial",
													"outlettype" : [ "int", "" ]
												}

											}
, 											{
												"box" : 												{
													"maxclass" : "inlet",
													"id" : "obj-1",
													"numinlets" : 0,
													"patching_rect" : [ 253.0, 8.0, 25.0, 25.0 ],
													"numoutlets" : 1,
													"outlettype" : [ "" ],
													"comment" : ""
												}

											}
 ],
										"lines" : [ 											{
												"patchline" : 												{
													"source" : [ "obj-4", 0 ],
													"destination" : [ "obj-19", 0 ],
													"hidden" : 0,
													"midpoints" : [ 262.5, 95.5, 302.5, 95.5 ]
												}

											}
, 											{
												"patchline" : 												{
													"source" : [ "obj-32", 0 ],
													"destination" : [ "obj-12", 0 ],
													"hidden" : 0,
													"midpoints" : [  ]
												}

											}
, 											{
												"patchline" : 												{
													"source" : [ "obj-33", 0 ],
													"destination" : [ "obj-32", 0 ],
													"hidden" : 0,
													"midpoints" : [  ]
												}

											}
, 											{
												"patchline" : 												{
													"source" : [ "obj-11", 0 ],
													"destination" : [ "obj-33", 0 ],
													"hidden" : 0,
													"midpoints" : [  ]
												}

											}
, 											{
												"patchline" : 												{
													"source" : [ "obj-16", 0 ],
													"destination" : [ "obj-9", 0 ],
													"hidden" : 0,
													"midpoints" : [  ]
												}

											}
, 											{
												"patchline" : 												{
													"source" : [ "obj-4", 0 ],
													"destination" : [ "obj-16", 1 ],
													"hidden" : 0,
													"midpoints" : [  ]
												}

											}
, 											{
												"patchline" : 												{
													"source" : [ "obj-6", 2 ],
													"destination" : [ "obj-16", 0 ],
													"hidden" : 0,
													"midpoints" : [  ]
												}

											}
, 											{
												"patchline" : 												{
													"source" : [ "obj-26", 0 ],
													"destination" : [ "obj-28", 0 ],
													"hidden" : 0,
													"midpoints" : [ 72.5, 160.5, 27.5, 160.5 ]
												}

											}
, 											{
												"patchline" : 												{
													"source" : [ "obj-28", 0 ],
													"destination" : [ "obj-6", 0 ],
													"hidden" : 0,
													"midpoints" : [  ]
												}

											}
, 											{
												"patchline" : 												{
													"source" : [ "obj-9", 0 ],
													"destination" : [ "obj-28", 0 ],
													"hidden" : 0,
													"midpoints" : [ 33.5, 437.0, 12.0, 437.0, 12.0, 170.0, 27.5, 170.0 ]
												}

											}
, 											{
												"patchline" : 												{
													"source" : [ "obj-26", 0 ],
													"destination" : [ "obj-28", 1 ],
													"hidden" : 0,
													"midpoints" : [  ]
												}

											}
, 											{
												"patchline" : 												{
													"source" : [ "obj-4", 0 ],
													"destination" : [ "obj-25", 0 ],
													"hidden" : 0,
													"midpoints" : [ 262.5, 96.5, 72.5, 96.5 ]
												}

											}
, 											{
												"patchline" : 												{
													"source" : [ "obj-25", 0 ],
													"destination" : [ "obj-26", 0 ],
													"hidden" : 0,
													"midpoints" : [  ]
												}

											}
, 											{
												"patchline" : 												{
													"source" : [ "obj-24", 0 ],
													"destination" : [ "obj-23", 1 ],
													"hidden" : 0,
													"midpoints" : [ 27.5, 359.0, 113.5, 359.0 ]
												}

											}
, 											{
												"patchline" : 												{
													"source" : [ "obj-4", 1 ],
													"destination" : [ "obj-24", 1 ],
													"hidden" : 0,
													"midpoints" : [ 360.5, 317.0, 55.5, 317.0 ]
												}

											}
, 											{
												"patchline" : 												{
													"source" : [ "obj-6", 0 ],
													"destination" : [ "obj-24", 0 ],
													"hidden" : 0,
													"midpoints" : [  ]
												}

											}
, 											{
												"patchline" : 												{
													"source" : [ "obj-23", 0 ],
													"destination" : [ "obj-9", 1 ],
													"hidden" : 0,
													"midpoints" : [  ]
												}

											}
, 											{
												"patchline" : 												{
													"source" : [ "obj-6", 1 ],
													"destination" : [ "obj-23", 0 ],
													"hidden" : 0,
													"color" : [ 1.0, 0.337255, 0.619608, 1.0 ],
													"midpoints" : [  ]
												}

											}
, 											{
												"patchline" : 												{
													"source" : [ "obj-1", 0 ],
													"destination" : [ "obj-4", 0 ],
													"hidden" : 0,
													"midpoints" : [  ]
												}

											}
, 											{
												"patchline" : 												{
													"source" : [ "obj-9", 1 ],
													"destination" : [ "obj-11", 0 ],
													"hidden" : 0,
													"midpoints" : [  ]
												}

											}
, 											{
												"patchline" : 												{
													"source" : [ "obj-26", 1 ],
													"destination" : [ "obj-11", 0 ],
													"hidden" : 0,
													"midpoints" : [  ]
												}

											}
 ]
									}
,
									"saved_object_attributes" : 									{
										"fontsize" : 12.0,
										"default_fontface" : 0,
										"globalpatchername" : "",
										"default_fontname" : "Arial",
										"fontname" : "Arial",
										"default_fontsize" : 12.0,
										"fontface" : 0
									}

								}

							}
, 							{
								"box" : 								{
									"maxclass" : "newobj",
									"text" : "p clearBuffers",
									"fontsize" : 12.0,
									"id" : "obj-29",
									"numinlets" : 1,
									"patching_rect" : [ 120.0, 180.0, 85.0, 20.0 ],
									"numoutlets" : 0,
									"fontname" : "Arial",
									"patcher" : 									{
										"fileversion" : 1,
										"rect" : [ 937.0, 95.0, 224.0, 183.0 ],
										"bglocked" : 0,
										"defrect" : [ 937.0, 95.0, 224.0, 183.0 ],
										"openrect" : [ 0.0, 0.0, 0.0, 0.0 ],
										"openinpresentation" : 0,
										"default_fontsize" : 12.0,
										"default_fontface" : 0,
										"default_fontname" : "Arial",
										"gridonopen" : 0,
										"gridsize" : [ 15.0, 15.0 ],
										"gridsnaponopen" : 0,
										"toolbarvisible" : 1,
										"boxanimatetime" : 200,
										"imprint" : 0,
										"visible" : 1,
										"boxes" : [ 											{
												"box" : 												{
													"maxclass" : "newobj",
													"text" : "coll #1_buffers",
													"fontsize" : 12.0,
													"id" : "obj-3",
													"numinlets" : 1,
													"patching_rect" : [ 65.0, 121.0, 89.0, 20.0 ],
													"numoutlets" : 4,
													"fontname" : "Arial",
													"outlettype" : [ "", "", "", "" ],
													"saved_object_attributes" : 													{
														"embed" : 0
													}

												}

											}
, 											{
												"box" : 												{
													"maxclass" : "message",
													"text" : "clear",
													"fontsize" : 12.0,
													"id" : "obj-18",
													"numinlets" : 2,
													"patching_rect" : [ 18.0, 85.0, 37.0, 18.0 ],
													"numoutlets" : 1,
													"fontname" : "Arial",
													"outlettype" : [ "" ]
												}

											}
, 											{
												"box" : 												{
													"maxclass" : "newobj",
													"text" : "send #1_playCommands",
													"fontsize" : 12.0,
													"id" : "obj-17",
													"numinlets" : 1,
													"patching_rect" : [ 18.0, 149.0, 143.0, 20.0 ],
													"numoutlets" : 0,
													"fontname" : "Arial"
												}

											}
, 											{
												"box" : 												{
													"maxclass" : "button",
													"id" : "obj-14",
													"numinlets" : 1,
													"patching_rect" : [ 18.0, 51.0, 20.0, 20.0 ],
													"numoutlets" : 1,
													"outlettype" : [ "bang" ]
												}

											}
, 											{
												"box" : 												{
													"maxclass" : "inlet",
													"id" : "obj-1",
													"numinlets" : 0,
													"patching_rect" : [ 18.0, 8.0, 25.0, 25.0 ],
													"numoutlets" : 1,
													"outlettype" : [ "" ],
													"comment" : ""
												}

											}
 ],
										"lines" : [ 											{
												"patchline" : 												{
													"source" : [ "obj-1", 0 ],
													"destination" : [ "obj-14", 0 ],
													"hidden" : 0,
													"midpoints" : [  ]
												}

											}
, 											{
												"patchline" : 												{
													"source" : [ "obj-18", 0 ],
													"destination" : [ "obj-17", 0 ],
													"hidden" : 0,
													"midpoints" : [  ]
												}

											}
, 											{
												"patchline" : 												{
													"source" : [ "obj-14", 0 ],
													"destination" : [ "obj-18", 0 ],
													"hidden" : 0,
													"midpoints" : [  ]
												}

											}
, 											{
												"patchline" : 												{
													"source" : [ "obj-18", 0 ],
													"destination" : [ "obj-3", 0 ],
													"hidden" : 0,
													"midpoints" : [ 27.5, 110.0, 74.5, 110.0 ]
												}

											}
 ]
									}
,
									"saved_object_attributes" : 									{
										"fontsize" : 12.0,
										"default_fontface" : 0,
										"globalpatchername" : "",
										"default_fontname" : "Arial",
										"fontname" : "Arial",
										"default_fontsize" : 12.0,
										"fontface" : 0
									}

								}

							}
, 							{
								"box" : 								{
									"maxclass" : "newobj",
									"text" : "route load clear panic",
									"fontsize" : 12.0,
									"id" : "obj-3",
									"numinlets" : 1,
									"patching_rect" : [ 19.0, 66.0, 323.0, 20.0 ],
									"numoutlets" : 4,
									"fontname" : "Arial",
									"outlettype" : [ "", "", "", "" ]
								}

							}
 ],
						"lines" : [ 							{
								"patchline" : 								{
									"source" : [ "obj-3", 2 ],
									"destination" : [ "obj-1", 0 ],
									"hidden" : 0,
									"midpoints" : [  ]
								}

							}
, 							{
								"patchline" : 								{
									"source" : [ "obj-3", 1 ],
									"destination" : [ "obj-5", 0 ],
									"hidden" : 0,
									"midpoints" : [ 129.833328, 90.0, 87.5, 90.0 ]
								}

							}
, 							{
								"patchline" : 								{
									"source" : [ "obj-3", 1 ],
									"destination" : [ "obj-29", 0 ],
									"hidden" : 0,
									"midpoints" : [  ]
								}

							}
, 							{
								"patchline" : 								{
									"source" : [ "obj-3", 0 ],
									"destination" : [ "obj-30", 0 ],
									"hidden" : 0,
									"midpoints" : [  ]
								}

							}
, 							{
								"patchline" : 								{
									"source" : [ "obj-8", 0 ],
									"destination" : [ "obj-3", 0 ],
									"hidden" : 0,
									"midpoints" : [  ]
								}

							}
, 							{
								"patchline" : 								{
									"source" : [ "obj-30", 1 ],
									"destination" : [ "obj-29", 0 ],
									"hidden" : 0,
									"midpoints" : [ 90.5, 165.0, 129.5, 165.0 ]
								}

							}
, 							{
								"patchline" : 								{
									"source" : [ "obj-30", 0 ],
									"destination" : [ "obj-2", 0 ],
									"hidden" : 0,
									"midpoints" : [  ]
								}

							}
, 							{
								"patchline" : 								{
									"source" : [ "obj-5", 0 ],
									"destination" : [ "obj-2", 0 ],
									"hidden" : 0,
									"midpoints" : [  ]
								}

							}
 ]
					}
,
					"saved_object_attributes" : 					{
						"fontsize" : 12.0,
						"default_fontface" : 0,
						"globalpatchername" : "",
						"default_fontname" : "Arial",
						"fontname" : "Arial",
						"default_fontsize" : 12.0,
						"fontface" : 0
					}

				}

			}
, 			{
				"box" : 				{
					"maxclass" : "newobj",
					"text" : "p mixout",
					"fontsize" : 12.0,
					"id" : "obj-8",
					"numinlets" : 0,
					"patching_rect" : [ 22.0, 194.0, 73.0, 20.0 ],
					"numoutlets" : 2,
					"fontname" : "Arial",
					"outlettype" : [ "signal", "signal" ],
					"patcher" : 					{
						"fileversion" : 1,
						"rect" : [ 44.0, 147.0, 426.0, 215.0 ],
						"bglocked" : 0,
						"defrect" : [ 44.0, 147.0, 426.0, 215.0 ],
						"openrect" : [ 0.0, 0.0, 0.0, 0.0 ],
						"openinpresentation" : 0,
						"default_fontsize" : 12.0,
						"default_fontface" : 0,
						"default_fontname" : "Arial",
						"gridonopen" : 0,
						"gridsize" : [ 15.0, 15.0 ],
						"gridsnaponopen" : 0,
						"toolbarvisible" : 1,
						"boxanimatetime" : 200,
						"imprint" : 0,
						"boxes" : [ 							{
								"box" : 								{
									"maxclass" : "comment",
									"text" : "Add master reverb\nand master pan ???",
									"linecount" : 2,
									"fontsize" : 12.0,
									"id" : "obj-4",
									"numinlets" : 1,
									"patching_rect" : [ 257.0, 21.0, 150.0, 34.0 ],
									"numoutlets" : 0,
									"fontname" : "Arial"
								}

							}
, 							{
								"box" : 								{
									"maxclass" : "outlet",
									"id" : "obj-3",
									"numinlets" : 1,
									"patching_rect" : [ 164.0, 167.0, 25.0, 25.0 ],
									"numoutlets" : 0,
									"comment" : "~ audio right"
								}

							}
, 							{
								"box" : 								{
									"maxclass" : "outlet",
									"id" : "obj-2",
									"numinlets" : 1,
									"patching_rect" : [ 13.0, 167.0, 25.0, 25.0 ],
									"numoutlets" : 0,
									"comment" : "~ audio left"
								}

							}
, 							{
								"box" : 								{
									"maxclass" : "newobj",
									"text" : "receive~ #1_masterGain",
									"fontsize" : 12.0,
									"id" : "obj-1",
									"numinlets" : 1,
									"patching_rect" : [ 30.0, 45.0, 142.0, 20.0 ],
									"numoutlets" : 1,
									"fontname" : "Arial",
									"outlettype" : [ "signal" ]
								}

							}
, 							{
								"box" : 								{
									"maxclass" : "newobj",
									"text" : "*~ 1.",
									"fontsize" : 12.0,
									"id" : "obj-11",
									"numinlets" : 2,
									"patching_rect" : [ 164.0, 123.0, 36.0, 20.0 ],
									"numoutlets" : 1,
									"fontname" : "Arial",
									"outlettype" : [ "signal" ]
								}

							}
, 							{
								"box" : 								{
									"maxclass" : "newobj",
									"text" : "*~ 1.",
									"fontsize" : 12.0,
									"id" : "obj-10",
									"numinlets" : 2,
									"patching_rect" : [ 13.0, 86.0, 36.0, 20.0 ],
									"numoutlets" : 1,
									"fontname" : "Arial",
									"outlettype" : [ "signal" ]
								}

							}
, 							{
								"box" : 								{
									"maxclass" : "newobj",
									"text" : "receive~ #1_audioR",
									"fontsize" : 12.0,
									"id" : "obj-6",
									"numinlets" : 1,
									"patching_rect" : [ 60.0, 86.0, 118.0, 20.0 ],
									"numoutlets" : 1,
									"fontname" : "Arial",
									"outlettype" : [ "signal" ]
								}

							}
, 							{
								"box" : 								{
									"maxclass" : "newobj",
									"text" : "receive~ #1_audioL",
									"fontsize" : 12.0,
									"id" : "obj-5",
									"numinlets" : 1,
									"patching_rect" : [ 13.0, 16.0, 116.0, 20.0 ],
									"numoutlets" : 1,
									"fontname" : "Arial",
									"outlettype" : [ "signal" ]
								}

							}
 ],
						"lines" : [ 							{
								"patchline" : 								{
									"source" : [ "obj-1", 0 ],
									"destination" : [ "obj-11", 1 ],
									"hidden" : 0,
									"midpoints" : [ 39.5, 74.0, 190.5, 74.0 ]
								}

							}
, 							{
								"patchline" : 								{
									"source" : [ "obj-11", 0 ],
									"destination" : [ "obj-3", 0 ],
									"hidden" : 0,
									"midpoints" : [  ]
								}

							}
, 							{
								"patchline" : 								{
									"source" : [ "obj-10", 0 ],
									"destination" : [ "obj-2", 0 ],
									"hidden" : 0,
									"midpoints" : [  ]
								}

							}
, 							{
								"patchline" : 								{
									"source" : [ "obj-6", 0 ],
									"destination" : [ "obj-11", 0 ],
									"hidden" : 0,
									"midpoints" : [ 69.5, 113.5, 173.5, 113.5 ]
								}

							}
, 							{
								"patchline" : 								{
									"source" : [ "obj-5", 0 ],
									"destination" : [ "obj-10", 0 ],
									"hidden" : 0,
									"midpoints" : [  ]
								}

							}
, 							{
								"patchline" : 								{
									"source" : [ "obj-1", 0 ],
									"destination" : [ "obj-10", 1 ],
									"hidden" : 0,
									"midpoints" : [  ]
								}

							}
 ]
					}
,
					"saved_object_attributes" : 					{
						"fontsize" : 12.0,
						"default_fontface" : 0,
						"globalpatchername" : "",
						"default_fontname" : "Arial",
						"fontname" : "Arial",
						"default_fontsize" : 12.0,
						"fontface" : 0
					}

				}

			}
, 			{
				"box" : 				{
					"maxclass" : "inlet",
					"id" : "obj-4",
					"numinlets" : 0,
					"patching_rect" : [ 134.0, 9.0, 25.0, 25.0 ],
					"numoutlets" : 1,
					"outlettype" : [ "" ],
					"comment" : ""
				}

			}
, 			{
				"box" : 				{
					"maxclass" : "outlet",
					"id" : "obj-3",
					"numinlets" : 1,
					"patching_rect" : [ 76.0, 235.0, 25.0, 25.0 ],
					"numoutlets" : 0,
					"comment" : "(signal) audio right"
				}

			}
, 			{
				"box" : 				{
					"maxclass" : "outlet",
					"id" : "obj-2",
					"numinlets" : 1,
					"patching_rect" : [ 22.0, 235.0, 25.0, 25.0 ],
					"numoutlets" : 0,
					"comment" : "(signal) audio left"
				}

			}
 ],
		"lines" : [ 			{
				"patchline" : 				{
					"source" : [ "obj-4", 0 ],
					"destination" : [ "obj-103", 0 ],
					"hidden" : 0,
					"midpoints" : [  ]
				}

			}
, 			{
				"patchline" : 				{
					"source" : [ "obj-103", 0 ],
					"destination" : [ "obj-5", 0 ],
					"hidden" : 0,
					"midpoints" : [  ]
				}

			}
, 			{
				"patchline" : 				{
					"source" : [ "obj-8", 1 ],
					"destination" : [ "obj-3", 0 ],
					"hidden" : 0,
					"midpoints" : [  ]
				}

			}
, 			{
				"patchline" : 				{
					"source" : [ "obj-8", 0 ],
					"destination" : [ "obj-2", 0 ],
					"hidden" : 0,
					"midpoints" : [  ]
				}

			}
 ]
	}

}
