{
	"patcher" : 	{
		"fileversion" : 1,
		"rect" : [ 225.0, 185.0, 411.0, 394.0 ],
		"bglocked" : 0,
		"defrect" : [ 225.0, 185.0, 411.0, 394.0 ],
		"openrect" : [ 0.0, 0.0, 0.0, 0.0 ],
		"openinpresentation" : 0,
		"default_fontsize" : 12.0,
		"default_fontface" : 0,
		"default_fontname" : "Arial",
		"gridonopen" : 0,
		"gridsize" : [ 15.0, 15.0 ],
		"gridsnaponopen" : 0,
		"toolbarvisible" : 1,
		"boxanimatetime" : 200,
		"imprint" : 0,
		"boxes" : [ 			{
				"box" : 				{
					"maxclass" : "message",
					"text" : "p.tapeloop~",
					"patching_rect" : [ 130.0, 360.0, 74.0, 18.0 ],
					"id" : "obj-9",
					"fontsize" : 12.0,
					"numinlets" : 2,
					"numoutlets" : 1,
					"bgcolor" : [ 0.827451, 0.827451, 0.827451, 1.0 ],
					"outlettype" : [ "" ],
					"fontname" : "Arial"
				}

			}
, 			{
				"box" : 				{
					"maxclass" : "message",
					"text" : "p.switcharoo",
					"patching_rect" : [ 14.0, 336.0, 78.0, 18.0 ],
					"id" : "obj-41",
					"fontsize" : 12.0,
					"numinlets" : 2,
					"numoutlets" : 1,
					"outlettype" : [ "" ],
					"fontname" : "Arial"
				}

			}
, 			{
				"box" : 				{
					"maxclass" : "comment",
					"varname" : "autohelp_top_title[1]",
					"text" : "p.objects--guide",
					"patching_rect" : [ 8.0, 4.0, 200.0, 31.0 ],
					"id" : "obj-38",
					"fontface" : 3,
					"fontsize" : 20.899994,
					"numinlets" : 1,
					"numoutlets" : 0,
					"fontname" : "Arial"
				}

			}
, 			{
				"box" : 				{
					"maxclass" : "panel",
					"patching_rect" : [ 0.0, 0.0, 411.0, 47.0 ],
					"id" : "obj-40",
					"numinlets" : 1,
					"rounded" : 0,
					"numoutlets" : 0
				}

			}
, 			{
				"box" : 				{
					"maxclass" : "message",
					"text" : "p.sorti",
					"patching_rect" : [ 14.0, 312.0, 43.0, 18.0 ],
					"id" : "obj-37",
					"fontsize" : 12.0,
					"numinlets" : 2,
					"numoutlets" : 1,
					"outlettype" : [ "" ],
					"fontname" : "Arial"
				}

			}
, 			{
				"box" : 				{
					"maxclass" : "message",
					"text" : "p.tapeloop.pitchshift~",
					"patching_rect" : [ 129.0, 337.0, 124.0, 18.0 ],
					"id" : "obj-36",
					"fontsize" : 12.0,
					"numinlets" : 2,
					"numoutlets" : 1,
					"bgcolor" : [ 0.827451, 0.827451, 0.827451, 1.0 ],
					"outlettype" : [ "" ],
					"fontname" : "Arial"
				}

			}
, 			{
				"box" : 				{
					"maxclass" : "message",
					"text" : "p.sortf",
					"patching_rect" : [ 14.0, 288.0, 44.0, 18.0 ],
					"id" : "obj-35",
					"fontsize" : 12.0,
					"numinlets" : 2,
					"numoutlets" : 1,
					"outlettype" : [ "" ],
					"fontname" : "Arial"
				}

			}
, 			{
				"box" : 				{
					"maxclass" : "message",
					"text" : "p.rand",
					"patching_rect" : [ 14.0, 242.0, 45.0, 18.0 ],
					"id" : "obj-34",
					"fontsize" : 12.0,
					"numinlets" : 2,
					"numoutlets" : 1,
					"outlettype" : [ "" ],
					"fontname" : "Arial"
				}

			}
, 			{
				"box" : 				{
					"maxclass" : "message",
					"text" : "p.slashpath",
					"patching_rect" : [ 14.0, 265.0, 72.0, 18.0 ],
					"id" : "obj-33",
					"fontsize" : 12.0,
					"numinlets" : 2,
					"numoutlets" : 1,
					"outlettype" : [ "" ],
					"fontname" : "Arial"
				}

			}
, 			{
				"box" : 				{
					"maxclass" : "message",
					"text" : "p.pitchshift.gizmo~",
					"patching_rect" : [ 129.0, 244.0, 110.0, 18.0 ],
					"id" : "obj-32",
					"fontsize" : 12.0,
					"numinlets" : 2,
					"numoutlets" : 1,
					"bgcolor" : [ 0.827451, 0.827451, 0.827451, 1.0 ],
					"outlettype" : [ "" ],
					"fontname" : "Arial"
				}

			}
, 			{
				"box" : 				{
					"maxclass" : "message",
					"text" : "p.iskeydown",
					"patching_rect" : [ 14.0, 219.0, 77.0, 18.0 ],
					"id" : "obj-31",
					"fontsize" : 12.0,
					"numinlets" : 2,
					"numoutlets" : 1,
					"outlettype" : [ "" ],
					"fontname" : "Arial"
				}

			}
, 			{
				"box" : 				{
					"maxclass" : "message",
					"text" : "p.sampler~",
					"patching_rect" : [ 129.0, 314.0, 70.0, 18.0 ],
					"id" : "obj-30",
					"fontsize" : 12.0,
					"numinlets" : 2,
					"numoutlets" : 1,
					"bgcolor" : [ 0.827451, 0.827451, 0.827451, 1.0 ],
					"outlettype" : [ "" ],
					"fontname" : "Arial"
				}

			}
, 			{
				"box" : 				{
					"maxclass" : "message",
					"text" : "p.play2~",
					"patching_rect" : [ 129.0, 291.0, 56.0, 18.0 ],
					"id" : "obj-29",
					"fontsize" : 12.0,
					"numinlets" : 2,
					"numoutlets" : 1,
					"bgcolor" : [ 0.827451, 0.827451, 0.827451, 1.0 ],
					"outlettype" : [ "" ],
					"fontname" : "Arial"
				}

			}
, 			{
				"box" : 				{
					"maxclass" : "message",
					"text" : "p.play~",
					"patching_rect" : [ 129.0, 268.0, 50.0, 18.0 ],
					"id" : "obj-28",
					"fontsize" : 12.0,
					"numinlets" : 2,
					"numoutlets" : 1,
					"bgcolor" : [ 0.827451, 0.827451, 0.827451, 1.0 ],
					"outlettype" : [ "" ],
					"fontname" : "Arial"
				}

			}
, 			{
				"box" : 				{
					"maxclass" : "message",
					"text" : "p.iscoordinbox",
					"patching_rect" : [ 14.0, 196.0, 88.0, 18.0 ],
					"id" : "obj-27",
					"fontsize" : 12.0,
					"numinlets" : 2,
					"numoutlets" : 1,
					"bgcolor" : [ 0.827451, 0.827451, 0.827451, 1.0 ],
					"outlettype" : [ "" ],
					"fontname" : "Arial"
				}

			}
, 			{
				"box" : 				{
					"maxclass" : "message",
					"text" : "p.mix2s~",
					"patching_rect" : [ 129.0, 196.0, 59.0, 18.0 ],
					"id" : "obj-26",
					"fontsize" : 12.0,
					"numinlets" : 2,
					"numoutlets" : 1,
					"bgcolor" : [ 0.827451, 0.827451, 0.827451, 1.0 ],
					"outlettype" : [ "" ],
					"fontname" : "Arial"
				}

			}
, 			{
				"box" : 				{
					"maxclass" : "message",
					"text" : "p.pitchshift.doppler~",
					"patching_rect" : [ 129.0, 220.0, 118.0, 18.0 ],
					"id" : "obj-25",
					"fontsize" : 12.0,
					"numinlets" : 2,
					"numoutlets" : 1,
					"bgcolor" : [ 0.827451, 0.827451, 0.827451, 1.0 ],
					"outlettype" : [ "" ],
					"fontname" : "Arial"
				}

			}
, 			{
				"box" : 				{
					"maxclass" : "message",
					"text" : "p.flanger~",
					"patching_rect" : [ 129.0, 173.0, 64.0, 18.0 ],
					"id" : "obj-24",
					"fontsize" : 12.0,
					"numinlets" : 2,
					"numoutlets" : 1,
					"bgcolor" : [ 0.827451, 0.827451, 0.827451, 1.0 ],
					"outlettype" : [ "" ],
					"fontname" : "Arial"
				}

			}
, 			{
				"box" : 				{
					"maxclass" : "message",
					"text" : "p.fade2~",
					"patching_rect" : [ 129.0, 150.0, 58.0, 18.0 ],
					"id" : "obj-23",
					"fontsize" : 12.0,
					"numinlets" : 2,
					"numoutlets" : 1,
					"bgcolor" : [ 0.827451, 0.827451, 0.827451, 1.0 ],
					"outlettype" : [ "" ],
					"fontname" : "Arial"
				}

			}
, 			{
				"box" : 				{
					"maxclass" : "message",
					"text" : "p.lcd.selection.paint",
					"patching_rect" : [ 278.0, 150.0, 116.0, 18.0 ],
					"id" : "obj-22",
					"fontsize" : 12.0,
					"numinlets" : 2,
					"numoutlets" : 1,
					"bgcolor" : [ 0.827451, 0.827451, 0.827451, 1.0 ],
					"outlettype" : [ "" ],
					"fontname" : "Arial"
				}

			}
, 			{
				"box" : 				{
					"maxclass" : "message",
					"text" : "p.lcd.select.rects",
					"patching_rect" : [ 278.0, 104.0, 100.0, 18.0 ],
					"id" : "obj-12",
					"fontsize" : 12.0,
					"numinlets" : 2,
					"numoutlets" : 1,
					"outlettype" : [ "" ],
					"fontname" : "Arial"
				}

			}
, 			{
				"box" : 				{
					"maxclass" : "message",
					"text" : "p.lcd.select.rect",
					"patching_rect" : [ 278.0, 81.0, 94.0, 18.0 ],
					"id" : "obj-14",
					"fontsize" : 12.0,
					"numinlets" : 2,
					"numoutlets" : 1,
					"outlettype" : [ "" ],
					"fontname" : "Arial"
				}

			}
, 			{
				"box" : 				{
					"maxclass" : "message",
					"text" : "p.lcd.selection.hover",
					"patching_rect" : [ 278.0, 127.0, 119.0, 18.0 ],
					"id" : "obj-15",
					"fontsize" : 12.0,
					"numinlets" : 2,
					"numoutlets" : 1,
					"bgcolor" : [ 0.827451, 0.827451, 0.827451, 1.0 ],
					"outlettype" : [ "" ],
					"fontname" : "Arial"
				}

			}
, 			{
				"box" : 				{
					"maxclass" : "comment",
					"text" : "lcd",
					"patching_rect" : [ 277.0, 55.0, 55.0, 23.0 ],
					"id" : "obj-20",
					"fontsize" : 14.0,
					"numinlets" : 1,
					"numoutlets" : 0,
					"fontname" : "Arial"
				}

			}
, 			{
				"box" : 				{
					"maxclass" : "panel",
					"patching_rect" : [ 269.0, 51.0, 137.0, 130.0 ],
					"id" : "obj-21",
					"numinlets" : 1,
					"border" : 1,
					"numoutlets" : 0,
					"bgcolor" : [ 1.0, 1.0, 1.0, 1.0 ]
				}

			}
, 			{
				"box" : 				{
					"maxclass" : "message",
					"text" : "p.envparabola~",
					"patching_rect" : [ 129.0, 104.0, 94.0, 18.0 ],
					"id" : "obj-11",
					"fontsize" : 12.0,
					"numinlets" : 2,
					"numoutlets" : 1,
					"outlettype" : [ "" ],
					"fontname" : "Arial"
				}

			}
, 			{
				"box" : 				{
					"maxclass" : "message",
					"text" : "p.chorus~",
					"patching_rect" : [ 129.0, 81.0, 64.0, 18.0 ],
					"id" : "obj-8",
					"fontsize" : 12.0,
					"numinlets" : 2,
					"numoutlets" : 1,
					"outlettype" : [ "" ],
					"fontname" : "Arial"
				}

			}
, 			{
				"box" : 				{
					"maxclass" : "message",
					"text" : "p.fade~",
					"patching_rect" : [ 129.0, 127.0, 51.0, 18.0 ],
					"id" : "obj-17",
					"fontsize" : 12.0,
					"numinlets" : 2,
					"numoutlets" : 1,
					"bgcolor" : [ 0.827451, 0.827451, 0.827451, 1.0 ],
					"outlettype" : [ "" ],
					"fontname" : "Arial"
				}

			}
, 			{
				"box" : 				{
					"maxclass" : "comment",
					"text" : "audio",
					"patching_rect" : [ 128.0, 55.0, 55.0, 23.0 ],
					"id" : "obj-18",
					"fontsize" : 14.0,
					"numinlets" : 1,
					"numoutlets" : 0,
					"fontname" : "Arial"
				}

			}
, 			{
				"box" : 				{
					"maxclass" : "panel",
					"patching_rect" : [ 120.0, 51.0, 142.0, 338.0 ],
					"id" : "obj-19",
					"numinlets" : 1,
					"border" : 1,
					"numoutlets" : 0,
					"bgcolor" : [ 1.0, 1.0, 1.0, 1.0 ]
				}

			}
, 			{
				"box" : 				{
					"maxclass" : "message",
					"text" : "help $1",
					"patching_rect" : [ 286.0, 308.0, 50.0, 18.0 ],
					"id" : "obj-10",
					"hidden" : 1,
					"fontsize" : 12.0,
					"numinlets" : 2,
					"numoutlets" : 1,
					"outlettype" : [ "" ],
					"fontname" : "Arial"
				}

			}
, 			{
				"box" : 				{
					"maxclass" : "newobj",
					"text" : "pcontrol",
					"patching_rect" : [ 286.0, 331.0, 58.0, 20.0 ],
					"id" : "obj-7",
					"hidden" : 1,
					"fontsize" : 12.0,
					"numinlets" : 1,
					"numoutlets" : 1,
					"outlettype" : [ "" ],
					"fontname" : "Arial"
				}

			}
, 			{
				"box" : 				{
					"maxclass" : "message",
					"text" : "p.gtodb",
					"patching_rect" : [ 14.0, 173.0, 51.0, 18.0 ],
					"id" : "obj-6",
					"fontsize" : 12.0,
					"numinlets" : 2,
					"numoutlets" : 1,
					"bgcolor" : [ 0.827451, 0.827451, 0.827451, 1.0 ],
					"outlettype" : [ "" ],
					"fontname" : "Arial"
				}

			}
, 			{
				"box" : 				{
					"maxclass" : "message",
					"text" : "p.forward",
					"patching_rect" : [ 14.0, 150.0, 61.0, 18.0 ],
					"id" : "obj-5",
					"fontsize" : 12.0,
					"numinlets" : 2,
					"numoutlets" : 1,
					"bgcolor" : [ 0.827451, 0.827451, 0.827451, 1.0 ],
					"outlettype" : [ "" ],
					"fontname" : "Arial"
				}

			}
, 			{
				"box" : 				{
					"maxclass" : "message",
					"text" : "p.folder",
					"patching_rect" : [ 14.0, 127.0, 51.0, 18.0 ],
					"id" : "obj-4",
					"fontsize" : 12.0,
					"numinlets" : 2,
					"numoutlets" : 1,
					"bgcolor" : [ 0.827451, 0.827451, 0.827451, 1.0 ],
					"outlettype" : [ "" ],
					"fontname" : "Arial"
				}

			}
, 			{
				"box" : 				{
					"maxclass" : "message",
					"text" : "p.count",
					"patching_rect" : [ 14.0, 104.0, 50.0, 18.0 ],
					"id" : "obj-2",
					"fontsize" : 12.0,
					"numinlets" : 2,
					"numoutlets" : 1,
					"bgcolor" : [ 0.827451, 0.827451, 0.827451, 1.0 ],
					"outlettype" : [ "" ],
					"fontname" : "Arial"
				}

			}
, 			{
				"box" : 				{
					"maxclass" : "message",
					"text" : "p.block",
					"patching_rect" : [ 14.0, 81.0, 49.0, 18.0 ],
					"id" : "obj-1",
					"fontsize" : 12.0,
					"numinlets" : 2,
					"numoutlets" : 1,
					"bgcolor" : [ 0.827451, 0.827451, 0.827451, 1.0 ],
					"outlettype" : [ "" ],
					"fontname" : "Arial"
				}

			}
, 			{
				"box" : 				{
					"maxclass" : "comment",
					"text" : "utilities",
					"patching_rect" : [ 13.0, 55.0, 55.0, 23.0 ],
					"id" : "obj-3",
					"fontsize" : 14.0,
					"numinlets" : 1,
					"numoutlets" : 0,
					"fontname" : "Arial"
				}

			}
, 			{
				"box" : 				{
					"maxclass" : "panel",
					"patching_rect" : [ 5.0, 51.0, 107.0, 314.0 ],
					"id" : "obj-13",
					"numinlets" : 1,
					"border" : 1,
					"numoutlets" : 0,
					"bgcolor" : [ 1.0, 1.0, 1.0, 1.0 ]
				}

			}
 ],
		"lines" : [ 			{
				"patchline" : 				{
					"source" : [ "obj-9", 0 ],
					"destination" : [ "obj-10", 0 ],
					"hidden" : 1,
					"midpoints" : [  ]
				}

			}
, 			{
				"patchline" : 				{
					"source" : [ "obj-41", 0 ],
					"destination" : [ "obj-10", 0 ],
					"hidden" : 1,
					"midpoints" : [  ]
				}

			}
, 			{
				"patchline" : 				{
					"source" : [ "obj-36", 0 ],
					"destination" : [ "obj-10", 0 ],
					"hidden" : 1,
					"midpoints" : [  ]
				}

			}
, 			{
				"patchline" : 				{
					"source" : [ "obj-33", 0 ],
					"destination" : [ "obj-10", 0 ],
					"hidden" : 1,
					"midpoints" : [  ]
				}

			}
, 			{
				"patchline" : 				{
					"source" : [ "obj-32", 0 ],
					"destination" : [ "obj-10", 0 ],
					"hidden" : 1,
					"midpoints" : [  ]
				}

			}
, 			{
				"patchline" : 				{
					"source" : [ "obj-28", 0 ],
					"destination" : [ "obj-10", 0 ],
					"hidden" : 1,
					"midpoints" : [  ]
				}

			}
, 			{
				"patchline" : 				{
					"source" : [ "obj-26", 0 ],
					"destination" : [ "obj-10", 0 ],
					"hidden" : 1,
					"midpoints" : [  ]
				}

			}
, 			{
				"patchline" : 				{
					"source" : [ "obj-24", 0 ],
					"destination" : [ "obj-10", 0 ],
					"hidden" : 1,
					"midpoints" : [  ]
				}

			}
, 			{
				"patchline" : 				{
					"source" : [ "obj-22", 0 ],
					"destination" : [ "obj-10", 0 ],
					"hidden" : 1,
					"midpoints" : [  ]
				}

			}
, 			{
				"patchline" : 				{
					"source" : [ "obj-15", 0 ],
					"destination" : [ "obj-10", 0 ],
					"hidden" : 1,
					"midpoints" : [  ]
				}

			}
, 			{
				"patchline" : 				{
					"source" : [ "obj-12", 0 ],
					"destination" : [ "obj-10", 0 ],
					"hidden" : 1,
					"midpoints" : [  ]
				}

			}
, 			{
				"patchline" : 				{
					"source" : [ "obj-14", 0 ],
					"destination" : [ "obj-10", 0 ],
					"hidden" : 1,
					"midpoints" : [  ]
				}

			}
, 			{
				"patchline" : 				{
					"source" : [ "obj-8", 0 ],
					"destination" : [ "obj-10", 0 ],
					"hidden" : 1,
					"midpoints" : [  ]
				}

			}
, 			{
				"patchline" : 				{
					"source" : [ "obj-1", 0 ],
					"destination" : [ "obj-10", 0 ],
					"hidden" : 1,
					"midpoints" : [  ]
				}

			}
, 			{
				"patchline" : 				{
					"source" : [ "obj-2", 0 ],
					"destination" : [ "obj-10", 0 ],
					"hidden" : 1,
					"midpoints" : [  ]
				}

			}
, 			{
				"patchline" : 				{
					"source" : [ "obj-4", 0 ],
					"destination" : [ "obj-10", 0 ],
					"hidden" : 1,
					"midpoints" : [  ]
				}

			}
, 			{
				"patchline" : 				{
					"source" : [ "obj-5", 0 ],
					"destination" : [ "obj-10", 0 ],
					"hidden" : 1,
					"midpoints" : [  ]
				}

			}
, 			{
				"patchline" : 				{
					"source" : [ "obj-10", 0 ],
					"destination" : [ "obj-7", 0 ],
					"hidden" : 1,
					"midpoints" : [  ]
				}

			}
, 			{
				"patchline" : 				{
					"source" : [ "obj-6", 0 ],
					"destination" : [ "obj-10", 0 ],
					"hidden" : 1,
					"midpoints" : [  ]
				}

			}
, 			{
				"patchline" : 				{
					"source" : [ "obj-17", 0 ],
					"destination" : [ "obj-10", 0 ],
					"hidden" : 1,
					"midpoints" : [  ]
				}

			}
, 			{
				"patchline" : 				{
					"source" : [ "obj-11", 0 ],
					"destination" : [ "obj-10", 0 ],
					"hidden" : 1,
					"midpoints" : [  ]
				}

			}
, 			{
				"patchline" : 				{
					"source" : [ "obj-23", 0 ],
					"destination" : [ "obj-10", 0 ],
					"hidden" : 1,
					"midpoints" : [  ]
				}

			}
, 			{
				"patchline" : 				{
					"source" : [ "obj-25", 0 ],
					"destination" : [ "obj-10", 0 ],
					"hidden" : 1,
					"midpoints" : [  ]
				}

			}
, 			{
				"patchline" : 				{
					"source" : [ "obj-27", 0 ],
					"destination" : [ "obj-10", 0 ],
					"hidden" : 1,
					"midpoints" : [  ]
				}

			}
, 			{
				"patchline" : 				{
					"source" : [ "obj-30", 0 ],
					"destination" : [ "obj-10", 0 ],
					"hidden" : 1,
					"midpoints" : [  ]
				}

			}
, 			{
				"patchline" : 				{
					"source" : [ "obj-29", 0 ],
					"destination" : [ "obj-10", 0 ],
					"hidden" : 1,
					"midpoints" : [  ]
				}

			}
, 			{
				"patchline" : 				{
					"source" : [ "obj-31", 0 ],
					"destination" : [ "obj-10", 0 ],
					"hidden" : 1,
					"midpoints" : [  ]
				}

			}
, 			{
				"patchline" : 				{
					"source" : [ "obj-34", 0 ],
					"destination" : [ "obj-10", 0 ],
					"hidden" : 1,
					"midpoints" : [  ]
				}

			}
, 			{
				"patchline" : 				{
					"source" : [ "obj-35", 0 ],
					"destination" : [ "obj-10", 0 ],
					"hidden" : 1,
					"midpoints" : [  ]
				}

			}
, 			{
				"patchline" : 				{
					"source" : [ "obj-37", 0 ],
					"destination" : [ "obj-10", 0 ],
					"hidden" : 1,
					"midpoints" : [  ]
				}

			}
 ]
	}

}
