{
	"patcher" : 	{
		"fileversion" : 1,
		"rect" : [ 726.0, 44.0, 409.0, 548.0 ],
		"bglocked" : 0,
		"defrect" : [ 726.0, 44.0, 409.0, 548.0 ],
		"openrect" : [ 0.0, 0.0, 0.0, 0.0 ],
		"openinpresentation" : 0,
		"default_fontsize" : 12.0,
		"default_fontface" : 0,
		"default_fontname" : "Arial",
		"gridonopen" : 0,
		"gridsize" : [ 15.0, 15.0 ],
		"gridsnaponopen" : 0,
		"toolbarvisible" : 1,
		"boxanimatetime" : 200,
		"imprint" : 0,
		"boxes" : [ 			{
				"box" : 				{
					"maxclass" : "message",
					"text" : "p.ceil",
					"numinlets" : 2,
					"fontsize" : 12.0,
					"numoutlets" : 1,
					"outlettype" : [ "" ],
					"patching_rect" : [ 14.0, 129.0, 39.0, 18.0 ],
					"fontname" : "Arial",
					"id" : "obj-46"
				}

			}
, 			{
				"box" : 				{
					"maxclass" : "message",
					"text" : "p.gatem.i",
					"numinlets" : 2,
					"fontsize" : 12.0,
					"numoutlets" : 1,
					"outlettype" : [ "" ],
					"patching_rect" : [ 14.0, 253.0, 60.0, 18.0 ],
					"fontname" : "Arial",
					"id" : "obj-45"
				}

			}
, 			{
				"box" : 				{
					"maxclass" : "message",
					"text" : "p.gatem.f",
					"numinlets" : 2,
					"fontsize" : 12.0,
					"numoutlets" : 1,
					"outlettype" : [ "" ],
					"patching_rect" : [ 14.0, 228.0, 61.0, 18.0 ],
					"fontname" : "Arial",
					"id" : "obj-44"
				}

			}
, 			{
				"box" : 				{
					"maxclass" : "message",
					"text" : "p.blockade",
					"numinlets" : 2,
					"fontsize" : 12.0,
					"numoutlets" : 1,
					"bgcolor" : [ 0.827451, 0.827451, 0.827451, 1.0 ],
					"outlettype" : [ "" ],
					"patching_rect" : [ 14.0, 105.0, 69.0, 18.0 ],
					"fontname" : "Arial",
					"id" : "obj-43"
				}

			}
, 			{
				"box" : 				{
					"maxclass" : "message",
					"text" : "p.range.i",
					"numinlets" : 2,
					"fontsize" : 12.0,
					"numoutlets" : 1,
					"outlettype" : [ "" ],
					"patching_rect" : [ 14.0, 420.0, 57.0, 18.0 ],
					"fontname" : "Arial",
					"id" : "obj-42"
				}

			}
, 			{
				"box" : 				{
					"maxclass" : "message",
					"text" : "p.range.f",
					"numinlets" : 2,
					"fontsize" : 12.0,
					"numoutlets" : 1,
					"outlettype" : [ "" ],
					"patching_rect" : [ 14.0, 397.0, 58.0, 18.0 ],
					"fontname" : "Arial",
					"id" : "obj-39"
				}

			}
, 			{
				"box" : 				{
					"maxclass" : "message",
					"text" : "p.iscoordinbox.i",
					"numinlets" : 2,
					"fontsize" : 12.0,
					"numoutlets" : 1,
					"bgcolor" : [ 0.827451, 0.827451, 0.827451, 1.0 ],
					"outlettype" : [ "" ],
					"patching_rect" : [ 14.0, 326.0, 94.0, 18.0 ],
					"fontname" : "Arial",
					"id" : "obj-16"
				}

			}
, 			{
				"box" : 				{
					"maxclass" : "message",
					"text" : "p.count.i",
					"numinlets" : 2,
					"fontsize" : 12.0,
					"numoutlets" : 1,
					"bgcolor" : [ 0.827451, 0.827451, 0.827451, 1.0 ],
					"outlettype" : [ "" ],
					"patching_rect" : [ 14.0, 178.0, 56.0, 18.0 ],
					"fontname" : "Arial",
					"id" : "obj-5"
				}

			}
, 			{
				"box" : 				{
					"maxclass" : "message",
					"text" : "p.tapeloop~",
					"numinlets" : 2,
					"fontsize" : 12.0,
					"numoutlets" : 1,
					"bgcolor" : [ 0.827451, 0.827451, 0.827451, 1.0 ],
					"outlettype" : [ "" ],
					"patching_rect" : [ 273.0, 338.0, 74.0, 18.0 ],
					"fontname" : "Arial",
					"id" : "obj-9"
				}

			}
, 			{
				"box" : 				{
					"maxclass" : "message",
					"text" : "p.switcharoo",
					"numinlets" : 2,
					"fontsize" : 12.0,
					"numoutlets" : 1,
					"outlettype" : [ "" ],
					"patching_rect" : [ 14.0, 517.0, 78.0, 18.0 ],
					"fontname" : "Arial",
					"id" : "obj-41"
				}

			}
, 			{
				"box" : 				{
					"maxclass" : "comment",
					"varname" : "autohelp_top_title[1]",
					"text" : "p.objects-guide",
					"numinlets" : 1,
					"fontface" : 3,
					"fontsize" : 20.899994,
					"numoutlets" : 0,
					"patching_rect" : [ 4.0, 4.0, 200.0, 31.0 ],
					"fontname" : "Arial",
					"id" : "obj-38"
				}

			}
, 			{
				"box" : 				{
					"maxclass" : "panel",
					"numinlets" : 1,
					"numoutlets" : 0,
					"patching_rect" : [ 0.0, 0.0, 409.0, 47.0 ],
					"id" : "obj-40",
					"rounded" : 0
				}

			}
, 			{
				"box" : 				{
					"maxclass" : "message",
					"text" : "p.sort.i",
					"numinlets" : 2,
					"fontsize" : 12.0,
					"numoutlets" : 1,
					"outlettype" : [ "" ],
					"patching_rect" : [ 14.0, 493.0, 47.0, 18.0 ],
					"fontname" : "Arial",
					"id" : "obj-37"
				}

			}
, 			{
				"box" : 				{
					"maxclass" : "message",
					"text" : "p.tapeloop.pitchshift~",
					"numinlets" : 2,
					"fontsize" : 12.0,
					"numoutlets" : 1,
					"bgcolor" : [ 0.827451, 0.827451, 0.827451, 1.0 ],
					"outlettype" : [ "" ],
					"patching_rect" : [ 272.0, 315.0, 124.0, 18.0 ],
					"fontname" : "Arial",
					"id" : "obj-36"
				}

			}
, 			{
				"box" : 				{
					"maxclass" : "message",
					"text" : "p.sort.f",
					"numinlets" : 2,
					"fontsize" : 12.0,
					"numoutlets" : 1,
					"outlettype" : [ "" ],
					"patching_rect" : [ 14.0, 469.0, 47.0, 18.0 ],
					"fontname" : "Arial",
					"id" : "obj-35"
				}

			}
, 			{
				"box" : 				{
					"maxclass" : "message",
					"text" : "p.rand",
					"numinlets" : 2,
					"fontsize" : 12.0,
					"numoutlets" : 1,
					"outlettype" : [ "" ],
					"patching_rect" : [ 14.0, 374.0, 45.0, 18.0 ],
					"fontname" : "Arial",
					"id" : "obj-34"
				}

			}
, 			{
				"box" : 				{
					"maxclass" : "message",
					"text" : "p.slashpath",
					"numinlets" : 2,
					"fontsize" : 12.0,
					"numoutlets" : 1,
					"outlettype" : [ "" ],
					"patching_rect" : [ 14.0, 444.0, 72.0, 18.0 ],
					"fontname" : "Arial",
					"id" : "obj-33"
				}

			}
, 			{
				"box" : 				{
					"maxclass" : "message",
					"text" : "p.pitchshift.gizmo~",
					"numinlets" : 2,
					"fontsize" : 12.0,
					"numoutlets" : 1,
					"bgcolor" : [ 0.827451, 0.827451, 0.827451, 1.0 ],
					"outlettype" : [ "" ],
					"patching_rect" : [ 272.0, 222.0, 110.0, 18.0 ],
					"fontname" : "Arial",
					"id" : "obj-32"
				}

			}
, 			{
				"box" : 				{
					"maxclass" : "message",
					"text" : "p.iskeypressed",
					"numinlets" : 2,
					"fontsize" : 12.0,
					"numoutlets" : 1,
					"outlettype" : [ "" ],
					"patching_rect" : [ 14.0, 350.0, 91.0, 18.0 ],
					"fontname" : "Arial",
					"id" : "obj-31"
				}

			}
, 			{
				"box" : 				{
					"maxclass" : "message",
					"text" : "p.sampler~",
					"numinlets" : 2,
					"fontsize" : 12.0,
					"numoutlets" : 1,
					"bgcolor" : [ 0.827451, 0.827451, 0.827451, 1.0 ],
					"outlettype" : [ "" ],
					"patching_rect" : [ 272.0, 292.0, 70.0, 18.0 ],
					"fontname" : "Arial",
					"id" : "obj-30"
				}

			}
, 			{
				"box" : 				{
					"maxclass" : "message",
					"text" : "p.play2~",
					"numinlets" : 2,
					"fontsize" : 12.0,
					"numoutlets" : 1,
					"bgcolor" : [ 0.827451, 0.827451, 0.827451, 1.0 ],
					"outlettype" : [ "" ],
					"patching_rect" : [ 272.0, 269.0, 56.0, 18.0 ],
					"fontname" : "Arial",
					"id" : "obj-29"
				}

			}
, 			{
				"box" : 				{
					"maxclass" : "message",
					"text" : "p.play~",
					"numinlets" : 2,
					"fontsize" : 12.0,
					"numoutlets" : 1,
					"bgcolor" : [ 0.827451, 0.827451, 0.827451, 1.0 ],
					"outlettype" : [ "" ],
					"patching_rect" : [ 272.0, 246.0, 50.0, 18.0 ],
					"fontname" : "Arial",
					"id" : "obj-28"
				}

			}
, 			{
				"box" : 				{
					"maxclass" : "message",
					"text" : "p.iscoordinbox.f",
					"numinlets" : 2,
					"fontsize" : 12.0,
					"numoutlets" : 1,
					"bgcolor" : [ 0.827451, 0.827451, 0.827451, 1.0 ],
					"outlettype" : [ "" ],
					"patching_rect" : [ 14.0, 302.0, 95.0, 18.0 ],
					"fontname" : "Arial",
					"id" : "obj-27"
				}

			}
, 			{
				"box" : 				{
					"maxclass" : "message",
					"text" : "p.mix2s~",
					"numinlets" : 2,
					"fontsize" : 12.0,
					"numoutlets" : 1,
					"bgcolor" : [ 0.827451, 0.827451, 0.827451, 1.0 ],
					"outlettype" : [ "" ],
					"patching_rect" : [ 272.0, 174.0, 59.0, 18.0 ],
					"fontname" : "Arial",
					"id" : "obj-26"
				}

			}
, 			{
				"box" : 				{
					"maxclass" : "message",
					"text" : "p.pitchshift.doppler~",
					"numinlets" : 2,
					"fontsize" : 12.0,
					"numoutlets" : 1,
					"bgcolor" : [ 0.827451, 0.827451, 0.827451, 1.0 ],
					"outlettype" : [ "" ],
					"patching_rect" : [ 272.0, 198.0, 118.0, 18.0 ],
					"fontname" : "Arial",
					"id" : "obj-25"
				}

			}
, 			{
				"box" : 				{
					"maxclass" : "message",
					"text" : "p.flanger~",
					"numinlets" : 2,
					"fontsize" : 12.0,
					"numoutlets" : 1,
					"bgcolor" : [ 0.827451, 0.827451, 0.827451, 1.0 ],
					"outlettype" : [ "" ],
					"patching_rect" : [ 272.0, 151.0, 64.0, 18.0 ],
					"fontname" : "Arial",
					"id" : "obj-24"
				}

			}
, 			{
				"box" : 				{
					"maxclass" : "message",
					"text" : "p.lcd.selection.paint",
					"numinlets" : 2,
					"fontsize" : 12.0,
					"numoutlets" : 1,
					"bgcolor" : [ 0.827451, 0.827451, 0.827451, 1.0 ],
					"outlettype" : [ "" ],
					"patching_rect" : [ 131.0, 150.0, 116.0, 18.0 ],
					"fontname" : "Arial",
					"id" : "obj-22"
				}

			}
, 			{
				"box" : 				{
					"maxclass" : "message",
					"text" : "p.lcd.select.rects",
					"numinlets" : 2,
					"fontsize" : 12.0,
					"numoutlets" : 1,
					"outlettype" : [ "" ],
					"patching_rect" : [ 131.0, 104.0, 100.0, 18.0 ],
					"fontname" : "Arial",
					"id" : "obj-12"
				}

			}
, 			{
				"box" : 				{
					"maxclass" : "message",
					"text" : "p.lcd.select.rect",
					"numinlets" : 2,
					"fontsize" : 12.0,
					"numoutlets" : 1,
					"outlettype" : [ "" ],
					"patching_rect" : [ 131.0, 81.0, 94.0, 18.0 ],
					"fontname" : "Arial",
					"id" : "obj-14"
				}

			}
, 			{
				"box" : 				{
					"maxclass" : "message",
					"text" : "p.lcd.selection.hover",
					"numinlets" : 2,
					"fontsize" : 12.0,
					"numoutlets" : 1,
					"bgcolor" : [ 0.827451, 0.827451, 0.827451, 1.0 ],
					"outlettype" : [ "" ],
					"patching_rect" : [ 131.0, 127.0, 119.0, 18.0 ],
					"fontname" : "Arial",
					"id" : "obj-15"
				}

			}
, 			{
				"box" : 				{
					"maxclass" : "comment",
					"text" : "lcd",
					"numinlets" : 1,
					"fontsize" : 14.0,
					"numoutlets" : 0,
					"patching_rect" : [ 130.0, 55.0, 55.0, 23.0 ],
					"fontname" : "Arial",
					"id" : "obj-20"
				}

			}
, 			{
				"box" : 				{
					"maxclass" : "panel",
					"numinlets" : 1,
					"numoutlets" : 0,
					"border" : 1,
					"bgcolor" : [ 1.0, 1.0, 1.0, 1.0 ],
					"patching_rect" : [ 122.0, 51.0, 137.0, 128.0 ],
					"id" : "obj-21"
				}

			}
, 			{
				"box" : 				{
					"maxclass" : "message",
					"text" : "p.envparabola~",
					"numinlets" : 2,
					"fontsize" : 12.0,
					"numoutlets" : 1,
					"outlettype" : [ "" ],
					"patching_rect" : [ 272.0, 104.0, 94.0, 18.0 ],
					"fontname" : "Arial",
					"id" : "obj-11"
				}

			}
, 			{
				"box" : 				{
					"maxclass" : "message",
					"text" : "p.chorus~",
					"numinlets" : 2,
					"fontsize" : 12.0,
					"numoutlets" : 1,
					"outlettype" : [ "" ],
					"patching_rect" : [ 272.0, 81.0, 64.0, 18.0 ],
					"fontname" : "Arial",
					"id" : "obj-8"
				}

			}
, 			{
				"box" : 				{
					"maxclass" : "message",
					"text" : "p.fade~",
					"numinlets" : 2,
					"fontsize" : 12.0,
					"numoutlets" : 1,
					"bgcolor" : [ 0.827451, 0.827451, 0.827451, 1.0 ],
					"outlettype" : [ "" ],
					"patching_rect" : [ 272.0, 127.0, 51.0, 18.0 ],
					"fontname" : "Arial",
					"id" : "obj-17"
				}

			}
, 			{
				"box" : 				{
					"maxclass" : "comment",
					"text" : "audio",
					"numinlets" : 1,
					"fontsize" : 14.0,
					"numoutlets" : 0,
					"patching_rect" : [ 271.0, 55.0, 55.0, 23.0 ],
					"fontname" : "Arial",
					"id" : "obj-18"
				}

			}
, 			{
				"box" : 				{
					"maxclass" : "panel",
					"numinlets" : 1,
					"numoutlets" : 0,
					"border" : 1,
					"bgcolor" : [ 1.0, 1.0, 1.0, 1.0 ],
					"patching_rect" : [ 263.0, 51.0, 142.0, 313.0 ],
					"id" : "obj-19"
				}

			}
, 			{
				"box" : 				{
					"maxclass" : "message",
					"text" : "help $1",
					"numinlets" : 2,
					"hidden" : 1,
					"fontsize" : 12.0,
					"numoutlets" : 1,
					"outlettype" : [ "" ],
					"patching_rect" : [ 164.0, 228.0, 50.0, 18.0 ],
					"fontname" : "Arial",
					"id" : "obj-10"
				}

			}
, 			{
				"box" : 				{
					"maxclass" : "newobj",
					"text" : "pcontrol",
					"numinlets" : 1,
					"hidden" : 1,
					"fontsize" : 12.0,
					"numoutlets" : 1,
					"outlettype" : [ "" ],
					"patching_rect" : [ 164.0, 258.0, 58.0, 20.0 ],
					"fontname" : "Arial",
					"id" : "obj-7"
				}

			}
, 			{
				"box" : 				{
					"maxclass" : "message",
					"text" : "p.gtodb",
					"numinlets" : 2,
					"fontsize" : 12.0,
					"numoutlets" : 1,
					"bgcolor" : [ 0.827451, 0.827451, 0.827451, 1.0 ],
					"outlettype" : [ "" ],
					"patching_rect" : [ 14.0, 278.0, 51.0, 18.0 ],
					"fontname" : "Arial",
					"id" : "obj-6"
				}

			}
, 			{
				"box" : 				{
					"maxclass" : "message",
					"text" : "p.folder",
					"numinlets" : 2,
					"fontsize" : 12.0,
					"numoutlets" : 1,
					"bgcolor" : [ 0.827451, 0.827451, 0.827451, 1.0 ],
					"outlettype" : [ "" ],
					"patching_rect" : [ 14.0, 203.0, 51.0, 18.0 ],
					"fontname" : "Arial",
					"id" : "obj-4"
				}

			}
, 			{
				"box" : 				{
					"maxclass" : "message",
					"text" : "p.count.f",
					"numinlets" : 2,
					"fontsize" : 12.0,
					"numoutlets" : 1,
					"bgcolor" : [ 0.827451, 0.827451, 0.827451, 1.0 ],
					"outlettype" : [ "" ],
					"patching_rect" : [ 14.0, 154.0, 57.0, 18.0 ],
					"fontname" : "Arial",
					"id" : "obj-2"
				}

			}
, 			{
				"box" : 				{
					"maxclass" : "message",
					"text" : "p.block",
					"numinlets" : 2,
					"fontsize" : 12.0,
					"numoutlets" : 1,
					"bgcolor" : [ 0.827451, 0.827451, 0.827451, 1.0 ],
					"outlettype" : [ "" ],
					"patching_rect" : [ 14.0, 81.0, 49.0, 18.0 ],
					"fontname" : "Arial",
					"id" : "obj-1"
				}

			}
, 			{
				"box" : 				{
					"maxclass" : "comment",
					"text" : "utilities",
					"numinlets" : 1,
					"fontsize" : 14.0,
					"numoutlets" : 0,
					"patching_rect" : [ 12.0, 55.0, 55.0, 23.0 ],
					"fontname" : "Arial",
					"id" : "obj-3"
				}

			}
, 			{
				"box" : 				{
					"maxclass" : "panel",
					"numinlets" : 1,
					"numoutlets" : 0,
					"border" : 1,
					"bgcolor" : [ 1.0, 1.0, 1.0, 1.0 ],
					"patching_rect" : [ 5.0, 51.0, 111.0, 493.0 ],
					"id" : "obj-13"
				}

			}
 ],
		"lines" : [ 			{
				"patchline" : 				{
					"source" : [ "obj-44", 0 ],
					"destination" : [ "obj-10", 0 ],
					"hidden" : 1,
					"midpoints" : [  ]
				}

			}
, 			{
				"patchline" : 				{
					"source" : [ "obj-45", 0 ],
					"destination" : [ "obj-10", 0 ],
					"hidden" : 1,
					"midpoints" : [  ]
				}

			}
, 			{
				"patchline" : 				{
					"source" : [ "obj-39", 0 ],
					"destination" : [ "obj-10", 0 ],
					"hidden" : 1,
					"midpoints" : [  ]
				}

			}
, 			{
				"patchline" : 				{
					"source" : [ "obj-42", 0 ],
					"destination" : [ "obj-10", 0 ],
					"hidden" : 1,
					"midpoints" : [  ]
				}

			}
, 			{
				"patchline" : 				{
					"source" : [ "obj-16", 0 ],
					"destination" : [ "obj-10", 0 ],
					"hidden" : 1,
					"midpoints" : [  ]
				}

			}
, 			{
				"patchline" : 				{
					"source" : [ "obj-5", 0 ],
					"destination" : [ "obj-10", 0 ],
					"hidden" : 1,
					"midpoints" : [  ]
				}

			}
, 			{
				"patchline" : 				{
					"source" : [ "obj-9", 0 ],
					"destination" : [ "obj-10", 0 ],
					"hidden" : 1,
					"midpoints" : [  ]
				}

			}
, 			{
				"patchline" : 				{
					"source" : [ "obj-41", 0 ],
					"destination" : [ "obj-10", 0 ],
					"hidden" : 1,
					"midpoints" : [  ]
				}

			}
, 			{
				"patchline" : 				{
					"source" : [ "obj-36", 0 ],
					"destination" : [ "obj-10", 0 ],
					"hidden" : 1,
					"midpoints" : [  ]
				}

			}
, 			{
				"patchline" : 				{
					"source" : [ "obj-33", 0 ],
					"destination" : [ "obj-10", 0 ],
					"hidden" : 1,
					"midpoints" : [  ]
				}

			}
, 			{
				"patchline" : 				{
					"source" : [ "obj-32", 0 ],
					"destination" : [ "obj-10", 0 ],
					"hidden" : 1,
					"midpoints" : [  ]
				}

			}
, 			{
				"patchline" : 				{
					"source" : [ "obj-28", 0 ],
					"destination" : [ "obj-10", 0 ],
					"hidden" : 1,
					"midpoints" : [  ]
				}

			}
, 			{
				"patchline" : 				{
					"source" : [ "obj-26", 0 ],
					"destination" : [ "obj-10", 0 ],
					"hidden" : 1,
					"midpoints" : [  ]
				}

			}
, 			{
				"patchline" : 				{
					"source" : [ "obj-24", 0 ],
					"destination" : [ "obj-10", 0 ],
					"hidden" : 1,
					"midpoints" : [  ]
				}

			}
, 			{
				"patchline" : 				{
					"source" : [ "obj-22", 0 ],
					"destination" : [ "obj-10", 0 ],
					"hidden" : 1,
					"midpoints" : [  ]
				}

			}
, 			{
				"patchline" : 				{
					"source" : [ "obj-15", 0 ],
					"destination" : [ "obj-10", 0 ],
					"hidden" : 1,
					"midpoints" : [  ]
				}

			}
, 			{
				"patchline" : 				{
					"source" : [ "obj-12", 0 ],
					"destination" : [ "obj-10", 0 ],
					"hidden" : 1,
					"midpoints" : [  ]
				}

			}
, 			{
				"patchline" : 				{
					"source" : [ "obj-14", 0 ],
					"destination" : [ "obj-10", 0 ],
					"hidden" : 1,
					"midpoints" : [  ]
				}

			}
, 			{
				"patchline" : 				{
					"source" : [ "obj-8", 0 ],
					"destination" : [ "obj-10", 0 ],
					"hidden" : 1,
					"midpoints" : [  ]
				}

			}
, 			{
				"patchline" : 				{
					"source" : [ "obj-1", 0 ],
					"destination" : [ "obj-10", 0 ],
					"hidden" : 1,
					"midpoints" : [  ]
				}

			}
, 			{
				"patchline" : 				{
					"source" : [ "obj-2", 0 ],
					"destination" : [ "obj-10", 0 ],
					"hidden" : 1,
					"midpoints" : [  ]
				}

			}
, 			{
				"patchline" : 				{
					"source" : [ "obj-4", 0 ],
					"destination" : [ "obj-10", 0 ],
					"hidden" : 1,
					"midpoints" : [  ]
				}

			}
, 			{
				"patchline" : 				{
					"source" : [ "obj-10", 0 ],
					"destination" : [ "obj-7", 0 ],
					"hidden" : 1,
					"midpoints" : [  ]
				}

			}
, 			{
				"patchline" : 				{
					"source" : [ "obj-6", 0 ],
					"destination" : [ "obj-10", 0 ],
					"hidden" : 1,
					"midpoints" : [  ]
				}

			}
, 			{
				"patchline" : 				{
					"source" : [ "obj-17", 0 ],
					"destination" : [ "obj-10", 0 ],
					"hidden" : 1,
					"midpoints" : [  ]
				}

			}
, 			{
				"patchline" : 				{
					"source" : [ "obj-11", 0 ],
					"destination" : [ "obj-10", 0 ],
					"hidden" : 1,
					"midpoints" : [  ]
				}

			}
, 			{
				"patchline" : 				{
					"source" : [ "obj-25", 0 ],
					"destination" : [ "obj-10", 0 ],
					"hidden" : 1,
					"midpoints" : [  ]
				}

			}
, 			{
				"patchline" : 				{
					"source" : [ "obj-27", 0 ],
					"destination" : [ "obj-10", 0 ],
					"hidden" : 1,
					"midpoints" : [  ]
				}

			}
, 			{
				"patchline" : 				{
					"source" : [ "obj-30", 0 ],
					"destination" : [ "obj-10", 0 ],
					"hidden" : 1,
					"midpoints" : [  ]
				}

			}
, 			{
				"patchline" : 				{
					"source" : [ "obj-29", 0 ],
					"destination" : [ "obj-10", 0 ],
					"hidden" : 1,
					"midpoints" : [  ]
				}

			}
, 			{
				"patchline" : 				{
					"source" : [ "obj-31", 0 ],
					"destination" : [ "obj-10", 0 ],
					"hidden" : 1,
					"midpoints" : [  ]
				}

			}
, 			{
				"patchline" : 				{
					"source" : [ "obj-34", 0 ],
					"destination" : [ "obj-10", 0 ],
					"hidden" : 1,
					"midpoints" : [  ]
				}

			}
, 			{
				"patchline" : 				{
					"source" : [ "obj-35", 0 ],
					"destination" : [ "obj-10", 0 ],
					"hidden" : 1,
					"midpoints" : [  ]
				}

			}
, 			{
				"patchline" : 				{
					"source" : [ "obj-37", 0 ],
					"destination" : [ "obj-10", 0 ],
					"hidden" : 1,
					"midpoints" : [  ]
				}

			}
, 			{
				"patchline" : 				{
					"source" : [ "obj-43", 0 ],
					"destination" : [ "obj-10", 0 ],
					"hidden" : 1,
					"midpoints" : [  ]
				}

			}
, 			{
				"patchline" : 				{
					"source" : [ "obj-46", 0 ],
					"destination" : [ "obj-10", 0 ],
					"hidden" : 1,
					"midpoints" : [  ]
				}

			}
 ]
	}

}
