{
	"patcher" : 	{
		"fileversion" : 1,
		"rect" : [ 632.0, 114.0, 395.0, 341.0 ],
		"bglocked" : 0,
		"defrect" : [ 632.0, 114.0, 395.0, 341.0 ],
		"openrect" : [ 0.0, 0.0, 0.0, 0.0 ],
		"openinpresentation" : 0,
		"default_fontsize" : 12.0,
		"default_fontface" : 0,
		"default_fontname" : "Arial",
		"gridonopen" : 0,
		"gridsize" : [ 15.0, 15.0 ],
		"gridsnaponopen" : 0,
		"toolbarvisible" : 1,
		"boxanimatetime" : 200,
		"imprint" : 0,
		"boxes" : [ 			{
				"box" : 				{
					"maxclass" : "message",
					"text" : "p.count",
					"outlettype" : [ "" ],
					"fontsize" : 12.0,
					"numinlets" : 2,
					"patching_rect" : [ 15.0, 264.0, 50.0, 18.0 ],
					"id" : "obj-34",
					"numoutlets" : 1,
					"fontname" : "Arial"
				}

			}
, 			{
				"box" : 				{
					"maxclass" : "message",
					"text" : "p.loadsounds",
					"outlettype" : [ "" ],
					"fontsize" : 12.0,
					"numinlets" : 2,
					"patching_rect" : [ 15.0, 240.0, 82.0, 18.0 ],
					"id" : "obj-33",
					"numoutlets" : 1,
					"fontname" : "Arial"
				}

			}
, 			{
				"box" : 				{
					"maxclass" : "message",
					"text" : "p.tapelooppitchshift~",
					"outlettype" : [ "" ],
					"fontsize" : 12.0,
					"bgcolor" : [ 0.827451, 0.827451, 0.827451, 1.0 ],
					"numinlets" : 2,
					"patching_rect" : [ 126.0, 241.0, 121.0, 18.0 ],
					"id" : "obj-32",
					"numoutlets" : 1,
					"fontname" : "Arial"
				}

			}
, 			{
				"box" : 				{
					"maxclass" : "message",
					"text" : "p.rand",
					"outlettype" : [ "" ],
					"fontsize" : 12.0,
					"numinlets" : 2,
					"patching_rect" : [ 14.0, 216.0, 45.0, 18.0 ],
					"id" : "obj-31",
					"numoutlets" : 1,
					"fontname" : "Arial"
				}

			}
, 			{
				"box" : 				{
					"maxclass" : "message",
					"text" : "p.play2~",
					"outlettype" : [ "" ],
					"fontsize" : 12.0,
					"bgcolor" : [ 0.827451, 0.827451, 0.827451, 1.0 ],
					"numinlets" : 2,
					"patching_rect" : [ 126.0, 311.0, 56.0, 18.0 ],
					"id" : "obj-30",
					"numoutlets" : 1,
					"fontname" : "Arial"
				}

			}
, 			{
				"box" : 				{
					"maxclass" : "message",
					"text" : "p.play~",
					"outlettype" : [ "" ],
					"fontsize" : 12.0,
					"bgcolor" : [ 0.827451, 0.827451, 0.827451, 1.0 ],
					"numinlets" : 2,
					"patching_rect" : [ 126.0, 288.0, 50.0, 18.0 ],
					"id" : "obj-29",
					"numoutlets" : 1,
					"fontname" : "Arial"
				}

			}
, 			{
				"box" : 				{
					"maxclass" : "message",
					"text" : "p.envparabola~",
					"outlettype" : [ "" ],
					"fontsize" : 12.0,
					"bgcolor" : [ 0.827451, 0.827451, 0.827451, 1.0 ],
					"numinlets" : 2,
					"patching_rect" : [ 126.0, 265.0, 94.0, 18.0 ],
					"id" : "obj-28",
					"numoutlets" : 1,
					"fontname" : "Arial"
				}

			}
, 			{
				"box" : 				{
					"maxclass" : "message",
					"text" : "p.block",
					"outlettype" : [ "" ],
					"fontsize" : 12.0,
					"bgcolor" : [ 0.827451, 0.827451, 0.827451, 1.0 ],
					"numinlets" : 2,
					"patching_rect" : [ 14.0, 193.0, 49.0, 18.0 ],
					"id" : "obj-27",
					"numoutlets" : 1,
					"fontname" : "Arial"
				}

			}
, 			{
				"box" : 				{
					"maxclass" : "message",
					"text" : "p.chorus~",
					"outlettype" : [ "" ],
					"fontsize" : 12.0,
					"bgcolor" : [ 0.827451, 0.827451, 0.827451, 1.0 ],
					"numinlets" : 2,
					"patching_rect" : [ 126.0, 193.0, 64.0, 18.0 ],
					"id" : "obj-26",
					"numoutlets" : 1,
					"fontname" : "Arial"
				}

			}
, 			{
				"box" : 				{
					"maxclass" : "message",
					"text" : "p.tapeloop~",
					"outlettype" : [ "" ],
					"fontsize" : 12.0,
					"bgcolor" : [ 0.827451, 0.827451, 0.827451, 1.0 ],
					"numinlets" : 2,
					"patching_rect" : [ 126.0, 217.0, 74.0, 18.0 ],
					"id" : "obj-25",
					"numoutlets" : 1,
					"fontname" : "Arial"
				}

			}
, 			{
				"box" : 				{
					"maxclass" : "message",
					"text" : "p.flanger~",
					"outlettype" : [ "" ],
					"fontsize" : 12.0,
					"bgcolor" : [ 0.827451, 0.827451, 0.827451, 1.0 ],
					"numinlets" : 2,
					"patching_rect" : [ 126.0, 170.0, 64.0, 18.0 ],
					"id" : "obj-24",
					"numoutlets" : 1,
					"fontname" : "Arial"
				}

			}
, 			{
				"box" : 				{
					"maxclass" : "message",
					"text" : "p.mix2s~",
					"outlettype" : [ "" ],
					"fontsize" : 12.0,
					"bgcolor" : [ 0.827451, 0.827451, 0.827451, 1.0 ],
					"numinlets" : 2,
					"patching_rect" : [ 126.0, 147.0, 59.0, 18.0 ],
					"id" : "obj-23",
					"numoutlets" : 1,
					"fontname" : "Arial"
				}

			}
, 			{
				"box" : 				{
					"maxclass" : "message",
					"text" : "p.lcdpaintselection",
					"outlettype" : [ "" ],
					"fontsize" : 12.0,
					"bgcolor" : [ 0.827451, 0.827451, 0.827451, 1.0 ],
					"numinlets" : 2,
					"patching_rect" : [ 270.0, 147.0, 109.0, 18.0 ],
					"id" : "obj-22",
					"numoutlets" : 1,
					"fontname" : "Arial"
				}

			}
, 			{
				"box" : 				{
					"maxclass" : "message",
					"text" : "p.lcdmultirectselect",
					"outlettype" : [ "" ],
					"fontsize" : 12.0,
					"numinlets" : 2,
					"patching_rect" : [ 270.0, 101.0, 113.0, 18.0 ],
					"id" : "obj-12",
					"numoutlets" : 1,
					"fontname" : "Arial"
				}

			}
, 			{
				"box" : 				{
					"maxclass" : "message",
					"text" : "p.lcdrectselect",
					"outlettype" : [ "" ],
					"fontsize" : 12.0,
					"numinlets" : 2,
					"patching_rect" : [ 270.0, 78.0, 87.0, 18.0 ],
					"id" : "obj-14",
					"numoutlets" : 1,
					"fontname" : "Arial"
				}

			}
, 			{
				"box" : 				{
					"maxclass" : "message",
					"text" : "p.lcdhoverselection",
					"outlettype" : [ "" ],
					"fontsize" : 12.0,
					"bgcolor" : [ 0.827451, 0.827451, 0.827451, 1.0 ],
					"numinlets" : 2,
					"patching_rect" : [ 270.0, 124.0, 113.0, 18.0 ],
					"id" : "obj-15",
					"numoutlets" : 1,
					"fontname" : "Arial"
				}

			}
, 			{
				"box" : 				{
					"maxclass" : "comment",
					"text" : "lcd",
					"fontsize" : 14.0,
					"numinlets" : 1,
					"patching_rect" : [ 269.0, 52.0, 55.0, 23.0 ],
					"id" : "obj-20",
					"numoutlets" : 0,
					"fontname" : "Arial"
				}

			}
, 			{
				"box" : 				{
					"maxclass" : "panel",
					"border" : 1,
					"bgcolor" : [ 1.0, 1.0, 1.0, 1.0 ],
					"numinlets" : 1,
					"patching_rect" : [ 261.0, 48.0, 129.0, 287.0 ],
					"id" : "obj-21",
					"numoutlets" : 0
				}

			}
, 			{
				"box" : 				{
					"maxclass" : "message",
					"text" : "p.gizmopitchshift~",
					"outlettype" : [ "" ],
					"fontsize" : 12.0,
					"numinlets" : 2,
					"patching_rect" : [ 126.0, 101.0, 112.0, 18.0 ],
					"id" : "obj-11",
					"numoutlets" : 1,
					"fontname" : "Arial"
				}

			}
, 			{
				"box" : 				{
					"maxclass" : "message",
					"text" : "p.dopplerpitchshift~",
					"outlettype" : [ "" ],
					"fontsize" : 12.0,
					"numinlets" : 2,
					"patching_rect" : [ 126.0, 78.0, 115.0, 18.0 ],
					"id" : "obj-8",
					"numoutlets" : 1,
					"fontname" : "Arial"
				}

			}
, 			{
				"box" : 				{
					"maxclass" : "message",
					"text" : "p.playwave~",
					"outlettype" : [ "" ],
					"fontsize" : 12.0,
					"bgcolor" : [ 0.827451, 0.827451, 0.827451, 1.0 ],
					"numinlets" : 2,
					"patching_rect" : [ 126.0, 124.0, 78.0, 18.0 ],
					"id" : "obj-17",
					"numoutlets" : 1,
					"fontname" : "Arial"
				}

			}
, 			{
				"box" : 				{
					"maxclass" : "comment",
					"text" : "audio",
					"fontsize" : 14.0,
					"numinlets" : 1,
					"patching_rect" : [ 125.0, 52.0, 55.0, 23.0 ],
					"id" : "obj-18",
					"numoutlets" : 0,
					"fontname" : "Arial"
				}

			}
, 			{
				"box" : 				{
					"maxclass" : "panel",
					"border" : 1,
					"bgcolor" : [ 1.0, 1.0, 1.0, 1.0 ],
					"numinlets" : 1,
					"patching_rect" : [ 117.0, 48.0, 136.0, 287.0 ],
					"id" : "obj-19",
					"numoutlets" : 0
				}

			}
, 			{
				"box" : 				{
					"maxclass" : "message",
					"text" : "help $1",
					"outlettype" : [ "" ],
					"hidden" : 1,
					"fontsize" : 12.0,
					"numinlets" : 2,
					"patching_rect" : [ 44.0, 352.0, 50.0, 18.0 ],
					"id" : "obj-10",
					"numoutlets" : 1,
					"fontname" : "Arial"
				}

			}
, 			{
				"box" : 				{
					"maxclass" : "newobj",
					"text" : "pcontrol",
					"outlettype" : [ "" ],
					"hidden" : 1,
					"fontsize" : 12.0,
					"numinlets" : 1,
					"patching_rect" : [ 44.0, 375.0, 56.0, 20.0 ],
					"id" : "obj-7",
					"numoutlets" : 1,
					"fontname" : "Arial"
				}

			}
, 			{
				"box" : 				{
					"maxclass" : "message",
					"text" : "p.lowhi",
					"outlettype" : [ "" ],
					"fontsize" : 12.0,
					"bgcolor" : [ 0.827451, 0.827451, 0.827451, 1.0 ],
					"numinlets" : 2,
					"patching_rect" : [ 14.0, 170.0, 48.0, 18.0 ],
					"id" : "obj-6",
					"numoutlets" : 1,
					"fontname" : "Arial"
				}

			}
, 			{
				"box" : 				{
					"maxclass" : "message",
					"text" : "p.iskeydown",
					"outlettype" : [ "" ],
					"fontsize" : 12.0,
					"bgcolor" : [ 0.827451, 0.827451, 0.827451, 1.0 ],
					"numinlets" : 2,
					"patching_rect" : [ 14.0, 147.0, 77.0, 18.0 ],
					"id" : "obj-5",
					"numoutlets" : 1,
					"fontname" : "Arial"
				}

			}
, 			{
				"box" : 				{
					"maxclass" : "message",
					"text" : "p.iscoordinbox",
					"outlettype" : [ "" ],
					"fontsize" : 12.0,
					"bgcolor" : [ 0.827451, 0.827451, 0.827451, 1.0 ],
					"numinlets" : 2,
					"patching_rect" : [ 14.0, 124.0, 88.0, 18.0 ],
					"id" : "obj-4",
					"numoutlets" : 1,
					"fontname" : "Arial"
				}

			}
, 			{
				"box" : 				{
					"maxclass" : "message",
					"text" : "p.gtodb",
					"outlettype" : [ "" ],
					"fontsize" : 12.0,
					"bgcolor" : [ 0.827451, 0.827451, 0.827451, 1.0 ],
					"numinlets" : 2,
					"patching_rect" : [ 14.0, 101.0, 51.0, 18.0 ],
					"id" : "obj-2",
					"numoutlets" : 1,
					"fontname" : "Arial"
				}

			}
, 			{
				"box" : 				{
					"maxclass" : "message",
					"text" : "p.alter",
					"outlettype" : [ "" ],
					"fontsize" : 12.0,
					"bgcolor" : [ 0.827451, 0.827451, 0.827451, 1.0 ],
					"numinlets" : 2,
					"patching_rect" : [ 14.0, 78.0, 44.0, 18.0 ],
					"id" : "obj-1",
					"numoutlets" : 1,
					"fontname" : "Arial"
				}

			}
, 			{
				"box" : 				{
					"maxclass" : "comment",
					"text" : "utilities",
					"fontsize" : 14.0,
					"numinlets" : 1,
					"patching_rect" : [ 13.0, 52.0, 55.0, 23.0 ],
					"id" : "obj-3",
					"numoutlets" : 0,
					"fontname" : "Arial"
				}

			}
, 			{
				"box" : 				{
					"maxclass" : "comment",
					"varname" : "autohelp_top_title",
					"text" : "p.objects guide",
					"fontface" : 3,
					"frgb" : [ 0.93, 0.93, 0.97, 1.0 ],
					"fontsize" : 20.871338,
					"bgcolor" : [ 0.67451, 0.396078, 0.396078, 0.0 ],
					"numinlets" : 1,
					"textcolor" : [ 0.93, 0.93, 0.97, 1.0 ],
					"patching_rect" : [ 8.0, 9.0, 201.0, 30.0 ],
					"id" : "obj-9",
					"numoutlets" : 0,
					"fontname" : "Arial"
				}

			}
, 			{
				"box" : 				{
					"maxclass" : "panel",
					"border" : 1,
					"bgcolor" : [ 1.0, 1.0, 1.0, 1.0 ],
					"numinlets" : 1,
					"patching_rect" : [ 5.0, 48.0, 104.0, 287.0 ],
					"id" : "obj-13",
					"numoutlets" : 0
				}

			}
, 			{
				"box" : 				{
					"maxclass" : "panel",
					"varname" : "autohelp_top_panel",
					"grad1" : [ 0.27, 0.35, 0.47, 1.0 ],
					"mode" : 1,
					"grad2" : [ 0.85, 0.85, 0.85, 1.0 ],
					"numinlets" : 1,
					"background" : 1,
					"patching_rect" : [ 5.0, 5.0, 386.0, 37.0 ],
					"id" : "obj-16",
					"numoutlets" : 0
				}

			}
 ],
		"lines" : [ 			{
				"patchline" : 				{
					"source" : [ "obj-34", 0 ],
					"destination" : [ "obj-10", 0 ],
					"hidden" : 1,
					"midpoints" : [  ]
				}

			}
, 			{
				"patchline" : 				{
					"source" : [ "obj-31", 0 ],
					"destination" : [ "obj-10", 0 ],
					"hidden" : 1,
					"midpoints" : [  ]
				}

			}
, 			{
				"patchline" : 				{
					"source" : [ "obj-29", 0 ],
					"destination" : [ "obj-10", 0 ],
					"hidden" : 1,
					"midpoints" : [  ]
				}

			}
, 			{
				"patchline" : 				{
					"source" : [ "obj-30", 0 ],
					"destination" : [ "obj-10", 0 ],
					"hidden" : 1,
					"midpoints" : [  ]
				}

			}
, 			{
				"patchline" : 				{
					"source" : [ "obj-27", 0 ],
					"destination" : [ "obj-10", 0 ],
					"hidden" : 1,
					"midpoints" : [  ]
				}

			}
, 			{
				"patchline" : 				{
					"source" : [ "obj-25", 0 ],
					"destination" : [ "obj-10", 0 ],
					"hidden" : 1,
					"midpoints" : [  ]
				}

			}
, 			{
				"patchline" : 				{
					"source" : [ "obj-23", 0 ],
					"destination" : [ "obj-10", 0 ],
					"hidden" : 1,
					"midpoints" : [  ]
				}

			}
, 			{
				"patchline" : 				{
					"source" : [ "obj-11", 0 ],
					"destination" : [ "obj-10", 0 ],
					"hidden" : 1,
					"midpoints" : [  ]
				}

			}
, 			{
				"patchline" : 				{
					"source" : [ "obj-17", 0 ],
					"destination" : [ "obj-10", 0 ],
					"hidden" : 1,
					"midpoints" : [  ]
				}

			}
, 			{
				"patchline" : 				{
					"source" : [ "obj-6", 0 ],
					"destination" : [ "obj-10", 0 ],
					"hidden" : 1,
					"midpoints" : [  ]
				}

			}
, 			{
				"patchline" : 				{
					"source" : [ "obj-10", 0 ],
					"destination" : [ "obj-7", 0 ],
					"hidden" : 1,
					"midpoints" : [  ]
				}

			}
, 			{
				"patchline" : 				{
					"source" : [ "obj-5", 0 ],
					"destination" : [ "obj-10", 0 ],
					"hidden" : 1,
					"midpoints" : [  ]
				}

			}
, 			{
				"patchline" : 				{
					"source" : [ "obj-4", 0 ],
					"destination" : [ "obj-10", 0 ],
					"hidden" : 1,
					"midpoints" : [  ]
				}

			}
, 			{
				"patchline" : 				{
					"source" : [ "obj-2", 0 ],
					"destination" : [ "obj-10", 0 ],
					"hidden" : 1,
					"midpoints" : [  ]
				}

			}
, 			{
				"patchline" : 				{
					"source" : [ "obj-1", 0 ],
					"destination" : [ "obj-10", 0 ],
					"hidden" : 1,
					"midpoints" : [  ]
				}

			}
, 			{
				"patchline" : 				{
					"source" : [ "obj-8", 0 ],
					"destination" : [ "obj-10", 0 ],
					"hidden" : 1,
					"midpoints" : [  ]
				}

			}
, 			{
				"patchline" : 				{
					"source" : [ "obj-14", 0 ],
					"destination" : [ "obj-10", 0 ],
					"hidden" : 1,
					"midpoints" : [  ]
				}

			}
, 			{
				"patchline" : 				{
					"source" : [ "obj-12", 0 ],
					"destination" : [ "obj-10", 0 ],
					"hidden" : 1,
					"midpoints" : [  ]
				}

			}
, 			{
				"patchline" : 				{
					"source" : [ "obj-15", 0 ],
					"destination" : [ "obj-10", 0 ],
					"hidden" : 1,
					"midpoints" : [  ]
				}

			}
, 			{
				"patchline" : 				{
					"source" : [ "obj-22", 0 ],
					"destination" : [ "obj-10", 0 ],
					"hidden" : 1,
					"midpoints" : [  ]
				}

			}
, 			{
				"patchline" : 				{
					"source" : [ "obj-24", 0 ],
					"destination" : [ "obj-10", 0 ],
					"hidden" : 1,
					"midpoints" : [  ]
				}

			}
, 			{
				"patchline" : 				{
					"source" : [ "obj-26", 0 ],
					"destination" : [ "obj-10", 0 ],
					"hidden" : 1,
					"midpoints" : [  ]
				}

			}
, 			{
				"patchline" : 				{
					"source" : [ "obj-28", 0 ],
					"destination" : [ "obj-10", 0 ],
					"hidden" : 1,
					"midpoints" : [  ]
				}

			}
, 			{
				"patchline" : 				{
					"source" : [ "obj-32", 0 ],
					"destination" : [ "obj-10", 0 ],
					"hidden" : 1,
					"midpoints" : [  ]
				}

			}
, 			{
				"patchline" : 				{
					"source" : [ "obj-33", 0 ],
					"destination" : [ "obj-10", 0 ],
					"hidden" : 1,
					"midpoints" : [  ]
				}

			}
 ]
	}

}
