{
	"patcher" : 	{
		"fileversion" : 1,
		"rect" : [ 178.0, 50.0, 559.0, 400.0 ],
		"bglocked" : 0,
		"defrect" : [ 178.0, 50.0, 559.0, 400.0 ],
		"openrect" : [ 0.0, 0.0, 0.0, 0.0 ],
		"openinpresentation" : 0,
		"default_fontsize" : 12.0,
		"default_fontface" : 0,
		"default_fontname" : "Arial",
		"gridonopen" : 0,
		"gridsize" : [ 15.0, 15.0 ],
		"gridsnaponopen" : 0,
		"toolbarvisible" : 1,
		"boxanimatetime" : 200,
		"imprint" : 0,
		"boxes" : [ 			{
				"box" : 				{
					"maxclass" : "comment",
					"text" : "lcd.multirectselect must use the same namespace.",
					"linecount" : 2,
					"fontsize" : 11.0,
					"id" : "obj-26",
					"numinlets" : 1,
					"numoutlets" : 0,
					"patching_rect" : [ 271.0, 359.0, 155.0, 32.0 ],
					"fontname" : "Arial"
				}

			}
, 			{
				"box" : 				{
					"maxclass" : "comment",
					"varname" : "autohelp_top_title[1]",
					"text" : "p.lcd.hoverselection",
					"fontface" : 3,
					"fontsize" : 20.899994,
					"id" : "obj-6",
					"numinlets" : 1,
					"numoutlets" : 0,
					"patching_rect" : [ 8.0, 4.0, 398.0, 31.0 ],
					"fontname" : "Arial"
				}

			}
, 			{
				"box" : 				{
					"maxclass" : "comment",
					"varname" : "autohelp_top_digest[1]",
					"text" : "Reports if a rectangular selection has been hovered.",
					"fontsize" : 12.754705,
					"id" : "obj-23",
					"numinlets" : 1,
					"numoutlets" : 0,
					"patching_rect" : [ 8.0, 33.0, 548.0, 21.0 ],
					"fontname" : "Arial"
				}

			}
, 			{
				"box" : 				{
					"maxclass" : "panel",
					"id" : "obj-24",
					"numinlets" : 1,
					"numoutlets" : 0,
					"patching_rect" : [ 0.0, 0.0, 559.0, 60.0 ],
					"rounded" : 0
				}

			}
, 			{
				"box" : 				{
					"maxclass" : "button",
					"id" : "obj-15",
					"numinlets" : 1,
					"hidden" : 1,
					"numoutlets" : 1,
					"patching_rect" : [ 423.0, 278.0, 20.0, 20.0 ],
					"outlettype" : [ "bang" ]
				}

			}
, 			{
				"box" : 				{
					"maxclass" : "newobj",
					"text" : "pcontrol",
					"fontsize" : 12.0,
					"id" : "obj-22",
					"numinlets" : 1,
					"hidden" : 1,
					"numoutlets" : 1,
					"patching_rect" : [ 423.0, 328.0, 53.0, 20.0 ],
					"outlettype" : [ "" ],
					"fontname" : "Arial"
				}

			}
, 			{
				"box" : 				{
					"maxclass" : "message",
					"text" : "help p.objects-guide",
					"fontsize" : 12.0,
					"id" : "obj-29",
					"numinlets" : 2,
					"hidden" : 1,
					"numoutlets" : 1,
					"patching_rect" : [ 423.0, 306.0, 118.0, 18.0 ],
					"outlettype" : [ "" ],
					"fontname" : "Arial"
				}

			}
, 			{
				"box" : 				{
					"maxclass" : "message",
					"text" : "p.objects guide",
					"fontsize" : 12.0,
					"id" : "obj-30",
					"numinlets" : 2,
					"numoutlets" : 1,
					"patching_rect" : [ 451.0, 367.0, 92.0, 18.0 ],
					"outlettype" : [ "" ],
					"fontname" : "Arial"
				}

			}
, 			{
				"box" : 				{
					"maxclass" : "comment",
					"text" : "The selection indexes are in order of latest selection to the oldest.",
					"linecount" : 3,
					"fontsize" : 11.0,
					"id" : "obj-21",
					"numinlets" : 1,
					"numoutlets" : 0,
					"patching_rect" : [ 230.0, 147.0, 150.0, 44.0 ],
					"fontname" : "Arial"
				}

			}
, 			{
				"box" : 				{
					"maxclass" : "message",
					"text" : "clear",
					"fontsize" : 12.0,
					"id" : "obj-20",
					"numinlets" : 2,
					"numoutlets" : 1,
					"patching_rect" : [ 41.0, 304.0, 37.0, 18.0 ],
					"outlettype" : [ "" ],
					"fontname" : "Arial"
				}

			}
, 			{
				"box" : 				{
					"maxclass" : "comment",
					"text" : "args\n1) namespace (required)",
					"linecount" : 2,
					"fontsize" : 11.0,
					"id" : "obj-35",
					"numinlets" : 1,
					"numoutlets" : 0,
					"patching_rect" : [ 249.0, 293.0, 148.0, 32.0 ],
					"fontname" : "Arial"
				}

			}
, 			{
				"box" : 				{
					"maxclass" : "comment",
					"text" : "inspect selection data",
					"fontsize" : 11.0,
					"id" : "obj-12",
					"numinlets" : 1,
					"numoutlets" : 0,
					"patching_rect" : [ 274.0, 199.0, 119.0, 19.0 ],
					"fontname" : "Arial"
				}

			}
, 			{
				"box" : 				{
					"maxclass" : "message",
					"text" : "open",
					"fontsize" : 12.0,
					"id" : "obj-13",
					"numinlets" : 2,
					"numoutlets" : 1,
					"patching_rect" : [ 232.0, 201.0, 37.0, 18.0 ],
					"outlettype" : [ "" ],
					"fontname" : "Arial"
				}

			}
, 			{
				"box" : 				{
					"maxclass" : "newobj",
					"text" : "coll myname",
					"fontsize" : 12.0,
					"id" : "obj-19",
					"numinlets" : 1,
					"numoutlets" : 4,
					"patching_rect" : [ 232.0, 225.0, 78.0, 20.0 ],
					"outlettype" : [ "", "", "", "" ],
					"fontname" : "Arial",
					"saved_object_attributes" : 					{
						"embed" : 0
					}

				}

			}
, 			{
				"box" : 				{
					"maxclass" : "button",
					"id" : "obj-10",
					"numinlets" : 1,
					"numoutlets" : 1,
					"patching_rect" : [ 58.0, 334.0, 20.0, 20.0 ],
					"outlettype" : [ "bang" ]
				}

			}
, 			{
				"box" : 				{
					"maxclass" : "number",
					"fontsize" : 12.0,
					"id" : "obj-7",
					"numinlets" : 1,
					"numoutlets" : 2,
					"patching_rect" : [ 82.0, 334.0, 50.0, 20.0 ],
					"outlettype" : [ "int", "bang" ],
					"fontname" : "Arial"
				}

			}
, 			{
				"box" : 				{
					"maxclass" : "newobj",
					"text" : "loadbang",
					"fontsize" : 12.0,
					"id" : "obj-4",
					"numinlets" : 1,
					"numoutlets" : 1,
					"patching_rect" : [ 27.0, 96.0, 60.0, 20.0 ],
					"outlettype" : [ "bang" ],
					"fontname" : "Arial"
				}

			}
, 			{
				"box" : 				{
					"maxclass" : "comment",
					"text" : "idle mode must be on",
					"fontsize" : 11.0,
					"id" : "obj-5",
					"numinlets" : 1,
					"numoutlets" : 0,
					"patching_rect" : [ 70.0, 121.0, 122.0, 19.0 ],
					"fontname" : "Arial"
				}

			}
, 			{
				"box" : 				{
					"maxclass" : "message",
					"text" : "idle 1",
					"fontsize" : 12.0,
					"id" : "obj-3",
					"numinlets" : 2,
					"numoutlets" : 1,
					"patching_rect" : [ 27.0, 121.0, 39.0, 18.0 ],
					"outlettype" : [ "" ],
					"fontname" : "Arial"
				}

			}
, 			{
				"box" : 				{
					"maxclass" : "comment",
					"text" : "0 if nothing, else selection coll index",
					"fontsize" : 11.0,
					"id" : "obj-8",
					"numinlets" : 1,
					"numoutlets" : 0,
					"patching_rect" : [ 150.0, 334.0, 201.0, 19.0 ],
					"fontname" : "Arial"
				}

			}
, 			{
				"box" : 				{
					"maxclass" : "newobj",
					"text" : "p.lcd.hoverselection myname",
					"fontsize" : 12.0,
					"id" : "obj-2",
					"numinlets" : 1,
					"numoutlets" : 1,
					"patching_rect" : [ 82.0, 303.0, 166.0, 20.0 ],
					"outlettype" : [ "" ],
					"fontname" : "Arial"
				}

			}
, 			{
				"box" : 				{
					"maxclass" : "comment",
					"text" : "This object is used in tandem with p.lcd.multirectselect.",
					"fontsize" : 11.0,
					"id" : "obj-14",
					"numinlets" : 1,
					"numoutlets" : 0,
					"patching_rect" : [ 9.0, 68.0, 286.0, 19.0 ],
					"fontname" : "Arial"
				}

			}
, 			{
				"box" : 				{
					"maxclass" : "lcd",
					"id" : "obj-1",
					"numinlets" : 1,
					"numoutlets" : 4,
					"patching_rect" : [ 27.0, 150.0, 185.0, 142.0 ],
					"outlettype" : [ "list", "list", "int", "" ],
					"idle" : 1
				}

			}
, 			{
				"box" : 				{
					"maxclass" : "newobj",
					"text" : "p.lcd.multirectselect myname",
					"fontsize" : 12.0,
					"id" : "obj-17",
					"numinlets" : 3,
					"numoutlets" : 1,
					"patching_rect" : [ 26.0, 362.0, 242.0, 20.0 ],
					"outlettype" : [ "" ],
					"fontname" : "Arial"
				}

			}
, 			{
				"box" : 				{
					"maxclass" : "comment",
					"text" : "dependencies ",
					"fontsize" : 11.0,
					"id" : "obj-9",
					"numinlets" : 1,
					"numoutlets" : 0,
					"patching_rect" : [ 454.0, 65.0, 80.0, 19.0 ],
					"fontname" : "Arial"
				}

			}
, 			{
				"box" : 				{
					"maxclass" : "comment",
					"text" : "p.iscoordinbox",
					"fontsize" : 11.0,
					"id" : "obj-11",
					"numinlets" : 1,
					"numoutlets" : 0,
					"patching_rect" : [ 453.0, 86.0, 79.0, 19.0 ],
					"fontname" : "Arial"
				}

			}
, 			{
				"box" : 				{
					"maxclass" : "panel",
					"id" : "obj-37",
					"numinlets" : 1,
					"bgcolor" : [ 0.901961, 0.901961, 0.901961, 1.0 ],
					"numoutlets" : 0,
					"patching_rect" : [ 447.0, 38.0, 90.0, 74.0 ],
					"rounded" : 20
				}

			}
 ],
		"lines" : [ 			{
				"patchline" : 				{
					"source" : [ "obj-4", 0 ],
					"destination" : [ "obj-3", 0 ],
					"hidden" : 0,
					"midpoints" : [  ]
				}

			}
, 			{
				"patchline" : 				{
					"source" : [ "obj-3", 0 ],
					"destination" : [ "obj-1", 0 ],
					"hidden" : 0,
					"midpoints" : [  ]
				}

			}
, 			{
				"patchline" : 				{
					"source" : [ "obj-13", 0 ],
					"destination" : [ "obj-19", 0 ],
					"hidden" : 0,
					"midpoints" : [  ]
				}

			}
, 			{
				"patchline" : 				{
					"source" : [ "obj-30", 0 ],
					"destination" : [ "obj-15", 0 ],
					"hidden" : 1,
					"midpoints" : [  ]
				}

			}
, 			{
				"patchline" : 				{
					"source" : [ "obj-15", 0 ],
					"destination" : [ "obj-29", 0 ],
					"hidden" : 1,
					"midpoints" : [  ]
				}

			}
, 			{
				"patchline" : 				{
					"source" : [ "obj-29", 0 ],
					"destination" : [ "obj-22", 0 ],
					"hidden" : 1,
					"midpoints" : [  ]
				}

			}
, 			{
				"patchline" : 				{
					"source" : [ "obj-1", 1 ],
					"destination" : [ "obj-2", 0 ],
					"hidden" : 0,
					"midpoints" : [  ]
				}

			}
, 			{
				"patchline" : 				{
					"source" : [ "obj-2", 0 ],
					"destination" : [ "obj-7", 0 ],
					"hidden" : 0,
					"midpoints" : [  ]
				}

			}
, 			{
				"patchline" : 				{
					"source" : [ "obj-2", 0 ],
					"destination" : [ "obj-10", 0 ],
					"hidden" : 0,
					"midpoints" : [ 91.5, 327.0, 67.5, 327.0 ]
				}

			}
, 			{
				"patchline" : 				{
					"source" : [ "obj-20", 0 ],
					"destination" : [ "obj-17", 0 ],
					"hidden" : 0,
					"midpoints" : [  ]
				}

			}
, 			{
				"patchline" : 				{
					"source" : [ "obj-1", 2 ],
					"destination" : [ "obj-17", 1 ],
					"hidden" : 0,
					"midpoints" : [  ]
				}

			}
, 			{
				"patchline" : 				{
					"source" : [ "obj-1", 0 ],
					"destination" : [ "obj-17", 0 ],
					"hidden" : 0,
					"midpoints" : [  ]
				}

			}
, 			{
				"patchline" : 				{
					"source" : [ "obj-17", 0 ],
					"destination" : [ "obj-1", 0 ],
					"hidden" : 0,
					"midpoints" : [ 35.5, 387.0, 15.5, 387.0, 15.5, 145.0, 36.5, 145.0 ]
				}

			}
 ]
	}

}
