{
	"patcher" : 	{
		"fileversion" : 1,
		"rect" : [ 644.0, 152.0, 561.0, 299.0 ],
		"bglocked" : 0,
		"defrect" : [ 644.0, 152.0, 561.0, 299.0 ],
		"openrect" : [ 0.0, 0.0, 0.0, 0.0 ],
		"openinpresentation" : 0,
		"default_fontsize" : 12.0,
		"default_fontface" : 0,
		"default_fontname" : "Arial",
		"gridonopen" : 0,
		"gridsize" : [ 15.0, 15.0 ],
		"gridsnaponopen" : 0,
		"toolbarvisible" : 1,
		"boxanimatetime" : 200,
		"imprint" : 0,
		"boxes" : [ 			{
				"box" : 				{
					"maxclass" : "button",
					"outlettype" : [ "bang" ],
					"hidden" : 1,
					"patching_rect" : [ 423.0, 194.0, 20.0, 20.0 ],
					"numinlets" : 1,
					"id" : "obj-15",
					"numoutlets" : 1
				}

			}
, 			{
				"box" : 				{
					"maxclass" : "newobj",
					"text" : "pcontrol",
					"outlettype" : [ "" ],
					"fontname" : "Arial",
					"hidden" : 1,
					"patching_rect" : [ 423.0, 242.0, 53.0, 20.0 ],
					"fontsize" : 12.0,
					"numinlets" : 1,
					"id" : "obj-19",
					"numoutlets" : 1
				}

			}
, 			{
				"box" : 				{
					"maxclass" : "message",
					"text" : "help p.objects-guide",
					"outlettype" : [ "" ],
					"fontname" : "Arial",
					"hidden" : 1,
					"patching_rect" : [ 423.0, 220.0, 118.0, 18.0 ],
					"fontsize" : 12.0,
					"numinlets" : 2,
					"id" : "obj-29",
					"numoutlets" : 1
				}

			}
, 			{
				"box" : 				{
					"maxclass" : "message",
					"text" : "p.objects guide",
					"outlettype" : [ "" ],
					"fontname" : "Arial",
					"patching_rect" : [ 457.0, 270.0, 92.0, 18.0 ],
					"fontsize" : 12.0,
					"numinlets" : 2,
					"id" : "obj-30",
					"numoutlets" : 1
				}

			}
, 			{
				"box" : 				{
					"maxclass" : "comment",
					"text" : "args:\n - 1) nametag (required)\n - 2) R B G (optional)",
					"linecount" : 3,
					"fontname" : "Arial",
					"patching_rect" : [ 192.0, 247.0, 149.0, 48.0 ],
					"fontsize" : 12.0,
					"numinlets" : 1,
					"id" : "obj-35",
					"numoutlets" : 0
				}

			}
, 			{
				"box" : 				{
					"maxclass" : "comment",
					"text" : "see selection data",
					"fontname" : "Arial",
					"patching_rect" : [ 423.0, 116.0, 109.0, 20.0 ],
					"fontsize" : 12.0,
					"numinlets" : 1,
					"id" : "obj-8",
					"numoutlets" : 0
				}

			}
, 			{
				"box" : 				{
					"maxclass" : "message",
					"text" : "clear",
					"outlettype" : [ "" ],
					"fontname" : "Arial",
					"patching_rect" : [ 10.0, 181.0, 37.0, 18.0 ],
					"fontsize" : 12.0,
					"numinlets" : 2,
					"id" : "obj-5",
					"numoutlets" : 1
				}

			}
, 			{
				"box" : 				{
					"maxclass" : "message",
					"text" : "open",
					"outlettype" : [ "" ],
					"fontname" : "Arial",
					"patching_rect" : [ 381.0, 118.0, 37.0, 18.0 ],
					"fontsize" : 12.0,
					"numinlets" : 2,
					"id" : "obj-4",
					"numoutlets" : 1
				}

			}
, 			{
				"box" : 				{
					"maxclass" : "newobj",
					"text" : "coll myname",
					"outlettype" : [ "", "", "", "" ],
					"fontname" : "Arial",
					"patching_rect" : [ 381.0, 142.0, 78.0, 20.0 ],
					"fontsize" : 12.0,
					"numinlets" : 1,
					"id" : "obj-3",
					"numoutlets" : 4,
					"saved_object_attributes" : 					{
						"embed" : 0
					}

				}

			}
, 			{
				"box" : 				{
					"maxclass" : "comment",
					"text" : "dependencies: p.lcdrectselect",
					"fontname" : "Arial",
					"patching_rect" : [ 384.0, 62.0, 172.0, 20.0 ],
					"fontsize" : 12.0,
					"numinlets" : 1,
					"id" : "obj-18",
					"numoutlets" : 0
				}

			}
, 			{
				"box" : 				{
					"maxclass" : "comment",
					"text" : "Click the mouse, drag it, then release it on the lcd object to create a selection area.",
					"linecount" : 4,
					"fontname" : "Arial",
					"patching_rect" : [ 216.0, 71.0, 150.0, 62.0 ],
					"fontsize" : 12.0,
					"numinlets" : 1,
					"id" : "obj-14",
					"numoutlets" : 0
				}

			}
, 			{
				"box" : 				{
					"maxclass" : "newobj",
					"text" : "print lcdrectselect",
					"fontname" : "Arial",
					"patching_rect" : [ 72.0, 256.0, 104.0, 20.0 ],
					"fontsize" : 12.0,
					"numinlets" : 1,
					"id" : "obj-6",
					"numoutlets" : 0
				}

			}
, 			{
				"box" : 				{
					"maxclass" : "comment",
					"text" : "B",
					"fontname" : "Arial",
					"patching_rect" : [ 307.0, 144.0, 23.0, 20.0 ],
					"fontsize" : 12.0,
					"numinlets" : 1,
					"id" : "obj-2",
					"numoutlets" : 0
				}

			}
, 			{
				"box" : 				{
					"maxclass" : "comment",
					"text" : "G",
					"fontname" : "Arial",
					"patching_rect" : [ 265.0, 144.0, 21.0, 20.0 ],
					"fontsize" : 12.0,
					"numinlets" : 1,
					"id" : "obj-7",
					"numoutlets" : 0
				}

			}
, 			{
				"box" : 				{
					"maxclass" : "comment",
					"text" : "R",
					"fontname" : "Arial",
					"patching_rect" : [ 219.0, 144.0, 20.0, 20.0 ],
					"fontsize" : 12.0,
					"numinlets" : 1,
					"id" : "obj-10",
					"numoutlets" : 0
				}

			}
, 			{
				"box" : 				{
					"maxclass" : "number",
					"outlettype" : [ "int", "bang" ],
					"fontname" : "Arial",
					"minimum" : 0,
					"patching_rect" : [ 309.0, 168.0, 40.0, 20.0 ],
					"fontsize" : 12.0,
					"maximum" : 255,
					"numinlets" : 1,
					"id" : "obj-20",
					"numoutlets" : 2
				}

			}
, 			{
				"box" : 				{
					"maxclass" : "number",
					"outlettype" : [ "int", "bang" ],
					"fontname" : "Arial",
					"minimum" : 0,
					"patching_rect" : [ 264.0, 168.0, 40.0, 20.0 ],
					"fontsize" : 12.0,
					"maximum" : 255,
					"numinlets" : 1,
					"id" : "obj-21",
					"numoutlets" : 2
				}

			}
, 			{
				"box" : 				{
					"maxclass" : "number",
					"outlettype" : [ "int", "bang" ],
					"fontname" : "Arial",
					"minimum" : 0,
					"patching_rect" : [ 218.0, 168.0, 40.0, 20.0 ],
					"fontsize" : 12.0,
					"maximum" : 255,
					"numinlets" : 1,
					"id" : "obj-22",
					"numoutlets" : 2
				}

			}
, 			{
				"box" : 				{
					"maxclass" : "newobj",
					"text" : "pack 0 0 0",
					"outlettype" : [ "" ],
					"fontname" : "Arial",
					"patching_rect" : [ 218.0, 194.0, 110.0, 20.0 ],
					"fontsize" : 12.0,
					"numinlets" : 3,
					"id" : "obj-24",
					"numoutlets" : 1
				}

			}
, 			{
				"box" : 				{
					"maxclass" : "lcd",
					"outlettype" : [ "list", "list", "int", "" ],
					"patching_rect" : [ 72.0, 83.0, 136.0, 135.0 ],
					"numinlets" : 1,
					"id" : "obj-1",
					"numoutlets" : 4
				}

			}
, 			{
				"box" : 				{
					"maxclass" : "newobj",
					"text" : "p.lcdmultirectselect myname 10 20 50",
					"outlettype" : [ "" ],
					"fontname" : "Arial",
					"patching_rect" : [ 72.0, 226.0, 212.0, 20.0 ],
					"fontsize" : 12.0,
					"numinlets" : 3,
					"id" : "obj-17",
					"numoutlets" : 1
				}

			}
, 			{
				"box" : 				{
					"maxclass" : "comment",
					"varname" : "autohelp_top_title",
					"text" : "p.lcdmultirectselect",
					"fontname" : "Arial",
					"frgb" : [ 0.93, 0.93, 0.97, 1.0 ],
					"textcolor" : [ 0.93, 0.93, 0.97, 1.0 ],
					"patching_rect" : [ 8.0, 9.0, 243.0, 30.0 ],
					"fontface" : 3,
					"fontsize" : 20.871338,
					"numinlets" : 1,
					"id" : "obj-9",
					"numoutlets" : 0
				}

			}
, 			{
				"box" : 				{
					"maxclass" : "comment",
					"varname" : "autohelp_top_digest",
					"text" : "Selects many rectangular areas in a lcd object.",
					"fontname" : "Arial",
					"frgb" : [ 0.93, 0.93, 0.97, 1.0 ],
					"textcolor" : [ 0.93, 0.93, 0.97, 1.0 ],
					"patching_rect" : [ 7.0, 36.0, 288.0, 21.0 ],
					"fontsize" : 12.754705,
					"numinlets" : 1,
					"id" : "obj-11",
					"numoutlets" : 0
				}

			}
, 			{
				"box" : 				{
					"maxclass" : "panel",
					"varname" : "autohelp_top_panel",
					"mode" : 1,
					"patching_rect" : [ 4.0, 5.0, 552.0, 53.0 ],
					"numinlets" : 1,
					"id" : "obj-16",
					"background" : 1,
					"grad1" : [ 0.27, 0.35, 0.47, 1.0 ],
					"numoutlets" : 0,
					"grad2" : [ 0.85, 0.85, 0.85, 1.0 ]
				}

			}
 ],
		"lines" : [ 			{
				"patchline" : 				{
					"source" : [ "obj-4", 0 ],
					"destination" : [ "obj-3", 0 ],
					"hidden" : 0,
					"midpoints" : [  ]
				}

			}
, 			{
				"patchline" : 				{
					"source" : [ "obj-22", 0 ],
					"destination" : [ "obj-24", 0 ],
					"hidden" : 0,
					"midpoints" : [  ]
				}

			}
, 			{
				"patchline" : 				{
					"source" : [ "obj-21", 0 ],
					"destination" : [ "obj-24", 1 ],
					"hidden" : 0,
					"midpoints" : [  ]
				}

			}
, 			{
				"patchline" : 				{
					"source" : [ "obj-20", 0 ],
					"destination" : [ "obj-24", 2 ],
					"hidden" : 0,
					"midpoints" : [  ]
				}

			}
, 			{
				"patchline" : 				{
					"source" : [ "obj-24", 0 ],
					"destination" : [ "obj-17", 2 ],
					"hidden" : 0,
					"midpoints" : [ 227.5, 219.5, 274.5, 219.5 ]
				}

			}
, 			{
				"patchline" : 				{
					"source" : [ "obj-17", 0 ],
					"destination" : [ "obj-1", 0 ],
					"hidden" : 0,
					"midpoints" : [ 81.5, 250.0, 60.5, 250.0, 60.5, 78.0, 81.5, 78.0 ]
				}

			}
, 			{
				"patchline" : 				{
					"source" : [ "obj-1", 0 ],
					"destination" : [ "obj-17", 0 ],
					"hidden" : 0,
					"midpoints" : [  ]
				}

			}
, 			{
				"patchline" : 				{
					"source" : [ "obj-1", 2 ],
					"destination" : [ "obj-17", 1 ],
					"hidden" : 0,
					"midpoints" : [ 159.5, 222.0, 178.0, 222.0 ]
				}

			}
, 			{
				"patchline" : 				{
					"source" : [ "obj-17", 0 ],
					"destination" : [ "obj-6", 0 ],
					"hidden" : 0,
					"midpoints" : [  ]
				}

			}
, 			{
				"patchline" : 				{
					"source" : [ "obj-5", 0 ],
					"destination" : [ "obj-17", 0 ],
					"hidden" : 0,
					"midpoints" : [  ]
				}

			}
, 			{
				"patchline" : 				{
					"source" : [ "obj-30", 0 ],
					"destination" : [ "obj-15", 0 ],
					"hidden" : 1,
					"midpoints" : [  ]
				}

			}
, 			{
				"patchline" : 				{
					"source" : [ "obj-15", 0 ],
					"destination" : [ "obj-29", 0 ],
					"hidden" : 1,
					"midpoints" : [  ]
				}

			}
, 			{
				"patchline" : 				{
					"source" : [ "obj-29", 0 ],
					"destination" : [ "obj-19", 0 ],
					"hidden" : 1,
					"midpoints" : [  ]
				}

			}
 ]
	}

}
