{
	"patcher" : 	{
		"fileversion" : 1,
		"rect" : [ 97.0, 180.0, 310.0, 367.0 ],
		"bglocked" : 0,
		"defrect" : [ 97.0, 180.0, 310.0, 367.0 ],
		"openrect" : [ 0.0, 0.0, 0.0, 0.0 ],
		"openinpresentation" : 0,
		"default_fontsize" : 12.0,
		"default_fontface" : 0,
		"default_fontname" : "Arial",
		"gridonopen" : 0,
		"gridsize" : [ 15.0, 15.0 ],
		"gridsnaponopen" : 0,
		"toolbarvisible" : 1,
		"boxanimatetime" : 200,
		"imprint" : 0,
		"boxes" : [ 			{
				"box" : 				{
					"maxclass" : "newobj",
					"text" : "t f f",
					"patching_rect" : [ 162.0, 141.0, 32.5, 20.0 ],
					"numinlets" : 1,
					"id" : "obj-11",
					"fontname" : "Arial",
					"numoutlets" : 2,
					"outlettype" : [ "float", "float" ],
					"fontsize" : 12.0
				}

			}
, 			{
				"box" : 				{
					"maxclass" : "newobj",
					"text" : "t b b",
					"patching_rect" : [ 113.0, 238.0, 34.0, 20.0 ],
					"numinlets" : 1,
					"id" : "obj-33",
					"fontname" : "Arial",
					"numoutlets" : 2,
					"outlettype" : [ "bang", "bang" ],
					"fontsize" : 12.0
				}

			}
, 			{
				"box" : 				{
					"maxclass" : "comment",
					"text" : "p.switcharoo",
					"patching_rect" : [ 209.0, 38.0, 72.0, 19.0 ],
					"numinlets" : 1,
					"id" : "obj-32",
					"fontname" : "Arial",
					"numoutlets" : 0,
					"fontsize" : 11.0
				}

			}
, 			{
				"box" : 				{
					"maxclass" : "comment",
					"text" : "p.block",
					"patching_rect" : [ 220.0, 21.0, 54.0, 19.0 ],
					"numinlets" : 1,
					"id" : "obj-26",
					"fontname" : "Arial",
					"numoutlets" : 0,
					"fontsize" : 11.0
				}

			}
, 			{
				"box" : 				{
					"maxclass" : "comment",
					"text" : "dependencies",
					"patching_rect" : [ 204.0, 3.0, 84.0, 19.0 ],
					"numinlets" : 1,
					"id" : "obj-27",
					"fontname" : "Arial",
					"numoutlets" : 0,
					"fontsize" : 11.0
				}

			}
, 			{
				"box" : 				{
					"maxclass" : "panel",
					"patching_rect" : [ 199.0, 0.0, 88.0, 61.0 ],
					"numinlets" : 1,
					"id" : "obj-30",
					"rounded" : 0,
					"numoutlets" : 0,
					"bgcolor" : [ 0.901961, 0.901961, 0.901961, 1.0 ]
				}

			}
, 			{
				"box" : 				{
					"maxclass" : "newobj",
					"text" : "p parseTrigger",
					"patching_rect" : [ 59.0, 117.0, 87.0, 20.0 ],
					"numinlets" : 2,
					"id" : "obj-24",
					"fontname" : "Arial",
					"numoutlets" : 2,
					"outlettype" : [ "bang", "bang" ],
					"fontsize" : 12.0,
					"color" : [ 0.843137, 0.741176, 0.431373, 1.0 ],
					"patcher" : 					{
						"fileversion" : 1,
						"rect" : [ 330.0, 161.0, 186.0, 228.0 ],
						"bglocked" : 0,
						"defrect" : [ 330.0, 161.0, 186.0, 228.0 ],
						"openrect" : [ 0.0, 0.0, 0.0, 0.0 ],
						"openinpresentation" : 0,
						"default_fontsize" : 12.0,
						"default_fontface" : 0,
						"default_fontname" : "Arial",
						"gridonopen" : 0,
						"gridsize" : [ 15.0, 15.0 ],
						"gridsnaponopen" : 0,
						"toolbarvisible" : 1,
						"boxanimatetime" : 200,
						"imprint" : 0,
						"boxes" : [ 							{
								"box" : 								{
									"maxclass" : "newobj",
									"text" : "t b 0",
									"patching_rect" : [ 19.0, 118.0, 34.0, 20.0 ],
									"numinlets" : 1,
									"id" : "obj-10",
									"fontname" : "Arial",
									"numoutlets" : 2,
									"outlettype" : [ "bang", "int" ],
									"fontsize" : 12.0
								}

							}
, 							{
								"box" : 								{
									"maxclass" : "newobj",
									"text" : "t b 1",
									"patching_rect" : [ 80.0, 118.0, 34.0, 20.0 ],
									"numinlets" : 1,
									"id" : "obj-8",
									"fontname" : "Arial",
									"numoutlets" : 2,
									"outlettype" : [ "bang", "int" ],
									"fontsize" : 12.0
								}

							}
, 							{
								"box" : 								{
									"maxclass" : "newobj",
									"text" : "pv fadetype",
									"patching_rect" : [ 95.0, 152.0, 73.0, 20.0 ],
									"numinlets" : 1,
									"id" : "obj-7",
									"fontname" : "Arial",
									"numoutlets" : 1,
									"outlettype" : [ "" ],
									"fontsize" : 12.0
								}

							}
, 							{
								"box" : 								{
									"maxclass" : "outlet",
									"patching_rect" : [ 80.0, 182.0, 25.0, 25.0 ],
									"numinlets" : 1,
									"id" : "obj-4",
									"numoutlets" : 0,
									"comment" : "(bang) fade in"
								}

							}
, 							{
								"box" : 								{
									"maxclass" : "outlet",
									"patching_rect" : [ 19.0, 182.0, 25.0, 25.0 ],
									"numinlets" : 1,
									"id" : "obj-3",
									"numoutlets" : 0,
									"comment" : "(bang) fade out"
								}

							}
, 							{
								"box" : 								{
									"maxclass" : "inlet",
									"patching_rect" : [ 71.0, 21.0, 25.0, 25.0 ],
									"numinlets" : 0,
									"id" : "obj-2",
									"numoutlets" : 1,
									"outlettype" : [ "bang" ],
									"comment" : "(anything) end of fade to unblock"
								}

							}
, 							{
								"box" : 								{
									"maxclass" : "inlet",
									"patching_rect" : [ 19.0, 21.0, 25.0, 25.0 ],
									"numinlets" : 0,
									"id" : "obj-1",
									"numoutlets" : 1,
									"outlettype" : [ "" ],
									"comment" : "(bang) fade trigger"
								}

							}
, 							{
								"box" : 								{
									"maxclass" : "newobj",
									"text" : "p.block",
									"patching_rect" : [ 19.0, 62.0, 71.0, 20.0 ],
									"numinlets" : 2,
									"id" : "obj-23",
									"fontname" : "Arial",
									"numoutlets" : 1,
									"outlettype" : [ "" ],
									"fontsize" : 12.0,
									"color" : [ 0.317647, 0.709804, 0.321569, 1.0 ]
								}

							}
, 							{
								"box" : 								{
									"maxclass" : "newobj",
									"text" : "p.switcharoo",
									"patching_rect" : [ 19.0, 91.0, 80.0, 20.0 ],
									"numinlets" : 2,
									"id" : "obj-12",
									"fontname" : "Arial",
									"numoutlets" : 2,
									"outlettype" : [ "", "" ],
									"fontsize" : 12.0,
									"color" : [ 0.317647, 0.709804, 0.321569, 1.0 ]
								}

							}
 ],
						"lines" : [ 							{
								"patchline" : 								{
									"source" : [ "obj-10", 1 ],
									"destination" : [ "obj-7", 0 ],
									"hidden" : 0,
									"color" : [ 1.0, 0.337255, 0.619608, 1.0 ],
									"midpoints" : [ 43.5, 146.0, 104.5, 146.0 ]
								}

							}
, 							{
								"patchline" : 								{
									"source" : [ "obj-8", 1 ],
									"destination" : [ "obj-7", 0 ],
									"hidden" : 0,
									"color" : [ 1.0, 0.337255, 0.619608, 1.0 ],
									"midpoints" : [  ]
								}

							}
, 							{
								"patchline" : 								{
									"source" : [ "obj-10", 0 ],
									"destination" : [ "obj-3", 0 ],
									"hidden" : 0,
									"midpoints" : [  ]
								}

							}
, 							{
								"patchline" : 								{
									"source" : [ "obj-12", 0 ],
									"destination" : [ "obj-10", 0 ],
									"hidden" : 0,
									"midpoints" : [  ]
								}

							}
, 							{
								"patchline" : 								{
									"source" : [ "obj-8", 0 ],
									"destination" : [ "obj-4", 0 ],
									"hidden" : 0,
									"midpoints" : [  ]
								}

							}
, 							{
								"patchline" : 								{
									"source" : [ "obj-12", 1 ],
									"destination" : [ "obj-8", 0 ],
									"hidden" : 0,
									"midpoints" : [  ]
								}

							}
, 							{
								"patchline" : 								{
									"source" : [ "obj-2", 0 ],
									"destination" : [ "obj-23", 1 ],
									"hidden" : 0,
									"midpoints" : [  ]
								}

							}
, 							{
								"patchline" : 								{
									"source" : [ "obj-1", 0 ],
									"destination" : [ "obj-23", 0 ],
									"hidden" : 0,
									"midpoints" : [  ]
								}

							}
, 							{
								"patchline" : 								{
									"source" : [ "obj-23", 0 ],
									"destination" : [ "obj-12", 0 ],
									"hidden" : 0,
									"midpoints" : [  ]
								}

							}
 ]
					}
,
					"saved_object_attributes" : 					{
						"default_fontface" : 0,
						"fontname" : "Arial",
						"default_fontname" : "Arial",
						"globalpatchername" : "",
						"default_fontsize" : 12.0,
						"fontface" : 0,
						"fontsize" : 12.0
					}

				}

			}
, 			{
				"box" : 				{
					"maxclass" : "newobj",
					"text" : "pv fadetype",
					"patching_rect" : [ 128.0, 266.0, 73.0, 20.0 ],
					"numinlets" : 1,
					"id" : "obj-10",
					"fontname" : "Arial",
					"numoutlets" : 1,
					"outlettype" : [ "" ],
					"fontsize" : 12.0
				}

			}
, 			{
				"box" : 				{
					"maxclass" : "comment",
					"text" : "© 2013, Pierre-Emmanuel Lévesque",
					"patching_rect" : [ 136.0, 347.0, 171.0, 18.0 ],
					"numinlets" : 1,
					"id" : "obj-22",
					"fontname" : "Arial",
					"numoutlets" : 0,
					"fontsize" : 10.0
				}

			}
, 			{
				"box" : 				{
					"maxclass" : "comment",
					"text" : "fade type / marks end",
					"patching_rect" : [ 155.0, 300.0, 117.0, 19.0 ],
					"numinlets" : 1,
					"id" : "obj-17",
					"fontname" : "Arial",
					"numoutlets" : 0,
					"fontsize" : 11.0
				}

			}
, 			{
				"box" : 				{
					"maxclass" : "comment",
					"text" : "fade time (ms)",
					"patching_rect" : [ 189.0, 83.0, 86.0, 19.0 ],
					"numinlets" : 1,
					"id" : "obj-9",
					"fontname" : "Arial",
					"numoutlets" : 0,
					"fontsize" : 11.0
				}

			}
, 			{
				"box" : 				{
					"maxclass" : "comment",
					"text" : "fade trigger",
					"patching_rect" : [ 86.0, 49.0, 64.0, 19.0 ],
					"numinlets" : 1,
					"id" : "obj-8",
					"fontname" : "Arial",
					"numoutlets" : 0,
					"fontsize" : 11.0
				}

			}
, 			{
				"box" : 				{
					"maxclass" : "comment",
					"text" : "audio out",
					"patching_rect" : [ 45.0, 285.0, 54.0, 19.0 ],
					"numinlets" : 1,
					"id" : "obj-7",
					"fontname" : "Arial",
					"numoutlets" : 0,
					"fontsize" : 11.0
				}

			}
, 			{
				"box" : 				{
					"maxclass" : "comment",
					"text" : "audio in",
					"patching_rect" : [ 45.0, 19.0, 50.0, 19.0 ],
					"numinlets" : 1,
					"id" : "obj-6",
					"fontname" : "Arial",
					"numoutlets" : 0,
					"fontsize" : 11.0
				}

			}
, 			{
				"box" : 				{
					"maxclass" : "newobj",
					"text" : "p fadeOut",
					"patching_rect" : [ 59.0, 178.0, 63.0, 20.0 ],
					"numinlets" : 2,
					"id" : "obj-5",
					"fontname" : "Arial",
					"numoutlets" : 1,
					"outlettype" : [ "" ],
					"fontsize" : 12.0,
					"color" : [ 0.843137, 0.741176, 0.431373, 1.0 ],
					"patcher" : 					{
						"fileversion" : 1,
						"rect" : [ 603.0, 126.0, 228.0, 161.0 ],
						"bglocked" : 0,
						"defrect" : [ 603.0, 126.0, 228.0, 161.0 ],
						"openrect" : [ 0.0, 0.0, 0.0, 0.0 ],
						"openinpresentation" : 0,
						"default_fontsize" : 12.0,
						"default_fontface" : 0,
						"default_fontname" : "Arial",
						"gridonopen" : 0,
						"gridsize" : [ 15.0, 15.0 ],
						"gridsnaponopen" : 0,
						"toolbarvisible" : 1,
						"boxanimatetime" : 200,
						"imprint" : 0,
						"boxes" : [ 							{
								"box" : 								{
									"maxclass" : "inlet",
									"patching_rect" : [ 16.0, 19.0, 25.0, 25.0 ],
									"numinlets" : 0,
									"id" : "obj-3",
									"numoutlets" : 1,
									"outlettype" : [ "bang" ],
									"comment" : "(bang) fade trigger"
								}

							}
, 							{
								"box" : 								{
									"maxclass" : "outlet",
									"patching_rect" : [ 16.0, 118.0, 25.0, 25.0 ],
									"numinlets" : 1,
									"id" : "obj-2",
									"numoutlets" : 0,
									"comment" : "(message) line message"
								}

							}
, 							{
								"box" : 								{
									"maxclass" : "inlet",
									"patching_rect" : [ 117.0, 19.0, 25.0, 25.0 ],
									"numinlets" : 0,
									"id" : "obj-1",
									"numoutlets" : 1,
									"outlettype" : [ "float" ],
									"comment" : "(float) fade time (ms)"
								}

							}
, 							{
								"box" : 								{
									"maxclass" : "message",
									"text" : "1., 0. 10.",
									"patching_rect" : [ 16.0, 84.0, 120.0, 18.0 ],
									"numinlets" : 2,
									"id" : "obj-20",
									"fontname" : "Arial",
									"numoutlets" : 1,
									"outlettype" : [ "" ],
									"fontsize" : 12.0
								}

							}
, 							{
								"box" : 								{
									"maxclass" : "newobj",
									"text" : "sprintf 1.\\, 0. %f",
									"patching_rect" : [ 117.0, 54.0, 94.0, 20.0 ],
									"numinlets" : 1,
									"id" : "obj-17",
									"fontname" : "Arial",
									"numoutlets" : 1,
									"outlettype" : [ "" ],
									"fontsize" : 12.0
								}

							}
 ],
						"lines" : [ 							{
								"patchline" : 								{
									"source" : [ "obj-20", 0 ],
									"destination" : [ "obj-2", 0 ],
									"hidden" : 0,
									"midpoints" : [  ]
								}

							}
, 							{
								"patchline" : 								{
									"source" : [ "obj-3", 0 ],
									"destination" : [ "obj-20", 0 ],
									"hidden" : 0,
									"midpoints" : [  ]
								}

							}
, 							{
								"patchline" : 								{
									"source" : [ "obj-1", 0 ],
									"destination" : [ "obj-17", 0 ],
									"hidden" : 0,
									"midpoints" : [  ]
								}

							}
, 							{
								"patchline" : 								{
									"source" : [ "obj-17", 0 ],
									"destination" : [ "obj-20", 1 ],
									"hidden" : 0,
									"midpoints" : [  ]
								}

							}
 ]
					}
,
					"saved_object_attributes" : 					{
						"default_fontface" : 0,
						"fontname" : "Arial",
						"default_fontname" : "Arial",
						"globalpatchername" : "",
						"default_fontsize" : 12.0,
						"fontface" : 0,
						"fontsize" : 12.0
					}

				}

			}
, 			{
				"box" : 				{
					"maxclass" : "newobj",
					"text" : "patcherargs 10",
					"patching_rect" : [ 185.0, 109.0, 91.0, 20.0 ],
					"numinlets" : 1,
					"id" : "obj-34",
					"fontname" : "Arial",
					"numoutlets" : 2,
					"outlettype" : [ "", "" ],
					"fontsize" : 12.0
				}

			}
, 			{
				"box" : 				{
					"maxclass" : "inlet",
					"patching_rect" : [ 162.0, 80.0, 25.0, 25.0 ],
					"numinlets" : 0,
					"id" : "obj-31",
					"numoutlets" : 1,
					"outlettype" : [ "" ],
					"comment" : "(int/float) fade time (ms) (def: 10.)"
				}

			}
, 			{
				"box" : 				{
					"maxclass" : "newobj",
					"text" : "p fadeIn",
					"patching_rect" : [ 127.0, 178.0, 54.0, 20.0 ],
					"numinlets" : 2,
					"id" : "obj-29",
					"fontname" : "Arial",
					"numoutlets" : 1,
					"outlettype" : [ "" ],
					"fontsize" : 12.0,
					"color" : [ 0.843137, 0.741176, 0.431373, 1.0 ],
					"patcher" : 					{
						"fileversion" : 1,
						"rect" : [ 603.0, 342.0, 228.0, 161.0 ],
						"bglocked" : 0,
						"defrect" : [ 603.0, 342.0, 228.0, 161.0 ],
						"openrect" : [ 0.0, 0.0, 0.0, 0.0 ],
						"openinpresentation" : 0,
						"default_fontsize" : 12.0,
						"default_fontface" : 0,
						"default_fontname" : "Arial",
						"gridonopen" : 0,
						"gridsize" : [ 15.0, 15.0 ],
						"gridsnaponopen" : 0,
						"toolbarvisible" : 1,
						"boxanimatetime" : 200,
						"imprint" : 0,
						"boxes" : [ 							{
								"box" : 								{
									"maxclass" : "inlet",
									"patching_rect" : [ 16.0, 19.0, 25.0, 25.0 ],
									"numinlets" : 0,
									"id" : "obj-3",
									"numoutlets" : 1,
									"outlettype" : [ "bang" ],
									"comment" : "(bang) fade trigger"
								}

							}
, 							{
								"box" : 								{
									"maxclass" : "outlet",
									"patching_rect" : [ 16.0, 118.0, 25.0, 25.0 ],
									"numinlets" : 1,
									"id" : "obj-2",
									"numoutlets" : 0,
									"comment" : "(message) line message"
								}

							}
, 							{
								"box" : 								{
									"maxclass" : "inlet",
									"patching_rect" : [ 117.0, 19.0, 25.0, 25.0 ],
									"numinlets" : 0,
									"id" : "obj-1",
									"numoutlets" : 1,
									"outlettype" : [ "float" ],
									"comment" : "(float) fade time (ms)"
								}

							}
, 							{
								"box" : 								{
									"maxclass" : "message",
									"text" : "0., 1. 10.",
									"patching_rect" : [ 16.0, 84.0, 120.0, 18.0 ],
									"numinlets" : 2,
									"id" : "obj-20",
									"fontname" : "Arial",
									"numoutlets" : 1,
									"outlettype" : [ "" ],
									"fontsize" : 12.0
								}

							}
, 							{
								"box" : 								{
									"maxclass" : "newobj",
									"text" : "sprintf 0.\\, 1. %f",
									"patching_rect" : [ 117.0, 54.0, 94.0, 20.0 ],
									"numinlets" : 1,
									"id" : "obj-17",
									"fontname" : "Arial",
									"numoutlets" : 1,
									"outlettype" : [ "" ],
									"fontsize" : 12.0
								}

							}
 ],
						"lines" : [ 							{
								"patchline" : 								{
									"source" : [ "obj-3", 0 ],
									"destination" : [ "obj-20", 0 ],
									"hidden" : 0,
									"midpoints" : [  ]
								}

							}
, 							{
								"patchline" : 								{
									"source" : [ "obj-20", 0 ],
									"destination" : [ "obj-2", 0 ],
									"hidden" : 0,
									"midpoints" : [  ]
								}

							}
, 							{
								"patchline" : 								{
									"source" : [ "obj-1", 0 ],
									"destination" : [ "obj-17", 0 ],
									"hidden" : 0,
									"midpoints" : [  ]
								}

							}
, 							{
								"patchline" : 								{
									"source" : [ "obj-17", 0 ],
									"destination" : [ "obj-20", 1 ],
									"hidden" : 0,
									"midpoints" : [  ]
								}

							}
 ]
					}
,
					"saved_object_attributes" : 					{
						"default_fontface" : 0,
						"fontname" : "Arial",
						"default_fontname" : "Arial",
						"globalpatchername" : "",
						"default_fontsize" : 12.0,
						"fontface" : 0,
						"fontsize" : 12.0
					}

				}

			}
, 			{
				"box" : 				{
					"maxclass" : "outlet",
					"patching_rect" : [ 128.0, 297.0, 25.0, 25.0 ],
					"numinlets" : 1,
					"id" : "obj-28",
					"numoutlets" : 0,
					"comment" : "(int) fade end (0 = faded out, 1 = faded in)"
				}

			}
, 			{
				"box" : 				{
					"maxclass" : "inlet",
					"patching_rect" : [ 59.0, 46.0, 25.0, 25.0 ],
					"numinlets" : 0,
					"id" : "obj-25",
					"numoutlets" : 1,
					"outlettype" : [ "" ],
					"comment" : "(bang) fade trigger"
				}

			}
, 			{
				"box" : 				{
					"maxclass" : "newobj",
					"text" : "line~",
					"patching_rect" : [ 59.0, 211.0, 73.0, 20.0 ],
					"numinlets" : 2,
					"id" : "obj-4",
					"fontname" : "Arial",
					"numoutlets" : 2,
					"outlettype" : [ "signal", "bang" ],
					"fontsize" : 12.0
				}

			}
, 			{
				"box" : 				{
					"maxclass" : "inlet",
					"patching_rect" : [ 18.0, 16.0, 25.0, 25.0 ],
					"numinlets" : 0,
					"id" : "obj-3",
					"numoutlets" : 1,
					"outlettype" : [ "" ],
					"comment" : "(signal) audio in"
				}

			}
, 			{
				"box" : 				{
					"maxclass" : "outlet",
					"patching_rect" : [ 18.0, 282.0, 25.0, 25.0 ],
					"numinlets" : 1,
					"id" : "obj-2",
					"numoutlets" : 0,
					"comment" : "(signal) audio out"
				}

			}
, 			{
				"box" : 				{
					"maxclass" : "newobj",
					"text" : "*~ 0.",
					"patching_rect" : [ 18.0, 248.0, 60.0, 20.0 ],
					"numinlets" : 2,
					"id" : "obj-1",
					"fontname" : "Arial",
					"numoutlets" : 1,
					"outlettype" : [ "signal" ],
					"fontsize" : 12.0
				}

			}
 ],
		"lines" : [ 			{
				"patchline" : 				{
					"source" : [ "obj-11", 1 ],
					"destination" : [ "obj-29", 1 ],
					"hidden" : 0,
					"midpoints" : [ 185.0, 171.0, 171.5, 171.0 ]
				}

			}
, 			{
				"patchline" : 				{
					"source" : [ "obj-11", 0 ],
					"destination" : [ "obj-5", 1 ],
					"hidden" : 0,
					"midpoints" : [ 171.5, 167.0, 112.5, 167.0 ]
				}

			}
, 			{
				"patchline" : 				{
					"source" : [ "obj-31", 0 ],
					"destination" : [ "obj-11", 0 ],
					"hidden" : 0,
					"midpoints" : [  ]
				}

			}
, 			{
				"patchline" : 				{
					"source" : [ "obj-34", 0 ],
					"destination" : [ "obj-11", 0 ],
					"hidden" : 0,
					"midpoints" : [ 194.5, 135.5, 171.5, 135.5 ]
				}

			}
, 			{
				"patchline" : 				{
					"source" : [ "obj-33", 0 ],
					"destination" : [ "obj-24", 1 ],
					"hidden" : 0,
					"midpoints" : [ 122.5, 327.0, 281.0, 327.0, 281.0, 71.0, 136.5, 71.0 ]
				}

			}
, 			{
				"patchline" : 				{
					"source" : [ "obj-33", 1 ],
					"destination" : [ "obj-10", 0 ],
					"hidden" : 0,
					"midpoints" : [  ]
				}

			}
, 			{
				"patchline" : 				{
					"source" : [ "obj-4", 1 ],
					"destination" : [ "obj-33", 0 ],
					"hidden" : 0,
					"midpoints" : [  ]
				}

			}
, 			{
				"patchline" : 				{
					"source" : [ "obj-24", 0 ],
					"destination" : [ "obj-5", 0 ],
					"hidden" : 0,
					"midpoints" : [  ]
				}

			}
, 			{
				"patchline" : 				{
					"source" : [ "obj-24", 1 ],
					"destination" : [ "obj-29", 0 ],
					"hidden" : 0,
					"color" : [ 0.317647, 0.709804, 0.321569, 1.0 ],
					"midpoints" : [  ]
				}

			}
, 			{
				"patchline" : 				{
					"source" : [ "obj-25", 0 ],
					"destination" : [ "obj-24", 0 ],
					"hidden" : 0,
					"midpoints" : [  ]
				}

			}
, 			{
				"patchline" : 				{
					"source" : [ "obj-10", 0 ],
					"destination" : [ "obj-28", 0 ],
					"hidden" : 0,
					"midpoints" : [  ]
				}

			}
, 			{
				"patchline" : 				{
					"source" : [ "obj-4", 0 ],
					"destination" : [ "obj-1", 1 ],
					"hidden" : 0,
					"midpoints" : [  ]
				}

			}
, 			{
				"patchline" : 				{
					"source" : [ "obj-1", 0 ],
					"destination" : [ "obj-2", 0 ],
					"hidden" : 0,
					"midpoints" : [  ]
				}

			}
, 			{
				"patchline" : 				{
					"source" : [ "obj-3", 0 ],
					"destination" : [ "obj-1", 0 ],
					"hidden" : 0,
					"midpoints" : [  ]
				}

			}
, 			{
				"patchline" : 				{
					"source" : [ "obj-29", 0 ],
					"destination" : [ "obj-4", 0 ],
					"hidden" : 0,
					"midpoints" : [ 136.5, 204.5, 68.5, 204.5 ]
				}

			}
, 			{
				"patchline" : 				{
					"source" : [ "obj-5", 0 ],
					"destination" : [ "obj-4", 0 ],
					"hidden" : 0,
					"midpoints" : [  ]
				}

			}
 ]
	}

}
