{
	"patcher" : 	{
		"fileversion" : 1,
		"rect" : [ 254.0, 308.0, 194.0, 187.0 ],
		"bglocked" : 0,
		"defrect" : [ 254.0, 308.0, 194.0, 187.0 ],
		"openrect" : [ 0.0, 0.0, 0.0, 0.0 ],
		"openinpresentation" : 0,
		"default_fontsize" : 12.0,
		"default_fontface" : 0,
		"default_fontname" : "Arial",
		"gridonopen" : 0,
		"gridsize" : [ 15.0, 15.0 ],
		"gridsnaponopen" : 0,
		"toolbarvisible" : 1,
		"boxanimatetime" : 200,
		"imprint" : 0,
		"boxes" : [ 			{
				"box" : 				{
					"maxclass" : "comment",
					"text" : "© 2013, Pierre-Emmanuel Lévesque",
					"numoutlets" : 0,
					"patching_rect" : [ 19.0, 166.0, 171.0, 18.0 ],
					"id" : "obj-2",
					"fontname" : "Arial",
					"fontsize" : 10.0,
					"numinlets" : 1
				}

			}
, 			{
				"box" : 				{
					"maxclass" : "newobj",
					"text" : "*~ -1",
					"numoutlets" : 1,
					"patching_rect" : [ 126.0, 56.0, 36.0, 20.0 ],
					"id" : "obj-19",
					"outlettype" : [ "signal" ],
					"fontname" : "Arial",
					"fontsize" : 12.0,
					"numinlets" : 2
				}

			}
, 			{
				"box" : 				{
					"maxclass" : "inlet",
					"numoutlets" : 1,
					"patching_rect" : [ 126.0, 17.0, 25.0, 25.0 ],
					"id" : "obj-17",
					"outlettype" : [ "" ],
					"numinlets" : 0,
					"comment" : "(signal) mix amount [-1 = signal 1, 1 = signal 2]"
				}

			}
, 			{
				"box" : 				{
					"maxclass" : "outlet",
					"numoutlets" : 0,
					"patching_rect" : [ 17.0, 133.0, 25.0, 25.0 ],
					"id" : "obj-7",
					"numinlets" : 1,
					"comment" : "(signal) audio out"
				}

			}
, 			{
				"box" : 				{
					"maxclass" : "newobj",
					"text" : "pan2s #1",
					"numoutlets" : 2,
					"patching_rect" : [ 85.0, 83.0, 60.0, 20.0 ],
					"id" : "obj-5",
					"outlettype" : [ "signal", "signal" ],
					"fontname" : "Arial",
					"fontsize" : 12.0,
					"numinlets" : 2
				}

			}
, 			{
				"box" : 				{
					"maxclass" : "newobj",
					"text" : "pan2s #1",
					"numoutlets" : 2,
					"patching_rect" : [ 17.0, 83.0, 60.0, 20.0 ],
					"id" : "obj-4",
					"outlettype" : [ "signal", "signal" ],
					"fontname" : "Arial",
					"fontsize" : 12.0,
					"numinlets" : 2
				}

			}
, 			{
				"box" : 				{
					"maxclass" : "inlet",
					"numoutlets" : 1,
					"patching_rect" : [ 85.0, 17.0, 25.0, 25.0 ],
					"id" : "obj-3",
					"outlettype" : [ "" ],
					"numinlets" : 0,
					"comment" : "(signal) audio 2"
				}

			}
, 			{
				"box" : 				{
					"maxclass" : "inlet",
					"numoutlets" : 1,
					"patching_rect" : [ 17.0, 17.0, 25.0, 25.0 ],
					"id" : "obj-1",
					"outlettype" : [ "" ],
					"numinlets" : 0,
					"comment" : "(signal) audio 1"
				}

			}
 ],
		"lines" : [ 			{
				"patchline" : 				{
					"source" : [ "obj-17", 0 ],
					"destination" : [ "obj-4", 1 ],
					"hidden" : 0,
					"midpoints" : [  ]
				}

			}
, 			{
				"patchline" : 				{
					"source" : [ "obj-17", 0 ],
					"destination" : [ "obj-19", 0 ],
					"hidden" : 0,
					"midpoints" : [  ]
				}

			}
, 			{
				"patchline" : 				{
					"source" : [ "obj-19", 0 ],
					"destination" : [ "obj-5", 1 ],
					"hidden" : 0,
					"midpoints" : [  ]
				}

			}
, 			{
				"patchline" : 				{
					"source" : [ "obj-3", 0 ],
					"destination" : [ "obj-5", 0 ],
					"hidden" : 0,
					"midpoints" : [  ]
				}

			}
, 			{
				"patchline" : 				{
					"source" : [ "obj-1", 0 ],
					"destination" : [ "obj-4", 0 ],
					"hidden" : 0,
					"midpoints" : [  ]
				}

			}
, 			{
				"patchline" : 				{
					"source" : [ "obj-4", 0 ],
					"destination" : [ "obj-7", 0 ],
					"hidden" : 0,
					"midpoints" : [  ]
				}

			}
, 			{
				"patchline" : 				{
					"source" : [ "obj-5", 0 ],
					"destination" : [ "obj-7", 0 ],
					"hidden" : 0,
					"midpoints" : [ 94.5, 112.0, 26.5, 112.0 ]
				}

			}
 ]
	}

}
