{
	"patcher" : 	{
		"fileversion" : 1,
		"rect" : [ 291.0, 234.0, 234.0, 248.0 ],
		"bglocked" : 0,
		"defrect" : [ 291.0, 234.0, 234.0, 248.0 ],
		"openrect" : [ 0.0, 0.0, 0.0, 0.0 ],
		"openinpresentation" : 0,
		"default_fontsize" : 12.0,
		"default_fontface" : 0,
		"default_fontname" : "Arial",
		"gridonopen" : 0,
		"gridsize" : [ 15.0, 15.0 ],
		"gridsnaponopen" : 0,
		"toolbarvisible" : 1,
		"boxanimatetime" : 200,
		"imprint" : 0,
		"boxes" : [ 			{
				"box" : 				{
					"maxclass" : "comment",
					"text" : "mix amount",
					"fontname" : "Arial",
					"numinlets" : 1,
					"patching_rect" : [ 155.0, 84.0, 67.0, 19.0 ],
					"id" : "obj-10",
					"numoutlets" : 0,
					"fontsize" : 11.0
				}

			}
, 			{
				"box" : 				{
					"maxclass" : "comment",
					"text" : "audio 2",
					"fontname" : "Arial",
					"numinlets" : 1,
					"patching_rect" : [ 114.0, 50.0, 50.0, 19.0 ],
					"id" : "obj-9",
					"numoutlets" : 0,
					"fontsize" : 11.0
				}

			}
, 			{
				"box" : 				{
					"maxclass" : "comment",
					"text" : "audio 1",
					"fontname" : "Arial",
					"numinlets" : 1,
					"patching_rect" : [ 46.0, 22.0, 50.0, 19.0 ],
					"id" : "obj-8",
					"numoutlets" : 0,
					"fontsize" : 11.0
				}

			}
, 			{
				"box" : 				{
					"maxclass" : "comment",
					"text" : "audio out",
					"fontname" : "Arial",
					"numinlets" : 1,
					"patching_rect" : [ 46.0, 197.0, 60.0, 19.0 ],
					"id" : "obj-6",
					"numoutlets" : 0,
					"fontsize" : 11.0
				}

			}
, 			{
				"box" : 				{
					"maxclass" : "comment",
					"text" : "© 2013, Pierre-Emmanuel Lévesque",
					"fontname" : "Arial",
					"numinlets" : 1,
					"patching_rect" : [ 60.0, 227.0, 171.0, 18.0 ],
					"id" : "obj-2",
					"numoutlets" : 0,
					"fontsize" : 10.0
				}

			}
, 			{
				"box" : 				{
					"maxclass" : "newobj",
					"text" : "*~ -1",
					"fontname" : "Arial",
					"numinlets" : 2,
					"patching_rect" : [ 128.0, 118.0, 36.0, 20.0 ],
					"id" : "obj-19",
					"numoutlets" : 1,
					"fontsize" : 12.0,
					"outlettype" : [ "signal" ]
				}

			}
, 			{
				"box" : 				{
					"maxclass" : "inlet",
					"numinlets" : 0,
					"patching_rect" : [ 128.0, 81.0, 25.0, 25.0 ],
					"id" : "obj-17",
					"numoutlets" : 1,
					"outlettype" : [ "" ],
					"comment" : "(signal) mix amount (-1. = signal 1, 1. = signal 2) (def: 0.)"
				}

			}
, 			{
				"box" : 				{
					"maxclass" : "outlet",
					"numinlets" : 1,
					"patching_rect" : [ 19.0, 195.0, 25.0, 25.0 ],
					"id" : "obj-7",
					"numoutlets" : 0,
					"comment" : "(signal) audio out"
				}

			}
, 			{
				"box" : 				{
					"maxclass" : "newobj",
					"text" : "pan2s #1",
					"fontname" : "Arial",
					"numinlets" : 2,
					"patching_rect" : [ 87.0, 145.0, 60.0, 20.0 ],
					"id" : "obj-5",
					"numoutlets" : 2,
					"fontsize" : 12.0,
					"outlettype" : [ "signal", "signal" ]
				}

			}
, 			{
				"box" : 				{
					"maxclass" : "newobj",
					"text" : "pan2s #1",
					"fontname" : "Arial",
					"numinlets" : 2,
					"patching_rect" : [ 19.0, 145.0, 60.0, 20.0 ],
					"id" : "obj-4",
					"numoutlets" : 2,
					"fontsize" : 12.0,
					"outlettype" : [ "signal", "signal" ]
				}

			}
, 			{
				"box" : 				{
					"maxclass" : "inlet",
					"numinlets" : 0,
					"patching_rect" : [ 87.0, 48.0, 25.0, 25.0 ],
					"id" : "obj-3",
					"numoutlets" : 1,
					"outlettype" : [ "" ],
					"comment" : "(signal) audio 2"
				}

			}
, 			{
				"box" : 				{
					"maxclass" : "inlet",
					"numinlets" : 0,
					"patching_rect" : [ 19.0, 20.0, 25.0, 25.0 ],
					"id" : "obj-1",
					"numoutlets" : 1,
					"outlettype" : [ "" ],
					"comment" : "(signal) audio 1"
				}

			}
 ],
		"lines" : [ 			{
				"patchline" : 				{
					"source" : [ "obj-17", 0 ],
					"destination" : [ "obj-4", 1 ],
					"hidden" : 0,
					"midpoints" : [  ]
				}

			}
, 			{
				"patchline" : 				{
					"source" : [ "obj-17", 0 ],
					"destination" : [ "obj-19", 0 ],
					"hidden" : 0,
					"midpoints" : [  ]
				}

			}
, 			{
				"patchline" : 				{
					"source" : [ "obj-19", 0 ],
					"destination" : [ "obj-5", 1 ],
					"hidden" : 0,
					"midpoints" : [  ]
				}

			}
, 			{
				"patchline" : 				{
					"source" : [ "obj-3", 0 ],
					"destination" : [ "obj-5", 0 ],
					"hidden" : 0,
					"midpoints" : [  ]
				}

			}
, 			{
				"patchline" : 				{
					"source" : [ "obj-1", 0 ],
					"destination" : [ "obj-4", 0 ],
					"hidden" : 0,
					"midpoints" : [  ]
				}

			}
, 			{
				"patchline" : 				{
					"source" : [ "obj-4", 0 ],
					"destination" : [ "obj-7", 0 ],
					"hidden" : 0,
					"midpoints" : [  ]
				}

			}
, 			{
				"patchline" : 				{
					"source" : [ "obj-5", 0 ],
					"destination" : [ "obj-7", 0 ],
					"hidden" : 0,
					"midpoints" : [ 96.5, 174.0, 28.5, 174.0 ]
				}

			}
 ]
	}

}
