{
	"patcher" : 	{
		"fileversion" : 1,
		"rect" : [ 58.0, 88.0, 495.0, 415.0 ],
		"bglocked" : 0,
		"defrect" : [ 58.0, 88.0, 495.0, 415.0 ],
		"openrect" : [ 0.0, 0.0, 0.0, 0.0 ],
		"openinpresentation" : 0,
		"default_fontsize" : 12.0,
		"default_fontface" : 0,
		"default_fontname" : "Arial",
		"gridonopen" : 0,
		"gridsize" : [ 15.0, 15.0 ],
		"gridsnaponopen" : 0,
		"toolbarvisible" : 1,
		"boxanimatetime" : 200,
		"imprint" : 0,
		"boxes" : [ 			{
				"box" : 				{
					"maxclass" : "newobj",
					"text" : "prepend interp",
					"id" : "obj-34",
					"fontname" : "Arial",
					"numinlets" : 1,
					"fontsize" : 12.0,
					"patching_rect" : [ 165.0, 177.0, 88.0, 20.0 ],
					"numoutlets" : 1,
					"outlettype" : [ "" ]
				}

			}
, 			{
				"box" : 				{
					"maxclass" : "newobj",
					"text" : "t f 0 f",
					"id" : "obj-32",
					"fontname" : "Arial",
					"numinlets" : 1,
					"fontsize" : 12.0,
					"patching_rect" : [ 214.0, 111.0, 90.0, 20.0 ],
					"numoutlets" : 3,
					"outlettype" : [ "float", "int", "float" ]
				}

			}
, 			{
				"box" : 				{
					"maxclass" : "newobj",
					"text" : "pv filelength",
					"id" : "obj-29",
					"fontname" : "Arial",
					"numinlets" : 1,
					"fontsize" : 12.0,
					"patching_rect" : [ 197.0, 310.0, 75.0, 20.0 ],
					"numoutlets" : 1,
					"outlettype" : [ "" ]
				}

			}
, 			{
				"box" : 				{
					"maxclass" : "newobj",
					"text" : "p playEngine",
					"id" : "obj-27",
					"fontname" : "Arial",
					"numinlets" : 3,
					"fontsize" : 12.0,
					"patching_rect" : [ 18.0, 85.0, 117.0, 20.0 ],
					"numoutlets" : 1,
					"outlettype" : [ "signal" ],
					"color" : [ 0.843137, 0.741176, 0.431373, 1.0 ],
					"patcher" : 					{
						"fileversion" : 1,
						"rect" : [ 524.0, 171.0, 181.0, 320.0 ],
						"bglocked" : 0,
						"defrect" : [ 524.0, 171.0, 181.0, 320.0 ],
						"openrect" : [ 0.0, 0.0, 0.0, 0.0 ],
						"openinpresentation" : 0,
						"default_fontsize" : 12.0,
						"default_fontface" : 0,
						"default_fontname" : "Arial",
						"gridonopen" : 0,
						"gridsize" : [ 15.0, 15.0 ],
						"gridsnaponopen" : 0,
						"toolbarvisible" : 1,
						"boxanimatetime" : 200,
						"imprint" : 0,
						"boxes" : [ 							{
								"box" : 								{
									"maxclass" : "inlet",
									"id" : "obj-5",
									"numinlets" : 0,
									"patching_rect" : [ 66.0, 20.0, 25.0, 25.0 ],
									"numoutlets" : 1,
									"outlettype" : [ "" ],
									"comment" : ""
								}

							}
, 							{
								"box" : 								{
									"maxclass" : "inlet",
									"id" : "obj-4",
									"numinlets" : 0,
									"patching_rect" : [ 112.0, 166.0, 25.0, 25.0 ],
									"numoutlets" : 1,
									"outlettype" : [ "" ],
									"comment" : ""
								}

							}
, 							{
								"box" : 								{
									"maxclass" : "inlet",
									"id" : "obj-3",
									"numinlets" : 0,
									"patching_rect" : [ 19.0, 20.0, 25.0, 25.0 ],
									"numoutlets" : 1,
									"outlettype" : [ "" ],
									"comment" : ""
								}

							}
, 							{
								"box" : 								{
									"maxclass" : "outlet",
									"id" : "obj-2",
									"numinlets" : 1,
									"patching_rect" : [ 66.0, 277.0, 25.0, 25.0 ],
									"numoutlets" : 0,
									"comment" : ""
								}

							}
, 							{
								"box" : 								{
									"maxclass" : "newobj",
									"text" : "gate",
									"id" : "obj-1",
									"fontname" : "Arial",
									"numinlets" : 2,
									"fontsize" : 12.0,
									"patching_rect" : [ 66.0, 77.0, 43.0, 20.0 ],
									"numoutlets" : 1,
									"outlettype" : [ "" ]
								}

							}
, 							{
								"box" : 								{
									"maxclass" : "message",
									"text" : "0.",
									"id" : "obj-25",
									"fontname" : "Arial",
									"numinlets" : 2,
									"fontsize" : 12.0,
									"patching_rect" : [ 112.0, 197.0, 32.5, 18.0 ],
									"numoutlets" : 1,
									"outlettype" : [ "" ]
								}

							}
, 							{
								"box" : 								{
									"maxclass" : "newobj",
									"text" : "line~",
									"id" : "obj-21",
									"fontname" : "Arial",
									"numinlets" : 2,
									"fontsize" : 12.0,
									"patching_rect" : [ 66.0, 230.0, 56.0, 20.0 ],
									"numoutlets" : 2,
									"outlettype" : [ "signal", "bang" ]
								}

							}
, 							{
								"box" : 								{
									"maxclass" : "message",
									"text" : "0., 1. $1",
									"id" : "obj-20",
									"fontname" : "Arial",
									"numinlets" : 2,
									"fontsize" : 12.0,
									"patching_rect" : [ 66.0, 139.0, 54.0, 18.0 ],
									"numoutlets" : 1,
									"outlettype" : [ "" ]
								}

							}
, 							{
								"box" : 								{
									"maxclass" : "newobj",
									"text" : "pv filelength",
									"id" : "obj-18",
									"fontname" : "Arial",
									"numinlets" : 1,
									"fontsize" : 12.0,
									"patching_rect" : [ 66.0, 113.0, 75.0, 20.0 ],
									"numoutlets" : 1,
									"outlettype" : [ "" ]
								}

							}
 ],
						"lines" : [ 							{
								"patchline" : 								{
									"source" : [ "obj-5", 0 ],
									"destination" : [ "obj-1", 0 ],
									"hidden" : 0,
									"midpoints" : [  ]
								}

							}
, 							{
								"patchline" : 								{
									"source" : [ "obj-4", 0 ],
									"destination" : [ "obj-25", 0 ],
									"hidden" : 0,
									"midpoints" : [  ]
								}

							}
, 							{
								"patchline" : 								{
									"source" : [ "obj-3", 0 ],
									"destination" : [ "obj-18", 0 ],
									"hidden" : 0,
									"midpoints" : [ 28.5, 105.5, 75.5, 105.5 ]
								}

							}
, 							{
								"patchline" : 								{
									"source" : [ "obj-21", 0 ],
									"destination" : [ "obj-2", 0 ],
									"hidden" : 0,
									"midpoints" : [  ]
								}

							}
, 							{
								"patchline" : 								{
									"source" : [ "obj-20", 0 ],
									"destination" : [ "obj-21", 0 ],
									"hidden" : 0,
									"midpoints" : [  ]
								}

							}
, 							{
								"patchline" : 								{
									"source" : [ "obj-25", 0 ],
									"destination" : [ "obj-21", 0 ],
									"hidden" : 0,
									"color" : [ 1.0, 0.337255, 0.619608, 1.0 ],
									"midpoints" : [ 121.5, 219.5, 75.5, 219.5 ]
								}

							}
, 							{
								"patchline" : 								{
									"source" : [ "obj-21", 1 ],
									"destination" : [ "obj-1", 1 ],
									"hidden" : 0,
									"midpoints" : [ 112.5, 257.0, 152.0, 257.0, 152.0, 71.0, 99.5, 71.0 ]
								}

							}
, 							{
								"patchline" : 								{
									"source" : [ "obj-1", 0 ],
									"destination" : [ "obj-18", 0 ],
									"hidden" : 0,
									"midpoints" : [  ]
								}

							}
, 							{
								"patchline" : 								{
									"source" : [ "obj-18", 0 ],
									"destination" : [ "obj-20", 0 ],
									"hidden" : 0,
									"midpoints" : [  ]
								}

							}
 ]
					}
,
					"saved_object_attributes" : 					{
						"fontname" : "Arial",
						"default_fontface" : 0,
						"globalpatchername" : "",
						"fontface" : 0,
						"default_fontname" : "Arial",
						"fontsize" : 12.0,
						"default_fontsize" : 12.0
					}

				}

			}
, 			{
				"box" : 				{
					"maxclass" : "newobj",
					"text" : "p parsePlayTime",
					"id" : "obj-26",
					"fontname" : "Arial",
					"numinlets" : 2,
					"fontsize" : 12.0,
					"patching_rect" : [ 78.0, 280.0, 138.0, 20.0 ],
					"numoutlets" : 3,
					"outlettype" : [ "int", "float", "float" ],
					"color" : [ 0.843137, 0.741176, 0.431373, 1.0 ],
					"patcher" : 					{
						"fileversion" : 1,
						"rect" : [ 707.0, 144.0, 323.0, 263.0 ],
						"bglocked" : 0,
						"defrect" : [ 707.0, 144.0, 323.0, 263.0 ],
						"openrect" : [ 0.0, 0.0, 0.0, 0.0 ],
						"openinpresentation" : 0,
						"default_fontsize" : 12.0,
						"default_fontface" : 0,
						"default_fontname" : "Arial",
						"gridonopen" : 0,
						"gridsize" : [ 15.0, 15.0 ],
						"gridsnaponopen" : 0,
						"toolbarvisible" : 1,
						"boxanimatetime" : 200,
						"imprint" : 0,
						"boxes" : [ 							{
								"box" : 								{
									"maxclass" : "outlet",
									"id" : "obj-8",
									"numinlets" : 1,
									"patching_rect" : [ 193.0, 124.0, 25.0, 25.0 ],
									"numoutlets" : 0,
									"comment" : ""
								}

							}
, 							{
								"box" : 								{
									"maxclass" : "number~",
									"id" : "obj-7",
									"fontname" : "Arial",
									"sig" : 0.0,
									"numinlets" : 2,
									"mode" : 2,
									"fontsize" : 12.0,
									"patching_rect" : [ 74.0, 135.0, 56.0, 20.0 ],
									"numoutlets" : 2,
									"outlettype" : [ "signal", "float" ]
								}

							}
, 							{
								"box" : 								{
									"maxclass" : "number~",
									"id" : "obj-6",
									"fontname" : "Arial",
									"sig" : 0.0,
									"numinlets" : 2,
									"mode" : 2,
									"fontsize" : 12.0,
									"patching_rect" : [ 10.0, 105.0, 56.0, 20.0 ],
									"numoutlets" : 2,
									"outlettype" : [ "signal", "float" ]
								}

							}
, 							{
								"box" : 								{
									"maxclass" : "newobj",
									"text" : "p calculatePlayTime",
									"id" : "obj-14",
									"fontname" : "Arial",
									"numinlets" : 2,
									"fontsize" : 12.0,
									"patching_rect" : [ 193.0, 83.0, 118.0, 20.0 ],
									"numoutlets" : 1,
									"outlettype" : [ "float" ],
									"color" : [ 0.843137, 0.741176, 0.431373, 1.0 ],
									"patcher" : 									{
										"fileversion" : 1,
										"rect" : [ 222.0, 44.0, 154.0, 314.0 ],
										"bglocked" : 0,
										"defrect" : [ 222.0, 44.0, 154.0, 314.0 ],
										"openrect" : [ 0.0, 0.0, 0.0, 0.0 ],
										"openinpresentation" : 0,
										"default_fontsize" : 12.0,
										"default_fontface" : 0,
										"default_fontname" : "Arial",
										"gridonopen" : 0,
										"gridsize" : [ 15.0, 15.0 ],
										"gridsnaponopen" : 0,
										"toolbarvisible" : 1,
										"boxanimatetime" : 200,
										"imprint" : 0,
										"boxes" : [ 											{
												"box" : 												{
													"maxclass" : "outlet",
													"id" : "obj-23",
													"numinlets" : 1,
													"patching_rect" : [ 61.0, 271.0, 25.0, 25.0 ],
													"numoutlets" : 0,
													"comment" : ""
												}

											}
, 											{
												"box" : 												{
													"maxclass" : "newobj",
													"text" : "t f b",
													"id" : "obj-22",
													"fontname" : "Arial",
													"numinlets" : 1,
													"fontsize" : 12.0,
													"patching_rect" : [ 61.0, 174.0, 53.5, 20.0 ],
													"numoutlets" : 2,
													"outlettype" : [ "float", "bang" ]
												}

											}
, 											{
												"box" : 												{
													"maxclass" : "newobj",
													"text" : "f 0.",
													"id" : "obj-21",
													"fontname" : "Arial",
													"numinlets" : 2,
													"fontsize" : 12.0,
													"patching_rect" : [ 96.0, 207.0, 36.5, 20.0 ],
													"numoutlets" : 1,
													"outlettype" : [ "float" ]
												}

											}
, 											{
												"box" : 												{
													"maxclass" : "newobj",
													"text" : "- 0.",
													"id" : "obj-20",
													"fontname" : "Arial",
													"numinlets" : 2,
													"fontsize" : 12.0,
													"patching_rect" : [ 61.0, 234.0, 53.5, 20.0 ],
													"numoutlets" : 1,
													"outlettype" : [ "float" ]
												}

											}
, 											{
												"box" : 												{
													"maxclass" : "inlet",
													"id" : "obj-19",
													"numinlets" : 0,
													"patching_rect" : [ 32.0, 64.0, 25.0, 25.0 ],
													"numoutlets" : 1,
													"outlettype" : [ "int" ],
													"comment" : ""
												}

											}
, 											{
												"box" : 												{
													"maxclass" : "newobj",
													"text" : "t f b",
													"id" : "obj-18",
													"fontname" : "Arial",
													"numinlets" : 1,
													"fontsize" : 12.0,
													"patching_rect" : [ 32.0, 100.0, 47.5, 20.0 ],
													"numoutlets" : 2,
													"outlettype" : [ "float", "bang" ]
												}

											}
, 											{
												"box" : 												{
													"maxclass" : "newobj",
													"text" : "f",
													"id" : "obj-12",
													"fontname" : "Arial",
													"numinlets" : 2,
													"fontsize" : 12.0,
													"patching_rect" : [ 61.0, 146.0, 50.5, 20.0 ],
													"numoutlets" : 1,
													"outlettype" : [ "float" ]
												}

											}
, 											{
												"box" : 												{
													"maxclass" : "inlet",
													"id" : "obj-2",
													"numinlets" : 0,
													"patching_rect" : [ 87.0, 19.0, 25.0, 25.0 ],
													"numoutlets" : 1,
													"outlettype" : [ "float" ],
													"comment" : ""
												}

											}
 ],
										"lines" : [ 											{
												"patchline" : 												{
													"source" : [ "obj-19", 0 ],
													"destination" : [ "obj-18", 0 ],
													"hidden" : 0,
													"midpoints" : [  ]
												}

											}
, 											{
												"patchline" : 												{
													"source" : [ "obj-12", 0 ],
													"destination" : [ "obj-22", 0 ],
													"hidden" : 0,
													"midpoints" : [  ]
												}

											}
, 											{
												"patchline" : 												{
													"source" : [ "obj-22", 0 ],
													"destination" : [ "obj-20", 0 ],
													"hidden" : 0,
													"midpoints" : [  ]
												}

											}
, 											{
												"patchline" : 												{
													"source" : [ "obj-20", 0 ],
													"destination" : [ "obj-23", 0 ],
													"hidden" : 0,
													"midpoints" : [  ]
												}

											}
, 											{
												"patchline" : 												{
													"source" : [ "obj-21", 0 ],
													"destination" : [ "obj-20", 1 ],
													"hidden" : 0,
													"midpoints" : [  ]
												}

											}
, 											{
												"patchline" : 												{
													"source" : [ "obj-22", 1 ],
													"destination" : [ "obj-21", 0 ],
													"hidden" : 0,
													"midpoints" : [  ]
												}

											}
, 											{
												"patchline" : 												{
													"source" : [ "obj-18", 1 ],
													"destination" : [ "obj-12", 0 ],
													"hidden" : 0,
													"color" : [ 1.0, 0.337255, 0.619608, 1.0 ],
													"midpoints" : [  ]
												}

											}
, 											{
												"patchline" : 												{
													"source" : [ "obj-18", 0 ],
													"destination" : [ "obj-21", 0 ],
													"hidden" : 0,
													"midpoints" : [ 41.5, 127.0, 127.0, 127.0, 127.0, 200.0, 105.5, 200.0 ]
												}

											}
, 											{
												"patchline" : 												{
													"source" : [ "obj-2", 0 ],
													"destination" : [ "obj-12", 0 ],
													"hidden" : 0,
													"midpoints" : [ 96.5, 52.0, 20.0, 52.0, 20.0, 138.0, 70.5, 138.0 ]
												}

											}
 ]
									}
,
									"saved_object_attributes" : 									{
										"fontname" : "Arial",
										"default_fontface" : 0,
										"globalpatchername" : "",
										"fontface" : 0,
										"default_fontname" : "Arial",
										"fontsize" : 12.0,
										"default_fontsize" : 12.0
									}

								}

							}
, 							{
								"box" : 								{
									"maxclass" : "outlet",
									"id" : "obj-4",
									"numinlets" : 1,
									"patching_rect" : [ 86.0, 203.0, 25.0, 25.0 ],
									"numoutlets" : 0,
									"comment" : ""
								}

							}
, 							{
								"box" : 								{
									"maxclass" : "outlet",
									"id" : "obj-3",
									"numinlets" : 1,
									"patching_rect" : [ 131.0, 203.0, 25.0, 25.0 ],
									"numoutlets" : 0,
									"comment" : ""
								}

							}
, 							{
								"box" : 								{
									"maxclass" : "inlet",
									"id" : "obj-2",
									"numinlets" : 0,
									"patching_rect" : [ 131.0, 20.0, 25.0, 25.0 ],
									"numoutlets" : 1,
									"outlettype" : [ "float" ],
									"comment" : ""
								}

							}
, 							{
								"box" : 								{
									"maxclass" : "inlet",
									"id" : "obj-1",
									"numinlets" : 0,
									"patching_rect" : [ 86.0, 20.0, 25.0, 25.0 ],
									"numoutlets" : 1,
									"outlettype" : [ "int" ],
									"comment" : ""
								}

							}
 ],
						"lines" : [ 							{
								"patchline" : 								{
									"source" : [ "obj-14", 0 ],
									"destination" : [ "obj-8", 0 ],
									"hidden" : 0,
									"midpoints" : [  ]
								}

							}
, 							{
								"patchline" : 								{
									"source" : [ "obj-2", 0 ],
									"destination" : [ "obj-3", 0 ],
									"hidden" : 0,
									"midpoints" : [  ]
								}

							}
, 							{
								"patchline" : 								{
									"source" : [ "obj-1", 0 ],
									"destination" : [ "obj-4", 0 ],
									"hidden" : 0,
									"midpoints" : [  ]
								}

							}
, 							{
								"patchline" : 								{
									"source" : [ "obj-2", 0 ],
									"destination" : [ "obj-7", 0 ],
									"hidden" : 0,
									"midpoints" : [  ]
								}

							}
, 							{
								"patchline" : 								{
									"source" : [ "obj-1", 0 ],
									"destination" : [ "obj-6", 0 ],
									"hidden" : 0,
									"midpoints" : [  ]
								}

							}
, 							{
								"patchline" : 								{
									"source" : [ "obj-2", 0 ],
									"destination" : [ "obj-14", 1 ],
									"hidden" : 0,
									"midpoints" : [  ]
								}

							}
, 							{
								"patchline" : 								{
									"source" : [ "obj-1", 0 ],
									"destination" : [ "obj-14", 0 ],
									"hidden" : 0,
									"midpoints" : [  ]
								}

							}
 ]
					}
,
					"saved_object_attributes" : 					{
						"fontname" : "Arial",
						"default_fontface" : 0,
						"globalpatchername" : "",
						"fontface" : 0,
						"default_fontname" : "Arial",
						"fontsize" : 12.0,
						"default_fontsize" : 12.0
					}

				}

			}
, 			{
				"box" : 				{
					"maxclass" : "comment",
					"text" : "filelength",
					"id" : "obj-13",
					"fontname" : "Arial",
					"numinlets" : 1,
					"fontsize" : 11.0,
					"patching_rect" : [ 241.0, 143.0, 56.0, 19.0 ],
					"numoutlets" : 0
				}

			}
, 			{
				"box" : 				{
					"maxclass" : "outlet",
					"id" : "obj-12",
					"numinlets" : 1,
					"patching_rect" : [ 214.0, 141.0, 25.0, 25.0 ],
					"numoutlets" : 0,
					"comment" : "(float) filelength in ms (end of file load marker)"
				}

			}
, 			{
				"box" : 				{
					"maxclass" : "comment",
					"text" : "end time",
					"id" : "obj-11",
					"fontname" : "Arial",
					"numinlets" : 1,
					"fontsize" : 11.0,
					"patching_rect" : [ 224.0, 241.0, 53.0, 19.0 ],
					"numoutlets" : 0
				}

			}
, 			{
				"box" : 				{
					"maxclass" : "comment",
					"text" : "start time",
					"id" : "obj-10",
					"fontname" : "Arial",
					"numinlets" : 1,
					"fontsize" : 11.0,
					"patching_rect" : [ 105.0, 241.0, 56.0, 19.0 ],
					"numoutlets" : 0
				}

			}
, 			{
				"box" : 				{
					"maxclass" : "inlet",
					"id" : "obj-8",
					"numinlets" : 0,
					"patching_rect" : [ 197.0, 239.0, 25.0, 25.0 ],
					"numoutlets" : 1,
					"outlettype" : [ "" ],
					"comment" : "(signal/float) end time (def: file length)"
				}

			}
, 			{
				"box" : 				{
					"maxclass" : "inlet",
					"id" : "obj-7",
					"numinlets" : 0,
					"patching_rect" : [ 78.0, 239.0, 25.0, 25.0 ],
					"numoutlets" : 1,
					"outlettype" : [ "" ],
					"comment" : "(signal/float) start time (def: 0.)"
				}

			}
, 			{
				"box" : 				{
					"maxclass" : "newobj",
					"text" : "p loadFile",
					"id" : "obj-9",
					"fontname" : "Arial",
					"numinlets" : 1,
					"fontsize" : 12.0,
					"patching_rect" : [ 214.0, 84.0, 63.0, 20.0 ],
					"numoutlets" : 1,
					"outlettype" : [ "float" ],
					"color" : [ 0.843137, 0.741176, 0.431373, 1.0 ],
					"patcher" : 					{
						"fileversion" : 1,
						"rect" : [ 620.0, 121.0, 173.0, 156.0 ],
						"bglocked" : 0,
						"defrect" : [ 620.0, 121.0, 173.0, 156.0 ],
						"openrect" : [ 0.0, 0.0, 0.0, 0.0 ],
						"openinpresentation" : 0,
						"default_fontsize" : 12.0,
						"default_fontface" : 0,
						"default_fontname" : "Arial",
						"gridonopen" : 0,
						"gridsize" : [ 15.0, 15.0 ],
						"gridsnaponopen" : 0,
						"toolbarvisible" : 1,
						"boxanimatetime" : 200,
						"imprint" : 0,
						"boxes" : [ 							{
								"box" : 								{
									"maxclass" : "newobj",
									"text" : "p getPath",
									"id" : "obj-4",
									"fontname" : "Arial",
									"numinlets" : 1,
									"fontsize" : 12.0,
									"patching_rect" : [ 19.0, 53.0, 62.0, 20.0 ],
									"numoutlets" : 1,
									"outlettype" : [ "" ],
									"color" : [ 0.843137, 0.741176, 0.431373, 1.0 ],
									"patcher" : 									{
										"fileversion" : 1,
										"rect" : [ 702.0, 46.0, 149.0, 167.0 ],
										"bglocked" : 0,
										"defrect" : [ 702.0, 46.0, 149.0, 167.0 ],
										"openrect" : [ 0.0, 0.0, 0.0, 0.0 ],
										"openinpresentation" : 0,
										"default_fontsize" : 12.0,
										"default_fontface" : 0,
										"default_fontname" : "Arial",
										"gridonopen" : 0,
										"gridsize" : [ 15.0, 15.0 ],
										"gridsnaponopen" : 0,
										"toolbarvisible" : 1,
										"boxanimatetime" : 200,
										"imprint" : 0,
										"boxes" : [ 											{
												"box" : 												{
													"maxclass" : "newobj",
													"text" : "sel open",
													"id" : "obj-8",
													"fontname" : "Arial",
													"numinlets" : 1,
													"fontsize" : 12.0,
													"patching_rect" : [ 16.0, 55.0, 56.0, 20.0 ],
													"numoutlets" : 2,
													"outlettype" : [ "bang", "" ]
												}

											}
, 											{
												"box" : 												{
													"maxclass" : "newobj",
													"text" : "opendialog",
													"id" : "obj-10",
													"fontname" : "Arial",
													"numinlets" : 1,
													"fontsize" : 12.0,
													"patching_rect" : [ 16.0, 85.0, 69.0, 20.0 ],
													"numoutlets" : 2,
													"outlettype" : [ "", "bang" ]
												}

											}
, 											{
												"box" : 												{
													"maxclass" : "outlet",
													"id" : "obj-2",
													"numinlets" : 1,
													"patching_rect" : [ 16.0, 124.0, 25.0, 25.0 ],
													"numoutlets" : 0,
													"comment" : ""
												}

											}
, 											{
												"box" : 												{
													"maxclass" : "inlet",
													"id" : "obj-1",
													"numinlets" : 0,
													"patching_rect" : [ 16.0, 18.0, 25.0, 25.0 ],
													"numoutlets" : 1,
													"outlettype" : [ "" ],
													"comment" : ""
												}

											}
 ],
										"lines" : [ 											{
												"patchline" : 												{
													"source" : [ "obj-8", 1 ],
													"destination" : [ "obj-2", 0 ],
													"hidden" : 0,
													"midpoints" : [  ]
												}

											}
, 											{
												"patchline" : 												{
													"source" : [ "obj-10", 0 ],
													"destination" : [ "obj-2", 0 ],
													"hidden" : 0,
													"midpoints" : [  ]
												}

											}
, 											{
												"patchline" : 												{
													"source" : [ "obj-1", 0 ],
													"destination" : [ "obj-8", 0 ],
													"hidden" : 0,
													"midpoints" : [  ]
												}

											}
, 											{
												"patchline" : 												{
													"source" : [ "obj-8", 0 ],
													"destination" : [ "obj-10", 0 ],
													"hidden" : 0,
													"midpoints" : [  ]
												}

											}
 ]
									}
,
									"saved_object_attributes" : 									{
										"fontname" : "Arial",
										"default_fontface" : 0,
										"globalpatchername" : "",
										"fontface" : 0,
										"default_fontname" : "Arial",
										"fontsize" : 12.0,
										"default_fontsize" : 12.0
									}

								}

							}
, 							{
								"box" : 								{
									"maxclass" : "newobj",
									"text" : "p loadBuffer",
									"id" : "obj-7",
									"fontname" : "Arial",
									"numinlets" : 1,
									"fontsize" : 12.0,
									"patching_rect" : [ 19.0, 80.0, 75.0, 20.0 ],
									"numoutlets" : 1,
									"outlettype" : [ "float" ],
									"color" : [ 0.843137, 0.741176, 0.431373, 1.0 ],
									"patcher" : 									{
										"fileversion" : 1,
										"rect" : [ 82.0, 132.0, 251.0, 190.0 ],
										"bglocked" : 0,
										"defrect" : [ 82.0, 132.0, 251.0, 190.0 ],
										"openrect" : [ 0.0, 0.0, 0.0, 0.0 ],
										"openinpresentation" : 0,
										"default_fontsize" : 12.0,
										"default_fontface" : 0,
										"default_fontname" : "Arial",
										"gridonopen" : 0,
										"gridsize" : [ 15.0, 15.0 ],
										"gridsnaponopen" : 0,
										"toolbarvisible" : 1,
										"boxanimatetime" : 200,
										"imprint" : 0,
										"boxes" : [ 											{
												"box" : 												{
													"maxclass" : "newobj",
													"text" : "prepend open",
													"id" : "obj-14",
													"fontname" : "Arial",
													"numinlets" : 1,
													"fontsize" : 12.0,
													"patching_rect" : [ 19.0, 75.0, 85.0, 20.0 ],
													"numoutlets" : 1,
													"outlettype" : [ "" ]
												}

											}
, 											{
												"box" : 												{
													"maxclass" : "newobj",
													"text" : "sfinfo~",
													"id" : "obj-13",
													"fontname" : "Arial",
													"numinlets" : 1,
													"fontsize" : 12.0,
													"patching_rect" : [ 19.0, 100.0, 86.5, 20.0 ],
													"numoutlets" : 6,
													"outlettype" : [ "int", "int", "float", "float", "", "" ]
												}

											}
, 											{
												"box" : 												{
													"maxclass" : "newobj",
													"text" : "buffer~ #1",
													"id" : "obj-12",
													"fontname" : "Arial",
													"numinlets" : 1,
													"fontsize" : 12.0,
													"patching_rect" : [ 111.0, 100.0, 115.0, 20.0 ],
													"numoutlets" : 2,
													"outlettype" : [ "float", "bang" ]
												}

											}
, 											{
												"box" : 												{
													"maxclass" : "newobj",
													"text" : "prepend replace",
													"id" : "obj-11",
													"fontname" : "Arial",
													"numinlets" : 1,
													"fontsize" : 12.0,
													"patching_rect" : [ 111.0, 75.0, 97.0, 20.0 ],
													"numoutlets" : 1,
													"outlettype" : [ "" ]
												}

											}
, 											{
												"box" : 												{
													"maxclass" : "outlet",
													"id" : "obj-2",
													"numinlets" : 1,
													"patching_rect" : [ 60.0, 143.0, 25.0, 25.0 ],
													"numoutlets" : 0,
													"comment" : ""
												}

											}
, 											{
												"box" : 												{
													"maxclass" : "inlet",
													"id" : "obj-1",
													"numinlets" : 0,
													"patching_rect" : [ 19.0, 19.0, 25.0, 25.0 ],
													"numoutlets" : 1,
													"outlettype" : [ "" ],
													"comment" : ""
												}

											}
 ],
										"lines" : [ 											{
												"patchline" : 												{
													"source" : [ "obj-11", 0 ],
													"destination" : [ "obj-12", 0 ],
													"hidden" : 0,
													"midpoints" : [  ]
												}

											}
, 											{
												"patchline" : 												{
													"source" : [ "obj-14", 0 ],
													"destination" : [ "obj-13", 0 ],
													"hidden" : 0,
													"midpoints" : [  ]
												}

											}
, 											{
												"patchline" : 												{
													"source" : [ "obj-1", 0 ],
													"destination" : [ "obj-11", 0 ],
													"hidden" : 0,
													"midpoints" : [ 28.5, 65.0, 120.5, 65.0 ]
												}

											}
, 											{
												"patchline" : 												{
													"source" : [ "obj-1", 0 ],
													"destination" : [ "obj-14", 0 ],
													"hidden" : 0,
													"midpoints" : [  ]
												}

											}
, 											{
												"patchline" : 												{
													"source" : [ "obj-13", 3 ],
													"destination" : [ "obj-2", 0 ],
													"hidden" : 0,
													"midpoints" : [  ]
												}

											}
 ]
									}
,
									"saved_object_attributes" : 									{
										"fontname" : "Arial",
										"default_fontface" : 0,
										"globalpatchername" : "",
										"fontface" : 0,
										"default_fontname" : "Arial",
										"fontsize" : 12.0,
										"default_fontsize" : 12.0
									}

								}

							}
, 							{
								"box" : 								{
									"maxclass" : "outlet",
									"id" : "obj-3",
									"numinlets" : 1,
									"patching_rect" : [ 19.0, 113.0, 25.0, 25.0 ],
									"numoutlets" : 0,
									"comment" : ""
								}

							}
, 							{
								"box" : 								{
									"maxclass" : "inlet",
									"id" : "obj-1",
									"numinlets" : 0,
									"patching_rect" : [ 19.0, 16.0, 25.0, 25.0 ],
									"numoutlets" : 1,
									"outlettype" : [ "" ],
									"comment" : ""
								}

							}
 ],
						"lines" : [ 							{
								"patchline" : 								{
									"source" : [ "obj-4", 0 ],
									"destination" : [ "obj-7", 0 ],
									"hidden" : 0,
									"midpoints" : [  ]
								}

							}
, 							{
								"patchline" : 								{
									"source" : [ "obj-1", 0 ],
									"destination" : [ "obj-4", 0 ],
									"hidden" : 0,
									"midpoints" : [  ]
								}

							}
, 							{
								"patchline" : 								{
									"source" : [ "obj-7", 0 ],
									"destination" : [ "obj-3", 0 ],
									"hidden" : 0,
									"midpoints" : [  ]
								}

							}
 ]
					}
,
					"saved_object_attributes" : 					{
						"fontname" : "Arial",
						"default_fontface" : 0,
						"globalpatchername" : "",
						"fontface" : 0,
						"default_fontname" : "Arial",
						"fontsize" : 12.0,
						"default_fontsize" : 12.0
					}

				}

			}
, 			{
				"box" : 				{
					"maxclass" : "comment",
					"text" : "commands",
					"id" : "obj-6",
					"fontname" : "Arial",
					"numinlets" : 1,
					"fontsize" : 11.0,
					"patching_rect" : [ 45.0, 21.0, 63.0, 19.0 ],
					"numoutlets" : 0
				}

			}
, 			{
				"box" : 				{
					"maxclass" : "comment",
					"text" : "audio out",
					"id" : "obj-5",
					"fontname" : "Arial",
					"numinlets" : 1,
					"fontsize" : 11.0,
					"patching_rect" : [ 44.0, 356.0, 56.0, 19.0 ],
					"numoutlets" : 0
				}

			}
, 			{
				"box" : 				{
					"maxclass" : "comment",
					"text" : "© 2013, Pierre-Emmanuel Lévesque",
					"id" : "obj-4",
					"fontname" : "Arial",
					"numinlets" : 1,
					"fontsize" : 10.0,
					"patching_rect" : [ 145.0, 374.0, 171.0, 18.0 ],
					"numoutlets" : 0
				}

			}
, 			{
				"box" : 				{
					"maxclass" : "outlet",
					"annotation" : "",
					"id" : "obj-23",
					"numinlets" : 1,
					"patching_rect" : [ 18.0, 353.0, 25.0, 25.0 ],
					"numoutlets" : 0,
					"comment" : "(signal) audio out"
				}

			}
, 			{
				"box" : 				{
					"maxclass" : "newobj",
					"text" : "wave~ #1 0. 0. 1",
					"id" : "obj-22",
					"fontname" : "Arial",
					"numinlets" : 3,
					"fontsize" : 12.0,
					"patching_rect" : [ 18.0, 310.0, 139.0, 20.0 ],
					"numoutlets" : 1,
					"outlettype" : [ "signal" ]
				}

			}
, 			{
				"box" : 				{
					"maxclass" : "newobj",
					"text" : "route play loop stop interp",
					"id" : "obj-3",
					"fontname" : "Arial",
					"numinlets" : 1,
					"fontsize" : 12.0,
					"patching_rect" : [ 18.0, 57.0, 215.0, 20.0 ],
					"numoutlets" : 5,
					"outlettype" : [ "", "", "", "", "" ]
				}

			}
, 			{
				"box" : 				{
					"maxclass" : "inlet",
					"id" : "obj-2",
					"numinlets" : 0,
					"patching_rect" : [ 18.0, 18.0, 25.0, 25.0 ],
					"numoutlets" : 1,
					"outlettype" : [ "" ],
					"comment" : "(mixed) commands"
				}

			}
 ],
		"lines" : [ 			{
				"patchline" : 				{
					"source" : [ "obj-32", 2 ],
					"destination" : [ "obj-29", 0 ],
					"hidden" : 0,
					"midpoints" : [ 294.5, 305.0, 206.5, 305.0 ]
				}

			}
, 			{
				"patchline" : 				{
					"source" : [ "obj-32", 2 ],
					"destination" : [ "obj-26", 1 ],
					"hidden" : 0,
					"midpoints" : [ 294.5, 274.0, 206.5, 274.0 ]
				}

			}
, 			{
				"patchline" : 				{
					"source" : [ "obj-32", 1 ],
					"destination" : [ "obj-26", 0 ],
					"hidden" : 0,
					"midpoints" : [ 259.0, 226.0, 171.0, 226.0, 171.0, 273.0, 87.5, 273.0 ]
				}

			}
, 			{
				"patchline" : 				{
					"source" : [ "obj-8", 0 ],
					"destination" : [ "obj-26", 1 ],
					"hidden" : 0,
					"midpoints" : [  ]
				}

			}
, 			{
				"patchline" : 				{
					"source" : [ "obj-3", 3 ],
					"destination" : [ "obj-34", 0 ],
					"hidden" : 0,
					"midpoints" : [  ]
				}

			}
, 			{
				"patchline" : 				{
					"source" : [ "obj-2", 0 ],
					"destination" : [ "obj-3", 0 ],
					"hidden" : 0,
					"midpoints" : [  ]
				}

			}
, 			{
				"patchline" : 				{
					"source" : [ "obj-3", 0 ],
					"destination" : [ "obj-27", 0 ],
					"hidden" : 0,
					"midpoints" : [  ]
				}

			}
, 			{
				"patchline" : 				{
					"source" : [ "obj-3", 2 ],
					"destination" : [ "obj-27", 2 ],
					"hidden" : 0,
					"midpoints" : [  ]
				}

			}
, 			{
				"patchline" : 				{
					"source" : [ "obj-3", 1 ],
					"destination" : [ "obj-27", 1 ],
					"hidden" : 0,
					"midpoints" : [  ]
				}

			}
, 			{
				"patchline" : 				{
					"source" : [ "obj-3", 4 ],
					"destination" : [ "obj-9", 0 ],
					"hidden" : 0,
					"midpoints" : [  ]
				}

			}
, 			{
				"patchline" : 				{
					"source" : [ "obj-34", 0 ],
					"destination" : [ "obj-22", 0 ],
					"hidden" : 0,
					"midpoints" : [ 174.5, 206.0, 27.5, 206.0 ]
				}

			}
, 			{
				"patchline" : 				{
					"source" : [ "obj-32", 0 ],
					"destination" : [ "obj-12", 0 ],
					"hidden" : 0,
					"midpoints" : [  ]
				}

			}
, 			{
				"patchline" : 				{
					"source" : [ "obj-9", 0 ],
					"destination" : [ "obj-32", 0 ],
					"hidden" : 0,
					"midpoints" : [  ]
				}

			}
, 			{
				"patchline" : 				{
					"source" : [ "obj-26", 2 ],
					"destination" : [ "obj-29", 0 ],
					"hidden" : 0,
					"midpoints" : [  ]
				}

			}
, 			{
				"patchline" : 				{
					"source" : [ "obj-27", 0 ],
					"destination" : [ "obj-22", 0 ],
					"hidden" : 0,
					"midpoints" : [  ]
				}

			}
, 			{
				"patchline" : 				{
					"source" : [ "obj-7", 0 ],
					"destination" : [ "obj-26", 0 ],
					"hidden" : 0,
					"midpoints" : [  ]
				}

			}
, 			{
				"patchline" : 				{
					"source" : [ "obj-26", 1 ],
					"destination" : [ "obj-22", 2 ],
					"hidden" : 0,
					"midpoints" : [  ]
				}

			}
, 			{
				"patchline" : 				{
					"source" : [ "obj-26", 0 ],
					"destination" : [ "obj-22", 1 ],
					"hidden" : 0,
					"midpoints" : [  ]
				}

			}
, 			{
				"patchline" : 				{
					"source" : [ "obj-22", 0 ],
					"destination" : [ "obj-23", 0 ],
					"hidden" : 0,
					"midpoints" : [  ]
				}

			}
 ]
	}

}
