{
	"patcher" : 	{
		"fileversion" : 1,
		"rect" : [ 186.0, 61.0, 324.0, 532.0 ],
		"bglocked" : 0,
		"defrect" : [ 186.0, 61.0, 324.0, 532.0 ],
		"openrect" : [ 0.0, 0.0, 0.0, 0.0 ],
		"openinpresentation" : 0,
		"default_fontsize" : 12.0,
		"default_fontface" : 0,
		"default_fontname" : "Arial",
		"gridonopen" : 0,
		"gridsize" : [ 15.0, 15.0 ],
		"gridsnaponopen" : 0,
		"toolbarvisible" : 1,
		"boxanimatetime" : 200,
		"imprint" : 0,
		"boxes" : [ 			{
				"box" : 				{
					"maxclass" : "newobj",
					"text" : "s #1_fadeEnd",
					"fontsize" : 12.0,
					"id" : "obj-18",
					"patching_rect" : [ 70.0, 397.0, 85.0, 20.0 ],
					"numinlets" : 1,
					"fontname" : "Arial",
					"numoutlets" : 0
				}

			}
, 			{
				"box" : 				{
					"maxclass" : "newobj",
					"text" : "r #1_fadeStart",
					"outlettype" : [ "" ],
					"fontsize" : 12.0,
					"id" : "obj-17",
					"patching_rect" : [ 45.0, 345.0, 87.0, 20.0 ],
					"numinlets" : 0,
					"fontname" : "Arial",
					"numoutlets" : 1
				}

			}
, 			{
				"box" : 				{
					"maxclass" : "newobj",
					"text" : "p.fade~",
					"outlettype" : [ "signal", "" ],
					"fontsize" : 12.0,
					"id" : "obj-1",
					"patching_rect" : [ 19.0, 371.0, 70.0, 20.0 ],
					"numinlets" : 3,
					"fontname" : "Arial",
					"color" : [ 0.317647, 0.709804, 0.321569, 1.0 ],
					"numoutlets" : 2
				}

			}
, 			{
				"box" : 				{
					"maxclass" : "newobj",
					"text" : "prepend interp",
					"outlettype" : [ "" ],
					"fontsize" : 12.0,
					"id" : "obj-34",
					"patching_rect" : [ 166.0, 177.0, 88.0, 20.0 ],
					"numinlets" : 1,
					"fontname" : "Arial",
					"numoutlets" : 1
				}

			}
, 			{
				"box" : 				{
					"maxclass" : "newobj",
					"text" : "t f 0 f",
					"outlettype" : [ "float", "int", "float" ],
					"fontsize" : 12.0,
					"id" : "obj-32",
					"patching_rect" : [ 215.0, 111.0, 90.0, 20.0 ],
					"numinlets" : 1,
					"fontname" : "Arial",
					"numoutlets" : 3
				}

			}
, 			{
				"box" : 				{
					"maxclass" : "newobj",
					"text" : "pv filelength",
					"outlettype" : [ "" ],
					"fontsize" : 12.0,
					"id" : "obj-29",
					"patching_rect" : [ 198.0, 311.0, 75.0, 20.0 ],
					"numinlets" : 1,
					"fontname" : "Arial",
					"numoutlets" : 1
				}

			}
, 			{
				"box" : 				{
					"maxclass" : "newobj",
					"text" : "p playEngine",
					"outlettype" : [ "signal" ],
					"fontsize" : 12.0,
					"id" : "obj-27",
					"patching_rect" : [ 19.0, 84.0, 117.0, 20.0 ],
					"numinlets" : 3,
					"fontname" : "Arial",
					"color" : [ 0.843137, 0.741176, 0.431373, 1.0 ],
					"numoutlets" : 1,
					"patcher" : 					{
						"fileversion" : 1,
						"rect" : [ 312.0, 123.0, 460.0, 270.0 ],
						"bglocked" : 0,
						"defrect" : [ 312.0, 123.0, 460.0, 270.0 ],
						"openrect" : [ 0.0, 0.0, 0.0, 0.0 ],
						"openinpresentation" : 0,
						"default_fontsize" : 12.0,
						"default_fontface" : 0,
						"default_fontname" : "Arial",
						"gridonopen" : 0,
						"gridsize" : [ 15.0, 15.0 ],
						"gridsnaponopen" : 0,
						"toolbarvisible" : 1,
						"boxanimatetime" : 200,
						"imprint" : 0,
						"boxes" : [ 							{
								"box" : 								{
									"maxclass" : "newobj",
									"text" : "s #1_fadeStart",
									"fontsize" : 12.0,
									"id" : "obj-42",
									"patching_rect" : [ 159.0, 142.0, 89.0, 20.0 ],
									"numinlets" : 1,
									"fontname" : "Arial",
									"numoutlets" : 0
								}

							}
, 							{
								"box" : 								{
									"maxclass" : "newobj",
									"text" : "t b b",
									"outlettype" : [ "bang", "bang" ],
									"fontsize" : 12.0,
									"id" : "obj-41",
									"patching_rect" : [ 159.0, 113.0, 43.0, 20.0 ],
									"numinlets" : 1,
									"fontname" : "Arial",
									"numoutlets" : 2
								}

							}
, 							{
								"box" : 								{
									"maxclass" : "outlet",
									"id" : "obj-40",
									"patching_rect" : [ 371.0, 116.0, 25.0, 25.0 ],
									"numinlets" : 1,
									"numoutlets" : 0,
									"comment" : ""
								}

							}
, 							{
								"box" : 								{
									"maxclass" : "newobj",
									"text" : "s #1_playStart",
									"fontsize" : 12.0,
									"id" : "obj-39",
									"patching_rect" : [ 24.0, 170.0, 87.0, 20.0 ],
									"numinlets" : 1,
									"fontname" : "Arial",
									"numoutlets" : 0
								}

							}
, 							{
								"box" : 								{
									"maxclass" : "newobj",
									"text" : "p filterPlay",
									"outlettype" : [ "", "" ],
									"fontsize" : 12.0,
									"id" : "obj-38",
									"patching_rect" : [ 24.0, 69.0, 154.0, 20.0 ],
									"numinlets" : 1,
									"fontname" : "Arial",
									"color" : [ 0.843137, 0.741176, 0.431373, 1.0 ],
									"numoutlets" : 2,
									"patcher" : 									{
										"fileversion" : 1,
										"rect" : [ 29.0, 69.0, 186.0, 246.0 ],
										"bglocked" : 0,
										"defrect" : [ 29.0, 69.0, 186.0, 246.0 ],
										"openrect" : [ 0.0, 0.0, 0.0, 0.0 ],
										"openinpresentation" : 0,
										"default_fontsize" : 12.0,
										"default_fontface" : 0,
										"default_fontname" : "Arial",
										"gridonopen" : 0,
										"gridsize" : [ 15.0, 15.0 ],
										"gridsnaponopen" : 0,
										"toolbarvisible" : 1,
										"boxanimatetime" : 200,
										"imprint" : 0,
										"boxes" : [ 											{
												"box" : 												{
													"maxclass" : "newobj",
													"text" : "t b b",
													"outlettype" : [ "bang", "bang" ],
													"fontsize" : 12.0,
													"id" : "obj-28",
													"patching_rect" : [ 24.0, 66.0, 34.0, 20.0 ],
													"numinlets" : 1,
													"fontname" : "Arial",
													"numoutlets" : 2
												}

											}
, 											{
												"box" : 												{
													"maxclass" : "newobj",
													"text" : "+ 1",
													"outlettype" : [ "int" ],
													"fontsize" : 12.0,
													"id" : "obj-27",
													"patching_rect" : [ 39.0, 133.0, 32.5, 20.0 ],
													"numinlets" : 2,
													"fontname" : "Arial",
													"numoutlets" : 1
												}

											}
, 											{
												"box" : 												{
													"maxclass" : "newobj",
													"text" : "gate 2",
													"outlettype" : [ "", "" ],
													"fontsize" : 12.0,
													"id" : "obj-26",
													"patching_rect" : [ 39.0, 161.0, 75.0, 20.0 ],
													"numinlets" : 2,
													"fontname" : "Arial",
													"numoutlets" : 2
												}

											}
, 											{
												"box" : 												{
													"maxclass" : "newobj",
													"text" : "pv state",
													"outlettype" : [ "" ],
													"fontsize" : 12.0,
													"id" : "obj-25",
													"patching_rect" : [ 39.0, 104.0, 53.0, 20.0 ],
													"numinlets" : 1,
													"fontname" : "Arial",
													"numoutlets" : 1
												}

											}
, 											{
												"box" : 												{
													"maxclass" : "outlet",
													"id" : "obj-3",
													"patching_rect" : [ 95.0, 197.0, 25.0, 25.0 ],
													"numinlets" : 1,
													"numoutlets" : 0,
													"comment" : ""
												}

											}
, 											{
												"box" : 												{
													"maxclass" : "outlet",
													"id" : "obj-2",
													"patching_rect" : [ 39.0, 197.0, 25.0, 25.0 ],
													"numinlets" : 1,
													"numoutlets" : 0,
													"comment" : ""
												}

											}
, 											{
												"box" : 												{
													"maxclass" : "inlet",
													"outlettype" : [ "" ],
													"id" : "obj-1",
													"patching_rect" : [ 24.0, 23.0, 25.0, 25.0 ],
													"numinlets" : 0,
													"numoutlets" : 1,
													"comment" : ""
												}

											}
 ],
										"lines" : [ 											{
												"patchline" : 												{
													"source" : [ "obj-26", 1 ],
													"destination" : [ "obj-3", 0 ],
													"hidden" : 0,
													"midpoints" : [  ]
												}

											}
, 											{
												"patchline" : 												{
													"source" : [ "obj-26", 0 ],
													"destination" : [ "obj-2", 0 ],
													"hidden" : 0,
													"midpoints" : [  ]
												}

											}
, 											{
												"patchline" : 												{
													"source" : [ "obj-1", 0 ],
													"destination" : [ "obj-28", 0 ],
													"hidden" : 0,
													"midpoints" : [  ]
												}

											}
, 											{
												"patchline" : 												{
													"source" : [ "obj-27", 0 ],
													"destination" : [ "obj-26", 0 ],
													"hidden" : 0,
													"midpoints" : [  ]
												}

											}
, 											{
												"patchline" : 												{
													"source" : [ "obj-25", 0 ],
													"destination" : [ "obj-27", 0 ],
													"hidden" : 0,
													"midpoints" : [  ]
												}

											}
, 											{
												"patchline" : 												{
													"source" : [ "obj-28", 1 ],
													"destination" : [ "obj-25", 0 ],
													"hidden" : 0,
													"midpoints" : [  ]
												}

											}
, 											{
												"patchline" : 												{
													"source" : [ "obj-28", 0 ],
													"destination" : [ "obj-26", 1 ],
													"hidden" : 0,
													"color" : [ 1.0, 0.337255, 0.619608, 1.0 ],
													"midpoints" : [ 33.5, 96.5, 104.5, 96.5 ]
												}

											}
 ]
									}
,
									"saved_object_attributes" : 									{
										"fontface" : 0,
										"fontsize" : 12.0,
										"default_fontface" : 0,
										"globalpatchername" : "",
										"default_fontname" : "Arial",
										"fontname" : "Arial",
										"default_fontsize" : 12.0
									}

								}

							}
, 							{
								"box" : 								{
									"maxclass" : "newobj",
									"text" : "p core",
									"outlettype" : [ "signal" ],
									"fontsize" : 12.0,
									"id" : "obj-37",
									"patching_rect" : [ 371.0, 67.0, 44.0, 20.0 ],
									"numinlets" : 1,
									"fontname" : "Arial",
									"color" : [ 0.843137, 0.741176, 0.431373, 1.0 ],
									"numoutlets" : 1,
									"patcher" : 									{
										"fileversion" : 1,
										"rect" : [ 271.0, 55.0, 243.0, 334.0 ],
										"bglocked" : 0,
										"defrect" : [ 271.0, 55.0, 243.0, 334.0 ],
										"openrect" : [ 0.0, 0.0, 0.0, 0.0 ],
										"openinpresentation" : 0,
										"default_fontsize" : 12.0,
										"default_fontface" : 0,
										"default_fontname" : "Arial",
										"gridonopen" : 0,
										"gridsize" : [ 15.0, 15.0 ],
										"gridsnaponopen" : 0,
										"toolbarvisible" : 1,
										"boxanimatetime" : 200,
										"imprint" : 0,
										"boxes" : [ 											{
												"box" : 												{
													"maxclass" : "newobj",
													"text" : "r #1_playStart",
													"outlettype" : [ "" ],
													"fontsize" : 12.0,
													"id" : "obj-5",
													"patching_rect" : [ 17.0, 69.0, 85.0, 20.0 ],
													"numinlets" : 0,
													"fontname" : "Arial",
													"numoutlets" : 1
												}

											}
, 											{
												"box" : 												{
													"maxclass" : "message",
													"text" : "0.",
													"outlettype" : [ "" ],
													"fontsize" : 12.0,
													"id" : "obj-8",
													"patching_rect" : [ 130.0, 214.0, 32.5, 18.0 ],
													"numinlets" : 2,
													"fontname" : "Arial",
													"numoutlets" : 1
												}

											}
, 											{
												"box" : 												{
													"maxclass" : "newobj",
													"text" : "sel 0",
													"outlettype" : [ "bang", "" ],
													"fontsize" : 12.0,
													"id" : "obj-7",
													"patching_rect" : [ 130.0, 188.0, 36.0, 20.0 ],
													"numinlets" : 2,
													"fontname" : "Arial",
													"numoutlets" : 2
												}

											}
, 											{
												"box" : 												{
													"maxclass" : "newobj",
													"text" : "r #1_fadeEnd",
													"outlettype" : [ "" ],
													"fontsize" : 12.0,
													"id" : "obj-6",
													"patching_rect" : [ 130.0, 161.0, 83.0, 20.0 ],
													"numinlets" : 0,
													"fontname" : "Arial",
													"numoutlets" : 1
												}

											}
, 											{
												"box" : 												{
													"maxclass" : "newobj",
													"text" : "gate",
													"outlettype" : [ "" ],
													"fontsize" : 12.0,
													"id" : "obj-4",
													"patching_rect" : [ 106.0, 69.0, 43.0, 20.0 ],
													"numinlets" : 2,
													"fontname" : "Arial",
													"numoutlets" : 1
												}

											}
, 											{
												"box" : 												{
													"maxclass" : "newobj",
													"text" : "line~",
													"outlettype" : [ "signal", "bang" ],
													"fontsize" : 12.0,
													"id" : "obj-21",
													"patching_rect" : [ 106.0, 245.0, 56.0, 20.0 ],
													"numinlets" : 2,
													"fontname" : "Arial",
													"numoutlets" : 2
												}

											}
, 											{
												"box" : 												{
													"maxclass" : "message",
													"text" : "0., 1. $1",
													"outlettype" : [ "" ],
													"fontsize" : 12.0,
													"id" : "obj-20",
													"patching_rect" : [ 106.0, 130.0, 54.0, 18.0 ],
													"numinlets" : 2,
													"fontname" : "Arial",
													"numoutlets" : 1
												}

											}
, 											{
												"box" : 												{
													"maxclass" : "newobj",
													"text" : "pv filelength",
													"outlettype" : [ "" ],
													"fontsize" : 12.0,
													"id" : "obj-18",
													"patching_rect" : [ 106.0, 104.0, 75.0, 20.0 ],
													"numinlets" : 1,
													"fontname" : "Arial",
													"numoutlets" : 1
												}

											}
, 											{
												"box" : 												{
													"maxclass" : "outlet",
													"id" : "obj-3",
													"patching_rect" : [ 106.0, 289.0, 25.0, 25.0 ],
													"numinlets" : 1,
													"numoutlets" : 0,
													"comment" : ""
												}

											}
, 											{
												"box" : 												{
													"maxclass" : "inlet",
													"outlettype" : [ "" ],
													"id" : "obj-2",
													"patching_rect" : [ 106.0, 21.0, 25.0, 25.0 ],
													"numinlets" : 0,
													"numoutlets" : 1,
													"comment" : ""
												}

											}
 ],
										"lines" : [ 											{
												"patchline" : 												{
													"source" : [ "obj-5", 0 ],
													"destination" : [ "obj-18", 0 ],
													"hidden" : 0,
													"midpoints" : [ 26.5, 97.5, 115.5, 97.5 ]
												}

											}
, 											{
												"patchline" : 												{
													"source" : [ "obj-21", 0 ],
													"destination" : [ "obj-3", 0 ],
													"hidden" : 0,
													"midpoints" : [  ]
												}

											}
, 											{
												"patchline" : 												{
													"source" : [ "obj-2", 0 ],
													"destination" : [ "obj-4", 0 ],
													"hidden" : 0,
													"midpoints" : [  ]
												}

											}
, 											{
												"patchline" : 												{
													"source" : [ "obj-8", 0 ],
													"destination" : [ "obj-21", 0 ],
													"hidden" : 0,
													"midpoints" : [ 139.5, 238.0, 115.5, 238.0 ]
												}

											}
, 											{
												"patchline" : 												{
													"source" : [ "obj-7", 0 ],
													"destination" : [ "obj-8", 0 ],
													"hidden" : 0,
													"midpoints" : [  ]
												}

											}
, 											{
												"patchline" : 												{
													"source" : [ "obj-18", 0 ],
													"destination" : [ "obj-20", 0 ],
													"hidden" : 0,
													"midpoints" : [  ]
												}

											}
, 											{
												"patchline" : 												{
													"source" : [ "obj-4", 0 ],
													"destination" : [ "obj-18", 0 ],
													"hidden" : 0,
													"midpoints" : [  ]
												}

											}
, 											{
												"patchline" : 												{
													"source" : [ "obj-21", 1 ],
													"destination" : [ "obj-4", 1 ],
													"hidden" : 0,
													"midpoints" : [ 152.5, 271.0, 219.0, 271.0, 219.0, 62.0, 139.5, 62.0 ]
												}

											}
, 											{
												"patchline" : 												{
													"source" : [ "obj-20", 0 ],
													"destination" : [ "obj-21", 0 ],
													"hidden" : 0,
													"midpoints" : [  ]
												}

											}
, 											{
												"patchline" : 												{
													"source" : [ "obj-6", 0 ],
													"destination" : [ "obj-7", 0 ],
													"hidden" : 0,
													"midpoints" : [  ]
												}

											}
 ]
									}
,
									"saved_object_attributes" : 									{
										"fontface" : 0,
										"fontsize" : 12.0,
										"default_fontface" : 0,
										"globalpatchername" : "",
										"default_fontname" : "Arial",
										"fontname" : "Arial",
										"default_fontsize" : 12.0
									}

								}

							}
, 							{
								"box" : 								{
									"maxclass" : "newobj",
									"text" : "p filterStop",
									"outlettype" : [ "" ],
									"fontsize" : 12.0,
									"id" : "obj-36",
									"patching_rect" : [ 249.0, 69.0, 68.0, 20.0 ],
									"numinlets" : 1,
									"fontname" : "Arial",
									"color" : [ 0.843137, 0.741176, 0.431373, 1.0 ],
									"numoutlets" : 1,
									"patcher" : 									{
										"fileversion" : 1,
										"rect" : [ 29.0, 69.0, 162.0, 220.0 ],
										"bglocked" : 0,
										"defrect" : [ 29.0, 69.0, 162.0, 220.0 ],
										"openrect" : [ 0.0, 0.0, 0.0, 0.0 ],
										"openinpresentation" : 0,
										"default_fontsize" : 12.0,
										"default_fontface" : 0,
										"default_fontname" : "Arial",
										"gridonopen" : 0,
										"gridsize" : [ 15.0, 15.0 ],
										"gridsnaponopen" : 0,
										"toolbarvisible" : 1,
										"boxanimatetime" : 200,
										"imprint" : 0,
										"boxes" : [ 											{
												"box" : 												{
													"maxclass" : "newobj",
													"text" : "t b b",
													"outlettype" : [ "bang", "bang" ],
													"fontsize" : 12.0,
													"id" : "obj-16",
													"patching_rect" : [ 20.0, 66.0, 34.0, 20.0 ],
													"numinlets" : 1,
													"fontname" : "Arial",
													"numoutlets" : 2
												}

											}
, 											{
												"box" : 												{
													"maxclass" : "newobj",
													"text" : "gate",
													"outlettype" : [ "" ],
													"fontsize" : 12.0,
													"id" : "obj-13",
													"patching_rect" : [ 35.0, 138.0, 44.0, 20.0 ],
													"numinlets" : 2,
													"fontname" : "Arial",
													"numoutlets" : 1
												}

											}
, 											{
												"box" : 												{
													"maxclass" : "newobj",
													"text" : "pv state",
													"outlettype" : [ "" ],
													"fontsize" : 12.0,
													"id" : "obj-9",
													"patching_rect" : [ 35.0, 98.0, 53.0, 20.0 ],
													"numinlets" : 1,
													"fontname" : "Arial",
													"numoutlets" : 1
												}

											}
, 											{
												"box" : 												{
													"maxclass" : "outlet",
													"id" : "obj-2",
													"patching_rect" : [ 35.0, 175.0, 25.0, 25.0 ],
													"numinlets" : 1,
													"numoutlets" : 0,
													"comment" : ""
												}

											}
, 											{
												"box" : 												{
													"maxclass" : "inlet",
													"outlettype" : [ "" ],
													"id" : "obj-1",
													"patching_rect" : [ 20.0, 24.0, 25.0, 25.0 ],
													"numinlets" : 0,
													"numoutlets" : 1,
													"comment" : ""
												}

											}
 ],
										"lines" : [ 											{
												"patchline" : 												{
													"source" : [ "obj-13", 0 ],
													"destination" : [ "obj-2", 0 ],
													"hidden" : 0,
													"midpoints" : [  ]
												}

											}
, 											{
												"patchline" : 												{
													"source" : [ "obj-1", 0 ],
													"destination" : [ "obj-16", 0 ],
													"hidden" : 0,
													"midpoints" : [  ]
												}

											}
, 											{
												"patchline" : 												{
													"source" : [ "obj-16", 0 ],
													"destination" : [ "obj-13", 1 ],
													"hidden" : 0,
													"color" : [ 1.0, 0.337255, 0.619608, 1.0 ],
													"midpoints" : [ 29.5, 127.0, 69.5, 127.0 ]
												}

											}
, 											{
												"patchline" : 												{
													"source" : [ "obj-16", 1 ],
													"destination" : [ "obj-9", 0 ],
													"hidden" : 0,
													"midpoints" : [  ]
												}

											}
, 											{
												"patchline" : 												{
													"source" : [ "obj-9", 0 ],
													"destination" : [ "obj-13", 0 ],
													"hidden" : 0,
													"midpoints" : [  ]
												}

											}
 ]
									}
,
									"saved_object_attributes" : 									{
										"fontface" : 0,
										"fontsize" : 12.0,
										"default_fontface" : 0,
										"globalpatchername" : "",
										"default_fontname" : "Arial",
										"fontname" : "Arial",
										"default_fontsize" : 12.0
									}

								}

							}
, 							{
								"box" : 								{
									"maxclass" : "newobj",
									"text" : "p.block 0",
									"outlettype" : [ "" ],
									"fontsize" : 12.0,
									"id" : "obj-35",
									"patching_rect" : [ 143.0, 197.0, 59.0, 20.0 ],
									"numinlets" : 2,
									"fontname" : "Arial",
									"color" : [ 0.317647, 0.709804, 0.321569, 1.0 ],
									"numoutlets" : 1
								}

							}
, 							{
								"box" : 								{
									"maxclass" : "newobj",
									"text" : "r #1_fadeEnd",
									"outlettype" : [ "" ],
									"fontsize" : 12.0,
									"id" : "obj-34",
									"patching_rect" : [ 143.0, 169.0, 83.0, 20.0 ],
									"numinlets" : 0,
									"fontname" : "Arial",
									"numoutlets" : 1
								}

							}
, 							{
								"box" : 								{
									"maxclass" : "newobj",
									"text" : "t b b",
									"outlettype" : [ "bang", "bang" ],
									"fontsize" : 12.0,
									"id" : "obj-33",
									"patching_rect" : [ 24.0, 113.0, 34.0, 20.0 ],
									"numinlets" : 1,
									"fontname" : "Arial",
									"numoutlets" : 2
								}

							}
, 							{
								"box" : 								{
									"maxclass" : "newobj",
									"text" : "s #1_fadeStart",
									"fontsize" : 12.0,
									"id" : "obj-32",
									"patching_rect" : [ 39.0, 142.0, 89.0, 20.0 ],
									"numinlets" : 1,
									"fontname" : "Arial",
									"numoutlets" : 0
								}

							}
, 							{
								"box" : 								{
									"maxclass" : "newobj",
									"text" : "pv state",
									"outlettype" : [ "" ],
									"fontsize" : 12.0,
									"id" : "obj-15",
									"patching_rect" : [ 285.0, 230.0, 53.0, 20.0 ],
									"numinlets" : 1,
									"fontname" : "Arial",
									"numoutlets" : 1
								}

							}
, 							{
								"box" : 								{
									"maxclass" : "newobj",
									"text" : "s #1_fadeStart",
									"fontsize" : 12.0,
									"id" : "obj-14",
									"patching_rect" : [ 249.0, 98.0, 89.0, 20.0 ],
									"numinlets" : 1,
									"fontname" : "Arial",
									"numoutlets" : 0
								}

							}
, 							{
								"box" : 								{
									"maxclass" : "newobj",
									"text" : "r #1_fadeEnd",
									"outlettype" : [ "" ],
									"fontsize" : 12.0,
									"id" : "obj-11",
									"patching_rect" : [ 362.0, 192.0, 83.0, 20.0 ],
									"numinlets" : 0,
									"fontname" : "Arial",
									"numoutlets" : 1
								}

							}
, 							{
								"box" : 								{
									"maxclass" : "newobj",
									"text" : "loadmess 0",
									"outlettype" : [ "" ],
									"fontsize" : 12.0,
									"id" : "obj-10",
									"patching_rect" : [ 285.0, 192.0, 72.0, 20.0 ],
									"numinlets" : 1,
									"fontname" : "Arial",
									"numoutlets" : 1
								}

							}
, 							{
								"box" : 								{
									"maxclass" : "inlet",
									"outlettype" : [ "" ],
									"id" : "obj-5",
									"patching_rect" : [ 371.0, 18.0, 25.0, 25.0 ],
									"numinlets" : 0,
									"numoutlets" : 1,
									"comment" : ""
								}

							}
, 							{
								"box" : 								{
									"maxclass" : "inlet",
									"outlettype" : [ "" ],
									"id" : "obj-4",
									"patching_rect" : [ 249.0, 20.0, 25.0, 25.0 ],
									"numinlets" : 0,
									"numoutlets" : 1,
									"comment" : ""
								}

							}
, 							{
								"box" : 								{
									"maxclass" : "inlet",
									"outlettype" : [ "" ],
									"id" : "obj-3",
									"patching_rect" : [ 24.0, 20.0, 25.0, 25.0 ],
									"numinlets" : 0,
									"numoutlets" : 1,
									"comment" : ""
								}

							}
 ],
						"lines" : [ 							{
								"patchline" : 								{
									"source" : [ "obj-41", 0 ],
									"destination" : [ "obj-42", 0 ],
									"hidden" : 0,
									"midpoints" : [  ]
								}

							}
, 							{
								"patchline" : 								{
									"source" : [ "obj-35", 0 ],
									"destination" : [ "obj-33", 0 ],
									"hidden" : 0,
									"midpoints" : [ 152.5, 222.0, 132.0, 222.0, 132.0, 106.0, 33.5, 106.0 ]
								}

							}
, 							{
								"patchline" : 								{
									"source" : [ "obj-34", 0 ],
									"destination" : [ "obj-35", 0 ],
									"hidden" : 0,
									"midpoints" : [  ]
								}

							}
, 							{
								"patchline" : 								{
									"source" : [ "obj-41", 1 ],
									"destination" : [ "obj-35", 1 ],
									"hidden" : 0,
									"midpoints" : [  ]
								}

							}
, 							{
								"patchline" : 								{
									"source" : [ "obj-38", 1 ],
									"destination" : [ "obj-41", 0 ],
									"hidden" : 0,
									"midpoints" : [  ]
								}

							}
, 							{
								"patchline" : 								{
									"source" : [ "obj-37", 0 ],
									"destination" : [ "obj-40", 0 ],
									"hidden" : 0,
									"midpoints" : [  ]
								}

							}
, 							{
								"patchline" : 								{
									"source" : [ "obj-33", 0 ],
									"destination" : [ "obj-39", 0 ],
									"hidden" : 0,
									"midpoints" : [  ]
								}

							}
, 							{
								"patchline" : 								{
									"source" : [ "obj-33", 1 ],
									"destination" : [ "obj-32", 0 ],
									"hidden" : 0,
									"midpoints" : [  ]
								}

							}
, 							{
								"patchline" : 								{
									"source" : [ "obj-38", 0 ],
									"destination" : [ "obj-33", 0 ],
									"hidden" : 0,
									"midpoints" : [  ]
								}

							}
, 							{
								"patchline" : 								{
									"source" : [ "obj-3", 0 ],
									"destination" : [ "obj-38", 0 ],
									"hidden" : 0,
									"midpoints" : [  ]
								}

							}
, 							{
								"patchline" : 								{
									"source" : [ "obj-11", 0 ],
									"destination" : [ "obj-15", 0 ],
									"hidden" : 0,
									"midpoints" : [ 371.5, 221.0, 294.5, 221.0 ]
								}

							}
, 							{
								"patchline" : 								{
									"source" : [ "obj-5", 0 ],
									"destination" : [ "obj-37", 0 ],
									"hidden" : 0,
									"midpoints" : [  ]
								}

							}
, 							{
								"patchline" : 								{
									"source" : [ "obj-36", 0 ],
									"destination" : [ "obj-14", 0 ],
									"hidden" : 0,
									"midpoints" : [  ]
								}

							}
, 							{
								"patchline" : 								{
									"source" : [ "obj-4", 0 ],
									"destination" : [ "obj-36", 0 ],
									"hidden" : 0,
									"midpoints" : [  ]
								}

							}
, 							{
								"patchline" : 								{
									"source" : [ "obj-10", 0 ],
									"destination" : [ "obj-15", 0 ],
									"hidden" : 0,
									"midpoints" : [  ]
								}

							}
 ]
					}
,
					"saved_object_attributes" : 					{
						"fontface" : 0,
						"fontsize" : 12.0,
						"default_fontface" : 0,
						"globalpatchername" : "",
						"default_fontname" : "Arial",
						"fontname" : "Arial",
						"default_fontsize" : 12.0
					}

				}

			}
, 			{
				"box" : 				{
					"maxclass" : "newobj",
					"text" : "p parsePlayTime",
					"outlettype" : [ "int", "float", "float" ],
					"fontsize" : 12.0,
					"id" : "obj-26",
					"patching_rect" : [ 79.0, 280.0, 138.0, 20.0 ],
					"numinlets" : 2,
					"fontname" : "Arial",
					"color" : [ 0.843137, 0.741176, 0.431373, 1.0 ],
					"numoutlets" : 3,
					"patcher" : 					{
						"fileversion" : 1,
						"rect" : [ 457.0, 171.0, 230.0, 151.0 ],
						"bglocked" : 0,
						"defrect" : [ 457.0, 171.0, 230.0, 151.0 ],
						"openrect" : [ 0.0, 0.0, 0.0, 0.0 ],
						"openinpresentation" : 0,
						"default_fontsize" : 12.0,
						"default_fontface" : 0,
						"default_fontname" : "Arial",
						"gridonopen" : 0,
						"gridsize" : [ 15.0, 15.0 ],
						"gridsnaponopen" : 0,
						"toolbarvisible" : 1,
						"boxanimatetime" : 200,
						"imprint" : 0,
						"boxes" : [ 							{
								"box" : 								{
									"maxclass" : "outlet",
									"id" : "obj-8",
									"patching_rect" : [ 96.0, 105.0, 25.0, 25.0 ],
									"numinlets" : 1,
									"numoutlets" : 0,
									"comment" : ""
								}

							}
, 							{
								"box" : 								{
									"maxclass" : "newobj",
									"text" : "p calculatePlayTime",
									"outlettype" : [ "float" ],
									"fontsize" : 12.0,
									"id" : "obj-14",
									"patching_rect" : [ 96.0, 74.0, 118.0, 20.0 ],
									"numinlets" : 2,
									"fontname" : "Arial",
									"color" : [ 0.843137, 0.741176, 0.431373, 1.0 ],
									"numoutlets" : 1,
									"patcher" : 									{
										"fileversion" : 1,
										"rect" : [ 222.0, 44.0, 154.0, 314.0 ],
										"bglocked" : 0,
										"defrect" : [ 222.0, 44.0, 154.0, 314.0 ],
										"openrect" : [ 0.0, 0.0, 0.0, 0.0 ],
										"openinpresentation" : 0,
										"default_fontsize" : 12.0,
										"default_fontface" : 0,
										"default_fontname" : "Arial",
										"gridonopen" : 0,
										"gridsize" : [ 15.0, 15.0 ],
										"gridsnaponopen" : 0,
										"toolbarvisible" : 1,
										"boxanimatetime" : 200,
										"imprint" : 0,
										"boxes" : [ 											{
												"box" : 												{
													"maxclass" : "outlet",
													"id" : "obj-23",
													"patching_rect" : [ 61.0, 271.0, 25.0, 25.0 ],
													"numinlets" : 1,
													"numoutlets" : 0,
													"comment" : ""
												}

											}
, 											{
												"box" : 												{
													"maxclass" : "newobj",
													"text" : "t f b",
													"outlettype" : [ "float", "bang" ],
													"fontsize" : 12.0,
													"id" : "obj-22",
													"patching_rect" : [ 61.0, 174.0, 53.5, 20.0 ],
													"numinlets" : 1,
													"fontname" : "Arial",
													"numoutlets" : 2
												}

											}
, 											{
												"box" : 												{
													"maxclass" : "newobj",
													"text" : "f 0.",
													"outlettype" : [ "float" ],
													"fontsize" : 12.0,
													"id" : "obj-21",
													"patching_rect" : [ 96.0, 207.0, 36.5, 20.0 ],
													"numinlets" : 2,
													"fontname" : "Arial",
													"numoutlets" : 1
												}

											}
, 											{
												"box" : 												{
													"maxclass" : "newobj",
													"text" : "- 0.",
													"outlettype" : [ "float" ],
													"fontsize" : 12.0,
													"id" : "obj-20",
													"patching_rect" : [ 61.0, 234.0, 53.5, 20.0 ],
													"numinlets" : 2,
													"fontname" : "Arial",
													"numoutlets" : 1
												}

											}
, 											{
												"box" : 												{
													"maxclass" : "inlet",
													"outlettype" : [ "int" ],
													"id" : "obj-19",
													"patching_rect" : [ 32.0, 64.0, 25.0, 25.0 ],
													"numinlets" : 0,
													"numoutlets" : 1,
													"comment" : ""
												}

											}
, 											{
												"box" : 												{
													"maxclass" : "newobj",
													"text" : "t f b",
													"outlettype" : [ "float", "bang" ],
													"fontsize" : 12.0,
													"id" : "obj-18",
													"patching_rect" : [ 32.0, 100.0, 47.5, 20.0 ],
													"numinlets" : 1,
													"fontname" : "Arial",
													"numoutlets" : 2
												}

											}
, 											{
												"box" : 												{
													"maxclass" : "newobj",
													"text" : "f",
													"outlettype" : [ "float" ],
													"fontsize" : 12.0,
													"id" : "obj-12",
													"patching_rect" : [ 61.0, 146.0, 50.5, 20.0 ],
													"numinlets" : 2,
													"fontname" : "Arial",
													"numoutlets" : 1
												}

											}
, 											{
												"box" : 												{
													"maxclass" : "inlet",
													"outlettype" : [ "float" ],
													"id" : "obj-2",
													"patching_rect" : [ 87.0, 19.0, 25.0, 25.0 ],
													"numinlets" : 0,
													"numoutlets" : 1,
													"comment" : ""
												}

											}
 ],
										"lines" : [ 											{
												"patchline" : 												{
													"source" : [ "obj-19", 0 ],
													"destination" : [ "obj-18", 0 ],
													"hidden" : 0,
													"midpoints" : [  ]
												}

											}
, 											{
												"patchline" : 												{
													"source" : [ "obj-12", 0 ],
													"destination" : [ "obj-22", 0 ],
													"hidden" : 0,
													"midpoints" : [  ]
												}

											}
, 											{
												"patchline" : 												{
													"source" : [ "obj-22", 0 ],
													"destination" : [ "obj-20", 0 ],
													"hidden" : 0,
													"midpoints" : [  ]
												}

											}
, 											{
												"patchline" : 												{
													"source" : [ "obj-20", 0 ],
													"destination" : [ "obj-23", 0 ],
													"hidden" : 0,
													"midpoints" : [  ]
												}

											}
, 											{
												"patchline" : 												{
													"source" : [ "obj-21", 0 ],
													"destination" : [ "obj-20", 1 ],
													"hidden" : 0,
													"midpoints" : [  ]
												}

											}
, 											{
												"patchline" : 												{
													"source" : [ "obj-22", 1 ],
													"destination" : [ "obj-21", 0 ],
													"hidden" : 0,
													"midpoints" : [  ]
												}

											}
, 											{
												"patchline" : 												{
													"source" : [ "obj-18", 1 ],
													"destination" : [ "obj-12", 0 ],
													"hidden" : 0,
													"color" : [ 1.0, 0.337255, 0.619608, 1.0 ],
													"midpoints" : [  ]
												}

											}
, 											{
												"patchline" : 												{
													"source" : [ "obj-18", 0 ],
													"destination" : [ "obj-21", 0 ],
													"hidden" : 0,
													"midpoints" : [ 41.5, 127.0, 127.0, 127.0, 127.0, 200.0, 105.5, 200.0 ]
												}

											}
, 											{
												"patchline" : 												{
													"source" : [ "obj-2", 0 ],
													"destination" : [ "obj-12", 0 ],
													"hidden" : 0,
													"midpoints" : [ 96.5, 52.0, 20.0, 52.0, 20.0, 138.0, 70.5, 138.0 ]
												}

											}
 ]
									}
,
									"saved_object_attributes" : 									{
										"fontface" : 0,
										"fontsize" : 12.0,
										"default_fontface" : 0,
										"globalpatchername" : "",
										"default_fontname" : "Arial",
										"fontname" : "Arial",
										"default_fontsize" : 12.0
									}

								}

							}
, 							{
								"box" : 								{
									"maxclass" : "outlet",
									"id" : "obj-4",
									"patching_rect" : [ 14.0, 105.0, 25.0, 25.0 ],
									"numinlets" : 1,
									"numoutlets" : 0,
									"comment" : ""
								}

							}
, 							{
								"box" : 								{
									"maxclass" : "outlet",
									"id" : "obj-3",
									"patching_rect" : [ 59.0, 105.0, 25.0, 25.0 ],
									"numinlets" : 1,
									"numoutlets" : 0,
									"comment" : ""
								}

							}
, 							{
								"box" : 								{
									"maxclass" : "inlet",
									"outlettype" : [ "float" ],
									"id" : "obj-2",
									"patching_rect" : [ 59.0, 17.0, 25.0, 25.0 ],
									"numinlets" : 0,
									"numoutlets" : 1,
									"comment" : ""
								}

							}
, 							{
								"box" : 								{
									"maxclass" : "inlet",
									"outlettype" : [ "int" ],
									"id" : "obj-1",
									"patching_rect" : [ 14.0, 17.0, 25.0, 25.0 ],
									"numinlets" : 0,
									"numoutlets" : 1,
									"comment" : ""
								}

							}
 ],
						"lines" : [ 							{
								"patchline" : 								{
									"source" : [ "obj-14", 0 ],
									"destination" : [ "obj-8", 0 ],
									"hidden" : 0,
									"midpoints" : [  ]
								}

							}
, 							{
								"patchline" : 								{
									"source" : [ "obj-2", 0 ],
									"destination" : [ "obj-3", 0 ],
									"hidden" : 0,
									"midpoints" : [  ]
								}

							}
, 							{
								"patchline" : 								{
									"source" : [ "obj-1", 0 ],
									"destination" : [ "obj-4", 0 ],
									"hidden" : 0,
									"midpoints" : [  ]
								}

							}
, 							{
								"patchline" : 								{
									"source" : [ "obj-2", 0 ],
									"destination" : [ "obj-14", 1 ],
									"hidden" : 0,
									"color" : [ 1.0, 0.337255, 0.619608, 1.0 ],
									"midpoints" : [ 68.5, 51.5, 204.5, 51.5 ]
								}

							}
, 							{
								"patchline" : 								{
									"source" : [ "obj-1", 0 ],
									"destination" : [ "obj-14", 0 ],
									"hidden" : 0,
									"color" : [ 1.0, 0.337255, 0.619608, 1.0 ],
									"midpoints" : [ 23.5, 60.5, 105.5, 60.5 ]
								}

							}
 ]
					}
,
					"saved_object_attributes" : 					{
						"fontface" : 0,
						"fontsize" : 12.0,
						"default_fontface" : 0,
						"globalpatchername" : "",
						"default_fontname" : "Arial",
						"fontname" : "Arial",
						"default_fontsize" : 12.0
					}

				}

			}
, 			{
				"box" : 				{
					"maxclass" : "comment",
					"text" : "filelength",
					"fontsize" : 11.0,
					"id" : "obj-13",
					"patching_rect" : [ 242.0, 143.0, 56.0, 19.0 ],
					"numinlets" : 1,
					"fontname" : "Arial",
					"numoutlets" : 0
				}

			}
, 			{
				"box" : 				{
					"maxclass" : "outlet",
					"id" : "obj-12",
					"patching_rect" : [ 215.0, 141.0, 25.0, 25.0 ],
					"numinlets" : 1,
					"numoutlets" : 0,
					"comment" : "(float) filelength in ms (end of file load marker)"
				}

			}
, 			{
				"box" : 				{
					"maxclass" : "comment",
					"text" : "end time",
					"fontsize" : 11.0,
					"id" : "obj-11",
					"patching_rect" : [ 225.0, 241.0, 53.0, 19.0 ],
					"numinlets" : 1,
					"fontname" : "Arial",
					"numoutlets" : 0
				}

			}
, 			{
				"box" : 				{
					"maxclass" : "comment",
					"text" : "start time",
					"fontsize" : 11.0,
					"id" : "obj-10",
					"patching_rect" : [ 106.0, 241.0, 56.0, 19.0 ],
					"numinlets" : 1,
					"fontname" : "Arial",
					"numoutlets" : 0
				}

			}
, 			{
				"box" : 				{
					"maxclass" : "inlet",
					"outlettype" : [ "" ],
					"id" : "obj-8",
					"patching_rect" : [ 198.0, 239.0, 25.0, 25.0 ],
					"numinlets" : 0,
					"numoutlets" : 1,
					"comment" : "(signal/float) end time (def: file length)"
				}

			}
, 			{
				"box" : 				{
					"maxclass" : "inlet",
					"outlettype" : [ "" ],
					"id" : "obj-7",
					"patching_rect" : [ 79.0, 239.0, 25.0, 25.0 ],
					"numinlets" : 0,
					"numoutlets" : 1,
					"comment" : "(signal/float) start time (def: 0.)"
				}

			}
, 			{
				"box" : 				{
					"maxclass" : "newobj",
					"text" : "p loadFile",
					"outlettype" : [ "float" ],
					"fontsize" : 12.0,
					"id" : "obj-9",
					"patching_rect" : [ 215.0, 84.0, 63.0, 20.0 ],
					"numinlets" : 1,
					"fontname" : "Arial",
					"color" : [ 0.843137, 0.741176, 0.431373, 1.0 ],
					"numoutlets" : 1,
					"patcher" : 					{
						"fileversion" : 1,
						"rect" : [ 620.0, 121.0, 173.0, 156.0 ],
						"bglocked" : 0,
						"defrect" : [ 620.0, 121.0, 173.0, 156.0 ],
						"openrect" : [ 0.0, 0.0, 0.0, 0.0 ],
						"openinpresentation" : 0,
						"default_fontsize" : 12.0,
						"default_fontface" : 0,
						"default_fontname" : "Arial",
						"gridonopen" : 0,
						"gridsize" : [ 15.0, 15.0 ],
						"gridsnaponopen" : 0,
						"toolbarvisible" : 1,
						"boxanimatetime" : 200,
						"imprint" : 0,
						"boxes" : [ 							{
								"box" : 								{
									"maxclass" : "newobj",
									"text" : "p getPath",
									"outlettype" : [ "" ],
									"fontsize" : 12.0,
									"id" : "obj-4",
									"patching_rect" : [ 19.0, 53.0, 62.0, 20.0 ],
									"numinlets" : 1,
									"fontname" : "Arial",
									"color" : [ 0.843137, 0.741176, 0.431373, 1.0 ],
									"numoutlets" : 1,
									"patcher" : 									{
										"fileversion" : 1,
										"rect" : [ 702.0, 46.0, 149.0, 167.0 ],
										"bglocked" : 0,
										"defrect" : [ 702.0, 46.0, 149.0, 167.0 ],
										"openrect" : [ 0.0, 0.0, 0.0, 0.0 ],
										"openinpresentation" : 0,
										"default_fontsize" : 12.0,
										"default_fontface" : 0,
										"default_fontname" : "Arial",
										"gridonopen" : 0,
										"gridsize" : [ 15.0, 15.0 ],
										"gridsnaponopen" : 0,
										"toolbarvisible" : 1,
										"boxanimatetime" : 200,
										"imprint" : 0,
										"boxes" : [ 											{
												"box" : 												{
													"maxclass" : "newobj",
													"text" : "sel open",
													"outlettype" : [ "bang", "" ],
													"fontsize" : 12.0,
													"id" : "obj-8",
													"patching_rect" : [ 16.0, 55.0, 56.0, 20.0 ],
													"numinlets" : 1,
													"fontname" : "Arial",
													"numoutlets" : 2
												}

											}
, 											{
												"box" : 												{
													"maxclass" : "newobj",
													"text" : "opendialog",
													"outlettype" : [ "", "bang" ],
													"fontsize" : 12.0,
													"id" : "obj-10",
													"patching_rect" : [ 16.0, 85.0, 69.0, 20.0 ],
													"numinlets" : 1,
													"fontname" : "Arial",
													"numoutlets" : 2
												}

											}
, 											{
												"box" : 												{
													"maxclass" : "outlet",
													"id" : "obj-2",
													"patching_rect" : [ 16.0, 124.0, 25.0, 25.0 ],
													"numinlets" : 1,
													"numoutlets" : 0,
													"comment" : ""
												}

											}
, 											{
												"box" : 												{
													"maxclass" : "inlet",
													"outlettype" : [ "" ],
													"id" : "obj-1",
													"patching_rect" : [ 16.0, 18.0, 25.0, 25.0 ],
													"numinlets" : 0,
													"numoutlets" : 1,
													"comment" : ""
												}

											}
 ],
										"lines" : [ 											{
												"patchline" : 												{
													"source" : [ "obj-8", 1 ],
													"destination" : [ "obj-2", 0 ],
													"hidden" : 0,
													"midpoints" : [  ]
												}

											}
, 											{
												"patchline" : 												{
													"source" : [ "obj-10", 0 ],
													"destination" : [ "obj-2", 0 ],
													"hidden" : 0,
													"midpoints" : [  ]
												}

											}
, 											{
												"patchline" : 												{
													"source" : [ "obj-1", 0 ],
													"destination" : [ "obj-8", 0 ],
													"hidden" : 0,
													"midpoints" : [  ]
												}

											}
, 											{
												"patchline" : 												{
													"source" : [ "obj-8", 0 ],
													"destination" : [ "obj-10", 0 ],
													"hidden" : 0,
													"midpoints" : [  ]
												}

											}
 ]
									}
,
									"saved_object_attributes" : 									{
										"fontface" : 0,
										"fontsize" : 12.0,
										"default_fontface" : 0,
										"globalpatchername" : "",
										"default_fontname" : "Arial",
										"fontname" : "Arial",
										"default_fontsize" : 12.0
									}

								}

							}
, 							{
								"box" : 								{
									"maxclass" : "newobj",
									"text" : "p loadBuffer",
									"outlettype" : [ "float" ],
									"fontsize" : 12.0,
									"id" : "obj-7",
									"patching_rect" : [ 19.0, 80.0, 75.0, 20.0 ],
									"numinlets" : 1,
									"fontname" : "Arial",
									"color" : [ 0.843137, 0.741176, 0.431373, 1.0 ],
									"numoutlets" : 1,
									"patcher" : 									{
										"fileversion" : 1,
										"rect" : [ 82.0, 132.0, 244.0, 190.0 ],
										"bglocked" : 0,
										"defrect" : [ 82.0, 132.0, 244.0, 190.0 ],
										"openrect" : [ 0.0, 0.0, 0.0, 0.0 ],
										"openinpresentation" : 0,
										"default_fontsize" : 12.0,
										"default_fontface" : 0,
										"default_fontname" : "Arial",
										"gridonopen" : 0,
										"gridsize" : [ 15.0, 15.0 ],
										"gridsnaponopen" : 0,
										"toolbarvisible" : 1,
										"boxanimatetime" : 200,
										"imprint" : 0,
										"boxes" : [ 											{
												"box" : 												{
													"maxclass" : "newobj",
													"text" : "prepend open",
													"outlettype" : [ "" ],
													"fontsize" : 12.0,
													"id" : "obj-14",
													"patching_rect" : [ 19.0, 75.0, 85.0, 20.0 ],
													"numinlets" : 1,
													"fontname" : "Arial",
													"numoutlets" : 1
												}

											}
, 											{
												"box" : 												{
													"maxclass" : "newobj",
													"text" : "sfinfo~",
													"outlettype" : [ "int", "int", "float", "float", "", "" ],
													"fontsize" : 12.0,
													"id" : "obj-13",
													"patching_rect" : [ 19.0, 100.0, 86.5, 20.0 ],
													"numinlets" : 1,
													"fontname" : "Arial",
													"numoutlets" : 6
												}

											}
, 											{
												"box" : 												{
													"maxclass" : "newobj",
													"text" : "buffer~ #1",
													"outlettype" : [ "float", "bang" ],
													"fontsize" : 12.0,
													"id" : "obj-12",
													"patching_rect" : [ 111.0, 100.0, 115.0, 20.0 ],
													"numinlets" : 1,
													"fontname" : "Arial",
													"numoutlets" : 2
												}

											}
, 											{
												"box" : 												{
													"maxclass" : "newobj",
													"text" : "prepend replace",
													"outlettype" : [ "" ],
													"fontsize" : 12.0,
													"id" : "obj-11",
													"patching_rect" : [ 111.0, 75.0, 97.0, 20.0 ],
													"numinlets" : 1,
													"fontname" : "Arial",
													"numoutlets" : 1
												}

											}
, 											{
												"box" : 												{
													"maxclass" : "outlet",
													"id" : "obj-2",
													"patching_rect" : [ 60.0, 143.0, 25.0, 25.0 ],
													"numinlets" : 1,
													"numoutlets" : 0,
													"comment" : ""
												}

											}
, 											{
												"box" : 												{
													"maxclass" : "inlet",
													"outlettype" : [ "" ],
													"id" : "obj-1",
													"patching_rect" : [ 19.0, 19.0, 25.0, 25.0 ],
													"numinlets" : 0,
													"numoutlets" : 1,
													"comment" : ""
												}

											}
 ],
										"lines" : [ 											{
												"patchline" : 												{
													"source" : [ "obj-11", 0 ],
													"destination" : [ "obj-12", 0 ],
													"hidden" : 0,
													"midpoints" : [  ]
												}

											}
, 											{
												"patchline" : 												{
													"source" : [ "obj-14", 0 ],
													"destination" : [ "obj-13", 0 ],
													"hidden" : 0,
													"midpoints" : [  ]
												}

											}
, 											{
												"patchline" : 												{
													"source" : [ "obj-1", 0 ],
													"destination" : [ "obj-11", 0 ],
													"hidden" : 0,
													"midpoints" : [ 28.5, 65.0, 120.5, 65.0 ]
												}

											}
, 											{
												"patchline" : 												{
													"source" : [ "obj-1", 0 ],
													"destination" : [ "obj-14", 0 ],
													"hidden" : 0,
													"midpoints" : [  ]
												}

											}
, 											{
												"patchline" : 												{
													"source" : [ "obj-13", 3 ],
													"destination" : [ "obj-2", 0 ],
													"hidden" : 0,
													"midpoints" : [  ]
												}

											}
 ]
									}
,
									"saved_object_attributes" : 									{
										"fontface" : 0,
										"fontsize" : 12.0,
										"default_fontface" : 0,
										"globalpatchername" : "",
										"default_fontname" : "Arial",
										"fontname" : "Arial",
										"default_fontsize" : 12.0
									}

								}

							}
, 							{
								"box" : 								{
									"maxclass" : "outlet",
									"id" : "obj-3",
									"patching_rect" : [ 19.0, 113.0, 25.0, 25.0 ],
									"numinlets" : 1,
									"numoutlets" : 0,
									"comment" : ""
								}

							}
, 							{
								"box" : 								{
									"maxclass" : "inlet",
									"outlettype" : [ "" ],
									"id" : "obj-1",
									"patching_rect" : [ 19.0, 16.0, 25.0, 25.0 ],
									"numinlets" : 0,
									"numoutlets" : 1,
									"comment" : ""
								}

							}
 ],
						"lines" : [ 							{
								"patchline" : 								{
									"source" : [ "obj-4", 0 ],
									"destination" : [ "obj-7", 0 ],
									"hidden" : 0,
									"midpoints" : [  ]
								}

							}
, 							{
								"patchline" : 								{
									"source" : [ "obj-1", 0 ],
									"destination" : [ "obj-4", 0 ],
									"hidden" : 0,
									"midpoints" : [  ]
								}

							}
, 							{
								"patchline" : 								{
									"source" : [ "obj-7", 0 ],
									"destination" : [ "obj-3", 0 ],
									"hidden" : 0,
									"midpoints" : [  ]
								}

							}
 ]
					}
,
					"saved_object_attributes" : 					{
						"fontface" : 0,
						"fontsize" : 12.0,
						"default_fontface" : 0,
						"globalpatchername" : "",
						"default_fontname" : "Arial",
						"fontname" : "Arial",
						"default_fontsize" : 12.0
					}

				}

			}
, 			{
				"box" : 				{
					"maxclass" : "comment",
					"text" : "commands",
					"fontsize" : 11.0,
					"id" : "obj-6",
					"patching_rect" : [ 46.0, 21.0, 63.0, 19.0 ],
					"numinlets" : 1,
					"fontname" : "Arial",
					"numoutlets" : 0
				}

			}
, 			{
				"box" : 				{
					"maxclass" : "comment",
					"text" : "audio out",
					"fontsize" : 11.0,
					"id" : "obj-5",
					"patching_rect" : [ 44.0, 485.0, 56.0, 19.0 ],
					"numinlets" : 1,
					"fontname" : "Arial",
					"numoutlets" : 0
				}

			}
, 			{
				"box" : 				{
					"maxclass" : "comment",
					"text" : " 2013, Pierre-Emmanuel Lvesque",
					"fontsize" : 10.0,
					"id" : "obj-4",
					"patching_rect" : [ 151.0, 513.0, 171.0, 18.0 ],
					"numinlets" : 1,
					"fontname" : "Arial",
					"numoutlets" : 0
				}

			}
, 			{
				"box" : 				{
					"maxclass" : "outlet",
					"annotation" : "",
					"id" : "obj-23",
					"patching_rect" : [ 18.0, 482.0, 25.0, 25.0 ],
					"numinlets" : 1,
					"numoutlets" : 0,
					"comment" : "(signal) audio out"
				}

			}
, 			{
				"box" : 				{
					"maxclass" : "newobj",
					"text" : "wave~ #1 0. 0. 1",
					"outlettype" : [ "signal" ],
					"fontsize" : 12.0,
					"id" : "obj-22",
					"patching_rect" : [ 19.0, 310.0, 139.0, 20.0 ],
					"numinlets" : 3,
					"fontname" : "Arial",
					"numoutlets" : 1
				}

			}
, 			{
				"box" : 				{
					"maxclass" : "newobj",
					"text" : "route play stop loop interp",
					"outlettype" : [ "", "", "", "", "" ],
					"fontsize" : 12.0,
					"id" : "obj-3",
					"patching_rect" : [ 19.0, 57.0, 215.0, 20.0 ],
					"numinlets" : 1,
					"fontname" : "Arial",
					"numoutlets" : 5
				}

			}
, 			{
				"box" : 				{
					"maxclass" : "inlet",
					"outlettype" : [ "" ],
					"id" : "obj-2",
					"patching_rect" : [ 19.0, 18.0, 25.0, 25.0 ],
					"numinlets" : 0,
					"numoutlets" : 1,
					"comment" : "(mixed) commands"
				}

			}
 ],
		"lines" : [ 			{
				"patchline" : 				{
					"source" : [ "obj-3", 2 ],
					"destination" : [ "obj-27", 2 ],
					"hidden" : 0,
					"midpoints" : [  ]
				}

			}
, 			{
				"patchline" : 				{
					"source" : [ "obj-3", 1 ],
					"destination" : [ "obj-27", 1 ],
					"hidden" : 0,
					"midpoints" : [  ]
				}

			}
, 			{
				"patchline" : 				{
					"source" : [ "obj-3", 4 ],
					"destination" : [ "obj-9", 0 ],
					"hidden" : 0,
					"midpoints" : [  ]
				}

			}
, 			{
				"patchline" : 				{
					"source" : [ "obj-3", 0 ],
					"destination" : [ "obj-27", 0 ],
					"hidden" : 0,
					"midpoints" : [  ]
				}

			}
, 			{
				"patchline" : 				{
					"source" : [ "obj-2", 0 ],
					"destination" : [ "obj-3", 0 ],
					"hidden" : 0,
					"midpoints" : [  ]
				}

			}
, 			{
				"patchline" : 				{
					"source" : [ "obj-3", 3 ],
					"destination" : [ "obj-34", 0 ],
					"hidden" : 0,
					"midpoints" : [  ]
				}

			}
, 			{
				"patchline" : 				{
					"source" : [ "obj-27", 0 ],
					"destination" : [ "obj-22", 0 ],
					"hidden" : 0,
					"midpoints" : [  ]
				}

			}
, 			{
				"patchline" : 				{
					"source" : [ "obj-17", 0 ],
					"destination" : [ "obj-1", 1 ],
					"hidden" : 0,
					"midpoints" : [  ]
				}

			}
, 			{
				"patchline" : 				{
					"source" : [ "obj-1", 1 ],
					"destination" : [ "obj-18", 0 ],
					"hidden" : 0,
					"midpoints" : [  ]
				}

			}
, 			{
				"patchline" : 				{
					"source" : [ "obj-32", 2 ],
					"destination" : [ "obj-29", 0 ],
					"hidden" : 0,
					"midpoints" : [ 295.5, 305.0, 207.5, 305.0 ]
				}

			}
, 			{
				"patchline" : 				{
					"source" : [ "obj-32", 2 ],
					"destination" : [ "obj-26", 1 ],
					"hidden" : 0,
					"midpoints" : [ 295.5, 274.0, 207.5, 274.0 ]
				}

			}
, 			{
				"patchline" : 				{
					"source" : [ "obj-32", 1 ],
					"destination" : [ "obj-26", 0 ],
					"hidden" : 0,
					"midpoints" : [ 260.0, 226.0, 172.0, 226.0, 172.0, 273.0, 88.5, 273.0 ]
				}

			}
, 			{
				"patchline" : 				{
					"source" : [ "obj-8", 0 ],
					"destination" : [ "obj-26", 1 ],
					"hidden" : 0,
					"midpoints" : [  ]
				}

			}
, 			{
				"patchline" : 				{
					"source" : [ "obj-34", 0 ],
					"destination" : [ "obj-22", 0 ],
					"hidden" : 0,
					"midpoints" : [ 175.5, 206.0, 28.5, 206.0 ]
				}

			}
, 			{
				"patchline" : 				{
					"source" : [ "obj-32", 0 ],
					"destination" : [ "obj-12", 0 ],
					"hidden" : 0,
					"midpoints" : [  ]
				}

			}
, 			{
				"patchline" : 				{
					"source" : [ "obj-9", 0 ],
					"destination" : [ "obj-32", 0 ],
					"hidden" : 0,
					"midpoints" : [  ]
				}

			}
, 			{
				"patchline" : 				{
					"source" : [ "obj-26", 2 ],
					"destination" : [ "obj-29", 0 ],
					"hidden" : 0,
					"midpoints" : [  ]
				}

			}
, 			{
				"patchline" : 				{
					"source" : [ "obj-7", 0 ],
					"destination" : [ "obj-26", 0 ],
					"hidden" : 0,
					"midpoints" : [  ]
				}

			}
, 			{
				"patchline" : 				{
					"source" : [ "obj-26", 1 ],
					"destination" : [ "obj-22", 2 ],
					"hidden" : 0,
					"midpoints" : [  ]
				}

			}
, 			{
				"patchline" : 				{
					"source" : [ "obj-26", 0 ],
					"destination" : [ "obj-22", 1 ],
					"hidden" : 0,
					"midpoints" : [  ]
				}

			}
, 			{
				"patchline" : 				{
					"source" : [ "obj-22", 0 ],
					"destination" : [ "obj-1", 0 ],
					"hidden" : 0,
					"midpoints" : [  ]
				}

			}
, 			{
				"patchline" : 				{
					"source" : [ "obj-1", 0 ],
					"destination" : [ "obj-23", 0 ],
					"hidden" : 0,
					"midpoints" : [  ]
				}

			}
 ]
	}

}
