{
	"patcher" : 	{
		"fileversion" : 1,
		"rect" : [ 266.0, 44.0, 377.0, 443.0 ],
		"bglocked" : 0,
		"defrect" : [ 266.0, 44.0, 377.0, 443.0 ],
		"openrect" : [ 0.0, 0.0, 0.0, 0.0 ],
		"openinpresentation" : 0,
		"default_fontsize" : 12.0,
		"default_fontface" : 0,
		"default_fontname" : "Arial",
		"gridonopen" : 0,
		"gridsize" : [ 15.0, 15.0 ],
		"gridsnaponopen" : 0,
		"toolbarvisible" : 1,
		"boxanimatetime" : 200,
		"imprint" : 0,
		"boxes" : [ 			{
				"box" : 				{
					"maxclass" : "comment",
					"text" : "onlick mouse coords [x,y]",
					"fontsize" : 11.0,
					"id" : "obj-29",
					"numinlets" : 1,
					"numoutlets" : 0,
					"patching_rect" : [ 103.0, 22.0, 139.0, 19.0 ],
					"fontname" : "Arial"
				}

			}
, 			{
				"box" : 				{
					"maxclass" : "comment",
					"text" : "r g b selection border color",
					"fontsize" : 11.0,
					"id" : "obj-28",
					"numinlets" : 1,
					"numoutlets" : 0,
					"patching_rect" : [ 211.0, 106.0, 141.0, 19.0 ],
					"fontname" : "Arial"
				}

			}
, 			{
				"box" : 				{
					"maxclass" : "comment",
					"text" : "is mouse down",
					"fontsize" : 11.0,
					"id" : "obj-27",
					"numinlets" : 1,
					"numoutlets" : 0,
					"patching_rect" : [ 160.0, 63.0, 89.0, 19.0 ],
					"fontname" : "Arial"
				}

			}
, 			{
				"box" : 				{
					"maxclass" : "comment",
					"text" : "selection data [x1, y1, x2, y2, r, g, b]",
					"fontsize" : 11.0,
					"id" : "obj-26",
					"numinlets" : 1,
					"numoutlets" : 0,
					"patching_rect" : [ 141.0, 372.0, 189.0, 19.0 ],
					"fontname" : "Arial"
				}

			}
, 			{
				"box" : 				{
					"maxclass" : "comment",
					"text" : "lcd drawing instructions",
					"fontsize" : 11.0,
					"id" : "obj-24",
					"numinlets" : 1,
					"numoutlets" : 0,
					"patching_rect" : [ 62.0, 405.0, 139.0, 19.0 ],
					"fontname" : "Arial"
				}

			}
, 			{
				"box" : 				{
					"maxclass" : "comment",
					"text" : "p.sorti",
					"fontsize" : 11.0,
					"id" : "obj-20",
					"numinlets" : 1,
					"numoutlets" : 0,
					"patching_rect" : [ 292.0, 24.0, 49.0, 19.0 ],
					"fontname" : "Arial"
				}

			}
, 			{
				"box" : 				{
					"maxclass" : "comment",
					"text" : "dependencies",
					"fontsize" : 11.0,
					"id" : "obj-22",
					"numinlets" : 1,
					"numoutlets" : 0,
					"patching_rect" : [ 275.0, 4.0, 84.0, 19.0 ],
					"fontname" : "Arial"
				}

			}
, 			{
				"box" : 				{
					"maxclass" : "panel",
					"id" : "obj-23",
					"numinlets" : 1,
					"bgcolor" : [ 0.901961, 0.901961, 0.901961, 1.0 ],
					"numoutlets" : 0,
					"patching_rect" : [ 269.0, 0.0, 88.0, 50.0 ],
					"rounded" : 0
				}

			}
, 			{
				"box" : 				{
					"maxclass" : "comment",
					"text" : "© 2013, Pierre-Emmanuel Lévesque",
					"fontsize" : 10.0,
					"id" : "obj-16",
					"numinlets" : 1,
					"numoutlets" : 0,
					"patching_rect" : [ 203.0, 422.0, 171.0, 18.0 ],
					"fontname" : "Arial"
				}

			}
, 			{
				"box" : 				{
					"maxclass" : "newobj",
					"text" : "p.sorti",
					"fontsize" : 12.0,
					"id" : "obj-15",
					"numinlets" : 3,
					"numoutlets" : 2,
					"patching_rect" : [ 85.0, 275.0, 46.0, 20.0 ],
					"outlettype" : [ "int", "int" ],
					"fontname" : "Arial",
					"color" : [ 0.317647, 0.709804, 0.321569, 1.0 ]
				}

			}
, 			{
				"box" : 				{
					"maxclass" : "newobj",
					"text" : "p.sorti",
					"fontsize" : 12.0,
					"id" : "obj-12",
					"numinlets" : 3,
					"numoutlets" : 2,
					"patching_rect" : [ 36.0, 275.0, 46.0, 20.0 ],
					"outlettype" : [ "int", "int" ],
					"fontname" : "Arial",
					"color" : [ 0.317647, 0.709804, 0.321569, 1.0 ]
				}

			}
, 			{
				"box" : 				{
					"maxclass" : "message",
					"text" : "clear",
					"fontsize" : 12.0,
					"id" : "obj-5",
					"numinlets" : 2,
					"numoutlets" : 1,
					"patching_rect" : [ 56.0, 366.0, 37.0, 18.0 ],
					"outlettype" : [ "" ],
					"fontname" : "Arial"
				}

			}
, 			{
				"box" : 				{
					"maxclass" : "button",
					"id" : "obj-4",
					"numinlets" : 1,
					"numoutlets" : 1,
					"patching_rect" : [ 56.0, 340.0, 20.0, 20.0 ],
					"outlettype" : [ "bang" ]
				}

			}
, 			{
				"box" : 				{
					"maxclass" : "newobj",
					"text" : "sel 0",
					"fontsize" : 12.0,
					"id" : "obj-13",
					"numinlets" : 2,
					"numoutlets" : 2,
					"patching_rect" : [ 58.0, 132.0, 36.0, 20.0 ],
					"outlettype" : [ "bang", "" ],
					"fontname" : "Arial"
				}

			}
, 			{
				"box" : 				{
					"maxclass" : "newobj",
					"text" : "loadbang",
					"fontsize" : 12.0,
					"id" : "obj-11",
					"numinlets" : 1,
					"numoutlets" : 1,
					"patching_rect" : [ 206.0, 219.0, 77.0, 20.0 ],
					"outlettype" : [ "bang" ],
					"fontname" : "Arial"
				}

			}
, 			{
				"box" : 				{
					"maxclass" : "message",
					"text" : "#1 #2 #3",
					"fontsize" : 12.0,
					"id" : "obj-8",
					"numinlets" : 2,
					"numoutlets" : 1,
					"patching_rect" : [ 206.0, 245.0, 99.0, 18.0 ],
					"outlettype" : [ "" ],
					"fontname" : "Arial"
				}

			}
, 			{
				"box" : 				{
					"maxclass" : "newobj",
					"text" : "pack 0 0 0 0 0 0 0",
					"fontsize" : 12.0,
					"id" : "obj-7",
					"numinlets" : 7,
					"numoutlets" : 1,
					"patching_rect" : [ 114.0, 340.0, 146.0, 20.0 ],
					"outlettype" : [ "" ],
					"fontname" : "Arial"
				}

			}
, 			{
				"box" : 				{
					"maxclass" : "outlet",
					"id" : "obj-6",
					"numinlets" : 1,
					"numoutlets" : 0,
					"patching_rect" : [ 114.0, 369.0, 25.0, 25.0 ],
					"comment" : "(list) selection data [x1, y1, x2, y2, r g b]"
				}

			}
, 			{
				"box" : 				{
					"maxclass" : "newobj",
					"text" : "unpack 0 0 0",
					"fontsize" : 12.0,
					"id" : "obj-10",
					"numinlets" : 1,
					"numoutlets" : 3,
					"patching_rect" : [ 183.0, 275.0, 94.0, 20.0 ],
					"outlettype" : [ "int", "int", "int" ],
					"fontname" : "Arial"
				}

			}
, 			{
				"box" : 				{
					"maxclass" : "inlet",
					"id" : "obj-9",
					"numinlets" : 0,
					"numoutlets" : 1,
					"patching_rect" : [ 183.0, 104.0, 25.0, 25.0 ],
					"outlettype" : [ "" ],
					"comment" : "(list) selection border color [r, g, b]"
				}

			}
, 			{
				"box" : 				{
					"maxclass" : "outlet",
					"id" : "obj-3",
					"numinlets" : 1,
					"numoutlets" : 0,
					"patching_rect" : [ 35.0, 402.0, 25.0, 25.0 ],
					"comment" : "(messages) lcd drawing instructions preceded by a clear"
				}

			}
, 			{
				"box" : 				{
					"maxclass" : "inlet",
					"id" : "obj-2",
					"numinlets" : 0,
					"numoutlets" : 1,
					"patching_rect" : [ 76.0, 20.0, 25.0, 25.0 ],
					"outlettype" : [ "" ],
					"comment" : "(list) onclick mouse coordinates [x, y]"
				}

			}
, 			{
				"box" : 				{
					"maxclass" : "inlet",
					"id" : "obj-1",
					"numinlets" : 0,
					"numoutlets" : 1,
					"patching_rect" : [ 123.0, 59.0, 25.0, 25.0 ],
					"outlettype" : [ "" ],
					"comment" : "(bool) is mouse down "
				}

			}
, 			{
				"box" : 				{
					"maxclass" : "number",
					"fontsize" : 12.0,
					"id" : "obj-44",
					"numinlets" : 1,
					"numoutlets" : 2,
					"patching_rect" : [ 125.0, 242.0, 50.0, 20.0 ],
					"outlettype" : [ "int", "bang" ],
					"fontname" : "Arial"
				}

			}
, 			{
				"box" : 				{
					"maxclass" : "number",
					"fontsize" : 12.0,
					"id" : "obj-45",
					"numinlets" : 1,
					"numoutlets" : 2,
					"patching_rect" : [ 71.0, 242.0, 50.0, 20.0 ],
					"outlettype" : [ "int", "bang" ],
					"fontname" : "Arial"
				}

			}
, 			{
				"box" : 				{
					"maxclass" : "message",
					"text" : "1",
					"fontsize" : 12.0,
					"id" : "obj-35",
					"numinlets" : 2,
					"numoutlets" : 1,
					"patching_rect" : [ 58.0, 156.0, 29.5, 18.0 ],
					"outlettype" : [ "" ],
					"fontname" : "Arial"
				}

			}
, 			{
				"box" : 				{
					"maxclass" : "newobj",
					"text" : "gate",
					"fontsize" : 12.0,
					"id" : "obj-31",
					"numinlets" : 2,
					"numoutlets" : 1,
					"patching_rect" : [ 123.0, 95.0, 44.0, 20.0 ],
					"outlettype" : [ "" ],
					"fontname" : "Arial"
				}

			}
, 			{
				"box" : 				{
					"maxclass" : "newobj",
					"text" : "unpack",
					"fontsize" : 12.0,
					"id" : "obj-25",
					"numinlets" : 1,
					"numoutlets" : 2,
					"patching_rect" : [ 15.0, 242.0, 49.0, 20.0 ],
					"outlettype" : [ "int", "int" ],
					"fontname" : "Arial"
				}

			}
, 			{
				"box" : 				{
					"maxclass" : "newobj",
					"text" : "sprintf framerect %i %i %i %i %i %i %i",
					"fontsize" : 12.0,
					"id" : "obj-21",
					"numinlets" : 7,
					"numoutlets" : 1,
					"patching_rect" : [ 35.0, 309.0, 241.0, 20.0 ],
					"outlettype" : [ "" ],
					"fontname" : "Arial"
				}

			}
, 			{
				"box" : 				{
					"maxclass" : "message",
					"text" : "0",
					"fontsize" : 12.0,
					"id" : "obj-19",
					"numinlets" : 2,
					"numoutlets" : 1,
					"patching_rect" : [ 98.0, 156.0, 29.0, 18.0 ],
					"outlettype" : [ "" ],
					"fontname" : "Arial"
				}

			}
, 			{
				"box" : 				{
					"maxclass" : "button",
					"id" : "obj-18",
					"numinlets" : 1,
					"numoutlets" : 1,
					"patching_rect" : [ 98.0, 132.0, 20.0, 20.0 ],
					"outlettype" : [ "bang" ]
				}

			}
, 			{
				"box" : 				{
					"maxclass" : "newobj",
					"text" : "gate 1 1",
					"fontsize" : 12.0,
					"id" : "obj-14",
					"numinlets" : 2,
					"numoutlets" : 1,
					"patching_rect" : [ 71.0, 187.0, 71.0, 20.0 ],
					"outlettype" : [ "" ],
					"fontname" : "Arial"
				}

			}
, 			{
				"box" : 				{
					"maxclass" : "newobj",
					"text" : "unpack",
					"fontsize" : 12.0,
					"id" : "obj-17",
					"numinlets" : 1,
					"numoutlets" : 2,
					"patching_rect" : [ 71.0, 214.0, 73.0, 20.0 ],
					"outlettype" : [ "int", "int" ],
					"fontname" : "Arial"
				}

			}
 ],
		"lines" : [ 			{
				"patchline" : 				{
					"source" : [ "obj-15", 1 ],
					"destination" : [ "obj-21", 3 ],
					"hidden" : 0,
					"midpoints" : [  ]
				}

			}
, 			{
				"patchline" : 				{
					"source" : [ "obj-15", 0 ],
					"destination" : [ "obj-21", 1 ],
					"hidden" : 0,
					"midpoints" : [  ]
				}

			}
, 			{
				"patchline" : 				{
					"source" : [ "obj-15", 1 ],
					"destination" : [ "obj-7", 3 ],
					"hidden" : 0,
					"midpoints" : [  ]
				}

			}
, 			{
				"patchline" : 				{
					"source" : [ "obj-15", 0 ],
					"destination" : [ "obj-7", 1 ],
					"hidden" : 0,
					"midpoints" : [  ]
				}

			}
, 			{
				"patchline" : 				{
					"source" : [ "obj-44", 0 ],
					"destination" : [ "obj-15", 1 ],
					"hidden" : 0,
					"midpoints" : [  ]
				}

			}
, 			{
				"patchline" : 				{
					"source" : [ "obj-25", 1 ],
					"destination" : [ "obj-15", 0 ],
					"hidden" : 0,
					"midpoints" : [  ]
				}

			}
, 			{
				"patchline" : 				{
					"source" : [ "obj-12", 1 ],
					"destination" : [ "obj-7", 2 ],
					"hidden" : 0,
					"midpoints" : [  ]
				}

			}
, 			{
				"patchline" : 				{
					"source" : [ "obj-12", 0 ],
					"destination" : [ "obj-7", 0 ],
					"hidden" : 0,
					"midpoints" : [  ]
				}

			}
, 			{
				"patchline" : 				{
					"source" : [ "obj-12", 1 ],
					"destination" : [ "obj-21", 2 ],
					"hidden" : 0,
					"midpoints" : [  ]
				}

			}
, 			{
				"patchline" : 				{
					"source" : [ "obj-12", 0 ],
					"destination" : [ "obj-21", 0 ],
					"hidden" : 0,
					"midpoints" : [  ]
				}

			}
, 			{
				"patchline" : 				{
					"source" : [ "obj-45", 0 ],
					"destination" : [ "obj-12", 1 ],
					"hidden" : 0,
					"midpoints" : [  ]
				}

			}
, 			{
				"patchline" : 				{
					"source" : [ "obj-25", 0 ],
					"destination" : [ "obj-12", 0 ],
					"hidden" : 0,
					"midpoints" : [  ]
				}

			}
, 			{
				"patchline" : 				{
					"source" : [ "obj-13", 0 ],
					"destination" : [ "obj-35", 0 ],
					"hidden" : 0,
					"midpoints" : [  ]
				}

			}
, 			{
				"patchline" : 				{
					"source" : [ "obj-31", 0 ],
					"destination" : [ "obj-18", 0 ],
					"hidden" : 0,
					"midpoints" : [ 132.5, 121.5, 107.5, 121.5 ]
				}

			}
, 			{
				"patchline" : 				{
					"source" : [ "obj-8", 0 ],
					"destination" : [ "obj-10", 0 ],
					"hidden" : 0,
					"midpoints" : [ 215.5, 269.0, 192.5, 269.0 ]
				}

			}
, 			{
				"patchline" : 				{
					"source" : [ "obj-11", 0 ],
					"destination" : [ "obj-8", 0 ],
					"hidden" : 0,
					"midpoints" : [  ]
				}

			}
, 			{
				"patchline" : 				{
					"source" : [ "obj-9", 0 ],
					"destination" : [ "obj-10", 0 ],
					"hidden" : 0,
					"midpoints" : [  ]
				}

			}
, 			{
				"patchline" : 				{
					"source" : [ "obj-17", 0 ],
					"destination" : [ "obj-45", 0 ],
					"hidden" : 0,
					"midpoints" : [  ]
				}

			}
, 			{
				"patchline" : 				{
					"source" : [ "obj-17", 1 ],
					"destination" : [ "obj-44", 0 ],
					"hidden" : 0,
					"midpoints" : [  ]
				}

			}
, 			{
				"patchline" : 				{
					"source" : [ "obj-18", 0 ],
					"destination" : [ "obj-19", 0 ],
					"hidden" : 0,
					"midpoints" : [  ]
				}

			}
, 			{
				"patchline" : 				{
					"source" : [ "obj-2", 0 ],
					"destination" : [ "obj-31", 1 ],
					"hidden" : 0,
					"midpoints" : [ 85.5, 53.5, 157.5, 53.5 ]
				}

			}
, 			{
				"patchline" : 				{
					"source" : [ "obj-1", 0 ],
					"destination" : [ "obj-31", 0 ],
					"hidden" : 0,
					"midpoints" : [  ]
				}

			}
, 			{
				"patchline" : 				{
					"source" : [ "obj-19", 0 ],
					"destination" : [ "obj-14", 0 ],
					"hidden" : 0,
					"midpoints" : [ 107.5, 180.0, 80.5, 180.0 ]
				}

			}
, 			{
				"patchline" : 				{
					"source" : [ "obj-35", 0 ],
					"destination" : [ "obj-14", 0 ],
					"hidden" : 0,
					"midpoints" : [ 67.5, 180.0, 80.5, 180.0 ]
				}

			}
, 			{
				"patchline" : 				{
					"source" : [ "obj-14", 0 ],
					"destination" : [ "obj-17", 0 ],
					"hidden" : 0,
					"midpoints" : [  ]
				}

			}
, 			{
				"patchline" : 				{
					"source" : [ "obj-31", 0 ],
					"destination" : [ "obj-14", 1 ],
					"hidden" : 0,
					"midpoints" : [  ]
				}

			}
, 			{
				"patchline" : 				{
					"source" : [ "obj-21", 0 ],
					"destination" : [ "obj-3", 0 ],
					"hidden" : 0,
					"midpoints" : [  ]
				}

			}
, 			{
				"patchline" : 				{
					"source" : [ "obj-10", 0 ],
					"destination" : [ "obj-21", 4 ],
					"hidden" : 0,
					"midpoints" : [  ]
				}

			}
, 			{
				"patchline" : 				{
					"source" : [ "obj-10", 1 ],
					"destination" : [ "obj-21", 5 ],
					"hidden" : 0,
					"midpoints" : [  ]
				}

			}
, 			{
				"patchline" : 				{
					"source" : [ "obj-10", 2 ],
					"destination" : [ "obj-21", 6 ],
					"hidden" : 0,
					"midpoints" : [  ]
				}

			}
, 			{
				"patchline" : 				{
					"source" : [ "obj-7", 0 ],
					"destination" : [ "obj-6", 0 ],
					"hidden" : 0,
					"midpoints" : [  ]
				}

			}
, 			{
				"patchline" : 				{
					"source" : [ "obj-10", 2 ],
					"destination" : [ "obj-7", 6 ],
					"hidden" : 0,
					"midpoints" : [  ]
				}

			}
, 			{
				"patchline" : 				{
					"source" : [ "obj-10", 1 ],
					"destination" : [ "obj-7", 5 ],
					"hidden" : 0,
					"midpoints" : [  ]
				}

			}
, 			{
				"patchline" : 				{
					"source" : [ "obj-10", 0 ],
					"destination" : [ "obj-7", 4 ],
					"hidden" : 0,
					"midpoints" : [  ]
				}

			}
, 			{
				"patchline" : 				{
					"source" : [ "obj-21", 0 ],
					"destination" : [ "obj-4", 0 ],
					"hidden" : 0,
					"midpoints" : [ 44.5, 334.0, 65.5, 334.0 ]
				}

			}
, 			{
				"patchline" : 				{
					"source" : [ "obj-4", 0 ],
					"destination" : [ "obj-5", 0 ],
					"hidden" : 0,
					"midpoints" : [  ]
				}

			}
, 			{
				"patchline" : 				{
					"source" : [ "obj-31", 0 ],
					"destination" : [ "obj-25", 0 ],
					"hidden" : 0,
					"midpoints" : [ 132.5, 121.0, 24.5, 121.0 ]
				}

			}
, 			{
				"patchline" : 				{
					"source" : [ "obj-1", 0 ],
					"destination" : [ "obj-13", 0 ],
					"hidden" : 0,
					"color" : [ 1.0, 0.337255, 0.619608, 1.0 ],
					"midpoints" : [ 132.5, 90.0, 67.5, 90.0 ]
				}

			}
, 			{
				"patchline" : 				{
					"source" : [ "obj-5", 0 ],
					"destination" : [ "obj-3", 0 ],
					"hidden" : 0,
					"midpoints" : [ 65.5, 390.0, 44.5, 390.0 ]
				}

			}
 ]
	}

}
