{
	"patcher" : 	{
		"fileversion" : 1,
		"rect" : [ 682.0, 52.0, 413.0, 391.0 ],
		"bglocked" : 0,
		"defrect" : [ 682.0, 52.0, 413.0, 391.0 ],
		"openrect" : [ 0.0, 0.0, 0.0, 0.0 ],
		"openinpresentation" : 0,
		"default_fontsize" : 12.0,
		"default_fontface" : 0,
		"default_fontname" : "Arial",
		"gridonopen" : 0,
		"gridsize" : [ 15.0, 15.0 ],
		"gridsnaponopen" : 0,
		"toolbarvisible" : 1,
		"boxanimatetime" : 200,
		"imprint" : 0,
		"boxes" : [ 			{
				"box" : 				{
					"maxclass" : "comment",
					"text" : "p.lcd.rectselect",
					"fontsize" : 11.0,
					"id" : "obj-23",
					"numinlets" : 1,
					"numoutlets" : 0,
					"patching_rect" : [ 306.0, 23.0, 85.0, 19.0 ],
					"fontname" : "Arial"
				}

			}
, 			{
				"box" : 				{
					"maxclass" : "comment",
					"text" : "dependencies",
					"fontsize" : 11.0,
					"id" : "obj-24",
					"numinlets" : 1,
					"numoutlets" : 0,
					"patching_rect" : [ 308.0, 2.0, 84.0, 19.0 ],
					"fontname" : "Arial"
				}

			}
, 			{
				"box" : 				{
					"maxclass" : "panel",
					"id" : "obj-25",
					"numinlets" : 1,
					"bgcolor" : [ 0.901961, 0.901961, 0.901961, 1.0 ],
					"numoutlets" : 0,
					"patching_rect" : [ 300.0, 0.0, 94.0, 49.0 ],
					"rounded" : 0
				}

			}
, 			{
				"box" : 				{
					"maxclass" : "comment",
					"text" : "onclick mouse coords [x,y], 'clear'",
					"fontsize" : 11.0,
					"id" : "obj-22",
					"numinlets" : 1,
					"numoutlets" : 0,
					"patching_rect" : [ 42.0, 17.0, 178.0, 19.0 ],
					"fontname" : "Arial"
				}

			}
, 			{
				"box" : 				{
					"maxclass" : "comment",
					"text" : "is mouse down",
					"fontsize" : 11.0,
					"id" : "obj-21",
					"numinlets" : 1,
					"numoutlets" : 0,
					"patching_rect" : [ 155.0, 46.0, 85.0, 19.0 ],
					"fontname" : "Arial"
				}

			}
, 			{
				"box" : 				{
					"maxclass" : "comment",
					"text" : "r g b selection border color",
					"fontsize" : 11.0,
					"id" : "obj-20",
					"numinlets" : 1,
					"numoutlets" : 0,
					"patching_rect" : [ 220.0, 78.0, 140.0, 19.0 ],
					"fontname" : "Arial"
				}

			}
, 			{
				"box" : 				{
					"maxclass" : "comment",
					"text" : "lcd drawing instructions",
					"fontsize" : 11.0,
					"id" : "obj-19",
					"numinlets" : 1,
					"numoutlets" : 0,
					"patching_rect" : [ 90.0, 347.0, 127.0, 19.0 ],
					"fontname" : "Arial"
				}

			}
, 			{
				"box" : 				{
					"maxclass" : "comment",
					"text" : "© 2013, Pierre-Emmanuel Lévesque",
					"fontsize" : 10.0,
					"id" : "obj-17",
					"numinlets" : 1,
					"numoutlets" : 0,
					"patching_rect" : [ 239.0, 370.0, 171.0, 18.0 ],
					"fontname" : "Arial"
				}

			}
, 			{
				"box" : 				{
					"maxclass" : "message",
					"text" : "clear",
					"fontsize" : 12.0,
					"id" : "obj-18",
					"numinlets" : 2,
					"numoutlets" : 1,
					"patching_rect" : [ 63.0, 170.0, 37.0, 18.0 ],
					"outlettype" : [ "" ],
					"fontname" : "Arial"
				}

			}
, 			{
				"box" : 				{
					"maxclass" : "newobj",
					"text" : "route clear",
					"fontsize" : 12.0,
					"id" : "obj-13",
					"numinlets" : 1,
					"numoutlets" : 2,
					"patching_rect" : [ 63.0, 144.0, 67.0, 20.0 ],
					"outlettype" : [ "", "" ],
					"fontname" : "Arial"
				}

			}
, 			{
				"box" : 				{
					"maxclass" : "newobj",
					"text" : "route clear",
					"fontsize" : 12.0,
					"id" : "obj-2",
					"numinlets" : 1,
					"numoutlets" : 2,
					"patching_rect" : [ 15.0, 89.0, 67.0, 20.0 ],
					"outlettype" : [ "", "" ],
					"fontname" : "Arial"
				}

			}
, 			{
				"box" : 				{
					"maxclass" : "button",
					"id" : "obj-3",
					"numinlets" : 1,
					"numoutlets" : 1,
					"patching_rect" : [ 148.0, 165.0, 20.0, 20.0 ],
					"outlettype" : [ "bang" ]
				}

			}
, 			{
				"box" : 				{
					"maxclass" : "button",
					"id" : "obj-11",
					"numinlets" : 1,
					"numoutlets" : 1,
					"patching_rect" : [ 87.0, 201.0, 20.0, 20.0 ],
					"outlettype" : [ "bang" ]
				}

			}
, 			{
				"box" : 				{
					"maxclass" : "message",
					"text" : "clear",
					"fontsize" : 12.0,
					"id" : "obj-16",
					"numinlets" : 2,
					"numoutlets" : 1,
					"patching_rect" : [ 15.0, 119.0, 37.0, 18.0 ],
					"outlettype" : [ "" ],
					"fontname" : "Arial"
				}

			}
, 			{
				"box" : 				{
					"maxclass" : "inlet",
					"id" : "obj-8",
					"numinlets" : 0,
					"numoutlets" : 1,
					"patching_rect" : [ 193.0, 76.0, 25.0, 25.0 ],
					"outlettype" : [ "" ],
					"comment" : "(list) selection border color [r, g, b]"
				}

			}
, 			{
				"box" : 				{
					"maxclass" : "inlet",
					"id" : "obj-15",
					"numinlets" : 0,
					"numoutlets" : 1,
					"patching_rect" : [ 128.0, 44.0, 25.0, 25.0 ],
					"outlettype" : [ "" ],
					"comment" : "(bool) is mouse down"
				}

			}
, 			{
				"box" : 				{
					"maxclass" : "inlet",
					"id" : "obj-14",
					"numinlets" : 0,
					"numoutlets" : 1,
					"patching_rect" : [ 15.0, 14.0, 25.0, 25.0 ],
					"outlettype" : [ "" ],
					"comment" : "(list) onclick mouse coordinates [x,y], (string) 'clear'"
				}

			}
, 			{
				"box" : 				{
					"maxclass" : "outlet",
					"id" : "obj-12",
					"numinlets" : 1,
					"numoutlets" : 0,
					"patching_rect" : [ 63.0, 345.0, 25.0, 25.0 ],
					"comment" : "(messages) lcd drawing instructions prededed by a clear"
				}

			}
, 			{
				"box" : 				{
					"maxclass" : "newobj",
					"text" : "unpack 0 0 0 0 0 0 0",
					"fontsize" : 12.0,
					"id" : "obj-10",
					"numinlets" : 1,
					"numoutlets" : 7,
					"patching_rect" : [ 87.0, 281.0, 214.0, 20.0 ],
					"outlettype" : [ "int", "int", "int", "int", "int", "int", "int" ],
					"fontname" : "Arial"
				}

			}
, 			{
				"box" : 				{
					"maxclass" : "message",
					"text" : "dump",
					"fontsize" : 12.0,
					"id" : "obj-9",
					"numinlets" : 2,
					"numoutlets" : 1,
					"patching_rect" : [ 87.0, 226.0, 41.0, 18.0 ],
					"outlettype" : [ "" ],
					"fontname" : "Arial"
				}

			}
, 			{
				"box" : 				{
					"maxclass" : "newobj",
					"text" : "sprintf framerect %i %i %i %i %i %i %i",
					"fontsize" : 12.0,
					"id" : "obj-7",
					"numinlets" : 7,
					"numoutlets" : 1,
					"patching_rect" : [ 87.0, 305.0, 214.0, 20.0 ],
					"outlettype" : [ "" ],
					"fontname" : "Arial"
				}

			}
, 			{
				"box" : 				{
					"maxclass" : "newobj",
					"text" : "coll #1",
					"fontsize" : 12.0,
					"id" : "obj-6",
					"numinlets" : 1,
					"numoutlets" : 4,
					"patching_rect" : [ 87.0, 257.0, 213.5, 20.0 ],
					"outlettype" : [ "", "", "", "" ],
					"fontname" : "Arial",
					"saved_object_attributes" : 					{
						"embed" : 0
					}

				}

			}
, 			{
				"box" : 				{
					"maxclass" : "newobj",
					"text" : "gate",
					"fontsize" : 12.0,
					"id" : "obj-5",
					"numinlets" : 2,
					"numoutlets" : 1,
					"patching_rect" : [ 148.0, 226.0, 55.0, 20.0 ],
					"outlettype" : [ "" ],
					"fontname" : "Arial"
				}

			}
, 			{
				"box" : 				{
					"maxclass" : "toggle",
					"id" : "obj-4",
					"numinlets" : 1,
					"numoutlets" : 1,
					"patching_rect" : [ 148.0, 200.0, 20.0, 20.0 ],
					"outlettype" : [ "int" ]
				}

			}
, 			{
				"box" : 				{
					"maxclass" : "message",
					"fontsize" : 12.0,
					"id" : "obj-118",
					"numinlets" : 2,
					"numoutlets" : 1,
					"patching_rect" : [ 184.0, 200.0, 215.0, 18.0 ],
					"outlettype" : [ "" ],
					"fontname" : "Arial"
				}

			}
, 			{
				"box" : 				{
					"maxclass" : "newobj",
					"text" : "unpack 0 0 0 0 0 0 0",
					"fontsize" : 12.0,
					"id" : "obj-104",
					"numinlets" : 1,
					"numoutlets" : 7,
					"patching_rect" : [ 193.0, 146.0, 207.0, 20.0 ],
					"outlettype" : [ "int", "int", "int", "int", "int", "int", "int" ],
					"fontname" : "Arial"
				}

			}
, 			{
				"box" : 				{
					"maxclass" : "newobj",
					"text" : "sprintf insert 1 %i %i %i %i %i %i %i",
					"fontsize" : 12.0,
					"id" : "obj-103",
					"numinlets" : 7,
					"numoutlets" : 1,
					"patching_rect" : [ 193.0, 170.0, 207.0, 20.0 ],
					"outlettype" : [ "" ],
					"fontname" : "Arial"
				}

			}
, 			{
				"box" : 				{
					"maxclass" : "newobj",
					"text" : "p.lcd.rectselect #2 #3 #4",
					"fontsize" : 12.0,
					"id" : "obj-1",
					"numinlets" : 3,
					"numoutlets" : 2,
					"patching_rect" : [ 63.0, 118.0, 149.0, 20.0 ],
					"outlettype" : [ "", "" ],
					"fontname" : "Arial",
					"color" : [ 0.317647, 0.709804, 0.321569, 1.0 ]
				}

			}
 ],
		"lines" : [ 			{
				"patchline" : 				{
					"source" : [ "obj-15", 0 ],
					"destination" : [ "obj-1", 1 ],
					"hidden" : 0,
					"midpoints" : [  ]
				}

			}
, 			{
				"patchline" : 				{
					"source" : [ "obj-8", 0 ],
					"destination" : [ "obj-1", 2 ],
					"hidden" : 0,
					"midpoints" : [  ]
				}

			}
, 			{
				"patchline" : 				{
					"source" : [ "obj-2", 1 ],
					"destination" : [ "obj-1", 0 ],
					"hidden" : 0,
					"midpoints" : [  ]
				}

			}
, 			{
				"patchline" : 				{
					"source" : [ "obj-1", 1 ],
					"destination" : [ "obj-104", 0 ],
					"hidden" : 0,
					"midpoints" : [  ]
				}

			}
, 			{
				"patchline" : 				{
					"source" : [ "obj-1", 0 ],
					"destination" : [ "obj-13", 0 ],
					"hidden" : 0,
					"midpoints" : [  ]
				}

			}
, 			{
				"patchline" : 				{
					"source" : [ "obj-13", 1 ],
					"destination" : [ "obj-12", 0 ],
					"hidden" : 0,
					"midpoints" : [ 120.5, 195.0, 72.5, 195.0 ]
				}

			}
, 			{
				"patchline" : 				{
					"source" : [ "obj-13", 1 ],
					"destination" : [ "obj-11", 0 ],
					"hidden" : 0,
					"midpoints" : [ 120.5, 195.0, 96.5, 195.0 ]
				}

			}
, 			{
				"patchline" : 				{
					"source" : [ "obj-16", 0 ],
					"destination" : [ "obj-12", 0 ],
					"hidden" : 0,
					"midpoints" : [ 24.5, 308.5, 72.5, 308.5 ]
				}

			}
, 			{
				"patchline" : 				{
					"source" : [ "obj-18", 0 ],
					"destination" : [ "obj-12", 0 ],
					"hidden" : 0,
					"midpoints" : [  ]
				}

			}
, 			{
				"patchline" : 				{
					"source" : [ "obj-13", 0 ],
					"destination" : [ "obj-18", 0 ],
					"hidden" : 0,
					"midpoints" : [  ]
				}

			}
, 			{
				"patchline" : 				{
					"source" : [ "obj-14", 0 ],
					"destination" : [ "obj-2", 0 ],
					"hidden" : 0,
					"midpoints" : [  ]
				}

			}
, 			{
				"patchline" : 				{
					"source" : [ "obj-2", 0 ],
					"destination" : [ "obj-16", 0 ],
					"hidden" : 0,
					"midpoints" : [  ]
				}

			}
, 			{
				"patchline" : 				{
					"source" : [ "obj-9", 0 ],
					"destination" : [ "obj-6", 0 ],
					"hidden" : 0,
					"midpoints" : [  ]
				}

			}
, 			{
				"patchline" : 				{
					"source" : [ "obj-6", 0 ],
					"destination" : [ "obj-10", 0 ],
					"hidden" : 0,
					"midpoints" : [  ]
				}

			}
, 			{
				"patchline" : 				{
					"source" : [ "obj-5", 0 ],
					"destination" : [ "obj-6", 0 ],
					"hidden" : 0,
					"midpoints" : [ 157.5, 250.5, 96.5, 250.5 ]
				}

			}
, 			{
				"patchline" : 				{
					"source" : [ "obj-104", 6 ],
					"destination" : [ "obj-103", 6 ],
					"hidden" : 0,
					"midpoints" : [  ]
				}

			}
, 			{
				"patchline" : 				{
					"source" : [ "obj-104", 5 ],
					"destination" : [ "obj-103", 5 ],
					"hidden" : 0,
					"midpoints" : [  ]
				}

			}
, 			{
				"patchline" : 				{
					"source" : [ "obj-104", 4 ],
					"destination" : [ "obj-103", 4 ],
					"hidden" : 0,
					"midpoints" : [  ]
				}

			}
, 			{
				"patchline" : 				{
					"source" : [ "obj-104", 3 ],
					"destination" : [ "obj-103", 3 ],
					"hidden" : 0,
					"midpoints" : [  ]
				}

			}
, 			{
				"patchline" : 				{
					"source" : [ "obj-104", 2 ],
					"destination" : [ "obj-103", 2 ],
					"hidden" : 0,
					"midpoints" : [  ]
				}

			}
, 			{
				"patchline" : 				{
					"source" : [ "obj-104", 1 ],
					"destination" : [ "obj-103", 1 ],
					"hidden" : 0,
					"midpoints" : [  ]
				}

			}
, 			{
				"patchline" : 				{
					"source" : [ "obj-104", 0 ],
					"destination" : [ "obj-103", 0 ],
					"hidden" : 0,
					"midpoints" : [  ]
				}

			}
, 			{
				"patchline" : 				{
					"source" : [ "obj-103", 0 ],
					"destination" : [ "obj-118", 1 ],
					"hidden" : 0,
					"midpoints" : [ 202.5, 194.5, 389.5, 194.5 ]
				}

			}
, 			{
				"patchline" : 				{
					"source" : [ "obj-4", 0 ],
					"destination" : [ "obj-5", 0 ],
					"hidden" : 0,
					"midpoints" : [  ]
				}

			}
, 			{
				"patchline" : 				{
					"source" : [ "obj-118", 0 ],
					"destination" : [ "obj-5", 1 ],
					"hidden" : 0,
					"midpoints" : [  ]
				}

			}
, 			{
				"patchline" : 				{
					"source" : [ "obj-10", 0 ],
					"destination" : [ "obj-7", 0 ],
					"hidden" : 0,
					"midpoints" : [  ]
				}

			}
, 			{
				"patchline" : 				{
					"source" : [ "obj-10", 1 ],
					"destination" : [ "obj-7", 1 ],
					"hidden" : 0,
					"midpoints" : [  ]
				}

			}
, 			{
				"patchline" : 				{
					"source" : [ "obj-10", 2 ],
					"destination" : [ "obj-7", 2 ],
					"hidden" : 0,
					"midpoints" : [  ]
				}

			}
, 			{
				"patchline" : 				{
					"source" : [ "obj-10", 3 ],
					"destination" : [ "obj-7", 3 ],
					"hidden" : 0,
					"midpoints" : [  ]
				}

			}
, 			{
				"patchline" : 				{
					"source" : [ "obj-10", 4 ],
					"destination" : [ "obj-7", 4 ],
					"hidden" : 0,
					"midpoints" : [  ]
				}

			}
, 			{
				"patchline" : 				{
					"source" : [ "obj-10", 5 ],
					"destination" : [ "obj-7", 5 ],
					"hidden" : 0,
					"midpoints" : [  ]
				}

			}
, 			{
				"patchline" : 				{
					"source" : [ "obj-10", 6 ],
					"destination" : [ "obj-7", 6 ],
					"hidden" : 0,
					"midpoints" : [  ]
				}

			}
, 			{
				"patchline" : 				{
					"source" : [ "obj-7", 0 ],
					"destination" : [ "obj-12", 0 ],
					"hidden" : 0,
					"midpoints" : [ 96.5, 330.5, 72.5, 330.5 ]
				}

			}
, 			{
				"patchline" : 				{
					"source" : [ "obj-16", 0 ],
					"destination" : [ "obj-6", 0 ],
					"hidden" : 0,
					"color" : [ 1.0, 0.337255, 0.619608, 1.0 ],
					"midpoints" : [ 24.5, 250.0, 96.5, 250.0 ]
				}

			}
, 			{
				"patchline" : 				{
					"source" : [ "obj-11", 0 ],
					"destination" : [ "obj-9", 0 ],
					"hidden" : 0,
					"midpoints" : [  ]
				}

			}
, 			{
				"patchline" : 				{
					"source" : [ "obj-15", 0 ],
					"destination" : [ "obj-3", 0 ],
					"hidden" : 0,
					"midpoints" : [ 137.5, 108.5, 157.5, 108.5 ]
				}

			}
, 			{
				"patchline" : 				{
					"source" : [ "obj-3", 0 ],
					"destination" : [ "obj-118", 0 ],
					"hidden" : 0,
					"midpoints" : [ 157.5, 192.0, 193.5, 192.0 ]
				}

			}
, 			{
				"patchline" : 				{
					"source" : [ "obj-3", 0 ],
					"destination" : [ "obj-4", 0 ],
					"hidden" : 0,
					"midpoints" : [  ]
				}

			}
 ]
	}

}
