{
	"patcher" : 	{
		"fileversion" : 1,
		"rect" : [ 109.0, 265.0, 535.0, 309.0 ],
		"bglocked" : 0,
		"defrect" : [ 109.0, 265.0, 535.0, 309.0 ],
		"openrect" : [ 0.0, 0.0, 0.0, 0.0 ],
		"openinpresentation" : 0,
		"default_fontsize" : 12.0,
		"default_fontface" : 0,
		"default_fontname" : "Arial",
		"gridonopen" : 0,
		"gridsize" : [ 15.0, 15.0 ],
		"gridsnaponopen" : 0,
		"toolbarvisible" : 1,
		"boxanimatetime" : 200,
		"imprint" : 0,
		"boxes" : [ 			{
				"box" : 				{
					"maxclass" : "comment",
					"text" : "© 2013, Pierre-Emmanuel Lévesque",
					"fontsize" : 10.0,
					"patching_rect" : [ 361.0, 287.0, 170.0, 18.0 ],
					"id" : "obj-17",
					"numinlets" : 1,
					"numoutlets" : 0,
					"fontname" : "Arial"
				}

			}
, 			{
				"box" : 				{
					"maxclass" : "newobj",
					"text" : "loadbang",
					"outlettype" : [ "bang" ],
					"fontsize" : 12.0,
					"patching_rect" : [ 422.0, 136.0, 67.0, 20.0 ],
					"id" : "obj-11",
					"numinlets" : 1,
					"numoutlets" : 1,
					"fontname" : "Arial"
				}

			}
, 			{
				"box" : 				{
					"maxclass" : "message",
					"text" : "#2 #3 #4",
					"outlettype" : [ "" ],
					"fontsize" : 12.0,
					"patching_rect" : [ 422.0, 162.0, 84.0, 18.0 ],
					"id" : "obj-8",
					"numinlets" : 2,
					"numoutlets" : 1,
					"fontname" : "Arial"
				}

			}
, 			{
				"box" : 				{
					"maxclass" : "newobj",
					"text" : "unpack 0 0 0",
					"outlettype" : [ "int", "int", "int" ],
					"fontsize" : 12.0,
					"patching_rect" : [ 393.0, 195.0, 82.0, 20.0 ],
					"id" : "obj-2",
					"numinlets" : 1,
					"numoutlets" : 3,
					"fontname" : "Arial"
				}

			}
, 			{
				"box" : 				{
					"maxclass" : "inlet",
					"outlettype" : [ "" ],
					"patching_rect" : [ 392.0, 13.0, 25.0, 25.0 ],
					"id" : "obj-9",
					"numinlets" : 0,
					"numoutlets" : 1,
					"comment" : "(list) r g b color of selection border"
				}

			}
, 			{
				"box" : 				{
					"maxclass" : "newobj",
					"text" : "unpack 0 0 0 0 0 0 0",
					"outlettype" : [ "int", "int", "int", "int", "int", "int", "int" ],
					"fontsize" : 12.0,
					"patching_rect" : [ 12.0, 189.0, 214.0, 20.0 ],
					"id" : "obj-10",
					"numinlets" : 1,
					"numoutlets" : 7,
					"fontname" : "Arial"
				}

			}
, 			{
				"box" : 				{
					"maxclass" : "newobj",
					"text" : "sprintf framerect %i %i %i %i %i %i %i",
					"outlettype" : [ "" ],
					"fontsize" : 12.0,
					"patching_rect" : [ 12.0, 213.0, 214.0, 20.0 ],
					"id" : "obj-7",
					"numinlets" : 7,
					"numoutlets" : 1,
					"fontname" : "Arial"
				}

			}
, 			{
				"box" : 				{
					"maxclass" : "inlet",
					"outlettype" : [ "" ],
					"patching_rect" : [ 228.0, 13.0, 25.0, 25.0 ],
					"id" : "obj-42",
					"numinlets" : 0,
					"numoutlets" : 1,
					"comment" : "(int) selection hover status"
				}

			}
, 			{
				"box" : 				{
					"maxclass" : "newobj",
					"text" : "sprintf paintrect %i %i %i %i %i %i %i",
					"outlettype" : [ "" ],
					"fontsize" : 12.0,
					"patching_rect" : [ 266.0, 222.0, 210.0, 20.0 ],
					"id" : "obj-36",
					"numinlets" : 7,
					"numoutlets" : 1,
					"fontname" : "Arial"
				}

			}
, 			{
				"box" : 				{
					"maxclass" : "newobj",
					"text" : "unpack 0 0 0 0",
					"outlettype" : [ "int", "int", "int", "int" ],
					"fontsize" : 12.0,
					"patching_rect" : [ 266.0, 195.0, 115.0, 20.0 ],
					"id" : "obj-35",
					"numinlets" : 1,
					"numoutlets" : 4,
					"fontname" : "Arial"
				}

			}
, 			{
				"box" : 				{
					"maxclass" : "newobj",
					"text" : "coll #1",
					"outlettype" : [ "", "", "", "" ],
					"fontsize" : 12.0,
					"patching_rect" : [ 266.0, 168.0, 59.5, 20.0 ],
					"id" : "obj-34",
					"numinlets" : 1,
					"numoutlets" : 4,
					"fontname" : "Arial",
					"saved_object_attributes" : 					{
						"embed" : 0
					}

				}

			}
, 			{
				"box" : 				{
					"maxclass" : "newobj",
					"text" : "sel 0",
					"outlettype" : [ "bang", "" ],
					"fontsize" : 12.0,
					"patching_rect" : [ 228.0, 78.0, 57.0, 20.0 ],
					"id" : "obj-33",
					"numinlets" : 2,
					"numoutlets" : 2,
					"fontname" : "Arial"
				}

			}
, 			{
				"box" : 				{
					"maxclass" : "outlet",
					"patching_rect" : [ 228.0, 266.0, 25.0, 25.0 ],
					"id" : "obj-32",
					"numinlets" : 1,
					"numoutlets" : 0,
					"comment" : "(messages) lcd drawing instructions"
				}

			}
, 			{
				"box" : 				{
					"maxclass" : "button",
					"outlettype" : [ "bang" ],
					"patching_rect" : [ 228.0, 104.0, 20.0, 20.0 ],
					"id" : "obj-31",
					"numinlets" : 1,
					"numoutlets" : 1
				}

			}
, 			{
				"box" : 				{
					"maxclass" : "message",
					"text" : "clear",
					"outlettype" : [ "" ],
					"fontsize" : 12.0,
					"patching_rect" : [ 228.0, 138.0, 37.0, 18.0 ],
					"id" : "obj-30",
					"numinlets" : 2,
					"numoutlets" : 1,
					"fontname" : "Arial"
				}

			}
, 			{
				"box" : 				{
					"maxclass" : "message",
					"text" : "dump",
					"outlettype" : [ "" ],
					"fontsize" : 12.0,
					"patching_rect" : [ 12.0, 138.0, 41.0, 18.0 ],
					"id" : "obj-28",
					"numinlets" : 2,
					"numoutlets" : 1,
					"fontname" : "Arial"
				}

			}
, 			{
				"box" : 				{
					"maxclass" : "newobj",
					"text" : "coll myname",
					"outlettype" : [ "", "", "", "" ],
					"fontsize" : 12.0,
					"patching_rect" : [ 12.0, 162.0, 78.0, 20.0 ],
					"id" : "obj-27",
					"numinlets" : 1,
					"numoutlets" : 4,
					"fontname" : "Arial",
					"saved_object_attributes" : 					{
						"embed" : 0
					}

				}

			}
, 			{
				"box" : 				{
					"maxclass" : "newobj",
					"text" : "change",
					"outlettype" : [ "", "int", "int" ],
					"fontsize" : 12.0,
					"patching_rect" : [ 228.0, 51.0, 58.0, 20.0 ],
					"id" : "obj-24",
					"numinlets" : 1,
					"numoutlets" : 3,
					"fontname" : "Arial"
				}

			}
 ],
		"lines" : [ 			{
				"patchline" : 				{
					"source" : [ "obj-42", 0 ],
					"destination" : [ "obj-24", 0 ],
					"hidden" : 0,
					"midpoints" : [  ]
				}

			}
, 			{
				"patchline" : 				{
					"source" : [ "obj-36", 0 ],
					"destination" : [ "obj-32", 0 ],
					"hidden" : 0,
					"midpoints" : [ 275.5, 249.0, 237.5, 249.0 ]
				}

			}
, 			{
				"patchline" : 				{
					"source" : [ "obj-35", 3 ],
					"destination" : [ "obj-36", 3 ],
					"hidden" : 0,
					"midpoints" : [  ]
				}

			}
, 			{
				"patchline" : 				{
					"source" : [ "obj-35", 2 ],
					"destination" : [ "obj-36", 2 ],
					"hidden" : 0,
					"midpoints" : [  ]
				}

			}
, 			{
				"patchline" : 				{
					"source" : [ "obj-35", 1 ],
					"destination" : [ "obj-36", 1 ],
					"hidden" : 0,
					"midpoints" : [  ]
				}

			}
, 			{
				"patchline" : 				{
					"source" : [ "obj-35", 0 ],
					"destination" : [ "obj-36", 0 ],
					"hidden" : 0,
					"midpoints" : [  ]
				}

			}
, 			{
				"patchline" : 				{
					"source" : [ "obj-33", 0 ],
					"destination" : [ "obj-31", 0 ],
					"hidden" : 0,
					"midpoints" : [  ]
				}

			}
, 			{
				"patchline" : 				{
					"source" : [ "obj-24", 0 ],
					"destination" : [ "obj-33", 0 ],
					"hidden" : 0,
					"midpoints" : [  ]
				}

			}
, 			{
				"patchline" : 				{
					"source" : [ "obj-30", 0 ],
					"destination" : [ "obj-32", 0 ],
					"hidden" : 0,
					"midpoints" : [  ]
				}

			}
, 			{
				"patchline" : 				{
					"source" : [ "obj-31", 0 ],
					"destination" : [ "obj-28", 0 ],
					"hidden" : 0,
					"midpoints" : [ 237.5, 131.0, 21.5, 131.0 ]
				}

			}
, 			{
				"patchline" : 				{
					"source" : [ "obj-31", 0 ],
					"destination" : [ "obj-30", 0 ],
					"hidden" : 0,
					"midpoints" : [  ]
				}

			}
, 			{
				"patchline" : 				{
					"source" : [ "obj-28", 0 ],
					"destination" : [ "obj-27", 0 ],
					"hidden" : 0,
					"midpoints" : [  ]
				}

			}
, 			{
				"patchline" : 				{
					"source" : [ "obj-10", 0 ],
					"destination" : [ "obj-7", 0 ],
					"hidden" : 0,
					"midpoints" : [  ]
				}

			}
, 			{
				"patchline" : 				{
					"source" : [ "obj-10", 1 ],
					"destination" : [ "obj-7", 1 ],
					"hidden" : 0,
					"midpoints" : [  ]
				}

			}
, 			{
				"patchline" : 				{
					"source" : [ "obj-10", 2 ],
					"destination" : [ "obj-7", 2 ],
					"hidden" : 0,
					"midpoints" : [  ]
				}

			}
, 			{
				"patchline" : 				{
					"source" : [ "obj-10", 3 ],
					"destination" : [ "obj-7", 3 ],
					"hidden" : 0,
					"midpoints" : [  ]
				}

			}
, 			{
				"patchline" : 				{
					"source" : [ "obj-10", 4 ],
					"destination" : [ "obj-7", 4 ],
					"hidden" : 0,
					"midpoints" : [  ]
				}

			}
, 			{
				"patchline" : 				{
					"source" : [ "obj-10", 5 ],
					"destination" : [ "obj-7", 5 ],
					"hidden" : 0,
					"midpoints" : [  ]
				}

			}
, 			{
				"patchline" : 				{
					"source" : [ "obj-10", 6 ],
					"destination" : [ "obj-7", 6 ],
					"hidden" : 0,
					"midpoints" : [  ]
				}

			}
, 			{
				"patchline" : 				{
					"source" : [ "obj-27", 0 ],
					"destination" : [ "obj-10", 0 ],
					"hidden" : 0,
					"midpoints" : [  ]
				}

			}
, 			{
				"patchline" : 				{
					"source" : [ "obj-7", 0 ],
					"destination" : [ "obj-32", 0 ],
					"hidden" : 0,
					"midpoints" : [ 21.5, 241.5, 237.5, 241.5 ]
				}

			}
, 			{
				"patchline" : 				{
					"source" : [ "obj-8", 0 ],
					"destination" : [ "obj-2", 0 ],
					"hidden" : 0,
					"midpoints" : [ 431.5, 188.0, 402.5, 188.0 ]
				}

			}
, 			{
				"patchline" : 				{
					"source" : [ "obj-11", 0 ],
					"destination" : [ "obj-8", 0 ],
					"hidden" : 0,
					"midpoints" : [  ]
				}

			}
, 			{
				"patchline" : 				{
					"source" : [ "obj-9", 0 ],
					"destination" : [ "obj-2", 0 ],
					"hidden" : 0,
					"midpoints" : [  ]
				}

			}
, 			{
				"patchline" : 				{
					"source" : [ "obj-2", 0 ],
					"destination" : [ "obj-36", 4 ],
					"hidden" : 0,
					"midpoints" : [  ]
				}

			}
, 			{
				"patchline" : 				{
					"source" : [ "obj-2", 1 ],
					"destination" : [ "obj-36", 5 ],
					"hidden" : 0,
					"midpoints" : [  ]
				}

			}
, 			{
				"patchline" : 				{
					"source" : [ "obj-2", 2 ],
					"destination" : [ "obj-36", 6 ],
					"hidden" : 0,
					"midpoints" : [  ]
				}

			}
, 			{
				"patchline" : 				{
					"source" : [ "obj-34", 0 ],
					"destination" : [ "obj-35", 0 ],
					"hidden" : 0,
					"midpoints" : [  ]
				}

			}
, 			{
				"patchline" : 				{
					"source" : [ "obj-33", 1 ],
					"destination" : [ "obj-34", 0 ],
					"hidden" : 0,
					"midpoints" : [  ]
				}

			}
 ]
	}

}
