{
	"patcher" : 	{
		"fileversion" : 1,
		"rect" : [ 172.0, 47.0, 524.0, 503.0 ],
		"bglocked" : 0,
		"defrect" : [ 172.0, 47.0, 524.0, 503.0 ],
		"openrect" : [ 0.0, 0.0, 0.0, 0.0 ],
		"openinpresentation" : 0,
		"default_fontsize" : 12.0,
		"default_fontface" : 0,
		"default_fontname" : "Arial",
		"gridonopen" : 0,
		"gridsize" : [ 15.0, 15.0 ],
		"gridsnaponopen" : 0,
		"toolbarvisible" : 1,
		"boxanimatetime" : 200,
		"imprint" : 0,
		"boxes" : [ 			{
				"box" : 				{
					"maxclass" : "newobj",
					"text" : "t s clear",
					"fontname" : "Arial",
					"numinlets" : 1,
					"patching_rect" : [ 17.0, 407.0, 53.0, 20.0 ],
					"numoutlets" : 2,
					"id" : "obj-44",
					"fontsize" : 12.0,
					"outlettype" : [ "", "clear" ]
				}

			}
, 			{
				"box" : 				{
					"maxclass" : "newobj",
					"text" : "t i i",
					"fontname" : "Arial",
					"numinlets" : 1,
					"patching_rect" : [ 17.0, 312.0, 32.5, 20.0 ],
					"numoutlets" : 2,
					"id" : "obj-43",
					"fontsize" : 12.0,
					"outlettype" : [ "int", "int" ]
				}

			}
, 			{
				"box" : 				{
					"maxclass" : "newobj",
					"text" : "t i i",
					"fontname" : "Arial",
					"numinlets" : 1,
					"patching_rect" : [ 52.0, 312.0, 32.5, 20.0 ],
					"numoutlets" : 2,
					"id" : "obj-42",
					"fontsize" : 12.0,
					"outlettype" : [ "int", "int" ]
				}

			}
, 			{
				"box" : 				{
					"maxclass" : "newobj",
					"text" : "t i i",
					"fontname" : "Arial",
					"numinlets" : 1,
					"patching_rect" : [ 110.0, 313.0, 32.5, 20.0 ],
					"numoutlets" : 2,
					"id" : "obj-41",
					"fontsize" : 12.0,
					"outlettype" : [ "int", "int" ]
				}

			}
, 			{
				"box" : 				{
					"maxclass" : "newobj",
					"text" : "t i i",
					"fontname" : "Arial",
					"numinlets" : 1,
					"patching_rect" : [ 145.0, 313.0, 32.5, 20.0 ],
					"numoutlets" : 2,
					"id" : "obj-40",
					"fontsize" : 12.0,
					"outlettype" : [ "int", "int" ]
				}

			}
, 			{
				"box" : 				{
					"maxclass" : "newobj",
					"text" : "unpack 0 0 0",
					"fontname" : "Arial",
					"numinlets" : 1,
					"patching_rect" : [ 187.0, 355.0, 104.0, 20.0 ],
					"numoutlets" : 3,
					"id" : "obj-39",
					"fontsize" : 12.0,
					"outlettype" : [ "int", "int", "int" ]
				}

			}
, 			{
				"box" : 				{
					"maxclass" : "newobj",
					"text" : "t l l",
					"fontname" : "Arial",
					"numinlets" : 1,
					"patching_rect" : [ 187.0, 296.0, 32.5, 20.0 ],
					"numoutlets" : 2,
					"id" : "obj-38",
					"fontsize" : 12.0,
					"outlettype" : [ "", "" ]
				}

			}
, 			{
				"box" : 				{
					"maxclass" : "newobj",
					"text" : "unpack 0 0 0",
					"fontname" : "Arial",
					"numinlets" : 1,
					"patching_rect" : [ 426.0, 355.0, 83.0, 20.0 ],
					"numoutlets" : 3,
					"id" : "obj-37",
					"fontsize" : 12.0,
					"outlettype" : [ "int", "int", "int" ]
				}

			}
, 			{
				"box" : 				{
					"maxclass" : "newobj",
					"text" : "t l 0 l",
					"fontname" : "Arial",
					"numinlets" : 1,
					"patching_rect" : [ 123.0, 179.0, 46.0, 20.0 ],
					"numoutlets" : 3,
					"id" : "obj-32",
					"fontsize" : 12.0,
					"outlettype" : [ "", "int", "" ]
				}

			}
, 			{
				"box" : 				{
					"maxclass" : "newobj",
					"text" : "t i i",
					"fontname" : "Arial",
					"numinlets" : 1,
					"patching_rect" : [ 71.0, 120.0, 70.5, 20.0 ],
					"numoutlets" : 2,
					"id" : "obj-30",
					"fontsize" : 12.0,
					"outlettype" : [ "int", "int" ]
				}

			}
, 			{
				"box" : 				{
					"maxclass" : "comment",
					"text" : "onlick mouse coords [x,y]",
					"fontname" : "Arial",
					"numinlets" : 1,
					"patching_rect" : [ 56.0, 41.0, 139.0, 19.0 ],
					"numoutlets" : 0,
					"id" : "obj-29",
					"fontsize" : 11.0
				}

			}
, 			{
				"box" : 				{
					"maxclass" : "comment",
					"text" : "r g b selection border color",
					"fontname" : "Arial",
					"numinlets" : 1,
					"patching_rect" : [ 215.0, 178.0, 141.0, 19.0 ],
					"numoutlets" : 0,
					"id" : "obj-28",
					"fontsize" : 11.0
				}

			}
, 			{
				"box" : 				{
					"maxclass" : "comment",
					"text" : "is mouse down",
					"fontname" : "Arial",
					"numinlets" : 1,
					"patching_rect" : [ 74.0, 83.0, 89.0, 19.0 ],
					"numoutlets" : 0,
					"id" : "obj-27",
					"fontsize" : 11.0
				}

			}
, 			{
				"box" : 				{
					"maxclass" : "comment",
					"text" : "selection data [x1, y1, x2, y2, r, g, b]",
					"fontname" : "Arial",
					"numinlets" : 1,
					"patching_rect" : [ 324.0, 448.0, 189.0, 19.0 ],
					"numoutlets" : 0,
					"id" : "obj-26",
					"fontsize" : 11.0
				}

			}
, 			{
				"box" : 				{
					"maxclass" : "comment",
					"text" : "lcd drawing instructions",
					"fontname" : "Arial",
					"numinlets" : 1,
					"patching_rect" : [ 44.0, 448.0, 139.0, 19.0 ],
					"numoutlets" : 0,
					"id" : "obj-24",
					"fontsize" : 11.0
				}

			}
, 			{
				"box" : 				{
					"maxclass" : "comment",
					"text" : "p.sorti",
					"fontname" : "Arial",
					"numinlets" : 1,
					"patching_rect" : [ 435.0, 24.0, 49.0, 19.0 ],
					"numoutlets" : 0,
					"id" : "obj-20",
					"fontsize" : 11.0
				}

			}
, 			{
				"box" : 				{
					"maxclass" : "comment",
					"text" : "dependencies",
					"fontname" : "Arial",
					"numinlets" : 1,
					"patching_rect" : [ 418.0, 4.0, 78.0, 19.0 ],
					"numoutlets" : 0,
					"id" : "obj-22",
					"fontsize" : 11.0
				}

			}
, 			{
				"box" : 				{
					"maxclass" : "panel",
					"rounded" : 0,
					"bgcolor" : [ 0.901961, 0.901961, 0.901961, 1.0 ],
					"numinlets" : 1,
					"patching_rect" : [ 412.0, 0.0, 88.0, 50.0 ],
					"numoutlets" : 0,
					"id" : "obj-23"
				}

			}
, 			{
				"box" : 				{
					"maxclass" : "comment",
					"text" : "© 2013, Pierre-Emmanuel Lévesque",
					"fontname" : "Arial",
					"numinlets" : 1,
					"patching_rect" : [ 351.0, 483.0, 171.0, 18.0 ],
					"numoutlets" : 0,
					"id" : "obj-16",
					"fontsize" : 10.0
				}

			}
, 			{
				"box" : 				{
					"maxclass" : "newobj",
					"text" : "p.sorti",
					"fontname" : "Arial",
					"numinlets" : 3,
					"patching_rect" : [ 110.0, 287.0, 54.0, 20.0 ],
					"numoutlets" : 2,
					"id" : "obj-15",
					"fontsize" : 12.0,
					"outlettype" : [ "int", "int" ],
					"color" : [ 0.317647, 0.709804, 0.321569, 1.0 ]
				}

			}
, 			{
				"box" : 				{
					"maxclass" : "newobj",
					"text" : "p.sorti",
					"fontname" : "Arial",
					"numinlets" : 3,
					"patching_rect" : [ 17.0, 286.0, 54.0, 20.0 ],
					"numoutlets" : 2,
					"id" : "obj-12",
					"fontsize" : 12.0,
					"outlettype" : [ "int", "int" ],
					"color" : [ 0.317647, 0.709804, 0.321569, 1.0 ]
				}

			}
, 			{
				"box" : 				{
					"maxclass" : "newobj",
					"text" : "sel 0",
					"fontname" : "Arial",
					"numinlets" : 2,
					"patching_rect" : [ 71.0, 148.0, 36.0, 20.0 ],
					"numoutlets" : 2,
					"id" : "obj-13",
					"fontsize" : 12.0,
					"outlettype" : [ "bang", "" ]
				}

			}
, 			{
				"box" : 				{
					"maxclass" : "newobj",
					"text" : "loadbang",
					"fontname" : "Arial",
					"numinlets" : 1,
					"patching_rect" : [ 210.0, 237.0, 62.0, 20.0 ],
					"numoutlets" : 1,
					"id" : "obj-11",
					"fontsize" : 12.0,
					"outlettype" : [ "bang" ]
				}

			}
, 			{
				"box" : 				{
					"maxclass" : "message",
					"text" : "#1 #2 #3",
					"fontname" : "Arial",
					"numinlets" : 2,
					"patching_rect" : [ 210.0, 265.0, 99.0, 18.0 ],
					"numoutlets" : 1,
					"id" : "obj-8",
					"fontsize" : 12.0,
					"outlettype" : [ "" ]
				}

			}
, 			{
				"box" : 				{
					"maxclass" : "newobj",
					"text" : "pack 0 0 0 0 0 0 0",
					"fontname" : "Arial",
					"numinlets" : 7,
					"patching_rect" : [ 297.0, 380.0, 212.0, 20.0 ],
					"numoutlets" : 1,
					"id" : "obj-7",
					"fontsize" : 12.0,
					"outlettype" : [ "" ]
				}

			}
, 			{
				"box" : 				{
					"maxclass" : "outlet",
					"numinlets" : 1,
					"patching_rect" : [ 297.0, 445.0, 25.0, 25.0 ],
					"numoutlets" : 0,
					"id" : "obj-6",
					"comment" : "(list) selection data [x1, y1, x2, y2, r g b]"
				}

			}
, 			{
				"box" : 				{
					"maxclass" : "inlet",
					"numinlets" : 0,
					"patching_rect" : [ 187.0, 176.0, 25.0, 25.0 ],
					"numoutlets" : 1,
					"id" : "obj-9",
					"outlettype" : [ "" ],
					"comment" : "(list) selection border color [r, g, b]"
				}

			}
, 			{
				"box" : 				{
					"maxclass" : "outlet",
					"numinlets" : 1,
					"patching_rect" : [ 17.0, 445.0, 25.0, 25.0 ],
					"numoutlets" : 0,
					"id" : "obj-3",
					"comment" : "(messages) lcd drawing instructions preceded by a clear"
				}

			}
, 			{
				"box" : 				{
					"maxclass" : "inlet",
					"numinlets" : 0,
					"patching_rect" : [ 29.0, 37.0, 25.0, 25.0 ],
					"numoutlets" : 1,
					"id" : "obj-2",
					"outlettype" : [ "" ],
					"comment" : "(list) onclick mouse coordinates [x, y]"
				}

			}
, 			{
				"box" : 				{
					"maxclass" : "inlet",
					"numinlets" : 0,
					"patching_rect" : [ 48.0, 80.0, 25.0, 25.0 ],
					"numoutlets" : 1,
					"id" : "obj-1",
					"outlettype" : [ "" ],
					"comment" : "(bool) is mouse down "
				}

			}
, 			{
				"box" : 				{
					"maxclass" : "message",
					"text" : "1",
					"fontname" : "Arial",
					"numinlets" : 2,
					"patching_rect" : [ 71.0, 175.0, 29.5, 18.0 ],
					"numoutlets" : 1,
					"id" : "obj-35",
					"fontsize" : 12.0,
					"outlettype" : [ "" ]
				}

			}
, 			{
				"box" : 				{
					"maxclass" : "newobj",
					"text" : "gate",
					"fontname" : "Arial",
					"numinlets" : 2,
					"patching_rect" : [ 123.0, 148.0, 44.0, 20.0 ],
					"numoutlets" : 1,
					"id" : "obj-31",
					"fontsize" : 12.0,
					"outlettype" : [ "" ]
				}

			}
, 			{
				"box" : 				{
					"maxclass" : "newobj",
					"text" : "unpack",
					"fontname" : "Arial",
					"numinlets" : 1,
					"patching_rect" : [ 17.0, 220.0, 49.0, 20.0 ],
					"numoutlets" : 2,
					"id" : "obj-25",
					"fontsize" : 12.0,
					"outlettype" : [ "int", "int" ]
				}

			}
, 			{
				"box" : 				{
					"maxclass" : "newobj",
					"text" : "sprintf framerect %i %i %i %i %i %i %i",
					"fontname" : "Arial",
					"numinlets" : 7,
					"patching_rect" : [ 17.0, 380.0, 274.0, 20.0 ],
					"numoutlets" : 1,
					"id" : "obj-21",
					"fontsize" : 12.0,
					"outlettype" : [ "" ]
				}

			}
, 			{
				"box" : 				{
					"maxclass" : "newobj",
					"text" : "gate 1 1",
					"fontname" : "Arial",
					"numinlets" : 2,
					"patching_rect" : [ 71.0, 220.0, 98.0, 20.0 ],
					"numoutlets" : 1,
					"id" : "obj-14",
					"fontsize" : 12.0,
					"outlettype" : [ "" ]
				}

			}
, 			{
				"box" : 				{
					"maxclass" : "newobj",
					"text" : "unpack",
					"fontname" : "Arial",
					"numinlets" : 1,
					"patching_rect" : [ 71.0, 246.0, 76.0, 20.0 ],
					"numoutlets" : 2,
					"id" : "obj-17",
					"fontsize" : 12.0,
					"outlettype" : [ "int", "int" ]
				}

			}
 ],
		"lines" : [ 			{
				"patchline" : 				{
					"source" : [ "obj-44", 1 ],
					"destination" : [ "obj-3", 0 ],
					"hidden" : 0,
					"midpoints" : [ 60.5, 432.0, 26.5, 432.0 ]
				}

			}
, 			{
				"patchline" : 				{
					"source" : [ "obj-44", 0 ],
					"destination" : [ "obj-3", 0 ],
					"hidden" : 0,
					"midpoints" : [  ]
				}

			}
, 			{
				"patchline" : 				{
					"source" : [ "obj-21", 0 ],
					"destination" : [ "obj-44", 0 ],
					"hidden" : 0,
					"midpoints" : [  ]
				}

			}
, 			{
				"patchline" : 				{
					"source" : [ "obj-25", 0 ],
					"destination" : [ "obj-12", 0 ],
					"hidden" : 0,
					"midpoints" : [  ]
				}

			}
, 			{
				"patchline" : 				{
					"source" : [ "obj-43", 0 ],
					"destination" : [ "obj-21", 0 ],
					"hidden" : 0,
					"color" : [ 1.0, 0.337255, 0.619608, 1.0 ],
					"midpoints" : [  ]
				}

			}
, 			{
				"patchline" : 				{
					"source" : [ "obj-12", 0 ],
					"destination" : [ "obj-43", 0 ],
					"hidden" : 0,
					"midpoints" : [  ]
				}

			}
, 			{
				"patchline" : 				{
					"source" : [ "obj-43", 1 ],
					"destination" : [ "obj-7", 0 ],
					"hidden" : 0,
					"color" : [ 0.317647, 0.709804, 0.321569, 1.0 ],
					"midpoints" : [ 40.0, 349.5, 306.5, 349.5 ]
				}

			}
, 			{
				"patchline" : 				{
					"source" : [ "obj-12", 1 ],
					"destination" : [ "obj-42", 0 ],
					"hidden" : 0,
					"midpoints" : [  ]
				}

			}
, 			{
				"patchline" : 				{
					"source" : [ "obj-42", 0 ],
					"destination" : [ "obj-21", 2 ],
					"hidden" : 0,
					"color" : [ 1.0, 0.337255, 0.619608, 1.0 ],
					"midpoints" : [ 61.5, 355.0, 111.5, 355.0 ]
				}

			}
, 			{
				"patchline" : 				{
					"source" : [ "obj-42", 1 ],
					"destination" : [ "obj-7", 2 ],
					"hidden" : 0,
					"color" : [ 0.317647, 0.709804, 0.321569, 1.0 ],
					"midpoints" : [ 75.0, 345.5, 370.833344, 345.5 ]
				}

			}
, 			{
				"patchline" : 				{
					"source" : [ "obj-15", 0 ],
					"destination" : [ "obj-41", 0 ],
					"hidden" : 0,
					"midpoints" : [  ]
				}

			}
, 			{
				"patchline" : 				{
					"source" : [ "obj-41", 0 ],
					"destination" : [ "obj-21", 1 ],
					"hidden" : 0,
					"color" : [ 1.0, 0.337255, 0.619608, 1.0 ],
					"midpoints" : [ 119.5, 363.5, 69.0, 363.5 ]
				}

			}
, 			{
				"patchline" : 				{
					"source" : [ "obj-41", 1 ],
					"destination" : [ "obj-7", 1 ],
					"hidden" : 0,
					"color" : [ 0.317647, 0.709804, 0.321569, 1.0 ],
					"midpoints" : [ 133.0, 341.0, 338.666656, 341.0 ]
				}

			}
, 			{
				"patchline" : 				{
					"source" : [ "obj-40", 0 ],
					"destination" : [ "obj-21", 3 ],
					"hidden" : 0,
					"color" : [ 1.0, 0.337255, 0.619608, 1.0 ],
					"midpoints" : [  ]
				}

			}
, 			{
				"patchline" : 				{
					"source" : [ "obj-40", 1 ],
					"destination" : [ "obj-7", 3 ],
					"hidden" : 0,
					"color" : [ 0.317647, 0.709804, 0.321569, 1.0 ],
					"midpoints" : [ 168.0, 337.0, 403.0, 337.0 ]
				}

			}
, 			{
				"patchline" : 				{
					"source" : [ "obj-15", 1 ],
					"destination" : [ "obj-40", 0 ],
					"hidden" : 0,
					"midpoints" : [  ]
				}

			}
, 			{
				"patchline" : 				{
					"source" : [ "obj-17", 0 ],
					"destination" : [ "obj-12", 1 ],
					"hidden" : 0,
					"midpoints" : [ 80.5, 272.0, 44.0, 272.0 ]
				}

			}
, 			{
				"patchline" : 				{
					"source" : [ "obj-39", 2 ],
					"destination" : [ "obj-21", 6 ],
					"hidden" : 0,
					"midpoints" : [  ]
				}

			}
, 			{
				"patchline" : 				{
					"source" : [ "obj-39", 1 ],
					"destination" : [ "obj-21", 5 ],
					"hidden" : 0,
					"midpoints" : [  ]
				}

			}
, 			{
				"patchline" : 				{
					"source" : [ "obj-39", 0 ],
					"destination" : [ "obj-21", 4 ],
					"hidden" : 0,
					"midpoints" : [  ]
				}

			}
, 			{
				"patchline" : 				{
					"source" : [ "obj-38", 0 ],
					"destination" : [ "obj-39", 0 ],
					"hidden" : 0,
					"midpoints" : [  ]
				}

			}
, 			{
				"patchline" : 				{
					"source" : [ "obj-38", 1 ],
					"destination" : [ "obj-37", 0 ],
					"hidden" : 0,
					"midpoints" : [ 210.0, 323.0, 435.5, 323.0 ]
				}

			}
, 			{
				"patchline" : 				{
					"source" : [ "obj-9", 0 ],
					"destination" : [ "obj-38", 0 ],
					"hidden" : 0,
					"midpoints" : [  ]
				}

			}
, 			{
				"patchline" : 				{
					"source" : [ "obj-8", 0 ],
					"destination" : [ "obj-38", 0 ],
					"hidden" : 0,
					"midpoints" : [ 219.5, 291.0, 196.5, 291.0 ]
				}

			}
, 			{
				"patchline" : 				{
					"source" : [ "obj-37", 2 ],
					"destination" : [ "obj-7", 6 ],
					"hidden" : 0,
					"midpoints" : [  ]
				}

			}
, 			{
				"patchline" : 				{
					"source" : [ "obj-37", 1 ],
					"destination" : [ "obj-7", 5 ],
					"hidden" : 0,
					"midpoints" : [  ]
				}

			}
, 			{
				"patchline" : 				{
					"source" : [ "obj-37", 0 ],
					"destination" : [ "obj-7", 4 ],
					"hidden" : 0,
					"midpoints" : [  ]
				}

			}
, 			{
				"patchline" : 				{
					"source" : [ "obj-17", 1 ],
					"destination" : [ "obj-15", 1 ],
					"hidden" : 0,
					"midpoints" : [  ]
				}

			}
, 			{
				"patchline" : 				{
					"source" : [ "obj-32", 0 ],
					"destination" : [ "obj-25", 0 ],
					"hidden" : 0,
					"midpoints" : [ 132.5, 207.5, 26.5, 207.5 ]
				}

			}
, 			{
				"patchline" : 				{
					"source" : [ "obj-32", 1 ],
					"destination" : [ "obj-14", 0 ],
					"hidden" : 0,
					"midpoints" : [ 146.0, 213.5, 80.5, 213.5 ]
				}

			}
, 			{
				"patchline" : 				{
					"source" : [ "obj-32", 2 ],
					"destination" : [ "obj-14", 1 ],
					"hidden" : 0,
					"midpoints" : [  ]
				}

			}
, 			{
				"patchline" : 				{
					"source" : [ "obj-31", 0 ],
					"destination" : [ "obj-32", 0 ],
					"hidden" : 0,
					"midpoints" : [  ]
				}

			}
, 			{
				"patchline" : 				{
					"source" : [ "obj-30", 0 ],
					"destination" : [ "obj-13", 0 ],
					"hidden" : 0,
					"midpoints" : [  ]
				}

			}
, 			{
				"patchline" : 				{
					"source" : [ "obj-30", 1 ],
					"destination" : [ "obj-31", 0 ],
					"hidden" : 0,
					"midpoints" : [  ]
				}

			}
, 			{
				"patchline" : 				{
					"source" : [ "obj-1", 0 ],
					"destination" : [ "obj-30", 0 ],
					"hidden" : 0,
					"midpoints" : [ 57.5, 112.0, 80.5, 112.0 ]
				}

			}
, 			{
				"patchline" : 				{
					"source" : [ "obj-7", 0 ],
					"destination" : [ "obj-6", 0 ],
					"hidden" : 0,
					"midpoints" : [  ]
				}

			}
, 			{
				"patchline" : 				{
					"source" : [ "obj-14", 0 ],
					"destination" : [ "obj-17", 0 ],
					"hidden" : 0,
					"midpoints" : [  ]
				}

			}
, 			{
				"patchline" : 				{
					"source" : [ "obj-35", 0 ],
					"destination" : [ "obj-14", 0 ],
					"hidden" : 0,
					"color" : [ 1.0, 0.337255, 0.619608, 1.0 ],
					"midpoints" : [ 80.5, 212.0, 80.5, 212.0 ]
				}

			}
, 			{
				"patchline" : 				{
					"source" : [ "obj-2", 0 ],
					"destination" : [ "obj-31", 1 ],
					"hidden" : 0,
					"midpoints" : [ 38.5, 66.5, 157.5, 66.5 ]
				}

			}
, 			{
				"patchline" : 				{
					"source" : [ "obj-11", 0 ],
					"destination" : [ "obj-8", 0 ],
					"hidden" : 0,
					"midpoints" : [  ]
				}

			}
, 			{
				"patchline" : 				{
					"source" : [ "obj-13", 0 ],
					"destination" : [ "obj-35", 0 ],
					"hidden" : 0,
					"midpoints" : [  ]
				}

			}
, 			{
				"patchline" : 				{
					"source" : [ "obj-25", 1 ],
					"destination" : [ "obj-15", 0 ],
					"hidden" : 0,
					"color" : [ 1.0, 0.337255, 0.619608, 1.0 ],
					"midpoints" : [ 56.5, 277.5, 119.5, 277.5 ]
				}

			}
 ]
	}

}
