{
	"patcher" : 	{
		"fileversion" : 1,
		"appversion" : 		{
			"major" : 8,
			"minor" : 0,
			"revision" : 2,
			"architecture" : "x64",
			"modernui" : 1
		}
,
		"classnamespace" : "box",
		"rect" : [ 194.0, 79.0, 726.0, 791.0 ],
		"bglocked" : 0,
		"openinpresentation" : 0,
		"default_fontsize" : 12.0,
		"default_fontface" : 0,
		"default_fontname" : "Arial",
		"gridonopen" : 1,
		"gridsize" : [ 15.0, 15.0 ],
		"gridsnaponopen" : 1,
		"objectsnaponopen" : 1,
		"statusbarvisible" : 2,
		"toolbarvisible" : 1,
		"lefttoolbarpinned" : 0,
		"toptoolbarpinned" : 0,
		"righttoolbarpinned" : 0,
		"bottomtoolbarpinned" : 0,
		"toolbars_unpinned_last_save" : 0,
		"tallnewobj" : 0,
		"boxanimatetime" : 200,
		"enablehscroll" : 1,
		"enablevscroll" : 1,
		"devicewidth" : 0.0,
		"description" : "",
		"digest" : "",
		"tags" : "",
		"style" : "",
		"subpatcher_template" : "",
		"boxes" : [ 			{
				"box" : 				{
					"id" : "obj-3",
					"maxclass" : "newobj",
					"numinlets" : 4,
					"numoutlets" : 1,
					"outlettype" : [ "int" ],
					"patcher" : 					{
						"fileversion" : 1,
						"appversion" : 						{
							"major" : 8,
							"minor" : 0,
							"revision" : 2,
							"architecture" : "x64",
							"modernui" : 1
						}
,
						"classnamespace" : "box",
						"rect" : [ 114.0, 104.0, 815.0, 588.0 ],
						"bglocked" : 0,
						"openinpresentation" : 0,
						"default_fontsize" : 12.0,
						"default_fontface" : 0,
						"default_fontname" : "Arial",
						"gridonopen" : 1,
						"gridsize" : [ 15.0, 15.0 ],
						"gridsnaponopen" : 1,
						"objectsnaponopen" : 1,
						"statusbarvisible" : 2,
						"toolbarvisible" : 1,
						"lefttoolbarpinned" : 0,
						"toptoolbarpinned" : 0,
						"righttoolbarpinned" : 0,
						"bottomtoolbarpinned" : 0,
						"toolbars_unpinned_last_save" : 0,
						"tallnewobj" : 0,
						"boxanimatetime" : 200,
						"enablehscroll" : 1,
						"enablevscroll" : 1,
						"devicewidth" : 0.0,
						"description" : "",
						"digest" : "",
						"tags" : "",
						"style" : "",
						"subpatcher_template" : "",
						"boxes" : [ 							{
								"box" : 								{
									"id" : "obj-2",
									"maxclass" : "newobj",
									"numinlets" : 1,
									"numoutlets" : 1,
									"outlettype" : [ "bang" ],
									"patching_rect" : [ 723.0, 109.0, 68.0, 22.0 ],
									"text" : "loadbang 0"
								}

							}
, 							{
								"box" : 								{
									"id" : "obj-57",
									"maxclass" : "comment",
									"numinlets" : 1,
									"numoutlets" : 0,
									"patching_rect" : [ 576.0, 31.5, 150.0, 20.0 ],
									"text" : "direction"
								}

							}
, 							{
								"box" : 								{
									"id" : "obj-51",
									"maxclass" : "newobj",
									"numinlets" : 2,
									"numoutlets" : 1,
									"outlettype" : [ "int" ],
									"patching_rect" : [ 526.0, 282.0, 29.5, 22.0 ],
									"text" : "+ 1"
								}

							}
, 							{
								"box" : 								{
									"id" : "obj-50",
									"maxclass" : "newobj",
									"numinlets" : 2,
									"numoutlets" : 2,
									"outlettype" : [ "", "" ],
									"patching_rect" : [ 388.0, 330.0, 42.0, 22.0 ],
									"text" : "gate 2"
								}

							}
, 							{
								"box" : 								{
									"comment" : "",
									"id" : "obj-49",
									"index" : 4,
									"maxclass" : "inlet",
									"numinlets" : 0,
									"numoutlets" : 1,
									"outlettype" : [ "int" ],
									"patching_rect" : [ 587.0, 67.0, 30.0, 30.0 ]
								}

							}
, 							{
								"box" : 								{
									"id" : "obj-48",
									"maxclass" : "button",
									"numinlets" : 1,
									"numoutlets" : 1,
									"outlettype" : [ "bang" ],
									"parameter_enable" : 0,
									"patching_rect" : [ 314.0, 51.0, 24.0, 24.0 ]
								}

							}
, 							{
								"box" : 								{
									"id" : "obj-47",
									"maxclass" : "number",
									"numinlets" : 1,
									"numoutlets" : 2,
									"outlettype" : [ "", "bang" ],
									"parameter_enable" : 0,
									"patching_rect" : [ 183.0, 125.0, 50.0, 22.0 ]
								}

							}
, 							{
								"box" : 								{
									"id" : "obj-46",
									"maxclass" : "comment",
									"numinlets" : 1,
									"numoutlets" : 0,
									"patching_rect" : [ 157.0, 38.5, 91.0, 20.0 ],
									"text" : "start number"
								}

							}
, 							{
								"box" : 								{
									"id" : "obj-44",
									"maxclass" : "comment",
									"numinlets" : 1,
									"numoutlets" : 0,
									"patching_rect" : [ 428.5, 72.0, 57.0, 20.0 ],
									"text" : "new list"
								}

							}
, 							{
								"box" : 								{
									"id" : "obj-33",
									"maxclass" : "comment",
									"numinlets" : 1,
									"numoutlets" : 0,
									"patching_rect" : [ 38.0, 26.5, 90.0, 20.0 ],
									"text" : "bang to count"
								}

							}
, 							{
								"box" : 								{
									"id" : "obj-29",
									"maxclass" : "newobj",
									"numinlets" : 2,
									"numoutlets" : 1,
									"outlettype" : [ "int" ],
									"patching_rect" : [ 405.0, 409.0, 29.5, 22.0 ],
									"text" : "* -1"
								}

							}
, 							{
								"box" : 								{
									"comment" : "",
									"id" : "obj-27",
									"index" : 2,
									"maxclass" : "inlet",
									"numinlets" : 0,
									"numoutlets" : 1,
									"outlettype" : [ "int" ],
									"patching_rect" : [ 183.0, 67.0, 30.0, 30.0 ]
								}

							}
, 							{
								"box" : 								{
									"comment" : "",
									"id" : "obj-26",
									"index" : 1,
									"maxclass" : "inlet",
									"numinlets" : 0,
									"numoutlets" : 1,
									"outlettype" : [ "bang" ],
									"patching_rect" : [ 80.5, 54.0, 30.0, 30.0 ]
								}

							}
, 							{
								"box" : 								{
									"comment" : "",
									"id" : "obj-25",
									"index" : 1,
									"maxclass" : "outlet",
									"numinlets" : 1,
									"numoutlets" : 0,
									"patching_rect" : [ 187.5, 528.0, 30.0, 30.0 ]
								}

							}
, 							{
								"box" : 								{
									"comment" : "",
									"id" : "obj-24",
									"index" : 3,
									"maxclass" : "inlet",
									"numinlets" : 0,
									"numoutlets" : 1,
									"outlettype" : [ "" ],
									"patching_rect" : [ 442.0, 111.0, 30.0, 30.0 ]
								}

							}
, 							{
								"box" : 								{
									"id" : "obj-20",
									"maxclass" : "button",
									"numinlets" : 1,
									"numoutlets" : 1,
									"outlettype" : [ "bang" ],
									"parameter_enable" : 0,
									"patching_rect" : [ 241.0, 361.0, 24.0, 24.0 ]
								}

							}
, 							{
								"box" : 								{
									"id" : "obj-19",
									"maxclass" : "message",
									"numinlets" : 2,
									"numoutlets" : 1,
									"outlettype" : [ "" ],
									"patching_rect" : [ 241.0, 399.0, 29.5, 22.0 ],
									"text" : "0"
								}

							}
, 							{
								"box" : 								{
									"id" : "obj-17",
									"maxclass" : "button",
									"numinlets" : 1,
									"numoutlets" : 1,
									"outlettype" : [ "bang" ],
									"parameter_enable" : 0,
									"patching_rect" : [ 340.0, 125.0, 24.0, 24.0 ]
								}

							}
, 							{
								"box" : 								{
									"id" : "obj-16",
									"maxclass" : "message",
									"numinlets" : 2,
									"numoutlets" : 1,
									"outlettype" : [ "" ],
									"patching_rect" : [ 369.0, 162.0, 92.0, 22.0 ],
									"text" : "1 1 2"
								}

							}
, 							{
								"box" : 								{
									"id" : "obj-14",
									"maxclass" : "button",
									"numinlets" : 1,
									"numoutlets" : 1,
									"outlettype" : [ "bang" ],
									"parameter_enable" : 0,
									"patching_rect" : [ 80.5, 113.0, 24.0, 24.0 ]
								}

							}
, 							{
								"box" : 								{
									"id" : "obj-12",
									"maxclass" : "newobj",
									"numinlets" : 2,
									"numoutlets" : 1,
									"outlettype" : [ "int" ],
									"patching_rect" : [ 187.5, 468.0, 72.5, 22.0 ],
									"text" : "+"
								}

							}
, 							{
								"box" : 								{
									"id" : "obj-11",
									"maxclass" : "newobj",
									"numinlets" : 2,
									"numoutlets" : 1,
									"outlettype" : [ "int" ],
									"patching_rect" : [ 96.5, 409.0, 72.5, 22.0 ],
									"text" : "+"
								}

							}
, 							{
								"box" : 								{
									"id" : "obj-9",
									"maxclass" : "button",
									"numinlets" : 1,
									"numoutlets" : 1,
									"outlettype" : [ "bang" ],
									"parameter_enable" : 0,
									"patching_rect" : [ 27.0, 173.0, 24.0, 24.0 ]
								}

							}
, 							{
								"box" : 								{
									"id" : "obj-8",
									"maxclass" : "number",
									"numinlets" : 1,
									"numoutlets" : 2,
									"outlettype" : [ "", "bang" ],
									"parameter_enable" : 0,
									"patching_rect" : [ 587.0, 125.0, 50.0, 22.0 ]
								}

							}
, 							{
								"box" : 								{
									"id" : "obj-1",
									"maxclass" : "newobj",
									"numinlets" : 2,
									"numoutlets" : 3,
									"outlettype" : [ "int", "", "int" ],
									"patching_rect" : [ 411.0, 229.0, 50.0, 22.0 ],
									"text" : "p.iterlist"
								}

							}
 ],
						"lines" : [ 							{
								"patchline" : 								{
									"destination" : [ "obj-50", 1 ],
									"source" : [ "obj-1", 0 ]
								}

							}
, 							{
								"patchline" : 								{
									"destination" : [ "obj-12", 0 ],
									"source" : [ "obj-11", 0 ]
								}

							}
, 							{
								"patchline" : 								{
									"destination" : [ "obj-11", 1 ],
									"order" : 1,
									"source" : [ "obj-12", 0 ]
								}

							}
, 							{
								"patchline" : 								{
									"destination" : [ "obj-25", 0 ],
									"order" : 0,
									"source" : [ "obj-12", 0 ]
								}

							}
, 							{
								"patchline" : 								{
									"destination" : [ "obj-11", 0 ],
									"order" : 0,
									"source" : [ "obj-14", 0 ]
								}

							}
, 							{
								"patchline" : 								{
									"destination" : [ "obj-9", 0 ],
									"order" : 1,
									"source" : [ "obj-14", 0 ]
								}

							}
, 							{
								"patchline" : 								{
									"destination" : [ "obj-1", 0 ],
									"source" : [ "obj-16", 0 ]
								}

							}
, 							{
								"patchline" : 								{
									"destination" : [ "obj-16", 0 ],
									"source" : [ "obj-17", 0 ]
								}

							}
, 							{
								"patchline" : 								{
									"destination" : [ "obj-12", 1 ],
									"source" : [ "obj-19", 0 ]
								}

							}
, 							{
								"patchline" : 								{
									"destination" : [ "obj-8", 0 ],
									"source" : [ "obj-2", 0 ]
								}

							}
, 							{
								"patchline" : 								{
									"destination" : [ "obj-19", 0 ],
									"source" : [ "obj-20", 0 ]
								}

							}
, 							{
								"patchline" : 								{
									"destination" : [ "obj-16", 1 ],
									"order" : 0,
									"source" : [ "obj-24", 0 ]
								}

							}
, 							{
								"patchline" : 								{
									"destination" : [ "obj-48", 0 ],
									"order" : 1,
									"source" : [ "obj-24", 0 ]
								}

							}
, 							{
								"patchline" : 								{
									"destination" : [ "obj-14", 0 ],
									"source" : [ "obj-26", 0 ]
								}

							}
, 							{
								"patchline" : 								{
									"destination" : [ "obj-47", 0 ],
									"source" : [ "obj-27", 0 ]
								}

							}
, 							{
								"patchline" : 								{
									"destination" : [ "obj-12", 1 ],
									"source" : [ "obj-29", 0 ]
								}

							}
, 							{
								"patchline" : 								{
									"destination" : [ "obj-11", 1 ],
									"order" : 2,
									"source" : [ "obj-47", 0 ]
								}

							}
, 							{
								"patchline" : 								{
									"destination" : [ "obj-17", 0 ],
									"order" : 0,
									"source" : [ "obj-47", 0 ]
								}

							}
, 							{
								"patchline" : 								{
									"destination" : [ "obj-20", 0 ],
									"order" : 1,
									"source" : [ "obj-47", 0 ]
								}

							}
, 							{
								"patchline" : 								{
									"destination" : [ "obj-47", 0 ],
									"source" : [ "obj-48", 0 ]
								}

							}
, 							{
								"patchline" : 								{
									"destination" : [ "obj-8", 0 ],
									"source" : [ "obj-49", 0 ]
								}

							}
, 							{
								"patchline" : 								{
									"destination" : [ "obj-12", 1 ],
									"source" : [ "obj-50", 0 ]
								}

							}
, 							{
								"patchline" : 								{
									"destination" : [ "obj-29", 0 ],
									"source" : [ "obj-50", 1 ]
								}

							}
, 							{
								"patchline" : 								{
									"destination" : [ "obj-50", 0 ],
									"source" : [ "obj-51", 0 ]
								}

							}
, 							{
								"patchline" : 								{
									"destination" : [ "obj-1", 1 ],
									"order" : 1,
									"source" : [ "obj-8", 0 ]
								}

							}
, 							{
								"patchline" : 								{
									"destination" : [ "obj-51", 0 ],
									"order" : 0,
									"source" : [ "obj-8", 0 ]
								}

							}
, 							{
								"patchline" : 								{
									"destination" : [ "obj-1", 0 ],
									"source" : [ "obj-9", 0 ]
								}

							}
 ]
					}
,
					"patching_rect" : [ 366.5, 431.0, 50.5, 22.0 ],
					"saved_object_attributes" : 					{
						"description" : "",
						"digest" : "",
						"globalpatchername" : "",
						"tags" : ""
					}
,
					"text" : "p heart"
				}

			}
, 			{
				"box" : 				{
					"comment" : "bang when done",
					"id" : "obj-2",
					"index" : 0,
					"maxclass" : "outlet",
					"numinlets" : 1,
					"numoutlets" : 0,
					"patching_rect" : [ 607.0, 713.0, 30.0, 30.0 ]
				}

			}
, 			{
				"box" : 				{
					"comment" : "metro speed",
					"id" : "obj-39",
					"index" : 0,
					"maxclass" : "inlet",
					"numinlets" : 0,
					"numoutlets" : 1,
					"outlettype" : [ "" ],
					"patching_rect" : [ 132.0, 53.0, 30.0, 30.0 ]
				}

			}
, 			{
				"box" : 				{
					"comment" : "note",
					"id" : "obj-38",
					"index" : 0,
					"maxclass" : "outlet",
					"numinlets" : 1,
					"numoutlets" : 0,
					"patching_rect" : [ 576.0, 629.0, 30.0, 30.0 ]
				}

			}
, 			{
				"box" : 				{
					"comment" : "interval list",
					"id" : "obj-37",
					"index" : 0,
					"maxclass" : "inlet",
					"numinlets" : 0,
					"numoutlets" : 1,
					"outlettype" : [ "" ],
					"patching_rect" : [ 396.5, 53.0, 30.0, 30.0 ]
				}

			}
, 			{
				"box" : 				{
					"comment" : "bang to start",
					"id" : "obj-35",
					"index" : 0,
					"maxclass" : "inlet",
					"numinlets" : 0,
					"numoutlets" : 1,
					"outlettype" : [ "" ],
					"patching_rect" : [ 60.0, 48.0, 30.0, 30.0 ]
				}

			}
, 			{
				"box" : 				{
					"comment" : "range",
					"id" : "obj-34",
					"index" : 0,
					"maxclass" : "inlet",
					"numinlets" : 0,
					"numoutlets" : 1,
					"outlettype" : [ "" ],
					"patching_rect" : [ 196.0, 67.0, 30.0, 30.0 ]
				}

			}
, 			{
				"box" : 				{
					"id" : "obj-33",
					"maxclass" : "message",
					"numinlets" : 2,
					"numoutlets" : 1,
					"outlettype" : [ "" ],
					"patching_rect" : [ 60.0, 226.0, 29.5, 22.0 ],
					"text" : "1"
				}

			}
, 			{
				"box" : 				{
					"id" : "obj-32",
					"maxclass" : "button",
					"numinlets" : 1,
					"numoutlets" : 1,
					"outlettype" : [ "bang" ],
					"parameter_enable" : 0,
					"patching_rect" : [ 60.0, 130.0, 24.0, 24.0 ]
				}

			}
, 			{
				"box" : 				{
					"id" : "obj-30",
					"maxclass" : "message",
					"numinlets" : 2,
					"numoutlets" : 1,
					"outlettype" : [ "" ],
					"patching_rect" : [ 333.75, 703.0, 29.5, 22.0 ],
					"text" : "0"
				}

			}
, 			{
				"box" : 				{
					"id" : "obj-28",
					"maxclass" : "button",
					"numinlets" : 1,
					"numoutlets" : 1,
					"outlettype" : [ "bang" ],
					"parameter_enable" : 0,
					"patching_rect" : [ 60.0, 372.0, 24.0, 24.0 ]
				}

			}
, 			{
				"box" : 				{
					"id" : "obj-27",
					"maxclass" : "toggle",
					"numinlets" : 1,
					"numoutlets" : 1,
					"outlettype" : [ "int" ],
					"parameter_enable" : 0,
					"patching_rect" : [ 60.0, 272.0, 57.0, 57.0 ]
				}

			}
, 			{
				"box" : 				{
					"id" : "obj-26",
					"maxclass" : "newobj",
					"numinlets" : 2,
					"numoutlets" : 1,
					"outlettype" : [ "bang" ],
					"patching_rect" : [ 60.0, 339.0, 69.0, 22.0 ],
					"text" : "metro 1000"
				}

			}
, 			{
				"box" : 				{
					"id" : "obj-24",
					"maxclass" : "newobj",
					"numinlets" : 2,
					"numoutlets" : 2,
					"outlettype" : [ "bang", "" ],
					"patching_rect" : [ 333.75, 665.0, 34.0, 22.0 ],
					"text" : "sel 1"
				}

			}
, 			{
				"box" : 				{
					"id" : "obj-23",
					"maxclass" : "newobj",
					"numinlets" : 2,
					"numoutlets" : 1,
					"outlettype" : [ "int" ],
					"patching_rect" : [ 419.0, 610.0, 29.5, 22.0 ],
					"text" : "<="
				}

			}
, 			{
				"box" : 				{
					"id" : "obj-22",
					"maxclass" : "newobj",
					"numinlets" : 2,
					"numoutlets" : 1,
					"outlettype" : [ "int" ],
					"patching_rect" : [ 336.0, 606.0, 29.5, 22.0 ],
					"text" : ">="
				}

			}
, 			{
				"box" : 				{
					"id" : "obj-21",
					"maxclass" : "newobj",
					"numinlets" : 2,
					"numoutlets" : 1,
					"outlettype" : [ "int" ],
					"patching_rect" : [ 468.0, 490.0, 29.5, 22.0 ],
					"text" : "+ 1"
				}

			}
, 			{
				"box" : 				{
					"id" : "obj-20",
					"maxclass" : "newobj",
					"numinlets" : 2,
					"numoutlets" : 2,
					"outlettype" : [ "", "" ],
					"patching_rect" : [ 351.0, 546.0, 42.0, 22.0 ],
					"text" : "gate 2"
				}

			}
, 			{
				"box" : 				{
					"id" : "obj-17",
					"maxclass" : "newobj",
					"numinlets" : 2,
					"numoutlets" : 1,
					"outlettype" : [ "int" ],
					"patching_rect" : [ 459.0, 349.0, 29.5, 22.0 ],
					"text" : ">"
				}

			}
, 			{
				"box" : 				{
					"id" : "obj-10",
					"maxclass" : "message",
					"numinlets" : 2,
					"numoutlets" : 1,
					"outlettype" : [ "" ],
					"patching_rect" : [ 196.0, 206.0, 39.0, 22.0 ],
					"text" : "56 89"
				}

			}
, 			{
				"box" : 				{
					"id" : "obj-9",
					"maxclass" : "newobj",
					"numinlets" : 1,
					"numoutlets" : 2,
					"outlettype" : [ "int", "int" ],
					"patching_rect" : [ 196.0, 295.0, 59.0, 22.0 ],
					"text" : "unpack i i"
				}

			}
 ],
		"lines" : [ 			{
				"patchline" : 				{
					"destination" : [ "obj-9", 0 ],
					"source" : [ "obj-10", 0 ]
				}

			}
, 			{
				"patchline" : 				{
					"destination" : [ "obj-21", 0 ],
					"order" : 0,
					"source" : [ "obj-17", 0 ]
				}

			}
, 			{
				"patchline" : 				{
					"destination" : [ "obj-3", 3 ],
					"order" : 1,
					"source" : [ "obj-17", 0 ]
				}

			}
, 			{
				"patchline" : 				{
					"destination" : [ "obj-22", 0 ],
					"source" : [ "obj-20", 0 ]
				}

			}
, 			{
				"patchline" : 				{
					"destination" : [ "obj-23", 0 ],
					"source" : [ "obj-20", 1 ]
				}

			}
, 			{
				"patchline" : 				{
					"destination" : [ "obj-20", 0 ],
					"source" : [ "obj-21", 0 ]
				}

			}
, 			{
				"patchline" : 				{
					"destination" : [ "obj-24", 0 ],
					"source" : [ "obj-22", 0 ]
				}

			}
, 			{
				"patchline" : 				{
					"destination" : [ "obj-24", 0 ],
					"source" : [ "obj-23", 0 ]
				}

			}
, 			{
				"patchline" : 				{
					"destination" : [ "obj-2", 0 ],
					"order" : 0,
					"source" : [ "obj-24", 0 ]
				}

			}
, 			{
				"patchline" : 				{
					"destination" : [ "obj-30", 0 ],
					"order" : 1,
					"source" : [ "obj-24", 0 ]
				}

			}
, 			{
				"patchline" : 				{
					"destination" : [ "obj-28", 0 ],
					"source" : [ "obj-26", 0 ]
				}

			}
, 			{
				"patchline" : 				{
					"destination" : [ "obj-26", 0 ],
					"source" : [ "obj-27", 0 ]
				}

			}
, 			{
				"patchline" : 				{
					"destination" : [ "obj-3", 0 ],
					"source" : [ "obj-28", 0 ]
				}

			}
, 			{
				"patchline" : 				{
					"destination" : [ "obj-20", 1 ],
					"order" : 1,
					"source" : [ "obj-3", 0 ]
				}

			}
, 			{
				"patchline" : 				{
					"destination" : [ "obj-38", 0 ],
					"order" : 0,
					"source" : [ "obj-3", 0 ]
				}

			}
, 			{
				"patchline" : 				{
					"destination" : [ "obj-27", 0 ],
					"source" : [ "obj-30", 0 ]
				}

			}
, 			{
				"patchline" : 				{
					"destination" : [ "obj-10", 0 ],
					"order" : 0,
					"source" : [ "obj-32", 0 ]
				}

			}
, 			{
				"patchline" : 				{
					"destination" : [ "obj-33", 0 ],
					"order" : 1,
					"source" : [ "obj-32", 0 ]
				}

			}
, 			{
				"patchline" : 				{
					"destination" : [ "obj-27", 0 ],
					"source" : [ "obj-33", 0 ]
				}

			}
, 			{
				"patchline" : 				{
					"destination" : [ "obj-10", 1 ],
					"source" : [ "obj-34", 0 ]
				}

			}
, 			{
				"patchline" : 				{
					"destination" : [ "obj-32", 0 ],
					"source" : [ "obj-35", 0 ]
				}

			}
, 			{
				"patchline" : 				{
					"destination" : [ "obj-3", 2 ],
					"source" : [ "obj-37", 0 ]
				}

			}
, 			{
				"patchline" : 				{
					"destination" : [ "obj-26", 1 ],
					"source" : [ "obj-39", 0 ]
				}

			}
, 			{
				"patchline" : 				{
					"destination" : [ "obj-17", 1 ],
					"order" : 0,
					"source" : [ "obj-9", 1 ]
				}

			}
, 			{
				"patchline" : 				{
					"destination" : [ "obj-17", 0 ],
					"order" : 0,
					"source" : [ "obj-9", 0 ]
				}

			}
, 			{
				"patchline" : 				{
					"destination" : [ "obj-22", 1 ],
					"order" : 2,
					"source" : [ "obj-9", 1 ]
				}

			}
, 			{
				"patchline" : 				{
					"destination" : [ "obj-23", 1 ],
					"order" : 1,
					"source" : [ "obj-9", 1 ]
				}

			}
, 			{
				"patchline" : 				{
					"destination" : [ "obj-3", 1 ],
					"order" : 1,
					"source" : [ "obj-9", 0 ]
				}

			}
 ],
		"dependency_cache" : [ 			{
				"name" : "p.iterlist.maxpat",
				"bootpath" : "~/Documents/Repos/p.objects/p.objects-abstractions/utilities",
				"patcherrelativepath" : ".",
				"type" : "JSON",
				"implicit" : 1
			}
 ],
		"autosave" : 0
	}

}
