{
	"patcher" : 	{
		"fileversion" : 1,
		"rect" : [ 1377.0, 108.0, 400.0, 270.0 ],
		"bglocked" : 0,
		"defrect" : [ 1377.0, 108.0, 400.0, 270.0 ],
		"openrect" : [ 0.0, 0.0, 0.0, 0.0 ],
		"openinpresentation" : 0,
		"default_fontsize" : 12.0,
		"default_fontface" : 0,
		"default_fontname" : "Arial",
		"gridonopen" : 0,
		"gridsize" : [ 15.0, 15.0 ],
		"gridsnaponopen" : 0,
		"toolbarvisible" : 1,
		"boxanimatetime" : 200,
		"imprint" : 0,
		"boxes" : [ 			{
				"box" : 				{
					"maxclass" : "comment",
					"text" : "rests the next output",
					"numoutlets" : 0,
					"id" : "obj-22",
					"fontname" : "Arial",
					"patching_rect" : [ 144.0, 99.0, 122.0, 20.0 ],
					"fontsize" : 12.0,
					"numinlets" : 1
				}

			}
, 			{
				"box" : 				{
					"maxclass" : "message",
					"text" : "1",
					"numoutlets" : 1,
					"outlettype" : [ "" ],
					"id" : "obj-21",
					"fontname" : "Arial",
					"patching_rect" : [ 171.0, 122.0, 23.5, 18.0 ],
					"fontsize" : 12.0,
					"numinlets" : 2
				}

			}
, 			{
				"box" : 				{
					"maxclass" : "message",
					"text" : "0",
					"numoutlets" : 1,
					"outlettype" : [ "" ],
					"id" : "obj-19",
					"fontname" : "Arial",
					"patching_rect" : [ 146.0, 122.0, 22.5, 18.0 ],
					"fontsize" : 12.0,
					"numinlets" : 2
				}

			}
, 			{
				"box" : 				{
					"maxclass" : "comment",
					"text" : "arg: 0 or 1 sets the output\ndefault = 0",
					"linecount" : 2,
					"numoutlets" : 0,
					"id" : "obj-18",
					"fontname" : "Arial",
					"patching_rect" : [ 111.0, 195.0, 150.0, 34.0 ],
					"fontsize" : 12.0,
					"numinlets" : 1
				}

			}
, 			{
				"box" : 				{
					"maxclass" : "button",
					"numoutlets" : 1,
					"outlettype" : [ "bang" ],
					"id" : "obj-15",
					"patching_rect" : [ 64.0, 164.0, 20.0, 20.0 ],
					"numinlets" : 1
				}

			}
, 			{
				"box" : 				{
					"maxclass" : "flonum",
					"numoutlets" : 2,
					"outlettype" : [ "float", "bang" ],
					"id" : "obj-14",
					"fontname" : "Arial",
					"patching_rect" : [ 52.0, 137.0, 50.0, 20.0 ],
					"fontsize" : 12.0,
					"numinlets" : 1
				}

			}
, 			{
				"box" : 				{
					"maxclass" : "number",
					"numoutlets" : 2,
					"outlettype" : [ "int", "bang" ],
					"id" : "obj-13",
					"fontname" : "Arial",
					"patching_rect" : [ 35.0, 112.0, 50.0, 20.0 ],
					"fontsize" : 12.0,
					"numinlets" : 1
				}

			}
, 			{
				"box" : 				{
					"maxclass" : "message",
					"text" : "a b c",
					"numoutlets" : 1,
					"outlettype" : [ "" ],
					"id" : "obj-12",
					"fontname" : "Arial",
					"patching_rect" : [ 16.0, 89.0, 37.0, 18.0 ],
					"fontsize" : 12.0,
					"numinlets" : 2
				}

			}
, 			{
				"box" : 				{
					"maxclass" : "comment",
					"text" : "Note: Any type of value is accepted. ",
					"numoutlets" : 0,
					"id" : "obj-10",
					"fontname" : "Arial",
					"patching_rect" : [ 10.0, 59.0, 210.0, 20.0 ],
					"fontsize" : 12.0,
					"numinlets" : 1
				}

			}
, 			{
				"box" : 				{
					"maxclass" : "button",
					"numoutlets" : 1,
					"outlettype" : [ "bang" ],
					"id" : "obj-8",
					"patching_rect" : [ 87.0, 241.0, 20.0, 20.0 ],
					"numinlets" : 1
				}

			}
, 			{
				"box" : 				{
					"maxclass" : "button",
					"numoutlets" : 1,
					"outlettype" : [ "bang" ],
					"id" : "obj-7",
					"patching_rect" : [ 16.0, 241.0, 20.0, 20.0 ],
					"numinlets" : 1
				}

			}
, 			{
				"box" : 				{
					"maxclass" : "newobj",
					"text" : "print b",
					"numoutlets" : 0,
					"id" : "obj-6",
					"fontname" : "Arial",
					"patching_rect" : [ 110.0, 241.0, 44.0, 20.0 ],
					"fontsize" : 12.0,
					"numinlets" : 1
				}

			}
, 			{
				"box" : 				{
					"maxclass" : "newobj",
					"text" : "print a",
					"numoutlets" : 0,
					"id" : "obj-2",
					"fontname" : "Arial",
					"patching_rect" : [ 38.0, 241.0, 44.0, 20.0 ],
					"fontsize" : 12.0,
					"numinlets" : 1
				}

			}
, 			{
				"box" : 				{
					"maxclass" : "button",
					"numoutlets" : 1,
					"hidden" : 1,
					"outlettype" : [ "bang" ],
					"id" : "obj-1",
					"patching_rect" : [ 271.0, 169.0, 20.0, 20.0 ],
					"numinlets" : 1
				}

			}
, 			{
				"box" : 				{
					"maxclass" : "newobj",
					"text" : "pcontrol",
					"numoutlets" : 1,
					"hidden" : 1,
					"outlettype" : [ "" ],
					"id" : "obj-3",
					"fontname" : "Arial",
					"patching_rect" : [ 271.0, 217.0, 53.0, 20.0 ],
					"fontsize" : 12.0,
					"numinlets" : 1
				}

			}
, 			{
				"box" : 				{
					"maxclass" : "message",
					"text" : "help p.objects-guide",
					"numoutlets" : 1,
					"hidden" : 1,
					"outlettype" : [ "" ],
					"id" : "obj-4",
					"fontname" : "Arial",
					"patching_rect" : [ 271.0, 195.0, 118.0, 18.0 ],
					"fontsize" : 12.0,
					"numinlets" : 2
				}

			}
, 			{
				"box" : 				{
					"maxclass" : "message",
					"text" : "p.objects guide",
					"numoutlets" : 1,
					"outlettype" : [ "" ],
					"id" : "obj-5",
					"fontname" : "Arial",
					"patching_rect" : [ 298.0, 241.0, 92.0, 18.0 ],
					"fontsize" : 12.0,
					"numinlets" : 2
				}

			}
, 			{
				"box" : 				{
					"maxclass" : "comment",
					"text" : "dependencies: none",
					"numoutlets" : 0,
					"id" : "obj-20",
					"fontname" : "Arial",
					"patching_rect" : [ 279.0, 59.0, 118.0, 20.0 ],
					"fontsize" : 12.0,
					"numinlets" : 1
				}

			}
, 			{
				"box" : 				{
					"maxclass" : "newobj",
					"text" : "p.alter 0",
					"numoutlets" : 2,
					"outlettype" : [ "", "" ],
					"id" : "obj-17",
					"fontname" : "Arial",
					"patching_rect" : [ 16.0, 212.0, 90.0, 20.0 ],
					"fontsize" : 12.0,
					"numinlets" : 2
				}

			}
, 			{
				"box" : 				{
					"maxclass" : "comment",
					"varname" : "autohelp_top_title",
					"text" : "p.alter",
					"numoutlets" : 0,
					"frgb" : [ 0.93, 0.93, 0.97, 1.0 ],
					"id" : "obj-9",
					"fontname" : "Arial",
					"patching_rect" : [ 10.0, 8.0, 149.0, 30.0 ],
					"fontface" : 3,
					"fontsize" : 20.871338,
					"numinlets" : 1,
					"textcolor" : [ 0.93, 0.93, 0.97, 1.0 ]
				}

			}
, 			{
				"box" : 				{
					"maxclass" : "comment",
					"varname" : "autohelp_top_digest",
					"text" : "Alternates an inputed value between two outputs.",
					"numoutlets" : 0,
					"frgb" : [ 0.93, 0.93, 0.97, 1.0 ],
					"id" : "obj-11",
					"fontname" : "Arial",
					"patching_rect" : [ 10.0, 36.0, 290.0, 21.0 ],
					"fontsize" : 12.754705,
					"numinlets" : 1,
					"textcolor" : [ 0.93, 0.93, 0.97, 1.0 ]
				}

			}
, 			{
				"box" : 				{
					"maxclass" : "panel",
					"varname" : "autohelp_top_panel",
					"numoutlets" : 0,
					"mode" : 1,
					"id" : "obj-16",
					"grad1" : [ 0.27, 0.35, 0.47, 1.0 ],
					"grad2" : [ 0.85, 0.85, 0.85, 1.0 ],
					"patching_rect" : [ 5.0, 5.0, 390.0, 50.0 ],
					"background" : 1,
					"numinlets" : 1
				}

			}
 ],
		"lines" : [ 			{
				"patchline" : 				{
					"source" : [ "obj-5", 0 ],
					"destination" : [ "obj-1", 0 ],
					"hidden" : 1,
					"midpoints" : [  ]
				}

			}
, 			{
				"patchline" : 				{
					"source" : [ "obj-1", 0 ],
					"destination" : [ "obj-4", 0 ],
					"hidden" : 1,
					"midpoints" : [  ]
				}

			}
, 			{
				"patchline" : 				{
					"source" : [ "obj-4", 0 ],
					"destination" : [ "obj-3", 0 ],
					"hidden" : 1,
					"midpoints" : [  ]
				}

			}
, 			{
				"patchline" : 				{
					"source" : [ "obj-14", 0 ],
					"destination" : [ "obj-17", 0 ],
					"hidden" : 0,
					"midpoints" : [  ]
				}

			}
, 			{
				"patchline" : 				{
					"source" : [ "obj-13", 0 ],
					"destination" : [ "obj-17", 0 ],
					"hidden" : 0,
					"midpoints" : [  ]
				}

			}
, 			{
				"patchline" : 				{
					"source" : [ "obj-12", 0 ],
					"destination" : [ "obj-17", 0 ],
					"hidden" : 0,
					"midpoints" : [  ]
				}

			}
, 			{
				"patchline" : 				{
					"source" : [ "obj-15", 0 ],
					"destination" : [ "obj-17", 0 ],
					"hidden" : 0,
					"midpoints" : [  ]
				}

			}
, 			{
				"patchline" : 				{
					"source" : [ "obj-17", 1 ],
					"destination" : [ "obj-6", 0 ],
					"hidden" : 0,
					"midpoints" : [ 96.5, 235.0, 119.5, 235.0 ]
				}

			}
, 			{
				"patchline" : 				{
					"source" : [ "obj-17", 0 ],
					"destination" : [ "obj-2", 0 ],
					"hidden" : 0,
					"midpoints" : [ 25.5, 235.0, 47.5, 235.0 ]
				}

			}
, 			{
				"patchline" : 				{
					"source" : [ "obj-17", 1 ],
					"destination" : [ "obj-8", 0 ],
					"hidden" : 0,
					"midpoints" : [  ]
				}

			}
, 			{
				"patchline" : 				{
					"source" : [ "obj-17", 0 ],
					"destination" : [ "obj-7", 0 ],
					"hidden" : 0,
					"midpoints" : [  ]
				}

			}
, 			{
				"patchline" : 				{
					"source" : [ "obj-19", 0 ],
					"destination" : [ "obj-17", 1 ],
					"hidden" : 0,
					"midpoints" : [ 155.5, 187.0, 96.5, 187.0 ]
				}

			}
, 			{
				"patchline" : 				{
					"source" : [ "obj-21", 0 ],
					"destination" : [ "obj-17", 1 ],
					"hidden" : 0,
					"midpoints" : [ 180.5, 187.0, 96.5, 187.0 ]
				}

			}
 ]
	}

}
