{
	"patcher" : 	{
		"fileversion" : 1,
		"rect" : [ 794.0, 58.0, 429.0, 374.0 ],
		"bglocked" : 0,
		"defrect" : [ 794.0, 58.0, 429.0, 374.0 ],
		"openrect" : [ 0.0, 0.0, 0.0, 0.0 ],
		"openinpresentation" : 0,
		"default_fontsize" : 12.0,
		"default_fontface" : 0,
		"default_fontname" : "Arial",
		"gridonopen" : 0,
		"gridsize" : [ 15.0, 15.0 ],
		"gridsnaponopen" : 0,
		"toolbarvisible" : 1,
		"boxanimatetime" : 200,
		"imprint" : 0,
		"boxes" : [ 			{
				"box" : 				{
					"maxclass" : "message",
					"text" : "p.objects guide",
					"id" : "obj-16",
					"fontname" : "Arial",
					"numinlets" : 2,
					"patching_rect" : [ 323.0, 340.0, 92.0, 18.0 ],
					"numoutlets" : 1,
					"outlettype" : [ "" ],
					"fontsize" : 12.0
				}

			}
, 			{
				"box" : 				{
					"maxclass" : "button",
					"hidden" : 1,
					"id" : "obj-2",
					"numinlets" : 1,
					"patching_rect" : [ 256.0, 273.0, 20.0, 20.0 ],
					"numoutlets" : 1,
					"outlettype" : [ "bang" ]
				}

			}
, 			{
				"box" : 				{
					"maxclass" : "newobj",
					"text" : "pcontrol",
					"hidden" : 1,
					"id" : "obj-3",
					"fontname" : "Arial",
					"numinlets" : 1,
					"patching_rect" : [ 256.0, 320.0, 53.0, 20.0 ],
					"numoutlets" : 1,
					"outlettype" : [ "" ],
					"fontsize" : 12.0
				}

			}
, 			{
				"box" : 				{
					"maxclass" : "message",
					"text" : "help p.objects-guide",
					"hidden" : 1,
					"id" : "obj-4",
					"fontname" : "Arial",
					"numinlets" : 2,
					"patching_rect" : [ 256.0, 298.0, 118.0, 18.0 ],
					"numoutlets" : 1,
					"outlettype" : [ "" ],
					"fontsize" : 12.0
				}

			}
, 			{
				"box" : 				{
					"maxclass" : "button",
					"id" : "obj-1",
					"numinlets" : 1,
					"patching_rect" : [ 69.0, 277.0, 20.0, 20.0 ],
					"numoutlets" : 1,
					"outlettype" : [ "bang" ]
				}

			}
, 			{
				"box" : 				{
					"maxclass" : "comment",
					"text" : "initial state blocked with number of passes set to 10",
					"linecount" : 3,
					"id" : "obj-30",
					"fontname" : "Arial",
					"numinlets" : 1,
					"patching_rect" : [ 91.0, 298.0, 107.0, 44.0 ],
					"numoutlets" : 0,
					"fontsize" : 11.0
				}

			}
, 			{
				"box" : 				{
					"maxclass" : "button",
					"id" : "obj-26",
					"numinlets" : 1,
					"patching_rect" : [ 13.0, 339.0, 20.0, 20.0 ],
					"numoutlets" : 1,
					"outlettype" : [ "bang" ]
				}

			}
, 			{
				"box" : 				{
					"maxclass" : "button",
					"id" : "obj-5",
					"numinlets" : 1,
					"patching_rect" : [ 13.0, 277.0, 20.0, 20.0 ],
					"numoutlets" : 1,
					"outlettype" : [ "bang" ]
				}

			}
, 			{
				"box" : 				{
					"maxclass" : "newobj",
					"text" : "p.block 0 10",
					"id" : "obj-18",
					"fontname" : "Arial",
					"numinlets" : 2,
					"patching_rect" : [ 13.0, 308.0, 75.0, 20.0 ],
					"numoutlets" : 1,
					"outlettype" : [ "" ],
					"fontsize" : 12.0,
					"color" : [ 0.239216, 0.643137, 0.709804, 1.0 ]
				}

			}
, 			{
				"box" : 				{
					"maxclass" : "comment",
					"text" : "int unblocks and resets the number of passes before blocking again. ",
					"linecount" : 3,
					"id" : "obj-27",
					"fontname" : "Arial",
					"numinlets" : 1,
					"patching_rect" : [ 123.0, 159.0, 158.0, 44.0 ],
					"numoutlets" : 0,
					"fontsize" : 11.0
				}

			}
, 			{
				"box" : 				{
					"maxclass" : "number",
					"id" : "obj-28",
					"fontname" : "Arial",
					"numinlets" : 1,
					"patching_rect" : [ 71.0, 160.0, 50.0, 20.0 ],
					"numoutlets" : 2,
					"outlettype" : [ "int", "bang" ],
					"fontsize" : 12.0
				}

			}
, 			{
				"box" : 				{
					"maxclass" : "button",
					"id" : "obj-29",
					"numinlets" : 1,
					"patching_rect" : [ 43.0, 137.0, 20.0, 20.0 ],
					"numoutlets" : 1,
					"outlettype" : [ "bang" ]
				}

			}
, 			{
				"box" : 				{
					"maxclass" : "comment",
					"text" : "args\n 1) initial state (0 = blocked, 1 = unblocked) (optional) (def: 1) \n 2) number of passes before blocking (optional) (def: 1)",
					"linecount" : 3,
					"id" : "obj-32",
					"fontname" : "Arial",
					"numinlets" : 1,
					"patching_rect" : [ 37.0, 222.0, 311.0, 44.0 ],
					"numoutlets" : 0,
					"fontsize" : 11.0
				}

			}
, 			{
				"box" : 				{
					"maxclass" : "comment",
					"text" : "send any type of data",
					"id" : "obj-33",
					"fontname" : "Arial",
					"numinlets" : 1,
					"patching_rect" : [ 12.0, 75.0, 118.0, 19.0 ],
					"numoutlets" : 0,
					"fontsize" : 11.0
				}

			}
, 			{
				"box" : 				{
					"maxclass" : "button",
					"id" : "obj-34",
					"numinlets" : 1,
					"patching_rect" : [ 13.0, 233.0, 20.0, 20.0 ],
					"numoutlets" : 1,
					"outlettype" : [ "bang" ]
				}

			}
, 			{
				"box" : 				{
					"maxclass" : "comment",
					"text" : "bang unblocks",
					"id" : "obj-35",
					"fontname" : "Arial",
					"numinlets" : 1,
					"patching_rect" : [ 64.0, 137.0, 115.0, 19.0 ],
					"numoutlets" : 0,
					"fontsize" : 11.0
				}

			}
, 			{
				"box" : 				{
					"maxclass" : "button",
					"id" : "obj-36",
					"numinlets" : 1,
					"patching_rect" : [ 162.0, 99.0, 20.0, 20.0 ],
					"numoutlets" : 1,
					"outlettype" : [ "bang" ]
				}

			}
, 			{
				"box" : 				{
					"maxclass" : "flonum",
					"id" : "obj-37",
					"fontname" : "Arial",
					"numinlets" : 1,
					"patching_rect" : [ 108.0, 99.0, 50.0, 20.0 ],
					"numoutlets" : 2,
					"outlettype" : [ "float", "bang" ],
					"fontsize" : 12.0
				}

			}
, 			{
				"box" : 				{
					"maxclass" : "number",
					"id" : "obj-38",
					"fontname" : "Arial",
					"numinlets" : 1,
					"patching_rect" : [ 55.0, 99.0, 50.0, 20.0 ],
					"numoutlets" : 2,
					"outlettype" : [ "int", "bang" ],
					"fontsize" : 12.0
				}

			}
, 			{
				"box" : 				{
					"maxclass" : "message",
					"text" : "a b c",
					"id" : "obj-39",
					"fontname" : "Arial",
					"numinlets" : 2,
					"patching_rect" : [ 13.0, 99.0, 37.0, 18.0 ],
					"numoutlets" : 1,
					"outlettype" : [ "" ],
					"fontsize" : 12.0
				}

			}
, 			{
				"box" : 				{
					"maxclass" : "newobj",
					"text" : "p.block",
					"id" : "obj-40",
					"fontname" : "Arial",
					"numinlets" : 2,
					"patching_rect" : [ 13.0, 198.0, 49.0, 20.0 ],
					"numoutlets" : 1,
					"outlettype" : [ "" ],
					"fontsize" : 12.0,
					"color" : [ 0.239216, 0.643137, 0.709804, 1.0 ]
				}

			}
, 			{
				"box" : 				{
					"maxclass" : "comment",
					"varname" : "autohelp_top_title",
					"text" : "p.block",
					"id" : "obj-9",
					"fontname" : "Arial",
					"numinlets" : 1,
					"patching_rect" : [ 8.0, 4.0, 149.0, 31.0 ],
					"numoutlets" : 0,
					"fontface" : 3,
					"fontsize" : 20.899994
				}

			}
, 			{
				"box" : 				{
					"maxclass" : "comment",
					"varname" : "autohelp_top_digest",
					"text" : "Blocks output after data has passed through a certain number of times.",
					"id" : "obj-11",
					"fontname" : "Arial",
					"numinlets" : 1,
					"patching_rect" : [ 8.0, 33.0, 413.0, 21.0 ],
					"numoutlets" : 0,
					"fontsize" : 12.754705
				}

			}
, 			{
				"box" : 				{
					"maxclass" : "panel",
					"id" : "obj-20",
					"numinlets" : 1,
					"patching_rect" : [ 0.0, 0.0, 429.0, 61.0 ],
					"rounded" : 0,
					"numoutlets" : 0
				}

			}
, 			{
				"box" : 				{
					"maxclass" : "comment",
					"text" : "dependencies ",
					"id" : "obj-41",
					"fontname" : "Arial",
					"numinlets" : 1,
					"patching_rect" : [ 324.0, 68.0, 80.0, 19.0 ],
					"numoutlets" : 0,
					"fontsize" : 11.0
				}

			}
, 			{
				"box" : 				{
					"maxclass" : "comment",
					"text" : "p.count.i",
					"id" : "obj-42",
					"fontname" : "Arial",
					"numinlets" : 1,
					"patching_rect" : [ 336.0, 88.0, 55.0, 19.0 ],
					"numoutlets" : 0,
					"fontsize" : 11.0
				}

			}
, 			{
				"box" : 				{
					"maxclass" : "panel",
					"id" : "obj-43",
					"numinlets" : 1,
					"patching_rect" : [ 317.0, 41.0, 90.0, 71.0 ],
					"rounded" : 20,
					"numoutlets" : 0,
					"bgcolor" : [ 0.901961, 0.901961, 0.901961, 1.0 ]
				}

			}
 ],
		"lines" : [ 			{
				"patchline" : 				{
					"source" : [ "obj-16", 0 ],
					"destination" : [ "obj-2", 0 ],
					"hidden" : 1,
					"midpoints" : [  ]
				}

			}
, 			{
				"patchline" : 				{
					"source" : [ "obj-2", 0 ],
					"destination" : [ "obj-4", 0 ],
					"hidden" : 1,
					"midpoints" : [  ]
				}

			}
, 			{
				"patchline" : 				{
					"source" : [ "obj-4", 0 ],
					"destination" : [ "obj-3", 0 ],
					"hidden" : 1,
					"midpoints" : [  ]
				}

			}
, 			{
				"patchline" : 				{
					"source" : [ "obj-1", 0 ],
					"destination" : [ "obj-18", 1 ],
					"hidden" : 0,
					"midpoints" : [  ]
				}

			}
, 			{
				"patchline" : 				{
					"source" : [ "obj-18", 0 ],
					"destination" : [ "obj-26", 0 ],
					"hidden" : 0,
					"midpoints" : [  ]
				}

			}
, 			{
				"patchline" : 				{
					"source" : [ "obj-5", 0 ],
					"destination" : [ "obj-18", 0 ],
					"hidden" : 0,
					"midpoints" : [  ]
				}

			}
, 			{
				"patchline" : 				{
					"source" : [ "obj-28", 0 ],
					"destination" : [ "obj-40", 1 ],
					"hidden" : 0,
					"midpoints" : [ 80.5, 185.0, 52.5, 185.0 ]
				}

			}
, 			{
				"patchline" : 				{
					"source" : [ "obj-40", 0 ],
					"destination" : [ "obj-34", 0 ],
					"hidden" : 0,
					"midpoints" : [  ]
				}

			}
, 			{
				"patchline" : 				{
					"source" : [ "obj-37", 0 ],
					"destination" : [ "obj-40", 0 ],
					"hidden" : 0,
					"midpoints" : [ 117.5, 126.0, 22.5, 126.0 ]
				}

			}
, 			{
				"patchline" : 				{
					"source" : [ "obj-38", 0 ],
					"destination" : [ "obj-40", 0 ],
					"hidden" : 0,
					"midpoints" : [ 64.5, 126.0, 22.5, 126.0 ]
				}

			}
, 			{
				"patchline" : 				{
					"source" : [ "obj-39", 0 ],
					"destination" : [ "obj-40", 0 ],
					"hidden" : 0,
					"midpoints" : [  ]
				}

			}
, 			{
				"patchline" : 				{
					"source" : [ "obj-36", 0 ],
					"destination" : [ "obj-40", 0 ],
					"hidden" : 0,
					"midpoints" : [ 171.5, 126.0, 22.5, 126.0 ]
				}

			}
, 			{
				"patchline" : 				{
					"source" : [ "obj-29", 0 ],
					"destination" : [ "obj-40", 1 ],
					"hidden" : 0,
					"midpoints" : [  ]
				}

			}
 ]
	}

}
