{
	"patcher" : 	{
		"fileversion" : 1,
		"rect" : [ 187.0, 247.0, 274.0, 372.0 ],
		"bglocked" : 0,
		"defrect" : [ 187.0, 247.0, 274.0, 372.0 ],
		"openrect" : [ 0.0, 0.0, 0.0, 0.0 ],
		"openinpresentation" : 0,
		"default_fontsize" : 12.0,
		"default_fontface" : 0,
		"default_fontname" : "Arial",
		"gridonopen" : 0,
		"gridsize" : [ 15.0, 15.0 ],
		"gridsnaponopen" : 0,
		"toolbarvisible" : 1,
		"boxanimatetime" : 200,
		"imprint" : 0,
		"boxes" : [ 			{
				"box" : 				{
					"maxclass" : "message",
					"text" : "p.objects guide",
					"outlettype" : [ "" ],
					"id" : "obj-16",
					"fontname" : "Arial",
					"fontsize" : 12.0,
					"patching_rect" : [ 170.0, 342.0, 92.0, 18.0 ],
					"numinlets" : 2,
					"numoutlets" : 1
				}

			}
, 			{
				"box" : 				{
					"maxclass" : "comment",
					"text" : "args\n1) initial state\n    (0 = blocked, 1 = unblocked)\n    (optional) (def: 0)",
					"linecount" : 4,
					"id" : "obj-25",
					"fontname" : "Arial",
					"fontsize" : 11.0,
					"patching_rect" : [ 75.0, 171.0, 165.0, 57.0 ],
					"numinlets" : 1,
					"numoutlets" : 0
				}

			}
, 			{
				"box" : 				{
					"maxclass" : "comment",
					"text" : "initial state blocked",
					"id" : "obj-24",
					"fontname" : "Arial",
					"fontsize" : 11.0,
					"patching_rect" : [ 63.0, 314.0, 109.0, 19.0 ],
					"numinlets" : 1,
					"numoutlets" : 0
				}

			}
, 			{
				"box" : 				{
					"maxclass" : "button",
					"outlettype" : [ "bang" ],
					"id" : "obj-23",
					"patching_rect" : [ 43.0, 286.0, 20.0, 20.0 ],
					"numinlets" : 1,
					"numoutlets" : 1
				}

			}
, 			{
				"box" : 				{
					"maxclass" : "button",
					"outlettype" : [ "bang" ],
					"id" : "obj-21",
					"patching_rect" : [ 13.0, 286.0, 20.0, 20.0 ],
					"numinlets" : 1,
					"numoutlets" : 1
				}

			}
, 			{
				"box" : 				{
					"maxclass" : "button",
					"outlettype" : [ "bang" ],
					"id" : "obj-19",
					"patching_rect" : [ 13.0, 342.0, 20.0, 20.0 ],
					"numinlets" : 1,
					"numoutlets" : 1
				}

			}
, 			{
				"box" : 				{
					"maxclass" : "newobj",
					"text" : "p.block",
					"outlettype" : [ "" ],
					"id" : "obj-10",
					"fontname" : "Arial",
					"fontsize" : 12.0,
					"patching_rect" : [ 13.0, 314.0, 49.0, 20.0 ],
					"numinlets" : 2,
					"color" : [ 0.239216, 0.643137, 0.709804, 1.0 ],
					"numoutlets" : 1
				}

			}
, 			{
				"box" : 				{
					"maxclass" : "comment",
					"text" : "send any type of data",
					"id" : "obj-8",
					"fontname" : "Arial",
					"fontsize" : 11.0,
					"patching_rect" : [ 12.0, 73.0, 118.0, 19.0 ],
					"numinlets" : 1,
					"numoutlets" : 0
				}

			}
, 			{
				"box" : 				{
					"maxclass" : "button",
					"outlettype" : [ "bang" ],
					"id" : "obj-7",
					"patching_rect" : [ 53.0, 144.0, 20.0, 20.0 ],
					"numinlets" : 1,
					"numoutlets" : 1
				}

			}
, 			{
				"box" : 				{
					"maxclass" : "button",
					"outlettype" : [ "bang" ],
					"id" : "obj-6",
					"patching_rect" : [ 13.0, 247.0, 20.0, 20.0 ],
					"numinlets" : 1,
					"numoutlets" : 1
				}

			}
, 			{
				"box" : 				{
					"maxclass" : "message",
					"text" : "a b c",
					"outlettype" : [ "" ],
					"id" : "obj-2",
					"fontname" : "Arial",
					"fontsize" : 12.0,
					"patching_rect" : [ 38.0, 248.0, 111.0, 18.0 ],
					"numinlets" : 2,
					"numoutlets" : 1
				}

			}
, 			{
				"box" : 				{
					"maxclass" : "comment",
					"text" : "anything unblocks",
					"id" : "obj-22",
					"fontname" : "Arial",
					"fontsize" : 11.0,
					"patching_rect" : [ 75.0, 144.0, 102.0, 19.0 ],
					"numinlets" : 1,
					"numoutlets" : 0
				}

			}
, 			{
				"box" : 				{
					"maxclass" : "button",
					"outlettype" : [ "bang" ],
					"id" : "obj-15",
					"patching_rect" : [ 162.0, 97.0, 20.0, 20.0 ],
					"numinlets" : 1,
					"numoutlets" : 1
				}

			}
, 			{
				"box" : 				{
					"maxclass" : "flonum",
					"outlettype" : [ "float", "bang" ],
					"id" : "obj-14",
					"fontname" : "Arial",
					"fontsize" : 12.0,
					"patching_rect" : [ 108.0, 97.0, 50.0, 20.0 ],
					"numinlets" : 1,
					"numoutlets" : 2
				}

			}
, 			{
				"box" : 				{
					"maxclass" : "number",
					"outlettype" : [ "int", "bang" ],
					"id" : "obj-13",
					"fontname" : "Arial",
					"fontsize" : 12.0,
					"patching_rect" : [ 55.0, 97.0, 50.0, 20.0 ],
					"numinlets" : 1,
					"numoutlets" : 2
				}

			}
, 			{
				"box" : 				{
					"maxclass" : "message",
					"text" : "a b c",
					"outlettype" : [ "" ],
					"id" : "obj-12",
					"fontname" : "Arial",
					"fontsize" : 12.0,
					"patching_rect" : [ 13.0, 97.0, 37.0, 18.0 ],
					"numinlets" : 2,
					"numoutlets" : 1
				}

			}
, 			{
				"box" : 				{
					"maxclass" : "button",
					"outlettype" : [ "bang" ],
					"id" : "obj-1",
					"hidden" : 1,
					"patching_rect" : [ 155.0, 237.0, 20.0, 20.0 ],
					"numinlets" : 1,
					"numoutlets" : 1
				}

			}
, 			{
				"box" : 				{
					"maxclass" : "newobj",
					"text" : "pcontrol",
					"outlettype" : [ "" ],
					"id" : "obj-3",
					"hidden" : 1,
					"fontname" : "Arial",
					"fontsize" : 12.0,
					"patching_rect" : [ 155.0, 285.0, 53.0, 20.0 ],
					"numinlets" : 1,
					"numoutlets" : 1
				}

			}
, 			{
				"box" : 				{
					"maxclass" : "message",
					"text" : "help p.objects-guide",
					"outlettype" : [ "" ],
					"id" : "obj-4",
					"hidden" : 1,
					"fontname" : "Arial",
					"fontsize" : 12.0,
					"patching_rect" : [ 155.0, 263.0, 118.0, 18.0 ],
					"numinlets" : 2,
					"numoutlets" : 1
				}

			}
, 			{
				"box" : 				{
					"maxclass" : "newobj",
					"text" : "p.block 1",
					"outlettype" : [ "" ],
					"id" : "obj-17",
					"fontname" : "Arial",
					"fontsize" : 12.0,
					"patching_rect" : [ 13.0, 183.0, 59.0, 20.0 ],
					"numinlets" : 2,
					"color" : [ 0.239216, 0.643137, 0.709804, 1.0 ],
					"numoutlets" : 1
				}

			}
, 			{
				"box" : 				{
					"maxclass" : "comment",
					"varname" : "autohelp_top_title",
					"text" : "p.block",
					"id" : "obj-9",
					"fontname" : "Arial",
					"fontface" : 3,
					"fontsize" : 20.899994,
					"patching_rect" : [ 8.0, 4.0, 149.0, 31.0 ],
					"numinlets" : 1,
					"numoutlets" : 0
				}

			}
, 			{
				"box" : 				{
					"maxclass" : "comment",
					"varname" : "autohelp_top_digest",
					"text" : "Blocks output after data has passed through.",
					"id" : "obj-11",
					"fontname" : "Arial",
					"fontsize" : 12.754705,
					"patching_rect" : [ 8.0, 33.0, 263.0, 21.0 ],
					"numinlets" : 1,
					"numoutlets" : 0
				}

			}
, 			{
				"box" : 				{
					"maxclass" : "panel",
					"id" : "obj-20",
					"patching_rect" : [ 0.0, 0.0, 274.0, 61.0 ],
					"numinlets" : 1,
					"rounded" : 0,
					"numoutlets" : 0
				}

			}
 ],
		"lines" : [ 			{
				"patchline" : 				{
					"source" : [ "obj-10", 0 ],
					"destination" : [ "obj-19", 0 ],
					"hidden" : 0,
					"midpoints" : [  ]
				}

			}
, 			{
				"patchline" : 				{
					"source" : [ "obj-21", 0 ],
					"destination" : [ "obj-10", 0 ],
					"hidden" : 0,
					"midpoints" : [  ]
				}

			}
, 			{
				"patchline" : 				{
					"source" : [ "obj-23", 0 ],
					"destination" : [ "obj-10", 1 ],
					"hidden" : 0,
					"midpoints" : [  ]
				}

			}
, 			{
				"patchline" : 				{
					"source" : [ "obj-7", 0 ],
					"destination" : [ "obj-17", 1 ],
					"hidden" : 0,
					"midpoints" : [  ]
				}

			}
, 			{
				"patchline" : 				{
					"source" : [ "obj-17", 0 ],
					"destination" : [ "obj-6", 0 ],
					"hidden" : 0,
					"midpoints" : [  ]
				}

			}
, 			{
				"patchline" : 				{
					"source" : [ "obj-17", 0 ],
					"destination" : [ "obj-2", 1 ],
					"hidden" : 0,
					"midpoints" : [ 22.5, 239.0, 139.5, 239.0 ]
				}

			}
, 			{
				"patchline" : 				{
					"source" : [ "obj-14", 0 ],
					"destination" : [ "obj-17", 0 ],
					"hidden" : 0,
					"midpoints" : [ 117.5, 124.0, 22.5, 124.0 ]
				}

			}
, 			{
				"patchline" : 				{
					"source" : [ "obj-13", 0 ],
					"destination" : [ "obj-17", 0 ],
					"hidden" : 0,
					"midpoints" : [ 64.5, 124.0, 22.5, 124.0 ]
				}

			}
, 			{
				"patchline" : 				{
					"source" : [ "obj-12", 0 ],
					"destination" : [ "obj-17", 0 ],
					"hidden" : 0,
					"midpoints" : [  ]
				}

			}
, 			{
				"patchline" : 				{
					"source" : [ "obj-15", 0 ],
					"destination" : [ "obj-17", 0 ],
					"hidden" : 0,
					"midpoints" : [ 171.5, 124.0, 22.5, 124.0 ]
				}

			}
, 			{
				"patchline" : 				{
					"source" : [ "obj-16", 0 ],
					"destination" : [ "obj-1", 0 ],
					"hidden" : 1,
					"midpoints" : [  ]
				}

			}
, 			{
				"patchline" : 				{
					"source" : [ "obj-1", 0 ],
					"destination" : [ "obj-4", 0 ],
					"hidden" : 1,
					"midpoints" : [  ]
				}

			}
, 			{
				"patchline" : 				{
					"source" : [ "obj-4", 0 ],
					"destination" : [ "obj-3", 0 ],
					"hidden" : 1,
					"midpoints" : [  ]
				}

			}
 ]
	}

}
