{
	"patcher" : 	{
		"fileversion" : 1,
		"rect" : [ 745.0, 218.0, 311.0, 377.0 ],
		"bglocked" : 0,
		"defrect" : [ 745.0, 218.0, 311.0, 377.0 ],
		"openrect" : [ 0.0, 0.0, 0.0, 0.0 ],
		"openinpresentation" : 0,
		"default_fontsize" : 12.0,
		"default_fontface" : 0,
		"default_fontname" : "Arial",
		"gridonopen" : 0,
		"gridsize" : [ 15.0, 15.0 ],
		"gridsnaponopen" : 0,
		"toolbarvisible" : 1,
		"boxanimatetime" : 200,
		"imprint" : 0,
		"boxes" : [ 			{
				"box" : 				{
					"maxclass" : "comment",
					"text" : "see p.count.i for ints",
					"id" : "obj-27",
					"fontsize" : 11.0,
					"patching_rect" : [ 202.0, 2.0, 107.0, 19.0 ],
					"numinlets" : 1,
					"numoutlets" : 0,
					"fontname" : "Arial"
				}

			}
, 			{
				"box" : 				{
					"maxclass" : "flonum",
					"id" : "obj-26",
					"fontsize" : 12.0,
					"patching_rect" : [ 13.0, 343.0, 50.0, 20.0 ],
					"numinlets" : 1,
					"numoutlets" : 2,
					"fontname" : "Arial",
					"outlettype" : [ "float", "bang" ]
				}

			}
, 			{
				"box" : 				{
					"maxclass" : "flonum",
					"id" : "obj-25",
					"fontsize" : 12.0,
					"patching_rect" : [ 14.0, 232.0, 50.0, 20.0 ],
					"numinlets" : 1,
					"numoutlets" : 2,
					"fontname" : "Arial",
					"outlettype" : [ "float", "bang" ]
				}

			}
, 			{
				"box" : 				{
					"maxclass" : "comment",
					"text" : "resets start count",
					"id" : "obj-23",
					"fontsize" : 11.0,
					"patching_rect" : [ 134.0, 166.0, 93.0, 19.0 ],
					"numinlets" : 1,
					"numoutlets" : 0,
					"fontname" : "Arial"
				}

			}
, 			{
				"box" : 				{
					"maxclass" : "button",
					"id" : "obj-22",
					"patching_rect" : [ 112.0, 165.0, 20.0, 20.0 ],
					"numinlets" : 1,
					"numoutlets" : 1,
					"outlettype" : [ "bang" ]
				}

			}
, 			{
				"box" : 				{
					"maxclass" : "flonum",
					"id" : "obj-21",
					"fontsize" : 12.0,
					"patching_rect" : [ 89.0, 135.0, 50.0, 20.0 ],
					"numinlets" : 1,
					"numoutlets" : 2,
					"fontname" : "Arial",
					"outlettype" : [ "float", "bang" ]
				}

			}
, 			{
				"box" : 				{
					"maxclass" : "comment",
					"text" : "step",
					"id" : "obj-16",
					"fontsize" : 11.0,
					"patching_rect" : [ 104.0, 106.0, 34.0, 19.0 ],
					"numinlets" : 1,
					"numoutlets" : 0,
					"fontname" : "Arial"
				}

			}
, 			{
				"box" : 				{
					"maxclass" : "flonum",
					"id" : "obj-14",
					"fontsize" : 12.0,
					"patching_rect" : [ 52.0, 106.0, 50.0, 20.0 ],
					"numinlets" : 1,
					"numoutlets" : 2,
					"fontname" : "Arial",
					"outlettype" : [ "float", "bang" ]
				}

			}
, 			{
				"box" : 				{
					"maxclass" : "comment",
					"varname" : "autohelp_top_title",
					"text" : "p.count.f",
					"fontface" : 3,
					"id" : "obj-9",
					"fontsize" : 20.899994,
					"patching_rect" : [ 8.0, 4.0, 112.0, 31.0 ],
					"numinlets" : 1,
					"numoutlets" : 0,
					"fontname" : "Arial"
				}

			}
, 			{
				"box" : 				{
					"maxclass" : "comment",
					"varname" : "autohelp_top_digest",
					"text" : "A very simple float based counter.",
					"id" : "obj-11",
					"fontsize" : 12.754705,
					"patching_rect" : [ 8.0, 33.0, 209.0, 21.0 ],
					"numinlets" : 1,
					"numoutlets" : 0,
					"fontname" : "Arial"
				}

			}
, 			{
				"box" : 				{
					"maxclass" : "panel",
					"id" : "obj-20",
					"patching_rect" : [ 0.0, 0.0, 311.0, 62.0 ],
					"numinlets" : 1,
					"rounded" : 0,
					"numoutlets" : 0
				}

			}
, 			{
				"box" : 				{
					"maxclass" : "comment",
					"text" : "args\n1) step (optional) (def: 1.)\n2) start count (optional) (def: 0.)",
					"linecount" : 3,
					"id" : "obj-24",
					"fontsize" : 11.0,
					"patching_rect" : [ 114.0, 201.0, 168.0, 44.0 ],
					"numinlets" : 1,
					"numoutlets" : 0,
					"fontname" : "Arial"
				}

			}
, 			{
				"box" : 				{
					"maxclass" : "button",
					"id" : "obj-19",
					"patching_rect" : [ 13.0, 279.0, 20.0, 20.0 ],
					"numinlets" : 1,
					"numoutlets" : 1,
					"outlettype" : [ "bang" ]
				}

			}
, 			{
				"box" : 				{
					"maxclass" : "newobj",
					"text" : "p.count.f -0.5 15.6",
					"id" : "obj-17",
					"fontsize" : 12.0,
					"patching_rect" : [ 13.0, 311.0, 107.0, 20.0 ],
					"numinlets" : 3,
					"numoutlets" : 1,
					"color" : [ 0.239216, 0.643137, 0.709804, 1.0 ],
					"fontname" : "Arial",
					"outlettype" : [ "float" ]
				}

			}
, 			{
				"box" : 				{
					"maxclass" : "comment",
					"text" : "changes and resets start count",
					"id" : "obj-15",
					"fontsize" : 11.0,
					"patching_rect" : [ 141.0, 135.0, 160.0, 19.0 ],
					"numinlets" : 1,
					"numoutlets" : 0,
					"fontname" : "Arial"
				}

			}
, 			{
				"box" : 				{
					"maxclass" : "comment",
					"text" : "anything increases count by one step",
					"id" : "obj-8",
					"fontsize" : 11.0,
					"patching_rect" : [ 36.0, 79.0, 195.0, 19.0 ],
					"numinlets" : 1,
					"numoutlets" : 0,
					"fontname" : "Arial"
				}

			}
, 			{
				"box" : 				{
					"maxclass" : "button",
					"id" : "obj-7",
					"patching_rect" : [ 14.0, 79.0, 20.0, 20.0 ],
					"numinlets" : 1,
					"numoutlets" : 1,
					"outlettype" : [ "bang" ]
				}

			}
, 			{
				"box" : 				{
					"maxclass" : "newobj",
					"text" : "p.count.f",
					"id" : "obj-2",
					"fontsize" : 12.0,
					"patching_rect" : [ 14.0, 201.0, 94.0, 20.0 ],
					"numinlets" : 3,
					"numoutlets" : 1,
					"color" : [ 0.239216, 0.643137, 0.709804, 1.0 ],
					"fontname" : "Arial",
					"outlettype" : [ "float" ]
				}

			}
, 			{
				"box" : 				{
					"maxclass" : "button",
					"hidden" : 1,
					"id" : "obj-1",
					"patching_rect" : [ 164.0, 248.0, 20.0, 20.0 ],
					"numinlets" : 1,
					"numoutlets" : 1,
					"outlettype" : [ "bang" ]
				}

			}
, 			{
				"box" : 				{
					"maxclass" : "newobj",
					"text" : "pcontrol",
					"hidden" : 1,
					"id" : "obj-3",
					"fontsize" : 12.0,
					"patching_rect" : [ 164.0, 296.0, 53.0, 20.0 ],
					"numinlets" : 1,
					"numoutlets" : 1,
					"fontname" : "Arial",
					"outlettype" : [ "" ]
				}

			}
, 			{
				"box" : 				{
					"maxclass" : "message",
					"text" : "help p.objects-guide",
					"hidden" : 1,
					"id" : "obj-4",
					"fontsize" : 12.0,
					"patching_rect" : [ 164.0, 274.0, 118.0, 18.0 ],
					"numinlets" : 2,
					"numoutlets" : 1,
					"fontname" : "Arial",
					"outlettype" : [ "" ]
				}

			}
, 			{
				"box" : 				{
					"maxclass" : "message",
					"text" : "p.objects guide",
					"id" : "obj-5",
					"fontsize" : 12.0,
					"patching_rect" : [ 204.0, 345.0, 92.0, 18.0 ],
					"numinlets" : 2,
					"numoutlets" : 1,
					"fontname" : "Arial",
					"outlettype" : [ "" ]
				}

			}
 ],
		"lines" : [ 			{
				"patchline" : 				{
					"source" : [ "obj-5", 0 ],
					"destination" : [ "obj-1", 0 ],
					"hidden" : 1,
					"midpoints" : [  ]
				}

			}
, 			{
				"patchline" : 				{
					"source" : [ "obj-1", 0 ],
					"destination" : [ "obj-4", 0 ],
					"hidden" : 1,
					"midpoints" : [  ]
				}

			}
, 			{
				"patchline" : 				{
					"source" : [ "obj-4", 0 ],
					"destination" : [ "obj-3", 0 ],
					"hidden" : 1,
					"midpoints" : [  ]
				}

			}
, 			{
				"patchline" : 				{
					"source" : [ "obj-7", 0 ],
					"destination" : [ "obj-2", 0 ],
					"hidden" : 0,
					"midpoints" : [  ]
				}

			}
, 			{
				"patchline" : 				{
					"source" : [ "obj-14", 0 ],
					"destination" : [ "obj-2", 1 ],
					"hidden" : 0,
					"midpoints" : [  ]
				}

			}
, 			{
				"patchline" : 				{
					"source" : [ "obj-21", 0 ],
					"destination" : [ "obj-2", 2 ],
					"hidden" : 0,
					"midpoints" : [  ]
				}

			}
, 			{
				"patchline" : 				{
					"source" : [ "obj-22", 0 ],
					"destination" : [ "obj-2", 2 ],
					"hidden" : 0,
					"midpoints" : [ 121.5, 193.0, 98.5, 193.0 ]
				}

			}
, 			{
				"patchline" : 				{
					"source" : [ "obj-19", 0 ],
					"destination" : [ "obj-17", 0 ],
					"hidden" : 0,
					"midpoints" : [  ]
				}

			}
, 			{
				"patchline" : 				{
					"source" : [ "obj-2", 0 ],
					"destination" : [ "obj-25", 0 ],
					"hidden" : 0,
					"midpoints" : [  ]
				}

			}
, 			{
				"patchline" : 				{
					"source" : [ "obj-17", 0 ],
					"destination" : [ "obj-26", 0 ],
					"hidden" : 0,
					"midpoints" : [  ]
				}

			}
 ]
	}

}
