{
	"patcher" : 	{
		"fileversion" : 1,
		"rect" : [ 107.0, 102.0, 550.0, 476.0 ],
		"bglocked" : 0,
		"defrect" : [ 107.0, 102.0, 550.0, 476.0 ],
		"openrect" : [ 0.0, 0.0, 0.0, 0.0 ],
		"openinpresentation" : 0,
		"default_fontsize" : 12.0,
		"default_fontface" : 0,
		"default_fontname" : "Arial",
		"gridonopen" : 0,
		"gridsize" : [ 15.0, 15.0 ],
		"gridsnaponopen" : 0,
		"toolbarvisible" : 1,
		"boxanimatetime" : 200,
		"imprint" : 0,
		"boxes" : [ 			{
				"box" : 				{
					"maxclass" : "comment",
					"text" : "The ID sends the message.",
					"fontsize" : 12.0,
					"numinlets" : 1,
					"patching_rect" : [ 6.0, 158.0, 170.0, 20.0 ],
					"id" : "obj-65",
					"numoutlets" : 0,
					"fontname" : "Arial"
				}

			}
, 			{
				"box" : 				{
					"maxclass" : "comment",
					"text" : "The receiving object must have a namespace, followed by an optional ID, followed by an underscore, and finally a method name. Remember, ID's under 10 must have a leading 0. Look at the examples on the right. ",
					"linecount" : 5,
					"fontsize" : 12.0,
					"numinlets" : 1,
					"patching_rect" : [ 7.0, 67.0, 292.0, 75.0 ],
					"id" : "obj-64",
					"numoutlets" : 0,
					"fontname" : "Arial"
				}

			}
, 			{
				"box" : 				{
					"maxclass" : "button",
					"outlettype" : [ "bang" ],
					"numinlets" : 1,
					"patching_rect" : [ 305.0, 433.0, 20.0, 20.0 ],
					"id" : "obj-61",
					"numoutlets" : 1
				}

			}
, 			{
				"box" : 				{
					"maxclass" : "message",
					"text" : "hello there",
					"outlettype" : [ "" ],
					"fontsize" : 12.0,
					"numinlets" : 2,
					"patching_rect" : [ 329.0, 434.0, 86.0, 18.0 ],
					"id" : "obj-62",
					"numoutlets" : 1,
					"fontname" : "Arial"
				}

			}
, 			{
				"box" : 				{
					"maxclass" : "newobj",
					"text" : "r jim78_player",
					"outlettype" : [ "" ],
					"fontsize" : 12.0,
					"numinlets" : 0,
					"patching_rect" : [ 305.0, 399.0, 86.0, 20.0 ],
					"id" : "obj-63",
					"numoutlets" : 1,
					"fontname" : "Arial"
				}

			}
, 			{
				"box" : 				{
					"maxclass" : "button",
					"outlettype" : [ "bang" ],
					"numinlets" : 1,
					"patching_rect" : [ 305.0, 370.0, 20.0, 20.0 ],
					"id" : "obj-58",
					"numoutlets" : 1
				}

			}
, 			{
				"box" : 				{
					"maxclass" : "message",
					"text" : "hello there",
					"outlettype" : [ "" ],
					"fontsize" : 12.0,
					"numinlets" : 2,
					"patching_rect" : [ 329.0, 371.0, 86.0, 18.0 ],
					"id" : "obj-59",
					"numoutlets" : 1,
					"fontname" : "Arial"
				}

			}
, 			{
				"box" : 				{
					"maxclass" : "newobj",
					"text" : "r jim01_player",
					"outlettype" : [ "" ],
					"fontsize" : 12.0,
					"numinlets" : 0,
					"patching_rect" : [ 305.0, 336.0, 86.0, 20.0 ],
					"id" : "obj-60",
					"numoutlets" : 1,
					"fontname" : "Arial"
				}

			}
, 			{
				"box" : 				{
					"maxclass" : "button",
					"outlettype" : [ "bang" ],
					"numinlets" : 1,
					"patching_rect" : [ 305.0, 304.0, 20.0, 20.0 ],
					"id" : "obj-55",
					"numoutlets" : 1
				}

			}
, 			{
				"box" : 				{
					"maxclass" : "message",
					"text" : "hello there",
					"outlettype" : [ "" ],
					"fontsize" : 12.0,
					"numinlets" : 2,
					"patching_rect" : [ 329.0, 305.0, 86.0, 18.0 ],
					"id" : "obj-56",
					"numoutlets" : 1,
					"fontname" : "Arial"
				}

			}
, 			{
				"box" : 				{
					"maxclass" : "newobj",
					"text" : "r jim_player",
					"outlettype" : [ "" ],
					"fontsize" : 12.0,
					"numinlets" : 0,
					"patching_rect" : [ 305.0, 270.0, 73.0, 20.0 ],
					"id" : "obj-57",
					"numoutlets" : 1,
					"fontname" : "Arial"
				}

			}
, 			{
				"box" : 				{
					"maxclass" : "button",
					"outlettype" : [ "bang" ],
					"numinlets" : 1,
					"patching_rect" : [ 305.0, 236.0, 20.0, 20.0 ],
					"id" : "obj-52",
					"numoutlets" : 1
				}

			}
, 			{
				"box" : 				{
					"maxclass" : "message",
					"text" : "hello there",
					"outlettype" : [ "" ],
					"fontsize" : 12.0,
					"numinlets" : 2,
					"patching_rect" : [ 329.0, 237.0, 86.0, 18.0 ],
					"id" : "obj-53",
					"numoutlets" : 1,
					"fontname" : "Arial"
				}

			}
, 			{
				"box" : 				{
					"maxclass" : "newobj",
					"text" : "r jim78_counter",
					"outlettype" : [ "" ],
					"fontsize" : 12.0,
					"numinlets" : 0,
					"patching_rect" : [ 305.0, 202.0, 93.0, 20.0 ],
					"id" : "obj-54",
					"numoutlets" : 1,
					"fontname" : "Arial"
				}

			}
, 			{
				"box" : 				{
					"maxclass" : "button",
					"outlettype" : [ "bang" ],
					"numinlets" : 1,
					"patching_rect" : [ 305.0, 169.0, 20.0, 20.0 ],
					"id" : "obj-49",
					"numoutlets" : 1
				}

			}
, 			{
				"box" : 				{
					"maxclass" : "message",
					"text" : "hello there",
					"outlettype" : [ "" ],
					"fontsize" : 12.0,
					"numinlets" : 2,
					"patching_rect" : [ 329.0, 170.0, 86.0, 18.0 ],
					"id" : "obj-50",
					"numoutlets" : 1,
					"fontname" : "Arial"
				}

			}
, 			{
				"box" : 				{
					"maxclass" : "newobj",
					"text" : "r jim01_counter",
					"outlettype" : [ "" ],
					"fontsize" : 12.0,
					"numinlets" : 0,
					"patching_rect" : [ 305.0, 135.0, 93.0, 20.0 ],
					"id" : "obj-51",
					"numoutlets" : 1,
					"fontname" : "Arial"
				}

			}
, 			{
				"box" : 				{
					"maxclass" : "button",
					"outlettype" : [ "bang" ],
					"numinlets" : 1,
					"patching_rect" : [ 305.0, 106.0, 20.0, 20.0 ],
					"id" : "obj-48",
					"numoutlets" : 1
				}

			}
, 			{
				"box" : 				{
					"maxclass" : "comment",
					"text" : "Note: You can double-click on the object to see the last forward call.",
					"linecount" : 2,
					"fontsize" : 12.0,
					"numinlets" : 1,
					"patching_rect" : [ 12.0, 438.0, 224.0, 34.0 ],
					"id" : "obj-47",
					"numoutlets" : 0,
					"fontname" : "Arial"
				}

			}
, 			{
				"box" : 				{
					"maxclass" : "message",
					"text" : "\"hello there\"",
					"outlettype" : [ "" ],
					"fontsize" : 12.0,
					"numinlets" : 2,
					"patching_rect" : [ 155.0, 361.0, 75.0, 18.0 ],
					"id" : "obj-46",
					"numoutlets" : 1,
					"fontname" : "Arial"
				}

			}
, 			{
				"box" : 				{
					"maxclass" : "comment",
					"text" : "ID's under 10 get a leading zero",
					"fontsize" : 12.0,
					"numinlets" : 1,
					"patching_rect" : [ 50.0, 187.0, 185.0, 20.0 ],
					"id" : "obj-44",
					"numoutlets" : 0,
					"fontname" : "Arial"
				}

			}
, 			{
				"box" : 				{
					"maxclass" : "message",
					"text" : "78",
					"outlettype" : [ "" ],
					"fontsize" : 12.0,
					"numinlets" : 2,
					"patching_rect" : [ 33.0, 215.0, 32.5, 18.0 ],
					"id" : "obj-35",
					"numoutlets" : 1,
					"fontname" : "Arial"
				}

			}
, 			{
				"box" : 				{
					"maxclass" : "message",
					"text" : "1",
					"outlettype" : [ "" ],
					"fontsize" : 12.0,
					"numinlets" : 2,
					"patching_rect" : [ 12.0, 189.0, 32.5, 18.0 ],
					"id" : "obj-34",
					"numoutlets" : 1,
					"fontname" : "Arial"
				}

			}
, 			{
				"box" : 				{
					"maxclass" : "message",
					"text" : "hello there",
					"outlettype" : [ "" ],
					"fontsize" : 12.0,
					"numinlets" : 2,
					"patching_rect" : [ 329.0, 107.0, 86.0, 18.0 ],
					"id" : "obj-28",
					"numoutlets" : 1,
					"fontname" : "Arial"
				}

			}
, 			{
				"box" : 				{
					"maxclass" : "newobj",
					"text" : "r jim_counter",
					"outlettype" : [ "" ],
					"fontsize" : 12.0,
					"numinlets" : 0,
					"patching_rect" : [ 305.0, 72.0, 80.0, 20.0 ],
					"id" : "obj-27",
					"numoutlets" : 1,
					"fontname" : "Arial"
				}

			}
, 			{
				"box" : 				{
					"maxclass" : "comment",
					"text" : "args:\n1) namespace (required)",
					"linecount" : 2,
					"fontsize" : 12.0,
					"numinlets" : 1,
					"patching_rect" : [ 142.0, 396.0, 150.0, 34.0 ],
					"id" : "obj-25",
					"numoutlets" : 0,
					"fontname" : "Arial"
				}

			}
, 			{
				"box" : 				{
					"maxclass" : "comment",
					"text" : "message ",
					"fontsize" : 12.0,
					"numinlets" : 1,
					"patching_rect" : [ 120.0, 336.0, 59.0, 20.0 ],
					"id" : "obj-24",
					"numoutlets" : 0,
					"fontname" : "Arial"
				}

			}
, 			{
				"box" : 				{
					"maxclass" : "message",
					"text" : "34",
					"outlettype" : [ "" ],
					"fontsize" : 12.0,
					"numinlets" : 2,
					"patching_rect" : [ 119.0, 360.0, 32.5, 18.0 ],
					"id" : "obj-23",
					"numoutlets" : 1,
					"fontname" : "Arial"
				}

			}
, 			{
				"box" : 				{
					"maxclass" : "comment",
					"text" : "method",
					"fontsize" : 12.0,
					"numinlets" : 1,
					"patching_rect" : [ 70.0, 271.0, 56.0, 20.0 ],
					"id" : "obj-22",
					"numoutlets" : 0,
					"fontname" : "Arial"
				}

			}
, 			{
				"box" : 				{
					"maxclass" : "message",
					"text" : "counter",
					"outlettype" : [ "" ],
					"fontsize" : 12.0,
					"numinlets" : 2,
					"patching_rect" : [ 113.0, 294.0, 51.0, 18.0 ],
					"id" : "obj-21",
					"numoutlets" : 1,
					"fontname" : "Arial"
				}

			}
, 			{
				"box" : 				{
					"maxclass" : "message",
					"text" : "player",
					"outlettype" : [ "" ],
					"fontsize" : 12.0,
					"numinlets" : 2,
					"patching_rect" : [ 66.0, 295.0, 43.0, 18.0 ],
					"id" : "obj-19",
					"numoutlets" : 1,
					"fontname" : "Arial"
				}

			}
, 			{
				"box" : 				{
					"maxclass" : "comment",
					"text" : "Do not use an ID",
					"fontsize" : 12.0,
					"numinlets" : 1,
					"patching_rect" : [ 92.0, 239.0, 100.0, 20.0 ],
					"id" : "obj-18",
					"numoutlets" : 0,
					"fontname" : "Arial"
				}

			}
, 			{
				"box" : 				{
					"maxclass" : "message",
					"text" : "none",
					"outlettype" : [ "" ],
					"fontsize" : 12.0,
					"numinlets" : 2,
					"patching_rect" : [ 50.0, 240.0, 37.0, 18.0 ],
					"id" : "obj-14",
					"numoutlets" : 1,
					"fontname" : "Arial"
				}

			}
, 			{
				"box" : 				{
					"maxclass" : "button",
					"outlettype" : [ "bang" ],
					"hidden" : 1,
					"numinlets" : 1,
					"patching_rect" : [ 436.0, 361.0, 20.0, 20.0 ],
					"id" : "obj-1",
					"numoutlets" : 1
				}

			}
, 			{
				"box" : 				{
					"maxclass" : "newobj",
					"text" : "pcontrol",
					"outlettype" : [ "" ],
					"hidden" : 1,
					"fontsize" : 12.0,
					"numinlets" : 1,
					"patching_rect" : [ 436.0, 409.0, 53.0, 20.0 ],
					"id" : "obj-3",
					"numoutlets" : 1,
					"fontname" : "Arial"
				}

			}
, 			{
				"box" : 				{
					"maxclass" : "message",
					"text" : "help p.objects-guide",
					"outlettype" : [ "" ],
					"hidden" : 1,
					"fontsize" : 12.0,
					"numinlets" : 2,
					"patching_rect" : [ 436.0, 387.0, 118.0, 18.0 ],
					"id" : "obj-4",
					"numoutlets" : 1,
					"fontname" : "Arial"
				}

			}
, 			{
				"box" : 				{
					"maxclass" : "message",
					"text" : "p.objects guide",
					"outlettype" : [ "" ],
					"fontsize" : 12.0,
					"numinlets" : 2,
					"patching_rect" : [ 446.0, 433.0, 92.0, 18.0 ],
					"id" : "obj-5",
					"numoutlets" : 1,
					"fontname" : "Arial"
				}

			}
, 			{
				"box" : 				{
					"maxclass" : "comment",
					"text" : "dependencies: none",
					"fontsize" : 12.0,
					"numinlets" : 1,
					"patching_rect" : [ 427.0, 61.0, 118.0, 20.0 ],
					"id" : "obj-20",
					"numoutlets" : 0,
					"fontname" : "Arial"
				}

			}
, 			{
				"box" : 				{
					"maxclass" : "newobj",
					"text" : "p.forward jim",
					"fontsize" : 12.0,
					"numinlets" : 3,
					"patching_rect" : [ 12.0, 400.0, 126.0, 20.0 ],
					"id" : "obj-17",
					"numoutlets" : 0,
					"fontname" : "Arial"
				}

			}
, 			{
				"box" : 				{
					"maxclass" : "comment",
					"varname" : "autohelp_top_title",
					"text" : "p.forward",
					"fontface" : 3,
					"frgb" : [ 0.93, 0.93, 0.97, 1.0 ],
					"fontsize" : 20.871338,
					"numinlets" : 1,
					"textcolor" : [ 0.93, 0.93, 0.97, 1.0 ],
					"patching_rect" : [ 10.0, 8.0, 149.0, 30.0 ],
					"id" : "obj-9",
					"numoutlets" : 0,
					"fontname" : "Arial"
				}

			}
, 			{
				"box" : 				{
					"maxclass" : "comment",
					"varname" : "autohelp_top_digest",
					"text" : "A powerful forwarder with namespace, id, and method",
					"frgb" : [ 0.93, 0.93, 0.97, 1.0 ],
					"fontsize" : 12.754705,
					"numinlets" : 1,
					"textcolor" : [ 0.93, 0.93, 0.97, 1.0 ],
					"patching_rect" : [ 10.0, 36.0, 319.0, 21.0 ],
					"id" : "obj-11",
					"numoutlets" : 0,
					"fontname" : "Arial"
				}

			}
, 			{
				"box" : 				{
					"maxclass" : "panel",
					"varname" : "autohelp_top_panel",
					"grad1" : [ 0.27, 0.35, 0.47, 1.0 ],
					"mode" : 1,
					"grad2" : [ 0.85, 0.85, 0.85, 1.0 ],
					"numinlets" : 1,
					"background" : 1,
					"patching_rect" : [ 5.0, 5.0, 540.0, 53.0 ],
					"id" : "obj-16",
					"numoutlets" : 0
				}

			}
 ],
		"lines" : [ 			{
				"patchline" : 				{
					"source" : [ "obj-63", 0 ],
					"destination" : [ "obj-61", 0 ],
					"hidden" : 0,
					"midpoints" : [  ]
				}

			}
, 			{
				"patchline" : 				{
					"source" : [ "obj-63", 0 ],
					"destination" : [ "obj-62", 1 ],
					"hidden" : 0,
					"midpoints" : [ 314.5, 426.0, 405.5, 426.0 ]
				}

			}
, 			{
				"patchline" : 				{
					"source" : [ "obj-60", 0 ],
					"destination" : [ "obj-58", 0 ],
					"hidden" : 0,
					"midpoints" : [  ]
				}

			}
, 			{
				"patchline" : 				{
					"source" : [ "obj-60", 0 ],
					"destination" : [ "obj-59", 1 ],
					"hidden" : 0,
					"midpoints" : [ 314.5, 363.0, 405.5, 363.0 ]
				}

			}
, 			{
				"patchline" : 				{
					"source" : [ "obj-57", 0 ],
					"destination" : [ "obj-55", 0 ],
					"hidden" : 0,
					"midpoints" : [  ]
				}

			}
, 			{
				"patchline" : 				{
					"source" : [ "obj-57", 0 ],
					"destination" : [ "obj-56", 1 ],
					"hidden" : 0,
					"midpoints" : [ 314.5, 297.0, 405.5, 297.0 ]
				}

			}
, 			{
				"patchline" : 				{
					"source" : [ "obj-54", 0 ],
					"destination" : [ "obj-52", 0 ],
					"hidden" : 0,
					"midpoints" : [  ]
				}

			}
, 			{
				"patchline" : 				{
					"source" : [ "obj-54", 0 ],
					"destination" : [ "obj-53", 1 ],
					"hidden" : 0,
					"midpoints" : [ 314.5, 229.0, 405.5, 229.0 ]
				}

			}
, 			{
				"patchline" : 				{
					"source" : [ "obj-51", 0 ],
					"destination" : [ "obj-49", 0 ],
					"hidden" : 0,
					"midpoints" : [  ]
				}

			}
, 			{
				"patchline" : 				{
					"source" : [ "obj-51", 0 ],
					"destination" : [ "obj-50", 1 ],
					"hidden" : 0,
					"midpoints" : [ 314.5, 162.0, 405.5, 162.0 ]
				}

			}
, 			{
				"patchline" : 				{
					"source" : [ "obj-27", 0 ],
					"destination" : [ "obj-48", 0 ],
					"hidden" : 0,
					"midpoints" : [  ]
				}

			}
, 			{
				"patchline" : 				{
					"source" : [ "obj-27", 0 ],
					"destination" : [ "obj-28", 1 ],
					"hidden" : 0,
					"midpoints" : [ 314.5, 99.0, 405.5, 99.0 ]
				}

			}
, 			{
				"patchline" : 				{
					"source" : [ "obj-14", 0 ],
					"destination" : [ "obj-17", 0 ],
					"hidden" : 0,
					"midpoints" : [ 59.5, 268.0, 21.5, 268.0 ]
				}

			}
, 			{
				"patchline" : 				{
					"source" : [ "obj-35", 0 ],
					"destination" : [ "obj-17", 0 ],
					"hidden" : 0,
					"midpoints" : [ 42.5, 268.5, 21.5, 268.5 ]
				}

			}
, 			{
				"patchline" : 				{
					"source" : [ "obj-34", 0 ],
					"destination" : [ "obj-17", 0 ],
					"hidden" : 0,
					"midpoints" : [  ]
				}

			}
, 			{
				"patchline" : 				{
					"source" : [ "obj-21", 0 ],
					"destination" : [ "obj-17", 1 ],
					"hidden" : 0,
					"midpoints" : [ 122.5, 320.5, 75.0, 320.5 ]
				}

			}
, 			{
				"patchline" : 				{
					"source" : [ "obj-19", 0 ],
					"destination" : [ "obj-17", 1 ],
					"hidden" : 0,
					"midpoints" : [  ]
				}

			}
, 			{
				"patchline" : 				{
					"source" : [ "obj-23", 0 ],
					"destination" : [ "obj-17", 2 ],
					"hidden" : 0,
					"midpoints" : [  ]
				}

			}
, 			{
				"patchline" : 				{
					"source" : [ "obj-46", 0 ],
					"destination" : [ "obj-17", 2 ],
					"hidden" : 0,
					"midpoints" : [ 164.5, 391.0, 128.5, 391.0 ]
				}

			}
, 			{
				"patchline" : 				{
					"source" : [ "obj-5", 0 ],
					"destination" : [ "obj-1", 0 ],
					"hidden" : 1,
					"midpoints" : [  ]
				}

			}
, 			{
				"patchline" : 				{
					"source" : [ "obj-1", 0 ],
					"destination" : [ "obj-4", 0 ],
					"hidden" : 1,
					"midpoints" : [  ]
				}

			}
, 			{
				"patchline" : 				{
					"source" : [ "obj-4", 0 ],
					"destination" : [ "obj-3", 0 ],
					"hidden" : 1,
					"midpoints" : [  ]
				}

			}
 ]
	}

}
