{
	"patcher" : 	{
		"fileversion" : 1,
		"rect" : [ 691.0, 64.0, 310.0, 290.0 ],
		"bglocked" : 0,
		"defrect" : [ 691.0, 64.0, 310.0, 290.0 ],
		"openrect" : [ 0.0, 0.0, 0.0, 0.0 ],
		"openinpresentation" : 0,
		"default_fontsize" : 12.0,
		"default_fontface" : 0,
		"default_fontname" : "Arial",
		"gridonopen" : 0,
		"gridsize" : [ 15.0, 15.0 ],
		"gridsnaponopen" : 0,
		"toolbarvisible" : 1,
		"boxanimatetime" : 200,
		"imprint" : 0,
		"boxes" : [ 			{
				"box" : 				{
					"maxclass" : "comment",
					"varname" : "autohelp_top_title[1]",
					"text" : "p.gtodb",
					"fontface" : 3,
					"fontsize" : 20.899994,
					"id" : "obj-2",
					"numinlets" : 1,
					"numoutlets" : 0,
					"patching_rect" : [ 8.0, 4.0, 170.0, 31.0 ],
					"fontname" : "Arial"
				}

			}
, 			{
				"box" : 				{
					"maxclass" : "comment",
					"varname" : "autohelp_top_digest[1]",
					"text" : "Translates gain into db.",
					"fontsize" : 12.754705,
					"id" : "obj-6",
					"numinlets" : 1,
					"numoutlets" : 0,
					"patching_rect" : [ 8.0, 33.0, 284.0, 21.0 ],
					"fontname" : "Arial"
				}

			}
, 			{
				"box" : 				{
					"maxclass" : "panel",
					"id" : "obj-23",
					"numinlets" : 1,
					"numoutlets" : 0,
					"patching_rect" : [ 0.0, 0.0, 310.0, 64.0 ],
					"rounded" : 0
				}

			}
, 			{
				"box" : 				{
					"maxclass" : "comment",
					"text" : "reset to 0 db",
					"fontsize" : 11.0,
					"id" : "obj-22",
					"numinlets" : 1,
					"numoutlets" : 0,
					"patching_rect" : [ 52.0, 109.0, 90.0, 19.0 ],
					"fontname" : "Arial"
				}

			}
, 			{
				"box" : 				{
					"maxclass" : "message",
					"text" : "127",
					"fontsize" : 12.0,
					"id" : "obj-21",
					"numinlets" : 2,
					"numoutlets" : 1,
					"patching_rect" : [ 14.0, 110.0, 32.5, 18.0 ],
					"outlettype" : [ "" ],
					"fontname" : "Arial"
				}

			}
, 			{
				"box" : 				{
					"maxclass" : "newobj",
					"text" : "loadbang",
					"fontsize" : 12.0,
					"id" : "obj-19",
					"numinlets" : 1,
					"numoutlets" : 1,
					"patching_rect" : [ 14.0, 84.0, 60.0, 20.0 ],
					"outlettype" : [ "bang" ],
					"fontname" : "Arial"
				}

			}
, 			{
				"box" : 				{
					"maxclass" : "number",
					"fontsize" : 12.0,
					"id" : "obj-18",
					"numinlets" : 1,
					"numoutlets" : 2,
					"patching_rect" : [ 75.0, 238.0, 50.0, 20.0 ],
					"outlettype" : [ "int", "bang" ],
					"fontname" : "Arial"
				}

			}
, 			{
				"box" : 				{
					"maxclass" : "comment",
					"text" : "db",
					"fontsize" : 11.0,
					"id" : "obj-14",
					"numinlets" : 1,
					"numoutlets" : 0,
					"patching_rect" : [ 129.0, 238.0, 34.0, 19.0 ],
					"fontname" : "Arial"
				}

			}
, 			{
				"box" : 				{
					"maxclass" : "comment",
					"text" : "gain",
					"fontsize" : 11.0,
					"id" : "obj-12",
					"numinlets" : 1,
					"numoutlets" : 0,
					"patching_rect" : [ 129.0, 181.0, 36.0, 19.0 ],
					"fontname" : "Arial"
				}

			}
, 			{
				"box" : 				{
					"maxclass" : "number",
					"fontsize" : 12.0,
					"id" : "obj-8",
					"numinlets" : 1,
					"numoutlets" : 2,
					"patching_rect" : [ 75.0, 181.0, 50.0, 20.0 ],
					"outlettype" : [ "int", "bang" ],
					"fontname" : "Arial"
				}

			}
, 			{
				"box" : 				{
					"maxclass" : "gain~",
					"id" : "obj-7",
					"numinlets" : 2,
					"numoutlets" : 2,
					"patching_rect" : [ 14.0, 136.0, 38.0, 129.0 ],
					"outlettype" : [ "signal", "int" ]
				}

			}
, 			{
				"box" : 				{
					"maxclass" : "button",
					"id" : "obj-1",
					"numinlets" : 1,
					"hidden" : 1,
					"numoutlets" : 1,
					"patching_rect" : [ 184.0, 172.0, 20.0, 20.0 ],
					"outlettype" : [ "bang" ]
				}

			}
, 			{
				"box" : 				{
					"maxclass" : "newobj",
					"text" : "pcontrol",
					"fontsize" : 12.0,
					"id" : "obj-3",
					"numinlets" : 1,
					"hidden" : 1,
					"numoutlets" : 1,
					"patching_rect" : [ 184.0, 220.0, 53.0, 20.0 ],
					"outlettype" : [ "" ],
					"fontname" : "Arial"
				}

			}
, 			{
				"box" : 				{
					"maxclass" : "message",
					"text" : "help p.objects-guide",
					"fontsize" : 12.0,
					"id" : "obj-4",
					"numinlets" : 2,
					"hidden" : 1,
					"numoutlets" : 1,
					"patching_rect" : [ 184.0, 198.0, 118.0, 18.0 ],
					"outlettype" : [ "" ],
					"fontname" : "Arial"
				}

			}
, 			{
				"box" : 				{
					"maxclass" : "message",
					"text" : "p.objects guide",
					"fontsize" : 12.0,
					"id" : "obj-5",
					"numinlets" : 2,
					"numoutlets" : 1,
					"patching_rect" : [ 204.0, 256.0, 92.0, 18.0 ],
					"outlettype" : [ "" ],
					"fontname" : "Arial"
				}

			}
, 			{
				"box" : 				{
					"maxclass" : "newobj",
					"text" : "p.gtodb",
					"fontsize" : 12.0,
					"id" : "obj-17",
					"numinlets" : 1,
					"numoutlets" : 1,
					"patching_rect" : [ 75.0, 209.0, 51.0, 20.0 ],
					"outlettype" : [ "int" ],
					"fontname" : "Arial"
				}

			}
 ],
		"lines" : [ 			{
				"patchline" : 				{
					"source" : [ "obj-21", 0 ],
					"destination" : [ "obj-7", 0 ],
					"hidden" : 0,
					"midpoints" : [  ]
				}

			}
, 			{
				"patchline" : 				{
					"source" : [ "obj-19", 0 ],
					"destination" : [ "obj-21", 0 ],
					"hidden" : 0,
					"midpoints" : [  ]
				}

			}
, 			{
				"patchline" : 				{
					"source" : [ "obj-17", 0 ],
					"destination" : [ "obj-18", 0 ],
					"hidden" : 0,
					"midpoints" : [  ]
				}

			}
, 			{
				"patchline" : 				{
					"source" : [ "obj-8", 0 ],
					"destination" : [ "obj-17", 0 ],
					"hidden" : 0,
					"midpoints" : [  ]
				}

			}
, 			{
				"patchline" : 				{
					"source" : [ "obj-7", 1 ],
					"destination" : [ "obj-8", 0 ],
					"hidden" : 0,
					"midpoints" : [ 42.5, 270.0, 63.0, 270.0, 63.0, 172.0, 84.5, 172.0 ]
				}

			}
, 			{
				"patchline" : 				{
					"source" : [ "obj-5", 0 ],
					"destination" : [ "obj-1", 0 ],
					"hidden" : 1,
					"midpoints" : [  ]
				}

			}
, 			{
				"patchline" : 				{
					"source" : [ "obj-1", 0 ],
					"destination" : [ "obj-4", 0 ],
					"hidden" : 1,
					"midpoints" : [  ]
				}

			}
, 			{
				"patchline" : 				{
					"source" : [ "obj-4", 0 ],
					"destination" : [ "obj-3", 0 ],
					"hidden" : 1,
					"midpoints" : [  ]
				}

			}
 ]
	}

}
