{
	"patcher" : 	{
		"fileversion" : 1,
		"rect" : [ 477.0, 44.0, 478.0, 356.0 ],
		"bglocked" : 0,
		"defrect" : [ 477.0, 44.0, 478.0, 356.0 ],
		"openrect" : [ 0.0, 0.0, 0.0, 0.0 ],
		"openinpresentation" : 0,
		"default_fontsize" : 12.0,
		"default_fontface" : 0,
		"default_fontname" : "Arial",
		"gridonopen" : 0,
		"gridsize" : [ 15.0, 15.0 ],
		"gridsnaponopen" : 0,
		"toolbarvisible" : 1,
		"boxanimatetime" : 200,
		"imprint" : 0,
		"boxes" : [ 			{
				"box" : 				{
					"maxclass" : "comment",
					"varname" : "autohelp_top_title[1]",
					"text" : "p.pitchshift.doppler~",
					"numinlets" : 1,
					"numoutlets" : 0,
					"fontface" : 3,
					"fontsize" : 20.899994,
					"patching_rect" : [ 8.0, 3.0, 221.0, 31.0 ],
					"id" : "obj-8",
					"fontname" : "Arial"
				}

			}
, 			{
				"box" : 				{
					"maxclass" : "comment",
					"varname" : "autohelp_top_digest[1]",
					"text" : "A doppler based pitch shifter.",
					"numinlets" : 1,
					"numoutlets" : 0,
					"fontsize" : 12.754705,
					"patching_rect" : [ 8.0, 33.0, 299.0, 21.0 ],
					"id" : "obj-31",
					"fontname" : "Arial"
				}

			}
, 			{
				"box" : 				{
					"maxclass" : "panel",
					"numinlets" : 1,
					"numoutlets" : 0,
					"patching_rect" : [ 0.0, 0.0, 478.0, 62.0 ],
					"id" : "obj-33",
					"rounded" : 0
				}

			}
, 			{
				"box" : 				{
					"maxclass" : "flonum",
					"numinlets" : 1,
					"numoutlets" : 2,
					"fontsize" : 12.0,
					"outlettype" : [ "float", "bang" ],
					"patching_rect" : [ 16.0, 78.0, 50.0, 20.0 ],
					"id" : "obj-5",
					"fontname" : "Arial"
				}

			}
, 			{
				"box" : 				{
					"maxclass" : "newobj",
					"text" : "cycle~ 400",
					"numinlets" : 2,
					"numoutlets" : 1,
					"fontsize" : 12.0,
					"outlettype" : [ "signal" ],
					"patching_rect" : [ 16.0, 109.0, 68.0, 20.0 ],
					"id" : "obj-3",
					"fontname" : "Arial"
				}

			}
, 			{
				"box" : 				{
					"maxclass" : "comment",
					"text" : "pitch shifting in semitones",
					"numinlets" : 1,
					"numoutlets" : 0,
					"fontsize" : 11.0,
					"patching_rect" : [ 107.0, 146.0, 139.0, 19.0 ],
					"id" : "obj-25",
					"fontname" : "Arial"
				}

			}
, 			{
				"box" : 				{
					"maxclass" : "flonum",
					"numinlets" : 1,
					"numoutlets" : 2,
					"fontsize" : 12.0,
					"outlettype" : [ "float", "bang" ],
					"patching_rect" : [ 55.0, 147.0, 50.0, 20.0 ],
					"id" : "obj-19",
					"fontname" : "Arial"
				}

			}
, 			{
				"box" : 				{
					"maxclass" : "newobj",
					"text" : "loadbang",
					"numinlets" : 1,
					"hidden" : 1,
					"numoutlets" : 1,
					"fontsize" : 12.0,
					"outlettype" : [ "bang" ],
					"patching_rect" : [ 198.0, 107.0, 60.0, 20.0 ],
					"id" : "obj-24",
					"fontname" : "Arial"
				}

			}
, 			{
				"box" : 				{
					"maxclass" : "message",
					"text" : "16",
					"numinlets" : 2,
					"hidden" : 1,
					"numoutlets" : 1,
					"fontsize" : 12.0,
					"outlettype" : [ "" ],
					"patching_rect" : [ 97.0, 223.0, 32.5, 18.0 ],
					"id" : "obj-23",
					"fontname" : "Arial"
				}

			}
, 			{
				"box" : 				{
					"maxclass" : "message",
					"text" : "100",
					"numinlets" : 2,
					"hidden" : 1,
					"numoutlets" : 1,
					"fontsize" : 12.0,
					"outlettype" : [ "" ],
					"patching_rect" : [ 59.0, 185.0, 32.5, 18.0 ],
					"id" : "obj-22",
					"fontname" : "Arial"
				}

			}
, 			{
				"box" : 				{
					"maxclass" : "comment",
					"text" : "number of phases \n(must be <= to the object's number of phases set with the argument)",
					"linecount" : 4,
					"numinlets" : 1,
					"numoutlets" : 0,
					"fontsize" : 11.0,
					"patching_rect" : [ 185.0, 213.0, 166.0, 57.0 ],
					"id" : "obj-18",
					"fontname" : "Arial"
				}

			}
, 			{
				"box" : 				{
					"maxclass" : "comment",
					"text" : "phasor frequency multiplier\n(def: 100.)",
					"linecount" : 2,
					"numinlets" : 1,
					"numoutlets" : 0,
					"fontsize" : 11.0,
					"patching_rect" : [ 145.0, 178.0, 147.0, 32.0 ],
					"id" : "obj-15",
					"fontname" : "Arial"
				}

			}
, 			{
				"box" : 				{
					"maxclass" : "flonum",
					"numinlets" : 1,
					"numoutlets" : 2,
					"fontsize" : 12.0,
					"outlettype" : [ "float", "bang" ],
					"patching_rect" : [ 93.0, 184.0, 50.0, 20.0 ],
					"id" : "obj-14",
					"fontname" : "Arial"
				}

			}
, 			{
				"box" : 				{
					"maxclass" : "number",
					"numinlets" : 1,
					"numoutlets" : 2,
					"fontsize" : 12.0,
					"outlettype" : [ "int", "bang" ],
					"patching_rect" : [ 132.0, 221.0, 50.0, 20.0 ],
					"id" : "obj-4",
					"fontname" : "Arial"
				}

			}
, 			{
				"box" : 				{
					"maxclass" : "comment",
					"text" : "args\n1) number of phases (required)",
					"linecount" : 2,
					"numinlets" : 1,
					"numoutlets" : 0,
					"fontsize" : 11.0,
					"patching_rect" : [ 75.0, 278.0, 168.0, 32.0 ],
					"id" : "obj-2",
					"fontname" : "Arial"
				}

			}
, 			{
				"box" : 				{
					"maxclass" : "button",
					"numinlets" : 1,
					"hidden" : 1,
					"numoutlets" : 1,
					"outlettype" : [ "bang" ],
					"patching_rect" : [ 309.0, 125.0, 20.0, 20.0 ],
					"id" : "obj-7"
				}

			}
, 			{
				"box" : 				{
					"maxclass" : "newobj",
					"text" : "pcontrol",
					"numinlets" : 1,
					"hidden" : 1,
					"numoutlets" : 1,
					"fontsize" : 12.0,
					"outlettype" : [ "" ],
					"patching_rect" : [ 309.0, 173.0, 53.0, 20.0 ],
					"id" : "obj-10",
					"fontname" : "Arial"
				}

			}
, 			{
				"box" : 				{
					"maxclass" : "message",
					"text" : "help p.objects-guide",
					"numinlets" : 2,
					"hidden" : 1,
					"numoutlets" : 1,
					"fontsize" : 12.0,
					"outlettype" : [ "" ],
					"patching_rect" : [ 309.0, 151.0, 118.0, 18.0 ],
					"id" : "obj-12",
					"fontname" : "Arial"
				}

			}
, 			{
				"box" : 				{
					"maxclass" : "message",
					"text" : "p.objects guide",
					"numinlets" : 2,
					"numoutlets" : 1,
					"fontsize" : 12.0,
					"outlettype" : [ "" ],
					"patching_rect" : [ 370.0, 322.0, 92.0, 18.0 ],
					"id" : "obj-13",
					"fontname" : "Arial"
				}

			}
, 			{
				"box" : 				{
					"maxclass" : "ezdac~",
					"numinlets" : 2,
					"numoutlets" : 0,
					"patching_rect" : [ 16.0, 289.0, 45.0, 45.0 ],
					"id" : "obj-1"
				}

			}
, 			{
				"box" : 				{
					"maxclass" : "newobj",
					"text" : "p.pitchshift.doppler~ 16",
					"numinlets" : 4,
					"numoutlets" : 1,
					"fontsize" : 12.0,
					"outlettype" : [ "signal" ],
					"patching_rect" : [ 16.0, 249.0, 135.0, 20.0 ],
					"id" : "obj-17",
					"fontname" : "Arial"
				}

			}
, 			{
				"box" : 				{
					"maxclass" : "comment",
					"text" : "dependencies ",
					"numinlets" : 1,
					"numoutlets" : 0,
					"fontsize" : 11.0,
					"patching_rect" : [ 339.0, 65.0, 82.0, 19.0 ],
					"id" : "obj-21",
					"fontname" : "Arial"
				}

			}
, 			{
				"box" : 				{
					"maxclass" : "comment",
					"text" : "p.pitchshift.doppler_poly~",
					"numinlets" : 1,
					"numoutlets" : 0,
					"fontsize" : 11.0,
					"patching_rect" : [ 315.0, 84.0, 136.0, 19.0 ],
					"id" : "obj-36",
					"fontname" : "Arial"
				}

			}
, 			{
				"box" : 				{
					"maxclass" : "panel",
					"numinlets" : 1,
					"numoutlets" : 0,
					"patching_rect" : [ 307.0, 42.0, 149.0, 68.0 ],
					"bgcolor" : [ 0.901961, 0.901961, 0.901961, 1.0 ],
					"id" : "obj-9",
					"rounded" : 20
				}

			}
 ],
		"lines" : [ 			{
				"patchline" : 				{
					"source" : [ "obj-3", 0 ],
					"destination" : [ "obj-17", 0 ],
					"hidden" : 0,
					"midpoints" : [  ]
				}

			}
, 			{
				"patchline" : 				{
					"source" : [ "obj-17", 0 ],
					"destination" : [ "obj-1", 0 ],
					"hidden" : 0,
					"midpoints" : [  ]
				}

			}
, 			{
				"patchline" : 				{
					"source" : [ "obj-19", 0 ],
					"destination" : [ "obj-17", 1 ],
					"hidden" : 0,
					"midpoints" : [  ]
				}

			}
, 			{
				"patchline" : 				{
					"source" : [ "obj-14", 0 ],
					"destination" : [ "obj-17", 2 ],
					"hidden" : 0,
					"midpoints" : [  ]
				}

			}
, 			{
				"patchline" : 				{
					"source" : [ "obj-4", 0 ],
					"destination" : [ "obj-17", 3 ],
					"hidden" : 0,
					"midpoints" : [  ]
				}

			}
, 			{
				"patchline" : 				{
					"source" : [ "obj-5", 0 ],
					"destination" : [ "obj-3", 0 ],
					"hidden" : 0,
					"midpoints" : [  ]
				}

			}
, 			{
				"patchline" : 				{
					"source" : [ "obj-12", 0 ],
					"destination" : [ "obj-10", 0 ],
					"hidden" : 1,
					"midpoints" : [  ]
				}

			}
, 			{
				"patchline" : 				{
					"source" : [ "obj-7", 0 ],
					"destination" : [ "obj-12", 0 ],
					"hidden" : 1,
					"midpoints" : [  ]
				}

			}
, 			{
				"patchline" : 				{
					"source" : [ "obj-13", 0 ],
					"destination" : [ "obj-7", 0 ],
					"hidden" : 1,
					"midpoints" : [  ]
				}

			}
, 			{
				"patchline" : 				{
					"source" : [ "obj-22", 0 ],
					"destination" : [ "obj-14", 0 ],
					"hidden" : 1,
					"midpoints" : [  ]
				}

			}
, 			{
				"patchline" : 				{
					"source" : [ "obj-23", 0 ],
					"destination" : [ "obj-4", 0 ],
					"hidden" : 1,
					"midpoints" : [  ]
				}

			}
, 			{
				"patchline" : 				{
					"source" : [ "obj-24", 0 ],
					"destination" : [ "obj-22", 0 ],
					"hidden" : 1,
					"midpoints" : [  ]
				}

			}
, 			{
				"patchline" : 				{
					"source" : [ "obj-24", 0 ],
					"destination" : [ "obj-23", 0 ],
					"hidden" : 1,
					"midpoints" : [  ]
				}

			}
 ]
	}

}
