{
	"patcher" : 	{
		"fileversion" : 1,
		"appversion" : 		{
			"major" : 8,
			"minor" : 0,
			"revision" : 2,
			"architecture" : "x64",
			"modernui" : 1
		}
,
		"classnamespace" : "box",
		"rect" : [ 100.0, 79.0, 773.0, 584.0 ],
		"bglocked" : 0,
		"openinpresentation" : 0,
		"default_fontsize" : 12.0,
		"default_fontface" : 0,
		"default_fontname" : "Arial",
		"gridonopen" : 1,
		"gridsize" : [ 15.0, 15.0 ],
		"gridsnaponopen" : 1,
		"objectsnaponopen" : 1,
		"statusbarvisible" : 2,
		"toolbarvisible" : 1,
		"lefttoolbarpinned" : 0,
		"toptoolbarpinned" : 0,
		"righttoolbarpinned" : 0,
		"bottomtoolbarpinned" : 0,
		"toolbars_unpinned_last_save" : 0,
		"tallnewobj" : 0,
		"boxanimatetime" : 200,
		"enablehscroll" : 1,
		"enablevscroll" : 1,
		"devicewidth" : 0.0,
		"description" : "",
		"digest" : "",
		"tags" : "",
		"style" : "",
		"subpatcher_template" : "",
		"boxes" : [ 			{
				"box" : 				{
					"fontname" : "Arial",
					"fontsize" : 13.0,
					"id" : "obj-59",
					"linecount" : 2,
					"maxclass" : "comment",
					"numinlets" : 1,
					"numoutlets" : 0,
					"patching_rect" : [ 550.0, 182.0, 163.0, 36.0 ],
					"text" : "1. Turn on audio\n2. Load this file"
				}

			}
, 			{
				"box" : 				{
					"fontname" : "Arial",
					"fontsize" : 12.0,
					"id" : "obj-58",
					"maxclass" : "message",
					"numinlets" : 2,
					"numoutlets" : 1,
					"outlettype" : [ "" ],
					"patching_rect" : [ 548.0, 223.0, 203.0, 22.0 ],
					"text" : "replace ./examples/sounds/anton.aif"
				}

			}
, 			{
				"box" : 				{
					"fontname" : "Arial",
					"fontsize" : 12.0,
					"id" : "obj-51",
					"maxclass" : "newobj",
					"numinlets" : 1,
					"numoutlets" : 9,
					"outlettype" : [ "float", "list", "float", "float", "float", "float", "float", "", "int" ],
					"patching_rect" : [ 612.0, 277.0, 113.5, 22.0 ],
					"text" : "info~ jimmy"
				}

			}
, 			{
				"box" : 				{
					"fontname" : "Arial",
					"fontsize" : 12.0,
					"id" : "obj-50",
					"maxclass" : "newobj",
					"numinlets" : 1,
					"numoutlets" : 2,
					"outlettype" : [ "float", "bang" ],
					"patching_rect" : [ 548.0, 250.0, 83.0, 22.0 ],
					"text" : "buffer~ jimmy"
				}

			}
, 			{
				"box" : 				{
					"fontname" : "Arial",
					"fontsize" : 12.0,
					"hidden" : 1,
					"id" : "obj-49",
					"maxclass" : "newobj",
					"numinlets" : 1,
					"numoutlets" : 1,
					"outlettype" : [ "" ],
					"patching_rect" : [ 215.0, 428.0, 85.0, 22.0 ],
					"text" : "loadmess 220"
				}

			}
, 			{
				"box" : 				{
					"fontname" : "Arial",
					"fontsize" : 11.0,
					"id" : "obj-48",
					"linecount" : 2,
					"maxclass" : "comment",
					"numinlets" : 1,
					"numoutlets" : 0,
					"patching_rect" : [ 310.0, 440.0, 57.0, 31.0 ],
					"text" : "fade time\nfadeouts"
				}

			}
, 			{
				"box" : 				{
					"fontname" : "Arial",
					"fontsize" : 11.0,
					"id" : "obj-44",
					"linecount" : 2,
					"maxclass" : "comment",
					"numinlets" : 1,
					"numoutlets" : 0,
					"patching_rect" : [ 255.0, 388.0, 57.0, 31.0 ],
					"text" : "fade time\nducking"
				}

			}
, 			{
				"box" : 				{
					"fontname" : "Arial",
					"fontsize" : 12.0,
					"id" : "obj-43",
					"linecount" : 3,
					"maxclass" : "comment",
					"numinlets" : 1,
					"numoutlets" : 0,
					"patching_rect" : [ 412.0, 447.0, 346.0, 47.0 ],
					"text" : "fade time in samples for fadeouts caused by stopping the file \nmidway during playback (def: 220) - about 5ms at 44.1khz\nSetting it to 0 will eliminate fadeouts. (which could create clicks)"
				}

			}
, 			{
				"box" : 				{
					"fontname" : "Arial",
					"fontsize" : 12.0,
					"id" : "obj-42",
					"linecount" : 3,
					"maxclass" : "comment",
					"numinlets" : 1,
					"numoutlets" : 0,
					"patching_rect" : [ 354.0, 396.0, 369.0, 47.0 ],
					"text" : "fade time in samples for ducking (def: 220) - about 5ms at 44.1khz\nIf the ducking fade time is <= 0, the fadin will be 50% and the fadeout as well. This can be used to create a swell effect."
				}

			}
, 			{
				"box" : 				{
					"fontname" : "Arial",
					"fontsize" : 12.0,
					"hidden" : 1,
					"id" : "obj-40",
					"maxclass" : "newobj",
					"numinlets" : 1,
					"numoutlets" : 1,
					"outlettype" : [ "" ],
					"patching_rect" : [ 40.0, 290.0, 72.0, 22.0 ],
					"text" : "loadmess 1"
				}

			}
, 			{
				"box" : 				{
					"fontname" : "Arial",
					"fontsize" : 11.0,
					"id" : "obj-34",
					"linecount" : 3,
					"maxclass" : "comment",
					"numinlets" : 1,
					"numoutlets" : 0,
					"patching_rect" : [ 191.0, 152.0, 238.0, 43.0 ],
					"text" : "Loops with silence between loops. The silence time is randomly chosen from the list. A new time is generate after each play."
				}

			}
, 			{
				"box" : 				{
					"fontname" : "Arial",
					"fontsize" : 11.0,
					"id" : "obj-33",
					"maxclass" : "comment",
					"numinlets" : 1,
					"numoutlets" : 0,
					"patching_rect" : [ 99.0, 132.0, 229.0, 19.0 ],
					"text" : "Loops with 500 ms silence between loops."
				}

			}
, 			{
				"box" : 				{
					"fontname" : "Arial",
					"fontsize" : 12.0,
					"id" : "obj-31",
					"maxclass" : "message",
					"numinlets" : 2,
					"numoutlets" : 1,
					"outlettype" : [ "" ],
					"patching_rect" : [ 40.0, 133.0, 57.0, 22.0 ],
					"text" : "loop 500"
				}

			}
, 			{
				"box" : 				{
					"fontname" : "Arial",
					"fontsize" : 12.0,
					"id" : "obj-29",
					"maxclass" : "message",
					"numinlets" : 2,
					"numoutlets" : 1,
					"outlettype" : [ "" ],
					"patching_rect" : [ 40.0, 161.0, 150.0, 22.0 ],
					"text" : "loop 250 500 2000 100 10"
				}

			}
, 			{
				"box" : 				{
					"id" : "obj-20",
					"maxclass" : "toggle",
					"numinlets" : 1,
					"numoutlets" : 1,
					"outlettype" : [ "int" ],
					"parameter_enable" : 0,
					"patching_rect" : [ 144.0, 75.0, 20.0, 20.0 ]
				}

			}
, 			{
				"box" : 				{
					"fontname" : "Arial",
					"fontsize" : 11.595186999999999,
					"id" : "obj-21",
					"maxclass" : "message",
					"numinlets" : 2,
					"numoutlets" : 1,
					"outlettype" : [ "" ],
					"patching_rect" : [ 144.0, 101.0, 78.0, 21.0 ],
					"text" : "loopinterp $1"
				}

			}
, 			{
				"box" : 				{
					"fontname" : "Arial",
					"fontsize" : 11.0,
					"id" : "obj-55",
					"maxclass" : "comment",
					"numinlets" : 1,
					"numoutlets" : 0,
					"patching_rect" : [ 166.0, 75.0, 192.0, 19.0 ],
					"text" : "turn interpolation at loop points on/off"
				}

			}
, 			{
				"box" : 				{
					"fontname" : "Arial",
					"fontsize" : 11.595186999999999,
					"id" : "obj-19",
					"maxclass" : "message",
					"numinlets" : 2,
					"numoutlets" : 1,
					"outlettype" : [ "" ],
					"patching_rect" : [ 227.0, 101.0, 65.0, 21.0 ],
					"text" : "set abuffer"
				}

			}
, 			{
				"box" : 				{
					"fontname" : "Arial",
					"fontsize" : 11.0,
					"id" : "obj-9",
					"maxclass" : "comment",
					"numinlets" : 1,
					"numoutlets" : 0,
					"patching_rect" : [ 676.0, 104.0, 64.0, 19.0 ],
					"text" : "p.fade~"
				}

			}
, 			{
				"box" : 				{
					"fontname" : "Arial",
					"fontsize" : 11.0,
					"id" : "obj-22",
					"maxclass" : "comment",
					"numinlets" : 1,
					"numoutlets" : 0,
					"patching_rect" : [ 665.0, 85.0, 71.0, 19.0 ],
					"text" : "p.parabola~"
				}

			}
, 			{
				"box" : 				{
					"fontname" : "Arial",
					"fontsize" : 11.0,
					"id" : "obj-11",
					"maxclass" : "comment",
					"numinlets" : 1,
					"numoutlets" : 0,
					"patching_rect" : [ 676.0, 142.0, 54.0, 19.0 ],
					"text" : "p.rand"
				}

			}
, 			{
				"box" : 				{
					"fontname" : "Arial",
					"fontsize" : 11.0,
					"id" : "obj-16",
					"maxclass" : "comment",
					"numinlets" : 1,
					"numoutlets" : 0,
					"patching_rect" : [ 676.0, 123.0, 54.0, 19.0 ],
					"text" : "p.block"
				}

			}
, 			{
				"box" : 				{
					"fontname" : "Arial",
					"fontsize" : 12.0,
					"id" : "obj-5",
					"maxclass" : "number",
					"numinlets" : 1,
					"numoutlets" : 2,
					"outlettype" : [ "", "bang" ],
					"parameter_enable" : 0,
					"patching_rect" : [ 358.0, 454.0, 50.0, 22.0 ]
				}

			}
, 			{
				"box" : 				{
					"fontname" : "Arial",
					"fontsize" : 12.0,
					"id" : "obj-4",
					"maxclass" : "number",
					"numinlets" : 1,
					"numoutlets" : 2,
					"outlettype" : [ "", "bang" ],
					"parameter_enable" : 0,
					"patching_rect" : [ 301.0, 402.0, 50.0, 22.0 ]
				}

			}
, 			{
				"box" : 				{
					"fontface" : 0,
					"fontname" : "Arial",
					"fontsize" : 12.0,
					"id" : "obj-3",
					"maxclass" : "number~",
					"mode" : 2,
					"numinlets" : 2,
					"numoutlets" : 2,
					"outlettype" : [ "signal", "float" ],
					"patching_rect" : [ 243.0, 509.0, 56.0, 22.0 ],
					"sig" : 0.0
				}

			}
, 			{
				"box" : 				{
					"fontname" : "Arial",
					"fontsize" : 11.0,
					"id" : "obj-64",
					"maxclass" : "comment",
					"numinlets" : 1,
					"numoutlets" : 0,
					"patching_rect" : [ 644.0, 0.0, 129.0, 19.0 ],
					"text" : "see p.playboy~ for mono"
				}

			}
, 			{
				"box" : 				{
					"fontname" : "Arial",
					"fontsize" : 11.0,
					"id" : "obj-57",
					"linecount" : 4,
					"maxclass" : "comment",
					"numinlets" : 1,
					"numoutlets" : 0,
					"patching_rect" : [ 316.0, 335.0, 300.0, 56.0 ],
					"text" : "Start and end times permit you to choose a particular slice of the file to play. End time is required, cannot be zero, and must be greater than the start time; or else the object will generate an error in the Max window."
				}

			}
, 			{
				"box" : 				{
					"fontname" : "Arial",
					"fontsize" : 11.0,
					"id" : "obj-56",
					"linecount" : 5,
					"maxclass" : "comment",
					"numinlets" : 1,
					"numoutlets" : 0,
					"patching_rect" : [ 203.0, 258.0, 308.0, 68.0 ],
					"text" : "The percentage to play between the start time and end time. This slice is chosen randomly. Ex: If start time is 0 and end time is the file length, 0.1 would play a random 10% part of the file.\nThe default is 1. which plays 100% of the file."
				}

			}
, 			{
				"box" : 				{
					"fontname" : "Arial",
					"fontsize" : 11.0,
					"id" : "obj-54",
					"linecount" : 4,
					"maxclass" : "comment",
					"numinlets" : 1,
					"numoutlets" : 0,
					"patching_rect" : [ 141.0, 199.0, 186.0, 56.0 ],
					"text" : "1. normal speed\n0.5 half speed\n2. twice the speed\n-3. thrice the speed and backwards"
				}

			}
, 			{
				"box" : 				{
					"id" : "obj-47",
					"maxclass" : "toggle",
					"numinlets" : 1,
					"numoutlets" : 1,
					"outlettype" : [ "int" ],
					"parameter_enable" : 0,
					"patching_rect" : [ 358.0, 509.0, 20.0, 20.0 ]
				}

			}
, 			{
				"box" : 				{
					"id" : "obj-46",
					"maxclass" : "toggle",
					"numinlets" : 1,
					"numoutlets" : 1,
					"outlettype" : [ "int" ],
					"parameter_enable" : 0,
					"patching_rect" : [ 90.0, 75.0, 20.0, 20.0 ]
				}

			}
, 			{
				"box" : 				{
					"fontname" : "Arial",
					"fontsize" : 12.0,
					"id" : "obj-45",
					"maxclass" : "message",
					"numinlets" : 2,
					"numoutlets" : 1,
					"outlettype" : [ "" ],
					"patching_rect" : [ 90.0, 101.0, 50.0, 22.0 ],
					"text" : "loop $1"
				}

			}
, 			{
				"box" : 				{
					"fontname" : "Arial",
					"fontsize" : 11.0,
					"id" : "obj-35",
					"maxclass" : "comment",
					"numinlets" : 1,
					"numoutlets" : 0,
					"patching_rect" : [ 660.0, 66.0, 80.0, 19.0 ],
					"text" : "dependencies "
				}

			}
, 			{
				"box" : 				{
					"fontface" : 3,
					"fontname" : "Arial",
					"fontsize" : 20.899994,
					"id" : "obj-37",
					"maxclass" : "comment",
					"numinlets" : 1,
					"numoutlets" : 0,
					"patching_rect" : [ 8.0, 4.0, 149.0, 30.0 ],
					"text" : "p.playboy2~",
					"varname" : "autohelp_top_title[1]"
				}

			}
, 			{
				"box" : 				{
					"fontname" : "Arial",
					"fontsize" : 12.754705,
					"id" : "obj-38",
					"maxclass" : "comment",
					"numinlets" : 1,
					"numoutlets" : 0,
					"patching_rect" : [ 8.0, 33.0, 374.0, 21.0 ],
					"text" : "A powerful stereophonic file player based on the groove~ object.",
					"varname" : "autohelp_top_digest[1]"
				}

			}
, 			{
				"box" : 				{
					"angle" : 270.0,
					"bgcolor" : [ 0.992156862745098, 0.894117647058824, 0.643137254901961, 1.0 ],
					"id" : "obj-39",
					"maxclass" : "panel",
					"mode" : 0,
					"numinlets" : 1,
					"numoutlets" : 0,
					"patching_rect" : [ 0.0, 0.0, 773.0, 60.0 ],
					"proportion" : 0.5,
					"rounded" : 0
				}

			}
, 			{
				"box" : 				{
					"angle" : 0.0,
					"bgcolor" : [ 0.901961, 0.901961, 0.901961, 1.0 ],
					"id" : "obj-41",
					"maxclass" : "panel",
					"mode" : 0,
					"numinlets" : 1,
					"numoutlets" : 0,
					"patching_rect" : [ 654.0, 40.0, 91.0, 126.0 ],
					"rounded" : 20
				}

			}
, 			{
				"box" : 				{
					"fontname" : "Arial",
					"fontsize" : 11.0,
					"id" : "obj-15",
					"linecount" : 4,
					"maxclass" : "comment",
					"numinlets" : 1,
					"numoutlets" : 0,
					"patching_rect" : [ 65.0, 518.0, 326.0, 56.0 ],
					"text" : "args\n1) namespace (required)\n2) fade time in samples for ducking (optional) (def: 220)\n3) fade time in samples for fadeouts (optional) (def: 220)"
				}

			}
, 			{
				"box" : 				{
					"fontname" : "Arial",
					"fontsize" : 11.0,
					"id" : "obj-14",
					"maxclass" : "comment",
					"numinlets" : 1,
					"numoutlets" : 0,
					"patching_rect" : [ 109.0, 280.0, 40.0, 19.0 ],
					"text" : "%"
				}

			}
, 			{
				"box" : 				{
					"fontname" : "Arial",
					"fontsize" : 12.0,
					"format" : 6,
					"id" : "obj-6",
					"maxclass" : "flonum",
					"maximum" : 1.0,
					"minimum" : 0.0,
					"numinlets" : 1,
					"numoutlets" : 2,
					"outlettype" : [ "", "bang" ],
					"parameter_enable" : 0,
					"patching_rect" : [ 128.0, 280.0, 67.0, 22.0 ]
				}

			}
, 			{
				"box" : 				{
					"fontname" : "Arial",
					"fontsize" : 12.0,
					"format" : 6,
					"id" : "obj-2",
					"maxclass" : "flonum",
					"numinlets" : 1,
					"numoutlets" : 2,
					"outlettype" : [ "", "bang" ],
					"parameter_enable" : 0,
					"patching_rect" : [ 71.0, 223.0, 67.0, 22.0 ]
				}

			}
, 			{
				"box" : 				{
					"fontname" : "Arial",
					"fontsize" : 11.0,
					"id" : "obj-32",
					"maxclass" : "comment",
					"numinlets" : 1,
					"numoutlets" : 0,
					"patching_rect" : [ 14.0, 78.0, 63.0, 19.0 ],
					"text" : "commands"
				}

			}
, 			{
				"box" : 				{
					"fontname" : "Arial",
					"fontsize" : 11.0,
					"id" : "obj-30",
					"maxclass" : "comment",
					"numinlets" : 1,
					"numoutlets" : 0,
					"patching_rect" : [ 297.0, 509.0, 53.0, 19.0 ],
					"text" : "loopsync"
				}

			}
, 			{
				"box" : 				{
					"fontname" : "Arial",
					"fontsize" : 11.0,
					"id" : "obj-28",
					"maxclass" : "comment",
					"numinlets" : 1,
					"numoutlets" : 0,
					"patching_rect" : [ 379.0, 509.0, 58.0, 19.0 ],
					"text" : "play state"
				}

			}
, 			{
				"box" : 				{
					"fontname" : "Arial",
					"fontsize" : 11.0,
					"id" : "obj-27",
					"maxclass" : "comment",
					"numinlets" : 1,
					"numoutlets" : 0,
					"patching_rect" : [ 194.0, 361.0, 57.0, 19.0 ],
					"text" : "end time"
				}

			}
, 			{
				"box" : 				{
					"fontname" : "Arial",
					"fontsize" : 11.0,
					"id" : "obj-26",
					"maxclass" : "comment",
					"numinlets" : 1,
					"numoutlets" : 0,
					"patching_rect" : [ 135.0, 335.0, 54.0, 19.0 ],
					"text" : "start time"
				}

			}
, 			{
				"box" : 				{
					"fontname" : "Arial",
					"fontsize" : 11.0,
					"id" : "obj-25",
					"maxclass" : "comment",
					"numinlets" : 1,
					"numoutlets" : 0,
					"patching_rect" : [ 32.0, 223.0, 39.0, 19.0 ],
					"text" : "speed"
				}

			}
, 			{
				"box" : 				{
					"fontname" : "Arial",
					"fontsize" : 12.0,
					"id" : "obj-24",
					"maxclass" : "message",
					"numinlets" : 2,
					"numoutlets" : 1,
					"outlettype" : [ "" ],
					"patching_rect" : [ 51.0, 101.0, 33.0, 22.0 ],
					"text" : "stop"
				}

			}
, 			{
				"box" : 				{
					"fontname" : "Arial",
					"fontsize" : 12.0,
					"id" : "obj-23",
					"maxclass" : "message",
					"numinlets" : 2,
					"numoutlets" : 1,
					"outlettype" : [ "" ],
					"patching_rect" : [ 14.0, 101.0, 33.0, 22.0 ],
					"text" : "play"
				}

			}
, 			{
				"box" : 				{
					"fontname" : "Arial",
					"fontsize" : 12.0,
					"format" : 6,
					"id" : "obj-18",
					"maxclass" : "flonum",
					"minimum" : 0.0,
					"numinlets" : 1,
					"numoutlets" : 2,
					"outlettype" : [ "", "bang" ],
					"parameter_enable" : 0,
					"patching_rect" : [ 186.0, 335.0, 62.0, 22.0 ]
				}

			}
, 			{
				"box" : 				{
					"fontname" : "Arial",
					"fontsize" : 12.0,
					"format" : 6,
					"id" : "obj-8",
					"maxclass" : "flonum",
					"minimum" : 0.0,
					"numinlets" : 1,
					"numoutlets" : 2,
					"outlettype" : [ "", "bang" ],
					"parameter_enable" : 0,
					"patching_rect" : [ 243.0, 361.0, 67.0, 22.0 ]
				}

			}
, 			{
				"box" : 				{
					"hidden" : 1,
					"id" : "obj-7",
					"maxclass" : "button",
					"numinlets" : 1,
					"numoutlets" : 1,
					"outlettype" : [ "bang" ],
					"parameter_enable" : 0,
					"patching_rect" : [ 524.0, 506.0, 20.0, 20.0 ]
				}

			}
, 			{
				"box" : 				{
					"fontname" : "Arial",
					"fontsize" : 12.0,
					"hidden" : 1,
					"id" : "obj-10",
					"maxclass" : "newobj",
					"numinlets" : 1,
					"numoutlets" : 1,
					"outlettype" : [ "" ],
					"patching_rect" : [ 524.0, 554.0, 53.0, 22.0 ],
					"text" : "pcontrol"
				}

			}
, 			{
				"box" : 				{
					"fontname" : "Arial",
					"fontsize" : 12.0,
					"hidden" : 1,
					"id" : "obj-12",
					"maxclass" : "message",
					"numinlets" : 2,
					"numoutlets" : 1,
					"outlettype" : [ "" ],
					"patching_rect" : [ 524.0, 532.0, 118.0, 22.0 ],
					"text" : "help p.objects-guide"
				}

			}
, 			{
				"box" : 				{
					"fontname" : "Arial",
					"fontsize" : 12.0,
					"id" : "obj-13",
					"maxclass" : "message",
					"numinlets" : 2,
					"numoutlets" : 1,
					"outlettype" : [ "" ],
					"patching_rect" : [ 668.0, 555.0, 92.0, 22.0 ],
					"text" : "p.objects guide"
				}

			}
, 			{
				"box" : 				{
					"id" : "obj-1",
					"maxclass" : "ezdac~",
					"numinlets" : 2,
					"numoutlets" : 0,
					"patching_rect" : [ 13.0, 524.0, 45.0, 45.0 ]
				}

			}
, 			{
				"box" : 				{
					"color" : [ 0.239216, 0.643137, 0.709804, 1.0 ],
					"fontname" : "Arial",
					"fontsize" : 12.0,
					"id" : "obj-17",
					"maxclass" : "newobj",
					"numinlets" : 7,
					"numoutlets" : 4,
					"outlettype" : [ "signal", "signal", "signal", "int" ],
					"patching_rect" : [ 13.0, 482.0, 364.0, 22.0 ],
					"text" : "p.playboy2~ jimmy 200 200"
				}

			}
 ],
		"lines" : [ 			{
				"patchline" : 				{
					"destination" : [ "obj-10", 0 ],
					"hidden" : 1,
					"source" : [ "obj-12", 0 ]
				}

			}
, 			{
				"patchline" : 				{
					"destination" : [ "obj-7", 0 ],
					"hidden" : 1,
					"source" : [ "obj-13", 0 ]
				}

			}
, 			{
				"patchline" : 				{
					"destination" : [ "obj-1", 1 ],
					"midpoints" : [ 137.5, 510.0, 48.5, 510.0 ],
					"source" : [ "obj-17", 1 ]
				}

			}
, 			{
				"patchline" : 				{
					"destination" : [ "obj-1", 0 ],
					"source" : [ "obj-17", 0 ]
				}

			}
, 			{
				"patchline" : 				{
					"destination" : [ "obj-3", 0 ],
					"source" : [ "obj-17", 2 ]
				}

			}
, 			{
				"patchline" : 				{
					"destination" : [ "obj-47", 0 ],
					"source" : [ "obj-17", 3 ]
				}

			}
, 			{
				"patchline" : 				{
					"destination" : [ "obj-17", 3 ],
					"source" : [ "obj-18", 0 ]
				}

			}
, 			{
				"patchline" : 				{
					"destination" : [ "obj-17", 0 ],
					"midpoints" : [ 236.5, 124.0, 22.5, 124.0 ],
					"source" : [ "obj-19", 0 ]
				}

			}
, 			{
				"patchline" : 				{
					"destination" : [ "obj-17", 1 ],
					"source" : [ "obj-2", 0 ]
				}

			}
, 			{
				"patchline" : 				{
					"destination" : [ "obj-21", 0 ],
					"source" : [ "obj-20", 0 ]
				}

			}
, 			{
				"patchline" : 				{
					"destination" : [ "obj-17", 0 ],
					"midpoints" : [ 153.5, 124.0, 22.5, 124.0 ],
					"source" : [ "obj-21", 0 ]
				}

			}
, 			{
				"patchline" : 				{
					"destination" : [ "obj-17", 0 ],
					"midpoints" : [ 23.5, 124.0, 22.5, 124.0 ],
					"source" : [ "obj-23", 0 ]
				}

			}
, 			{
				"patchline" : 				{
					"destination" : [ "obj-17", 0 ],
					"midpoints" : [ 60.5, 124.0, 22.5, 124.0 ],
					"source" : [ "obj-24", 0 ]
				}

			}
, 			{
				"patchline" : 				{
					"destination" : [ "obj-17", 0 ],
					"midpoints" : [ 49.5, 184.5, 22.5, 184.5 ],
					"source" : [ "obj-29", 0 ]
				}

			}
, 			{
				"patchline" : 				{
					"destination" : [ "obj-17", 0 ],
					"midpoints" : [ 49.5, 155.5, 22.5, 155.5 ],
					"source" : [ "obj-31", 0 ]
				}

			}
, 			{
				"patchline" : 				{
					"destination" : [ "obj-17", 5 ],
					"source" : [ "obj-4", 0 ]
				}

			}
, 			{
				"patchline" : 				{
					"destination" : [ "obj-2", 0 ],
					"hidden" : 1,
					"order" : 1,
					"source" : [ "obj-40", 0 ]
				}

			}
, 			{
				"patchline" : 				{
					"destination" : [ "obj-6", 0 ],
					"hidden" : 1,
					"order" : 0,
					"source" : [ "obj-40", 0 ]
				}

			}
, 			{
				"patchline" : 				{
					"destination" : [ "obj-17", 0 ],
					"midpoints" : [ 99.5, 124.0, 22.5, 124.0 ],
					"source" : [ "obj-45", 0 ]
				}

			}
, 			{
				"patchline" : 				{
					"destination" : [ "obj-45", 0 ],
					"source" : [ "obj-46", 0 ]
				}

			}
, 			{
				"patchline" : 				{
					"destination" : [ "obj-4", 0 ],
					"hidden" : 1,
					"order" : 1,
					"source" : [ "obj-49", 0 ]
				}

			}
, 			{
				"patchline" : 				{
					"destination" : [ "obj-5", 0 ],
					"hidden" : 1,
					"order" : 0,
					"source" : [ "obj-49", 0 ]
				}

			}
, 			{
				"patchline" : 				{
					"destination" : [ "obj-17", 6 ],
					"source" : [ "obj-5", 0 ]
				}

			}
, 			{
				"patchline" : 				{
					"destination" : [ "obj-51", 0 ],
					"source" : [ "obj-50", 1 ]
				}

			}
, 			{
				"patchline" : 				{
					"destination" : [ "obj-8", 0 ],
					"midpoints" : [ 692.375, 333.5, 252.5, 333.5 ],
					"source" : [ "obj-51", 6 ]
				}

			}
, 			{
				"patchline" : 				{
					"destination" : [ "obj-50", 0 ],
					"source" : [ "obj-58", 0 ]
				}

			}
, 			{
				"patchline" : 				{
					"destination" : [ "obj-17", 2 ],
					"source" : [ "obj-6", 0 ]
				}

			}
, 			{
				"patchline" : 				{
					"destination" : [ "obj-12", 0 ],
					"hidden" : 1,
					"source" : [ "obj-7", 0 ]
				}

			}
, 			{
				"patchline" : 				{
					"destination" : [ "obj-17", 4 ],
					"source" : [ "obj-8", 0 ]
				}

			}
 ],
		"dependency_cache" : [ 			{
				"name" : "p.playboy2~.maxpat",
				"bootpath" : "~/Documents/Repos/p.objects/p.objects-abstractions/audio",
				"patcherrelativepath" : "../../p.objects-abstractions/audio",
				"type" : "JSON",
				"implicit" : 1
			}
, 			{
				"name" : "p.fade~.maxpat",
				"bootpath" : "~/Documents/Repos/p.objects/p.objects-abstractions/audio",
				"patcherrelativepath" : "../../p.objects-abstractions/audio",
				"type" : "JSON",
				"implicit" : 1
			}
, 			{
				"name" : "p.block.maxpat",
				"bootpath" : "~/Documents/Repos/p.objects/p.objects-abstractions/utilities",
				"patcherrelativepath" : "../../p.objects-abstractions/utilities",
				"type" : "JSON",
				"implicit" : 1
			}
, 			{
				"name" : "p.count.i.maxpat",
				"bootpath" : "~/Documents/Repos/p.objects/p.objects-abstractions/utilities",
				"patcherrelativepath" : "../../p.objects-abstractions/utilities",
				"type" : "JSON",
				"implicit" : 1
			}
, 			{
				"name" : "p.rand.maxpat",
				"bootpath" : "~/Documents/Repos/p.objects/p.objects-abstractions/utilities",
				"patcherrelativepath" : "../../p.objects-abstractions/utilities",
				"type" : "JSON",
				"implicit" : 1
			}
, 			{
				"name" : "p.parabola~.maxpat",
				"bootpath" : "~/Documents/Repos/p.objects/p.objects-abstractions/audio",
				"patcherrelativepath" : "../../p.objects-abstractions/audio",
				"type" : "JSON",
				"implicit" : 1
			}
 ],
		"autosave" : 0
	}

}
