{
	"patcher" : 	{
		"fileversion" : 1,
		"rect" : [ 511.0, 201.0, 523.0, 315.0 ],
		"bglocked" : 0,
		"defrect" : [ 511.0, 201.0, 523.0, 315.0 ],
		"openrect" : [ 0.0, 0.0, 0.0, 0.0 ],
		"openinpresentation" : 0,
		"default_fontsize" : 12.0,
		"default_fontface" : 0,
		"default_fontname" : "Arial",
		"gridonopen" : 0,
		"gridsize" : [ 15.0, 15.0 ],
		"gridsnaponopen" : 0,
		"toolbarvisible" : 1,
		"boxanimatetime" : 200,
		"imprint" : 0,
		"boxes" : [ 			{
				"box" : 				{
					"maxclass" : "comment",
					"text" : "arg:\n1) nametag (required)",
					"linecount" : 2,
					"fontname" : "Arial",
					"patching_rect" : [ 78.0, 268.0, 152.0, 34.0 ],
					"fontsize" : 12.0,
					"numinlets" : 1,
					"id" : "obj-15",
					"numoutlets" : 0
				}

			}
, 			{
				"box" : 				{
					"maxclass" : "comment",
					"text" : "%",
					"fontname" : "Arial",
					"patching_rect" : [ 155.0, 127.0, 42.0, 20.0 ],
					"fontsize" : 12.0,
					"numinlets" : 1,
					"id" : "obj-14",
					"numoutlets" : 0
				}

			}
, 			{
				"box" : 				{
					"maxclass" : "flonum",
					"outlettype" : [ "float", "bang" ],
					"fontname" : "Arial",
					"minimum" : 0.0,
					"patching_rect" : [ 153.0, 150.0, 67.0, 20.0 ],
					"fontsize" : 12.0,
					"maximum" : 1.0,
					"numinlets" : 1,
					"id" : "obj-6",
					"numoutlets" : 2
				}

			}
, 			{
				"box" : 				{
					"maxclass" : "flonum",
					"outlettype" : [ "float", "bang" ],
					"fontname" : "Arial",
					"patching_rect" : [ 84.0, 150.0, 67.0, 20.0 ],
					"fontsize" : 12.0,
					"numinlets" : 1,
					"id" : "obj-2",
					"numoutlets" : 2
				}

			}
, 			{
				"box" : 				{
					"maxclass" : "comment",
					"text" : "Note: p.play~ also accepts all messages for buffer~.",
					"fontname" : "Arial",
					"patching_rect" : [ 7.0, 59.0, 291.0, 20.0 ],
					"fontsize" : 12.0,
					"numinlets" : 1,
					"id" : "obj-33",
					"numoutlets" : 0
				}

			}
, 			{
				"box" : 				{
					"maxclass" : "comment",
					"text" : "commands",
					"fontname" : "Arial",
					"patching_rect" : [ 185.0, 93.0, 68.0, 20.0 ],
					"fontsize" : 12.0,
					"numinlets" : 1,
					"id" : "obj-32",
					"numoutlets" : 0
				}

			}
, 			{
				"box" : 				{
					"maxclass" : "comment",
					"text" : "signal",
					"fontname" : "Arial",
					"patching_rect" : [ 15.0, 250.0, 43.0, 20.0 ],
					"fontsize" : 12.0,
					"numinlets" : 1,
					"id" : "obj-31",
					"numoutlets" : 0
				}

			}
, 			{
				"box" : 				{
					"maxclass" : "comment",
					"text" : "file length (ms) /\nend of buffer~ read",
					"linecount" : 2,
					"fontname" : "Arial",
					"patching_rect" : [ 268.0, 231.0, 111.0, 34.0 ],
					"fontsize" : 12.0,
					"numinlets" : 1,
					"id" : "obj-30",
					"numoutlets" : 0
				}

			}
, 			{
				"box" : 				{
					"maxclass" : "button",
					"outlettype" : [ "bang" ],
					"patching_rect" : [ 130.0, 204.0, 20.0, 20.0 ],
					"numinlets" : 1,
					"id" : "obj-29",
					"numoutlets" : 1
				}

			}
, 			{
				"box" : 				{
					"maxclass" : "comment",
					"text" : "play state",
					"fontname" : "Arial",
					"patching_rect" : [ 128.0, 239.0, 62.0, 20.0 ],
					"fontsize" : 12.0,
					"numinlets" : 1,
					"id" : "obj-28",
					"numoutlets" : 0
				}

			}
, 			{
				"box" : 				{
					"maxclass" : "comment",
					"text" : "end time",
					"fontname" : "Arial",
					"patching_rect" : [ 293.0, 127.0, 61.0, 20.0 ],
					"fontsize" : 12.0,
					"numinlets" : 1,
					"id" : "obj-27",
					"numoutlets" : 0
				}

			}
, 			{
				"box" : 				{
					"maxclass" : "comment",
					"text" : "start time",
					"fontname" : "Arial",
					"patching_rect" : [ 224.0, 127.0, 58.0, 20.0 ],
					"fontsize" : 12.0,
					"numinlets" : 1,
					"id" : "obj-26",
					"numoutlets" : 0
				}

			}
, 			{
				"box" : 				{
					"maxclass" : "comment",
					"text" : "speed",
					"fontname" : "Arial",
					"patching_rect" : [ 89.0, 127.0, 42.0, 20.0 ],
					"fontsize" : 12.0,
					"numinlets" : 1,
					"id" : "obj-25",
					"numoutlets" : 0
				}

			}
, 			{
				"box" : 				{
					"maxclass" : "message",
					"text" : "stop",
					"outlettype" : [ "" ],
					"fontname" : "Arial",
					"patching_rect" : [ 147.0, 94.0, 33.0, 18.0 ],
					"fontsize" : 12.0,
					"numinlets" : 2,
					"id" : "obj-24",
					"numoutlets" : 1
				}

			}
, 			{
				"box" : 				{
					"maxclass" : "message",
					"text" : "play",
					"outlettype" : [ "" ],
					"fontname" : "Arial",
					"patching_rect" : [ 110.0, 94.0, 33.0, 18.0 ],
					"fontsize" : 12.0,
					"numinlets" : 2,
					"id" : "obj-23",
					"numoutlets" : 1
				}

			}
, 			{
				"box" : 				{
					"maxclass" : "message",
					"text" : "replace",
					"outlettype" : [ "" ],
					"fontname" : "Arial",
					"patching_rect" : [ 15.0, 94.0, 50.0, 18.0 ],
					"fontsize" : 12.0,
					"numinlets" : 2,
					"id" : "obj-22",
					"numoutlets" : 1
				}

			}
, 			{
				"box" : 				{
					"maxclass" : "message",
					"text" : "read",
					"outlettype" : [ "" ],
					"fontname" : "Arial",
					"patching_rect" : [ 70.0, 93.0, 35.0, 18.0 ],
					"fontsize" : 12.0,
					"numinlets" : 2,
					"id" : "obj-20",
					"numoutlets" : 1
				}

			}
, 			{
				"box" : 				{
					"maxclass" : "flonum",
					"outlettype" : [ "float", "bang" ],
					"fontname" : "Arial",
					"minimum" : 0.0,
					"patching_rect" : [ 222.0, 150.0, 67.0, 20.0 ],
					"fontsize" : 12.0,
					"numinlets" : 1,
					"id" : "obj-18",
					"numoutlets" : 2
				}

			}
, 			{
				"box" : 				{
					"maxclass" : "flonum",
					"outlettype" : [ "float", "bang" ],
					"fontname" : "Arial",
					"minimum" : 0.0,
					"patching_rect" : [ 291.0, 150.0, 67.0, 20.0 ],
					"fontsize" : 12.0,
					"numinlets" : 1,
					"id" : "obj-8",
					"numoutlets" : 2
				}

			}
, 			{
				"box" : 				{
					"maxclass" : "button",
					"outlettype" : [ "bang" ],
					"patching_rect" : [ 267.0, 204.0, 20.0, 20.0 ],
					"numinlets" : 1,
					"id" : "obj-5",
					"numoutlets" : 1
				}

			}
, 			{
				"box" : 				{
					"maxclass" : "flonum",
					"outlettype" : [ "float", "bang" ],
					"fontname" : "Arial",
					"patching_rect" : [ 291.0, 204.0, 50.0, 20.0 ],
					"fontsize" : 12.0,
					"numinlets" : 1,
					"id" : "obj-4",
					"numoutlets" : 2
				}

			}
, 			{
				"box" : 				{
					"maxclass" : "toggle",
					"outlettype" : [ "int" ],
					"patching_rect" : [ 153.0, 204.0, 33.0, 33.0 ],
					"numinlets" : 1,
					"id" : "obj-3",
					"numoutlets" : 1
				}

			}
, 			{
				"box" : 				{
					"maxclass" : "button",
					"outlettype" : [ "bang" ],
					"hidden" : 1,
					"patching_rect" : [ 389.0, 204.0, 20.0, 20.0 ],
					"numinlets" : 1,
					"id" : "obj-7",
					"numoutlets" : 1
				}

			}
, 			{
				"box" : 				{
					"maxclass" : "newobj",
					"text" : "pcontrol",
					"outlettype" : [ "" ],
					"fontname" : "Arial",
					"hidden" : 1,
					"patching_rect" : [ 389.0, 252.0, 53.0, 20.0 ],
					"fontsize" : 12.0,
					"numinlets" : 1,
					"id" : "obj-10",
					"numoutlets" : 1
				}

			}
, 			{
				"box" : 				{
					"maxclass" : "message",
					"text" : "help p.objects-guide",
					"outlettype" : [ "" ],
					"fontname" : "Arial",
					"hidden" : 1,
					"patching_rect" : [ 389.0, 230.0, 118.0, 18.0 ],
					"fontsize" : 12.0,
					"numinlets" : 2,
					"id" : "obj-12",
					"numoutlets" : 1
				}

			}
, 			{
				"box" : 				{
					"maxclass" : "message",
					"text" : "p.objects guide",
					"outlettype" : [ "" ],
					"fontname" : "Arial",
					"patching_rect" : [ 417.0, 282.0, 92.0, 18.0 ],
					"fontsize" : 12.0,
					"numinlets" : 2,
					"id" : "obj-13",
					"numoutlets" : 1
				}

			}
, 			{
				"box" : 				{
					"maxclass" : "ezdac~",
					"patching_rect" : [ 15.0, 203.0, 45.0, 45.0 ],
					"numinlets" : 2,
					"id" : "obj-1",
					"numoutlets" : 0
				}

			}
, 			{
				"box" : 				{
					"maxclass" : "comment",
					"text" : "dependencies: \n- p.block\n- p.envparabola~",
					"linecount" : 3,
					"fontname" : "Arial",
					"patching_rect" : [ 418.0, 57.0, 100.0, 48.0 ],
					"fontsize" : 12.0,
					"numinlets" : 1,
					"id" : "obj-21",
					"numoutlets" : 0
				}

			}
, 			{
				"box" : 				{
					"maxclass" : "newobj",
					"text" : "p.play~ name",
					"outlettype" : [ "signal", "", "float" ],
					"fontname" : "Arial",
					"patching_rect" : [ 15.0, 175.0, 295.0, 20.0 ],
					"fontsize" : 12.0,
					"numinlets" : 5,
					"id" : "obj-17",
					"numoutlets" : 3
				}

			}
, 			{
				"box" : 				{
					"maxclass" : "comment",
					"varname" : "autohelp_top_title",
					"text" : "p.play~",
					"fontname" : "Arial",
					"frgb" : [ 0.93, 0.93, 0.97, 1.0 ],
					"textcolor" : [ 0.93, 0.93, 0.97, 1.0 ],
					"patching_rect" : [ 8.0, 9.0, 249.0, 30.0 ],
					"fontface" : 3,
					"fontsize" : 20.871338,
					"numinlets" : 1,
					"id" : "obj-9",
					"numoutlets" : 0
				}

			}
, 			{
				"box" : 				{
					"maxclass" : "comment",
					"varname" : "autohelp_top_digest",
					"text" : "Monophonic audio file player.",
					"fontname" : "Arial",
					"frgb" : [ 0.93, 0.93, 0.97, 1.0 ],
					"textcolor" : [ 0.93, 0.93, 0.97, 1.0 ],
					"patching_rect" : [ 7.0, 36.0, 244.0, 21.0 ],
					"fontsize" : 12.754705,
					"numinlets" : 1,
					"id" : "obj-11",
					"numoutlets" : 0
				}

			}
, 			{
				"box" : 				{
					"maxclass" : "panel",
					"varname" : "autohelp_top_panel",
					"mode" : 1,
					"patching_rect" : [ 4.0, 5.0, 514.0, 50.0 ],
					"numinlets" : 1,
					"id" : "obj-16",
					"background" : 1,
					"grad1" : [ 0.27, 0.35, 0.47, 1.0 ],
					"numoutlets" : 0,
					"grad2" : [ 0.85, 0.85, 0.85, 1.0 ]
				}

			}
 ],
		"lines" : [ 			{
				"patchline" : 				{
					"source" : [ "obj-12", 0 ],
					"destination" : [ "obj-10", 0 ],
					"hidden" : 1,
					"midpoints" : [  ]
				}

			}
, 			{
				"patchline" : 				{
					"source" : [ "obj-7", 0 ],
					"destination" : [ "obj-12", 0 ],
					"hidden" : 1,
					"midpoints" : [  ]
				}

			}
, 			{
				"patchline" : 				{
					"source" : [ "obj-13", 0 ],
					"destination" : [ "obj-7", 0 ],
					"hidden" : 1,
					"midpoints" : [  ]
				}

			}
, 			{
				"patchline" : 				{
					"source" : [ "obj-17", 0 ],
					"destination" : [ "obj-1", 0 ],
					"hidden" : 0,
					"midpoints" : [  ]
				}

			}
, 			{
				"patchline" : 				{
					"source" : [ "obj-17", 1 ],
					"destination" : [ "obj-3", 0 ],
					"hidden" : 0,
					"midpoints" : [  ]
				}

			}
, 			{
				"patchline" : 				{
					"source" : [ "obj-17", 2 ],
					"destination" : [ "obj-4", 0 ],
					"hidden" : 0,
					"midpoints" : [  ]
				}

			}
, 			{
				"patchline" : 				{
					"source" : [ "obj-17", 2 ],
					"destination" : [ "obj-5", 0 ],
					"hidden" : 0,
					"midpoints" : [ 300.5, 199.0, 276.5, 199.0 ]
				}

			}
, 			{
				"patchline" : 				{
					"source" : [ "obj-22", 0 ],
					"destination" : [ "obj-17", 0 ],
					"hidden" : 0,
					"midpoints" : [  ]
				}

			}
, 			{
				"patchline" : 				{
					"source" : [ "obj-20", 0 ],
					"destination" : [ "obj-17", 0 ],
					"hidden" : 0,
					"midpoints" : [ 79.5, 118.0, 24.5, 118.0 ]
				}

			}
, 			{
				"patchline" : 				{
					"source" : [ "obj-23", 0 ],
					"destination" : [ "obj-17", 0 ],
					"hidden" : 0,
					"midpoints" : [ 119.5, 118.0, 24.5, 118.0 ]
				}

			}
, 			{
				"patchline" : 				{
					"source" : [ "obj-24", 0 ],
					"destination" : [ "obj-17", 0 ],
					"hidden" : 0,
					"midpoints" : [ 156.5, 118.0, 24.5, 118.0 ]
				}

			}
, 			{
				"patchline" : 				{
					"source" : [ "obj-4", 0 ],
					"destination" : [ "obj-8", 0 ],
					"hidden" : 0,
					"midpoints" : [ 300.5, 227.0, 361.0, 227.0, 361.0, 145.0, 300.5, 145.0 ]
				}

			}
, 			{
				"patchline" : 				{
					"source" : [ "obj-17", 1 ],
					"destination" : [ "obj-29", 0 ],
					"hidden" : 0,
					"midpoints" : [ 162.5, 199.0, 139.5, 199.0 ]
				}

			}
, 			{
				"patchline" : 				{
					"source" : [ "obj-8", 0 ],
					"destination" : [ "obj-17", 4 ],
					"hidden" : 0,
					"midpoints" : [  ]
				}

			}
, 			{
				"patchline" : 				{
					"source" : [ "obj-18", 0 ],
					"destination" : [ "obj-17", 3 ],
					"hidden" : 0,
					"midpoints" : [  ]
				}

			}
, 			{
				"patchline" : 				{
					"source" : [ "obj-2", 0 ],
					"destination" : [ "obj-17", 1 ],
					"hidden" : 0,
					"midpoints" : [  ]
				}

			}
, 			{
				"patchline" : 				{
					"source" : [ "obj-6", 0 ],
					"destination" : [ "obj-17", 2 ],
					"hidden" : 0,
					"midpoints" : [  ]
				}

			}
 ]
	}

}
