{
	"patcher" : 	{
		"fileversion" : 1,
		"rect" : [ 1701.0, 155.0, 459.0, 288.0 ],
		"bglocked" : 0,
		"defrect" : [ 1701.0, 155.0, 459.0, 288.0 ],
		"openrect" : [ 0.0, 0.0, 0.0, 0.0 ],
		"openinpresentation" : 0,
		"default_fontsize" : 12.0,
		"default_fontface" : 0,
		"default_fontname" : "Arial",
		"gridonopen" : 0,
		"gridsize" : [ 15.0, 15.0 ],
		"gridsnaponopen" : 0,
		"toolbarvisible" : 1,
		"boxanimatetime" : 200,
		"imprint" : 0,
		"boxes" : [ 			{
				"box" : 				{
					"maxclass" : "comment",
					"text" : "Note: p.play~ also accepts all messages for buffer~.",
					"numoutlets" : 0,
					"fontsize" : 12.0,
					"patching_rect" : [ 7.0, 59.0, 291.0, 20.0 ],
					"fontname" : "Arial",
					"id" : "obj-33",
					"numinlets" : 1
				}

			}
, 			{
				"box" : 				{
					"maxclass" : "comment",
					"text" : "commands",
					"numoutlets" : 0,
					"fontsize" : 12.0,
					"patching_rect" : [ 185.0, 93.0, 68.0, 20.0 ],
					"fontname" : "Arial",
					"id" : "obj-32",
					"numinlets" : 1
				}

			}
, 			{
				"box" : 				{
					"maxclass" : "comment",
					"text" : "signal",
					"numoutlets" : 0,
					"fontsize" : 12.0,
					"patching_rect" : [ 15.0, 260.0, 43.0, 20.0 ],
					"fontname" : "Arial",
					"id" : "obj-31",
					"numinlets" : 1
				}

			}
, 			{
				"box" : 				{
					"maxclass" : "comment",
					"text" : "file length (ms) /\nend of buffer~ read",
					"linecount" : 2,
					"numoutlets" : 0,
					"fontsize" : 12.0,
					"patching_rect" : [ 210.0, 240.0, 111.0, 34.0 ],
					"fontname" : "Arial",
					"id" : "obj-30",
					"numinlets" : 1
				}

			}
, 			{
				"box" : 				{
					"maxclass" : "button",
					"numoutlets" : 1,
					"outlettype" : [ "bang" ],
					"patching_rect" : [ 101.0, 213.0, 20.0, 20.0 ],
					"id" : "obj-29",
					"numinlets" : 1
				}

			}
, 			{
				"box" : 				{
					"maxclass" : "comment",
					"text" : "play state",
					"numoutlets" : 0,
					"fontsize" : 12.0,
					"patching_rect" : [ 99.0, 248.0, 62.0, 20.0 ],
					"fontname" : "Arial",
					"id" : "obj-28",
					"numinlets" : 1
				}

			}
, 			{
				"box" : 				{
					"maxclass" : "comment",
					"text" : "end time",
					"numoutlets" : 0,
					"fontsize" : 12.0,
					"patching_rect" : [ 234.0, 132.0, 61.0, 20.0 ],
					"fontname" : "Arial",
					"id" : "obj-27",
					"numinlets" : 1
				}

			}
, 			{
				"box" : 				{
					"maxclass" : "comment",
					"text" : "start time",
					"numoutlets" : 0,
					"fontsize" : 12.0,
					"patching_rect" : [ 162.0, 132.0, 58.0, 20.0 ],
					"fontname" : "Arial",
					"id" : "obj-26",
					"numinlets" : 1
				}

			}
, 			{
				"box" : 				{
					"maxclass" : "comment",
					"text" : "speed",
					"numoutlets" : 0,
					"fontsize" : 12.0,
					"patching_rect" : [ 89.0, 132.0, 42.0, 20.0 ],
					"fontname" : "Arial",
					"id" : "obj-25",
					"numinlets" : 1
				}

			}
, 			{
				"box" : 				{
					"maxclass" : "message",
					"text" : "stop",
					"numoutlets" : 1,
					"fontsize" : 12.0,
					"outlettype" : [ "" ],
					"patching_rect" : [ 147.0, 94.0, 33.0, 18.0 ],
					"fontname" : "Arial",
					"id" : "obj-24",
					"numinlets" : 2
				}

			}
, 			{
				"box" : 				{
					"maxclass" : "message",
					"text" : "play",
					"numoutlets" : 1,
					"fontsize" : 12.0,
					"outlettype" : [ "" ],
					"patching_rect" : [ 110.0, 94.0, 33.0, 18.0 ],
					"fontname" : "Arial",
					"id" : "obj-23",
					"numinlets" : 2
				}

			}
, 			{
				"box" : 				{
					"maxclass" : "message",
					"text" : "replace",
					"numoutlets" : 1,
					"fontsize" : 12.0,
					"outlettype" : [ "" ],
					"patching_rect" : [ 15.0, 94.0, 50.0, 18.0 ],
					"fontname" : "Arial",
					"id" : "obj-22",
					"numinlets" : 2
				}

			}
, 			{
				"box" : 				{
					"maxclass" : "message",
					"text" : "read",
					"numoutlets" : 1,
					"fontsize" : 12.0,
					"outlettype" : [ "" ],
					"patching_rect" : [ 70.0, 93.0, 35.0, 18.0 ],
					"fontname" : "Arial",
					"id" : "obj-20",
					"numinlets" : 2
				}

			}
, 			{
				"box" : 				{
					"maxclass" : "flonum",
					"numoutlets" : 2,
					"fontsize" : 12.0,
					"outlettype" : [ "float", "bang" ],
					"patching_rect" : [ 87.0, 156.0, 50.0, 20.0 ],
					"fontname" : "Arial",
					"id" : "obj-19",
					"numinlets" : 1
				}

			}
, 			{
				"box" : 				{
					"maxclass" : "flonum",
					"numoutlets" : 2,
					"fontsize" : 12.0,
					"outlettype" : [ "float", "bang" ],
					"patching_rect" : [ 160.0, 156.0, 67.0, 20.0 ],
					"fontname" : "Arial",
					"id" : "obj-18",
					"numinlets" : 1
				}

			}
, 			{
				"box" : 				{
					"maxclass" : "flonum",
					"numoutlets" : 2,
					"fontsize" : 12.0,
					"outlettype" : [ "float", "bang" ],
					"patching_rect" : [ 232.0, 156.0, 67.0, 20.0 ],
					"fontname" : "Arial",
					"id" : "obj-8",
					"numinlets" : 1
				}

			}
, 			{
				"box" : 				{
					"maxclass" : "button",
					"numoutlets" : 1,
					"outlettype" : [ "bang" ],
					"patching_rect" : [ 208.0, 213.0, 20.0, 20.0 ],
					"id" : "obj-5",
					"numinlets" : 1
				}

			}
, 			{
				"box" : 				{
					"maxclass" : "flonum",
					"numoutlets" : 2,
					"fontsize" : 12.0,
					"outlettype" : [ "float", "bang" ],
					"patching_rect" : [ 232.0, 213.0, 50.0, 20.0 ],
					"fontname" : "Arial",
					"id" : "obj-4",
					"numinlets" : 1
				}

			}
, 			{
				"box" : 				{
					"maxclass" : "toggle",
					"numoutlets" : 1,
					"outlettype" : [ "int" ],
					"patching_rect" : [ 124.0, 213.0, 33.0, 33.0 ],
					"id" : "obj-3",
					"numinlets" : 1
				}

			}
, 			{
				"box" : 				{
					"maxclass" : "button",
					"numoutlets" : 1,
					"hidden" : 1,
					"outlettype" : [ "bang" ],
					"patching_rect" : [ 350.0, 181.0, 20.0, 20.0 ],
					"id" : "obj-7",
					"numinlets" : 1
				}

			}
, 			{
				"box" : 				{
					"maxclass" : "newobj",
					"text" : "pcontrol",
					"numoutlets" : 1,
					"hidden" : 1,
					"fontsize" : 12.0,
					"outlettype" : [ "" ],
					"patching_rect" : [ 350.0, 229.0, 53.0, 20.0 ],
					"fontname" : "Arial",
					"id" : "obj-10",
					"numinlets" : 1
				}

			}
, 			{
				"box" : 				{
					"maxclass" : "message",
					"text" : "help p.objects-guide",
					"numoutlets" : 1,
					"hidden" : 1,
					"fontsize" : 12.0,
					"outlettype" : [ "" ],
					"patching_rect" : [ 350.0, 207.0, 118.0, 18.0 ],
					"fontname" : "Arial",
					"id" : "obj-12",
					"numinlets" : 2
				}

			}
, 			{
				"box" : 				{
					"maxclass" : "message",
					"text" : "p.objects guide",
					"numoutlets" : 1,
					"fontsize" : 12.0,
					"outlettype" : [ "" ],
					"patching_rect" : [ 351.0, 254.0, 92.0, 18.0 ],
					"fontname" : "Arial",
					"id" : "obj-13",
					"numinlets" : 2
				}

			}
, 			{
				"box" : 				{
					"maxclass" : "ezdac~",
					"numoutlets" : 0,
					"patching_rect" : [ 15.0, 213.0, 45.0, 45.0 ],
					"id" : "obj-1",
					"numinlets" : 2
				}

			}
, 			{
				"box" : 				{
					"maxclass" : "comment",
					"text" : "dependencies: \n- p.block\n- p.envparabola~",
					"linecount" : 3,
					"numoutlets" : 0,
					"fontsize" : 12.0,
					"patching_rect" : [ 355.0, 57.0, 100.0, 48.0 ],
					"fontname" : "Arial",
					"id" : "obj-21",
					"numinlets" : 1
				}

			}
, 			{
				"box" : 				{
					"maxclass" : "newobj",
					"text" : "p.play~ name",
					"numoutlets" : 3,
					"fontsize" : 12.0,
					"outlettype" : [ "signal", "", "float" ],
					"patching_rect" : [ 15.0, 185.0, 236.0, 20.0 ],
					"fontname" : "Arial",
					"id" : "obj-17",
					"numinlets" : 4
				}

			}
, 			{
				"box" : 				{
					"maxclass" : "comment",
					"varname" : "autohelp_top_title",
					"text" : "p.play~",
					"numoutlets" : 0,
					"fontface" : 3,
					"fontsize" : 20.871338,
					"frgb" : [ 0.93, 0.93, 0.97, 1.0 ],
					"textcolor" : [ 0.93, 0.93, 0.97, 1.0 ],
					"patching_rect" : [ 8.0, 9.0, 249.0, 30.0 ],
					"fontname" : "Arial",
					"id" : "obj-9",
					"numinlets" : 1
				}

			}
, 			{
				"box" : 				{
					"maxclass" : "comment",
					"varname" : "autohelp_top_digest",
					"text" : "Monophonic audio file player.",
					"numoutlets" : 0,
					"fontsize" : 12.754705,
					"frgb" : [ 0.93, 0.93, 0.97, 1.0 ],
					"textcolor" : [ 0.93, 0.93, 0.97, 1.0 ],
					"patching_rect" : [ 7.0, 36.0, 244.0, 21.0 ],
					"fontname" : "Arial",
					"id" : "obj-11",
					"numinlets" : 1
				}

			}
, 			{
				"box" : 				{
					"maxclass" : "panel",
					"varname" : "autohelp_top_panel",
					"grad2" : [ 0.85, 0.85, 0.85, 1.0 ],
					"numoutlets" : 0,
					"mode" : 1,
					"patching_rect" : [ 4.0, 5.0, 451.0, 51.0 ],
					"background" : 1,
					"grad1" : [ 0.27, 0.35, 0.47, 1.0 ],
					"id" : "obj-16",
					"numinlets" : 1
				}

			}
 ],
		"lines" : [ 			{
				"patchline" : 				{
					"source" : [ "obj-12", 0 ],
					"destination" : [ "obj-10", 0 ],
					"hidden" : 1,
					"midpoints" : [  ]
				}

			}
, 			{
				"patchline" : 				{
					"source" : [ "obj-7", 0 ],
					"destination" : [ "obj-12", 0 ],
					"hidden" : 1,
					"midpoints" : [  ]
				}

			}
, 			{
				"patchline" : 				{
					"source" : [ "obj-13", 0 ],
					"destination" : [ "obj-7", 0 ],
					"hidden" : 1,
					"midpoints" : [  ]
				}

			}
, 			{
				"patchline" : 				{
					"source" : [ "obj-17", 0 ],
					"destination" : [ "obj-1", 0 ],
					"hidden" : 0,
					"midpoints" : [  ]
				}

			}
, 			{
				"patchline" : 				{
					"source" : [ "obj-17", 1 ],
					"destination" : [ "obj-3", 0 ],
					"hidden" : 0,
					"midpoints" : [  ]
				}

			}
, 			{
				"patchline" : 				{
					"source" : [ "obj-17", 2 ],
					"destination" : [ "obj-4", 0 ],
					"hidden" : 0,
					"midpoints" : [  ]
				}

			}
, 			{
				"patchline" : 				{
					"source" : [ "obj-17", 2 ],
					"destination" : [ "obj-5", 0 ],
					"hidden" : 0,
					"midpoints" : [ 241.5, 209.0, 217.5, 209.0 ]
				}

			}
, 			{
				"patchline" : 				{
					"source" : [ "obj-8", 0 ],
					"destination" : [ "obj-17", 3 ],
					"hidden" : 0,
					"midpoints" : [  ]
				}

			}
, 			{
				"patchline" : 				{
					"source" : [ "obj-18", 0 ],
					"destination" : [ "obj-17", 2 ],
					"hidden" : 0,
					"midpoints" : [  ]
				}

			}
, 			{
				"patchline" : 				{
					"source" : [ "obj-19", 0 ],
					"destination" : [ "obj-17", 1 ],
					"hidden" : 0,
					"midpoints" : [  ]
				}

			}
, 			{
				"patchline" : 				{
					"source" : [ "obj-22", 0 ],
					"destination" : [ "obj-17", 0 ],
					"hidden" : 0,
					"midpoints" : [  ]
				}

			}
, 			{
				"patchline" : 				{
					"source" : [ "obj-20", 0 ],
					"destination" : [ "obj-17", 0 ],
					"hidden" : 0,
					"midpoints" : [ 79.5, 118.0, 24.5, 118.0 ]
				}

			}
, 			{
				"patchline" : 				{
					"source" : [ "obj-23", 0 ],
					"destination" : [ "obj-17", 0 ],
					"hidden" : 0,
					"midpoints" : [ 119.5, 118.0, 24.5, 118.0 ]
				}

			}
, 			{
				"patchline" : 				{
					"source" : [ "obj-24", 0 ],
					"destination" : [ "obj-17", 0 ],
					"hidden" : 0,
					"midpoints" : [ 156.5, 118.0, 24.5, 118.0 ]
				}

			}
, 			{
				"patchline" : 				{
					"source" : [ "obj-4", 0 ],
					"destination" : [ "obj-8", 0 ],
					"hidden" : 0,
					"midpoints" : [ 241.5, 236.0, 301.0, 236.0, 301.0, 153.0, 241.5, 153.0 ]
				}

			}
, 			{
				"patchline" : 				{
					"source" : [ "obj-17", 1 ],
					"destination" : [ "obj-29", 0 ],
					"hidden" : 0,
					"midpoints" : [ 133.0, 209.0, 110.5, 209.0 ]
				}

			}
 ]
	}

}
