{
	"patcher" : 	{
		"fileversion" : 1,
		"rect" : [ 17.0, 112.0, 499.0, 407.0 ],
		"bglocked" : 0,
		"defrect" : [ 17.0, 112.0, 499.0, 407.0 ],
		"openrect" : [ 0.0, 0.0, 0.0, 0.0 ],
		"openinpresentation" : 0,
		"default_fontsize" : 12.0,
		"default_fontface" : 0,
		"default_fontname" : "Arial",
		"gridonopen" : 0,
		"gridsize" : [ 15.0, 15.0 ],
		"gridsnaponopen" : 0,
		"toolbarvisible" : 1,
		"boxanimatetime" : 200,
		"imprint" : 0,
		"boxes" : [ 			{
				"box" : 				{
					"maxclass" : "comment",
					"text" : "pitch shift by semitones",
					"fontname" : "Arial",
					"patching_rect" : [ 132.0, 190.0, 135.0, 20.0 ],
					"fontsize" : 12.0,
					"numinlets" : 1,
					"id" : "obj-19",
					"numoutlets" : 0
				}

			}
, 			{
				"box" : 				{
					"maxclass" : "number~",
					"outlettype" : [ "signal", "float" ],
					"fontname" : "Arial",
					"mode" : 1,
					"patching_rect" : [ 74.0, 190.0, 56.0, 20.0 ],
					"fontsize" : 12.0,
					"numinlets" : 2,
					"id" : "obj-18",
					"numoutlets" : 2,
					"sig" : 0.0
				}

			}
, 			{
				"box" : 				{
					"maxclass" : "comment",
					"text" : "clears the dealy line",
					"fontname" : "Arial",
					"patching_rect" : [ 71.0, 128.0, 150.0, 20.0 ],
					"fontsize" : 12.0,
					"numinlets" : 1,
					"id" : "obj-15",
					"numoutlets" : 0
				}

			}
, 			{
				"box" : 				{
					"maxclass" : "message",
					"text" : "clear",
					"outlettype" : [ "" ],
					"fontname" : "Arial",
					"patching_rect" : [ 31.0, 130.0, 37.0, 18.0 ],
					"fontsize" : 12.0,
					"numinlets" : 2,
					"id" : "obj-6",
					"numoutlets" : 1
				}

			}
, 			{
				"box" : 				{
					"maxclass" : "flonum",
					"outlettype" : [ "float", "bang" ],
					"fontname" : "Arial",
					"minimum" : 0.0,
					"patching_rect" : [ 45.0, 156.0, 50.0, 20.0 ],
					"fontsize" : 12.0,
					"numinlets" : 1,
					"id" : "obj-2",
					"numoutlets" : 2
				}

			}
, 			{
				"box" : 				{
					"maxclass" : "ezadc~",
					"outlettype" : [ "signal", "signal" ],
					"patching_rect" : [ 14.0, 72.0, 45.0, 45.0 ],
					"numinlets" : 1,
					"id" : "obj-14",
					"numoutlets" : 2
				}

			}
, 			{
				"box" : 				{
					"maxclass" : "comment",
					"text" : "max delay time ms",
					"fontname" : "Arial",
					"patching_rect" : [ 97.0, 156.0, 110.0, 20.0 ],
					"fontsize" : 12.0,
					"numinlets" : 1,
					"id" : "obj-26",
					"numoutlets" : 0
				}

			}
, 			{
				"box" : 				{
					"maxclass" : "comment",
					"text" : "mix (default = 0.)\n-1 = dry signal\n1 = wet signal",
					"linecount" : 3,
					"fontname" : "Arial",
					"patching_rect" : [ 312.0, 264.0, 105.0, 48.0 ],
					"fontsize" : 12.0,
					"numinlets" : 1,
					"id" : "obj-8",
					"numoutlets" : 0
				}

			}
, 			{
				"box" : 				{
					"maxclass" : "comment",
					"text" : "args:\n - 1) sample window for pitch shift (required)\n - 2) num overlaps for pitch shift (required) (minimum 4)\n - 3) max delay time ms (required)\n - 4) mix fade time ms (required)",
					"linecount" : 5,
					"fontname" : "Arial",
					"patching_rect" : [ 70.0, 326.0, 308.0, 75.0 ],
					"fontsize" : 12.0,
					"numinlets" : 1,
					"id" : "obj-25",
					"numoutlets" : 0
				}

			}
, 			{
				"box" : 				{
					"maxclass" : "comment",
					"text" : "feedback volume (0. to 1., def = 1.)",
					"fontname" : "Arial",
					"patching_rect" : [ 250.0, 242.0, 208.0, 20.0 ],
					"fontsize" : 12.0,
					"numinlets" : 1,
					"id" : "obj-22",
					"numoutlets" : 0
				}

			}
, 			{
				"box" : 				{
					"maxclass" : "comment",
					"text" : "delay time in ms (def = max delay argument)",
					"fontname" : "Arial",
					"patching_rect" : [ 191.0, 216.0, 246.0, 20.0 ],
					"fontsize" : 12.0,
					"numinlets" : 1,
					"id" : "obj-20",
					"numoutlets" : 0
				}

			}
, 			{
				"box" : 				{
					"maxclass" : "number~",
					"outlettype" : [ "signal", "float" ],
					"fontname" : "Arial",
					"mode" : 1,
					"minimum" : -1.0,
					"patching_rect" : [ 253.0, 273.0, 56.0, 20.0 ],
					"fontsize" : 12.0,
					"maximum" : 1.0,
					"numinlets" : 2,
					"id" : "obj-5",
					"numoutlets" : 2,
					"sig" : 0.0
				}

			}
, 			{
				"box" : 				{
					"maxclass" : "number~",
					"outlettype" : [ "signal", "float" ],
					"fontname" : "Arial",
					"mode" : 1,
					"minimum" : 0.0,
					"patching_rect" : [ 193.0, 242.0, 56.0, 20.0 ],
					"fontsize" : 12.0,
					"maximum" : 1.0,
					"numinlets" : 2,
					"id" : "obj-4",
					"numoutlets" : 2,
					"sig" : 0.0
				}

			}
, 			{
				"box" : 				{
					"maxclass" : "number~",
					"outlettype" : [ "signal", "float" ],
					"fontname" : "Arial",
					"mode" : 1,
					"minimum" : 0.0,
					"patching_rect" : [ 134.0, 216.0, 56.0, 20.0 ],
					"fontsize" : 12.0,
					"numinlets" : 2,
					"id" : "obj-3",
					"numoutlets" : 2,
					"sig" : 0.0
				}

			}
, 			{
				"box" : 				{
					"maxclass" : "button",
					"outlettype" : [ "bang" ],
					"hidden" : 1,
					"patching_rect" : [ 378.0, 302.0, 20.0, 20.0 ],
					"numinlets" : 1,
					"id" : "obj-7",
					"numoutlets" : 1
				}

			}
, 			{
				"box" : 				{
					"maxclass" : "newobj",
					"text" : "pcontrol",
					"outlettype" : [ "" ],
					"fontname" : "Arial",
					"hidden" : 1,
					"patching_rect" : [ 378.0, 350.0, 53.0, 20.0 ],
					"fontsize" : 12.0,
					"numinlets" : 1,
					"id" : "obj-10",
					"numoutlets" : 1
				}

			}
, 			{
				"box" : 				{
					"maxclass" : "message",
					"text" : "help p.objects-guide",
					"outlettype" : [ "" ],
					"fontname" : "Arial",
					"hidden" : 1,
					"patching_rect" : [ 378.0, 328.0, 118.0, 18.0 ],
					"fontsize" : 12.0,
					"numinlets" : 2,
					"id" : "obj-12",
					"numoutlets" : 1
				}

			}
, 			{
				"box" : 				{
					"maxclass" : "message",
					"text" : "p.objects guide",
					"outlettype" : [ "" ],
					"fontname" : "Arial",
					"patching_rect" : [ 397.0, 375.0, 92.0, 18.0 ],
					"fontsize" : 12.0,
					"numinlets" : 2,
					"id" : "obj-13",
					"numoutlets" : 1
				}

			}
, 			{
				"box" : 				{
					"maxclass" : "ezdac~",
					"patching_rect" : [ 14.0, 336.0, 45.0, 45.0 ],
					"numinlets" : 2,
					"id" : "obj-1",
					"numoutlets" : 0
				}

			}
, 			{
				"box" : 				{
					"maxclass" : "comment",
					"text" : "dependencies:\n- p.mix2s~\n- p.gizmopitchshift~",
					"linecount" : 3,
					"fontname" : "Arial",
					"patching_rect" : [ 355.0, 61.0, 138.0, 48.0 ],
					"fontsize" : 12.0,
					"numinlets" : 1,
					"id" : "obj-21",
					"numoutlets" : 0
				}

			}
, 			{
				"box" : 				{
					"maxclass" : "newobj",
					"text" : "p.tapelooppitchshift~ 4096 4 10000 10",
					"outlettype" : [ "signal" ],
					"fontname" : "Arial",
					"patching_rect" : [ 14.0, 300.0, 258.0, 20.0 ],
					"fontsize" : 12.0,
					"numinlets" : 5,
					"id" : "obj-17",
					"numoutlets" : 1
				}

			}
, 			{
				"box" : 				{
					"maxclass" : "comment",
					"varname" : "autohelp_top_title",
					"text" : "p.tapelooppitchshift~",
					"fontname" : "Arial",
					"frgb" : [ 0.93, 0.93, 0.97, 1.0 ],
					"textcolor" : [ 0.93, 0.93, 0.97, 1.0 ],
					"patching_rect" : [ 8.0, 9.0, 249.0, 30.0 ],
					"fontface" : 3,
					"fontsize" : 20.871338,
					"numinlets" : 1,
					"id" : "obj-9",
					"numoutlets" : 0
				}

			}
, 			{
				"box" : 				{
					"maxclass" : "comment",
					"varname" : "autohelp_top_digest",
					"text" : "Creates a tapeloop with pitch shift (like frippertronics).",
					"fontname" : "Arial",
					"frgb" : [ 0.93, 0.93, 0.97, 1.0 ],
					"textcolor" : [ 0.93, 0.93, 0.97, 1.0 ],
					"patching_rect" : [ 7.0, 36.0, 320.0, 21.0 ],
					"fontsize" : 12.754705,
					"numinlets" : 1,
					"id" : "obj-11",
					"numoutlets" : 0
				}

			}
, 			{
				"box" : 				{
					"maxclass" : "panel",
					"varname" : "autohelp_top_panel",
					"mode" : 1,
					"patching_rect" : [ 4.0, 5.0, 490.0, 53.0 ],
					"numinlets" : 1,
					"id" : "obj-16",
					"background" : 1,
					"grad1" : [ 0.27, 0.35, 0.47, 1.0 ],
					"numoutlets" : 0,
					"grad2" : [ 0.85, 0.85, 0.85, 1.0 ]
				}

			}
 ],
		"lines" : [ 			{
				"patchline" : 				{
					"source" : [ "obj-3", 0 ],
					"destination" : [ "obj-17", 2 ],
					"hidden" : 0,
					"midpoints" : [  ]
				}

			}
, 			{
				"patchline" : 				{
					"source" : [ "obj-4", 0 ],
					"destination" : [ "obj-17", 3 ],
					"hidden" : 0,
					"midpoints" : [  ]
				}

			}
, 			{
				"patchline" : 				{
					"source" : [ "obj-5", 0 ],
					"destination" : [ "obj-17", 4 ],
					"hidden" : 0,
					"midpoints" : [  ]
				}

			}
, 			{
				"patchline" : 				{
					"source" : [ "obj-6", 0 ],
					"destination" : [ "obj-17", 0 ],
					"hidden" : 0,
					"midpoints" : [ 40.5, 265.0, 23.5, 265.0 ]
				}

			}
, 			{
				"patchline" : 				{
					"source" : [ "obj-17", 0 ],
					"destination" : [ "obj-1", 0 ],
					"hidden" : 0,
					"midpoints" : [  ]
				}

			}
, 			{
				"patchline" : 				{
					"source" : [ "obj-14", 0 ],
					"destination" : [ "obj-17", 0 ],
					"hidden" : 0,
					"midpoints" : [  ]
				}

			}
, 			{
				"patchline" : 				{
					"source" : [ "obj-2", 0 ],
					"destination" : [ "obj-17", 0 ],
					"hidden" : 0,
					"midpoints" : [ 54.5, 265.0, 23.5, 265.0 ]
				}

			}
, 			{
				"patchline" : 				{
					"source" : [ "obj-18", 0 ],
					"destination" : [ "obj-17", 1 ],
					"hidden" : 0,
					"midpoints" : [  ]
				}

			}
, 			{
				"patchline" : 				{
					"source" : [ "obj-13", 0 ],
					"destination" : [ "obj-7", 0 ],
					"hidden" : 1,
					"midpoints" : [  ]
				}

			}
, 			{
				"patchline" : 				{
					"source" : [ "obj-7", 0 ],
					"destination" : [ "obj-12", 0 ],
					"hidden" : 1,
					"midpoints" : [  ]
				}

			}
, 			{
				"patchline" : 				{
					"source" : [ "obj-12", 0 ],
					"destination" : [ "obj-10", 0 ],
					"hidden" : 1,
					"midpoints" : [  ]
				}

			}
 ]
	}

}
