{
	"patcher" : 	{
		"fileversion" : 1,
		"rect" : [ 843.0, 44.0, 392.0, 224.0 ],
		"bglocked" : 0,
		"defrect" : [ 843.0, 44.0, 392.0, 224.0 ],
		"openrect" : [ 0.0, 0.0, 0.0, 0.0 ],
		"openinpresentation" : 0,
		"default_fontsize" : 12.0,
		"default_fontface" : 0,
		"default_fontname" : "Arial",
		"gridonopen" : 0,
		"gridsize" : [ 15.0, 15.0 ],
		"gridsnaponopen" : 0,
		"toolbarvisible" : 1,
		"boxanimatetime" : 200,
		"imprint" : 0,
		"boxes" : [ 			{
				"box" : 				{
					"maxclass" : "newobj",
					"text" : "- 1",
					"id" : "obj-8",
					"fontsize" : 12.0,
					"patching_rect" : [ 343.0, 125.0, 32.5, 20.0 ],
					"numinlets" : 2,
					"numoutlets" : 1,
					"fontname" : "Arial",
					"outlettype" : [ "int" ]
				}

			}
, 			{
				"box" : 				{
					"maxclass" : "newobj",
					"text" : "+ 1",
					"id" : "obj-7",
					"fontsize" : 12.0,
					"patching_rect" : [ 188.0, 125.0, 32.5, 20.0 ],
					"numinlets" : 2,
					"numoutlets" : 1,
					"fontname" : "Arial",
					"outlettype" : [ "int" ]
				}

			}
, 			{
				"box" : 				{
					"maxclass" : "newobj",
					"text" : "if $f1 > 0 then $i1 else out2 $i1",
					"id" : "obj-6",
					"fontsize" : 12.0,
					"patching_rect" : [ 188.0, 96.0, 174.0, 20.0 ],
					"numinlets" : 1,
					"numoutlets" : 2,
					"fontname" : "Arial",
					"outlettype" : [ "", "" ]
				}

			}
, 			{
				"box" : 				{
					"maxclass" : "comment",
					"text" : "© 2013, Pierre-Emmanuel Lévesque",
					"id" : "obj-22",
					"fontsize" : 10.0,
					"patching_rect" : [ 219.0, 204.0, 171.0, 18.0 ],
					"numinlets" : 1,
					"numoutlets" : 0,
					"fontname" : "Arial"
				}

			}
, 			{
				"box" : 				{
					"maxclass" : "comment",
					"text" : "ceiled number",
					"id" : "obj-4",
					"fontsize" : 11.0,
					"patching_rect" : [ 42.0, 183.0, 84.0, 19.0 ],
					"numinlets" : 1,
					"numoutlets" : 0,
					"fontname" : "Arial"
				}

			}
, 			{
				"box" : 				{
					"maxclass" : "comment",
					"text" : "number to ceil",
					"id" : "obj-3",
					"fontsize" : 11.0,
					"patching_rect" : [ 42.0, 19.0, 80.0, 19.0 ],
					"numinlets" : 1,
					"numoutlets" : 0,
					"fontname" : "Arial"
				}

			}
, 			{
				"box" : 				{
					"maxclass" : "outlet",
					"id" : "obj-2",
					"patching_rect" : [ 16.0, 180.0, 25.0, 25.0 ],
					"numinlets" : 1,
					"numoutlets" : 0,
					"comment" : "(int) ceiled number"
				}

			}
, 			{
				"box" : 				{
					"maxclass" : "inlet",
					"id" : "obj-1",
					"patching_rect" : [ 16.0, 17.0, 25.0, 25.0 ],
					"numinlets" : 0,
					"numoutlets" : 1,
					"outlettype" : [ "" ],
					"comment" : "(float) number to ceil"
				}

			}
, 			{
				"box" : 				{
					"maxclass" : "newobj",
					"text" : "if $f1 == $i2 then $i2 else out2 $f1",
					"id" : "obj-50",
					"fontsize" : 12.0,
					"patching_rect" : [ 16.0, 66.0, 191.0, 20.0 ],
					"numinlets" : 2,
					"numoutlets" : 2,
					"fontname" : "Arial",
					"outlettype" : [ "", "" ]
				}

			}
 ],
		"lines" : [ 			{
				"patchline" : 				{
					"source" : [ "obj-8", 0 ],
					"destination" : [ "obj-2", 0 ],
					"hidden" : 0,
					"midpoints" : [ 352.5, 156.0, 25.5, 156.0 ]
				}

			}
, 			{
				"patchline" : 				{
					"source" : [ "obj-7", 0 ],
					"destination" : [ "obj-2", 0 ],
					"hidden" : 0,
					"midpoints" : [ 197.5, 153.0, 25.5, 153.0 ]
				}

			}
, 			{
				"patchline" : 				{
					"source" : [ "obj-50", 0 ],
					"destination" : [ "obj-2", 0 ],
					"hidden" : 0,
					"midpoints" : [  ]
				}

			}
, 			{
				"patchline" : 				{
					"source" : [ "obj-1", 0 ],
					"destination" : [ "obj-50", 1 ],
					"hidden" : 0,
					"midpoints" : [ 25.5, 58.0, 197.5, 58.0 ]
				}

			}
, 			{
				"patchline" : 				{
					"source" : [ "obj-1", 0 ],
					"destination" : [ "obj-50", 0 ],
					"hidden" : 0,
					"midpoints" : [  ]
				}

			}
, 			{
				"patchline" : 				{
					"source" : [ "obj-50", 1 ],
					"destination" : [ "obj-6", 0 ],
					"hidden" : 0,
					"midpoints" : [  ]
				}

			}
, 			{
				"patchline" : 				{
					"source" : [ "obj-6", 1 ],
					"destination" : [ "obj-8", 0 ],
					"hidden" : 0,
					"midpoints" : [  ]
				}

			}
, 			{
				"patchline" : 				{
					"source" : [ "obj-6", 0 ],
					"destination" : [ "obj-7", 0 ],
					"hidden" : 0,
					"midpoints" : [  ]
				}

			}
 ]
	}

}
