{
	"patcher" : 	{
		"fileversion" : 1,
		"rect" : [ 230.0, 251.0, 217.0, 309.0 ],
		"bglocked" : 0,
		"defrect" : [ 230.0, 251.0, 217.0, 309.0 ],
		"openrect" : [ 0.0, 0.0, 0.0, 0.0 ],
		"openinpresentation" : 0,
		"default_fontsize" : 12.0,
		"default_fontface" : 0,
		"default_fontname" : "Arial",
		"gridonopen" : 0,
		"gridsize" : [ 15.0, 15.0 ],
		"gridsnaponopen" : 0,
		"toolbarvisible" : 1,
		"boxanimatetime" : 200,
		"imprint" : 0,
		"boxes" : [ 			{
				"box" : 				{
					"maxclass" : "comment",
					"text" : "message",
					"fontsize" : 11.0,
					"id" : "obj-4",
					"numinlets" : 1,
					"numoutlets" : 0,
					"patching_rect" : [ 134.0, 77.0, 55.0, 19.0 ],
					"fontname" : "Arial"
				}

			}
, 			{
				"box" : 				{
					"maxclass" : "comment",
					"text" : "method",
					"fontsize" : 11.0,
					"id" : "obj-3",
					"numinlets" : 1,
					"numoutlets" : 0,
					"patching_rect" : [ 87.0, 46.0, 48.0, 19.0 ],
					"fontname" : "Arial"
				}

			}
, 			{
				"box" : 				{
					"maxclass" : "comment",
					"text" : "id",
					"fontsize" : 11.0,
					"id" : "obj-1",
					"numinlets" : 1,
					"numoutlets" : 0,
					"patching_rect" : [ 40.0, 17.0, 29.0, 19.0 ],
					"fontname" : "Arial"
				}

			}
, 			{
				"box" : 				{
					"maxclass" : "comment",
					"text" : "© 2013, Pierre-Emmanuel Lévesque",
					"fontsize" : 10.0,
					"id" : "obj-2",
					"numinlets" : 1,
					"numoutlets" : 0,
					"patching_rect" : [ 42.0, 286.0, 171.0, 18.0 ],
					"fontname" : "Arial"
				}

			}
, 			{
				"box" : 				{
					"maxclass" : "newobj",
					"text" : "forward",
					"fontsize" : 12.0,
					"id" : "obj-9",
					"numinlets" : 1,
					"numoutlets" : 0,
					"patching_rect" : [ 13.0, 257.0, 51.0, 20.0 ],
					"fontname" : "Arial"
				}

			}
, 			{
				"box" : 				{
					"maxclass" : "button",
					"id" : "obj-8",
					"numinlets" : 1,
					"numoutlets" : 1,
					"patching_rect" : [ 13.0, 180.0, 20.0, 20.0 ],
					"outlettype" : [ "bang" ]
				}

			}
, 			{
				"box" : 				{
					"maxclass" : "newobj",
					"text" : "prepend send",
					"fontsize" : 12.0,
					"id" : "obj-7",
					"numinlets" : 1,
					"numoutlets" : 1,
					"patching_rect" : [ 13.0, 146.0, 84.0, 20.0 ],
					"outlettype" : [ "" ],
					"fontname" : "Arial"
				}

			}
, 			{
				"box" : 				{
					"maxclass" : "message",
					"fontsize" : 12.0,
					"id" : "obj-5",
					"numinlets" : 2,
					"numoutlets" : 1,
					"patching_rect" : [ 13.0, 205.0, 189.0, 18.0 ],
					"outlettype" : [ "" ],
					"fontname" : "Arial"
				}

			}
, 			{
				"box" : 				{
					"maxclass" : "newobj",
					"text" : "p id",
					"fontsize" : 12.0,
					"id" : "obj-32",
					"numinlets" : 1,
					"numoutlets" : 1,
					"patching_rect" : [ 13.0, 90.0, 30.0, 20.0 ],
					"outlettype" : [ "" ],
					"fontname" : "Arial",
					"patcher" : 					{
						"fileversion" : 1,
						"rect" : [ 272.0, 203.0, 190.0, 314.0 ],
						"bglocked" : 0,
						"defrect" : [ 272.0, 203.0, 190.0, 314.0 ],
						"openrect" : [ 0.0, 0.0, 0.0, 0.0 ],
						"openinpresentation" : 0,
						"default_fontsize" : 12.0,
						"default_fontface" : 0,
						"default_fontname" : "Arial",
						"gridonopen" : 0,
						"gridsize" : [ 15.0, 15.0 ],
						"gridsnaponopen" : 0,
						"toolbarvisible" : 1,
						"boxanimatetime" : 200,
						"imprint" : 0,
						"boxes" : [ 							{
								"box" : 								{
									"maxclass" : "outlet",
									"id" : "obj-3",
									"numinlets" : 1,
									"numoutlets" : 0,
									"patching_rect" : [ 21.0, 277.0, 25.0, 25.0 ],
									"comment" : ""
								}

							}
, 							{
								"box" : 								{
									"maxclass" : "inlet",
									"id" : "obj-2",
									"numinlets" : 0,
									"numoutlets" : 1,
									"patching_rect" : [ 21.0, 12.0, 25.0, 25.0 ],
									"outlettype" : [ "" ],
									"comment" : ""
								}

							}
, 							{
								"box" : 								{
									"maxclass" : "button",
									"id" : "obj-22",
									"numinlets" : 1,
									"numoutlets" : 1,
									"patching_rect" : [ 68.0, 125.0, 20.0, 20.0 ],
									"outlettype" : [ "bang" ]
								}

							}
, 							{
								"box" : 								{
									"maxclass" : "message",
									"text" : "#1",
									"fontsize" : 12.0,
									"id" : "obj-21",
									"numinlets" : 2,
									"numoutlets" : 1,
									"patching_rect" : [ 68.0, 154.0, 32.5, 18.0 ],
									"outlettype" : [ "" ],
									"fontname" : "Arial"
								}

							}
, 							{
								"box" : 								{
									"maxclass" : "message",
									"text" : "#1",
									"fontsize" : 12.0,
									"id" : "obj-19",
									"numinlets" : 2,
									"numoutlets" : 1,
									"patching_rect" : [ 21.0, 125.0, 32.5, 18.0 ],
									"outlettype" : [ "" ],
									"fontname" : "Arial"
								}

							}
, 							{
								"box" : 								{
									"maxclass" : "newobj",
									"text" : "sel none",
									"fontsize" : 12.0,
									"id" : "obj-1",
									"numinlets" : 1,
									"numoutlets" : 2,
									"patching_rect" : [ 21.0, 92.0, 66.0, 20.0 ],
									"outlettype" : [ "bang", "" ],
									"fontname" : "Arial"
								}

							}
, 							{
								"box" : 								{
									"maxclass" : "newobj",
									"text" : "sprintf %s%.2d",
									"fontsize" : 12.0,
									"id" : "obj-28",
									"numinlets" : 2,
									"numoutlets" : 1,
									"patching_rect" : [ 68.0, 178.5, 91.0, 20.0 ],
									"outlettype" : [ "" ],
									"fontname" : "Arial"
								}

							}
 ],
						"lines" : [ 							{
								"patchline" : 								{
									"source" : [ "obj-21", 0 ],
									"destination" : [ "obj-28", 0 ],
									"hidden" : 0,
									"midpoints" : [  ]
								}

							}
, 							{
								"patchline" : 								{
									"source" : [ "obj-22", 0 ],
									"destination" : [ "obj-21", 0 ],
									"hidden" : 0,
									"midpoints" : [  ]
								}

							}
, 							{
								"patchline" : 								{
									"source" : [ "obj-19", 0 ],
									"destination" : [ "obj-3", 0 ],
									"hidden" : 0,
									"midpoints" : [  ]
								}

							}
, 							{
								"patchline" : 								{
									"source" : [ "obj-28", 0 ],
									"destination" : [ "obj-3", 0 ],
									"hidden" : 0,
									"midpoints" : [ 77.5, 202.0, 30.5, 202.0 ]
								}

							}
, 							{
								"patchline" : 								{
									"source" : [ "obj-2", 0 ],
									"destination" : [ "obj-1", 0 ],
									"hidden" : 0,
									"midpoints" : [  ]
								}

							}
, 							{
								"patchline" : 								{
									"source" : [ "obj-1", 1 ],
									"destination" : [ "obj-28", 1 ],
									"hidden" : 0,
									"midpoints" : [ 77.5, 119.75, 149.5, 119.75 ]
								}

							}
, 							{
								"patchline" : 								{
									"source" : [ "obj-1", 1 ],
									"destination" : [ "obj-22", 0 ],
									"hidden" : 0,
									"midpoints" : [  ]
								}

							}
, 							{
								"patchline" : 								{
									"source" : [ "obj-1", 0 ],
									"destination" : [ "obj-19", 0 ],
									"hidden" : 0,
									"midpoints" : [  ]
								}

							}
 ]
					}
,
					"saved_object_attributes" : 					{
						"fontface" : 0,
						"fontsize" : 12.0,
						"default_fontface" : 0,
						"globalpatchername" : "",
						"default_fontname" : "Arial",
						"fontname" : "Arial",
						"default_fontsize" : 12.0
					}

				}

			}
, 			{
				"box" : 				{
					"maxclass" : "inlet",
					"id" : "obj-30",
					"numinlets" : 0,
					"numoutlets" : 1,
					"patching_rect" : [ 13.0, 14.0, 25.0, 25.0 ],
					"outlettype" : [ "" ],
					"comment" : "(int) id, or (string) 'none'"
				}

			}
, 			{
				"box" : 				{
					"maxclass" : "inlet",
					"id" : "obj-27",
					"numinlets" : 0,
					"numoutlets" : 1,
					"patching_rect" : [ 107.0, 74.0, 25.0, 25.0 ],
					"outlettype" : [ "" ],
					"comment" : "(symbol) message "
				}

			}
, 			{
				"box" : 				{
					"maxclass" : "inlet",
					"id" : "obj-25",
					"numinlets" : 0,
					"numoutlets" : 1,
					"patching_rect" : [ 60.0, 44.0, 25.0, 25.0 ],
					"outlettype" : [ "" ],
					"comment" : "(string) method"
				}

			}
, 			{
				"box" : 				{
					"maxclass" : "newobj",
					"text" : "sprintf %s_%s\\, %s",
					"fontsize" : 12.0,
					"id" : "obj-31",
					"numinlets" : 3,
					"numoutlets" : 1,
					"patching_rect" : [ 13.0, 117.5, 113.0, 20.0 ],
					"outlettype" : [ "" ],
					"fontname" : "Arial"
				}

			}
 ],
		"lines" : [ 			{
				"patchline" : 				{
					"source" : [ "obj-8", 0 ],
					"destination" : [ "obj-5", 0 ],
					"hidden" : 0,
					"midpoints" : [  ]
				}

			}
, 			{
				"patchline" : 				{
					"source" : [ "obj-30", 0 ],
					"destination" : [ "obj-32", 0 ],
					"hidden" : 0,
					"midpoints" : [  ]
				}

			}
, 			{
				"patchline" : 				{
					"source" : [ "obj-32", 0 ],
					"destination" : [ "obj-31", 0 ],
					"hidden" : 0,
					"midpoints" : [  ]
				}

			}
, 			{
				"patchline" : 				{
					"source" : [ "obj-27", 0 ],
					"destination" : [ "obj-31", 2 ],
					"hidden" : 0,
					"midpoints" : [  ]
				}

			}
, 			{
				"patchline" : 				{
					"source" : [ "obj-25", 0 ],
					"destination" : [ "obj-31", 1 ],
					"hidden" : 0,
					"midpoints" : [  ]
				}

			}
, 			{
				"patchline" : 				{
					"source" : [ "obj-31", 0 ],
					"destination" : [ "obj-7", 0 ],
					"hidden" : 0,
					"midpoints" : [  ]
				}

			}
, 			{
				"patchline" : 				{
					"source" : [ "obj-7", 0 ],
					"destination" : [ "obj-8", 0 ],
					"hidden" : 0,
					"midpoints" : [  ]
				}

			}
, 			{
				"patchline" : 				{
					"source" : [ "obj-7", 0 ],
					"destination" : [ "obj-5", 1 ],
					"hidden" : 0,
					"midpoints" : [ 22.5, 174.0, 192.5, 174.0 ]
				}

			}
, 			{
				"patchline" : 				{
					"source" : [ "obj-5", 0 ],
					"destination" : [ "obj-9", 0 ],
					"hidden" : 0,
					"midpoints" : [  ]
				}

			}
 ]
	}

}
