{
	"patcher" : 	{
		"fileversion" : 1,
		"rect" : [ 1551.0, 442.0, 192.0, 228.0 ],
		"bglocked" : 0,
		"defrect" : [ 1551.0, 442.0, 192.0, 228.0 ],
		"openrect" : [ 0.0, 0.0, 0.0, 0.0 ],
		"openinpresentation" : 0,
		"default_fontsize" : 12.0,
		"default_fontface" : 0,
		"default_fontname" : "Arial",
		"gridonopen" : 0,
		"gridsize" : [ 15.0, 15.0 ],
		"gridsnaponopen" : 0,
		"toolbarvisible" : 1,
		"boxanimatetime" : 200,
		"imprint" : 0,
		"boxes" : [ 			{
				"box" : 				{
					"maxclass" : "newobj",
					"text" : "int",
					"numoutlets" : 1,
					"patching_rect" : [ 14.0, 158.0, 32.5, 20.0 ],
					"id" : "obj-3",
					"fontname" : "Arial",
					"outlettype" : [ "int" ],
					"fontsize" : 12.0,
					"numinlets" : 2
				}

			}
, 			{
				"box" : 				{
					"maxclass" : "inlet",
					"numoutlets" : 1,
					"patching_rect" : [ 97.0, 11.0, 25.0, 25.0 ],
					"id" : "obj-7",
					"outlettype" : [ "" ],
					"numinlets" : 0,
					"comment" : "(int) key number to check"
				}

			}
, 			{
				"box" : 				{
					"maxclass" : "button",
					"numoutlets" : 1,
					"patching_rect" : [ 14.0, 127.0, 20.0, 20.0 ],
					"id" : "obj-6",
					"outlettype" : [ "bang" ],
					"numinlets" : 1
				}

			}
, 			{
				"box" : 				{
					"maxclass" : "message",
					"text" : "0",
					"numoutlets" : 1,
					"patching_rect" : [ 117.0, 122.0, 32.5, 18.0 ],
					"id" : "obj-38",
					"fontname" : "Arial",
					"outlettype" : [ "" ],
					"fontsize" : 12.0,
					"numinlets" : 2
				}

			}
, 			{
				"box" : 				{
					"maxclass" : "newobj",
					"text" : "sel 1",
					"numoutlets" : 2,
					"patching_rect" : [ 117.0, 96.0, 36.0, 20.0 ],
					"id" : "obj-39",
					"fontname" : "Arial",
					"outlettype" : [ "bang", "" ],
					"fontsize" : 12.0,
					"numinlets" : 2
				}

			}
, 			{
				"box" : 				{
					"maxclass" : "message",
					"text" : "1",
					"numoutlets" : 1,
					"patching_rect" : [ 45.0, 122.0, 32.5, 18.0 ],
					"id" : "obj-37",
					"fontname" : "Arial",
					"outlettype" : [ "" ],
					"fontsize" : 12.0,
					"numinlets" : 2
				}

			}
, 			{
				"box" : 				{
					"maxclass" : "newobj",
					"text" : "sel 1",
					"numoutlets" : 2,
					"patching_rect" : [ 45.0, 96.0, 36.0, 20.0 ],
					"id" : "obj-36",
					"fontname" : "Arial",
					"outlettype" : [ "bang", "" ],
					"fontsize" : 12.0,
					"numinlets" : 2
				}

			}
, 			{
				"box" : 				{
					"maxclass" : "newobj",
					"text" : "== #1",
					"numoutlets" : 1,
					"patching_rect" : [ 117.0, 70.0, 41.0, 20.0 ],
					"id" : "obj-35",
					"fontname" : "Arial",
					"outlettype" : [ "int" ],
					"fontsize" : 12.0,
					"numinlets" : 2
				}

			}
, 			{
				"box" : 				{
					"maxclass" : "newobj",
					"text" : "keyup",
					"numoutlets" : 4,
					"patching_rect" : [ 117.0, 45.0, 45.5, 20.0 ],
					"id" : "obj-34",
					"fontname" : "Arial",
					"outlettype" : [ "int", "int", "int", "int" ],
					"fontsize" : 12.0,
					"numinlets" : 0
				}

			}
, 			{
				"box" : 				{
					"maxclass" : "newobj",
					"text" : "== #1",
					"numoutlets" : 1,
					"patching_rect" : [ 45.0, 70.0, 41.0, 20.0 ],
					"id" : "obj-31",
					"fontname" : "Arial",
					"outlettype" : [ "int" ],
					"fontsize" : 12.0,
					"numinlets" : 2
				}

			}
, 			{
				"box" : 				{
					"maxclass" : "newobj",
					"text" : "key",
					"numoutlets" : 4,
					"patching_rect" : [ 45.0, 45.0, 36.5, 20.0 ],
					"id" : "obj-5",
					"fontname" : "Arial",
					"outlettype" : [ "int", "int", "int", "int" ],
					"fontsize" : 12.0,
					"numinlets" : 0
				}

			}
, 			{
				"box" : 				{
					"maxclass" : "outlet",
					"numoutlets" : 0,
					"patching_rect" : [ 14.0, 189.0, 25.0, 25.0 ],
					"id" : "obj-2",
					"numinlets" : 1,
					"comment" : "(bool) is key down"
				}

			}
, 			{
				"box" : 				{
					"maxclass" : "inlet",
					"numoutlets" : 1,
					"patching_rect" : [ 12.0, 11.0, 25.0, 25.0 ],
					"id" : "obj-1",
					"outlettype" : [ "" ],
					"numinlets" : 0,
					"comment" : "(anything) checks key status"
				}

			}
 ],
		"lines" : [ 			{
				"patchline" : 				{
					"source" : [ "obj-3", 0 ],
					"destination" : [ "obj-2", 0 ],
					"hidden" : 0,
					"midpoints" : [  ]
				}

			}
, 			{
				"patchline" : 				{
					"source" : [ "obj-6", 0 ],
					"destination" : [ "obj-3", 0 ],
					"hidden" : 0,
					"midpoints" : [  ]
				}

			}
, 			{
				"patchline" : 				{
					"source" : [ "obj-37", 0 ],
					"destination" : [ "obj-3", 1 ],
					"hidden" : 0,
					"midpoints" : [ 54.5, 148.5, 37.0, 148.5 ]
				}

			}
, 			{
				"patchline" : 				{
					"source" : [ "obj-38", 0 ],
					"destination" : [ "obj-3", 1 ],
					"hidden" : 0,
					"midpoints" : [ 126.5, 148.5, 37.0, 148.5 ]
				}

			}
, 			{
				"patchline" : 				{
					"source" : [ "obj-7", 0 ],
					"destination" : [ "obj-31", 1 ],
					"hidden" : 0,
					"midpoints" : [  ]
				}

			}
, 			{
				"patchline" : 				{
					"source" : [ "obj-7", 0 ],
					"destination" : [ "obj-35", 1 ],
					"hidden" : 0,
					"midpoints" : [  ]
				}

			}
, 			{
				"patchline" : 				{
					"source" : [ "obj-1", 0 ],
					"destination" : [ "obj-6", 0 ],
					"hidden" : 0,
					"midpoints" : [  ]
				}

			}
, 			{
				"patchline" : 				{
					"source" : [ "obj-34", 0 ],
					"destination" : [ "obj-35", 0 ],
					"hidden" : 0,
					"midpoints" : [  ]
				}

			}
, 			{
				"patchline" : 				{
					"source" : [ "obj-35", 0 ],
					"destination" : [ "obj-39", 0 ],
					"hidden" : 0,
					"midpoints" : [  ]
				}

			}
, 			{
				"patchline" : 				{
					"source" : [ "obj-5", 0 ],
					"destination" : [ "obj-31", 0 ],
					"hidden" : 0,
					"midpoints" : [  ]
				}

			}
, 			{
				"patchline" : 				{
					"source" : [ "obj-31", 0 ],
					"destination" : [ "obj-36", 0 ],
					"hidden" : 0,
					"midpoints" : [  ]
				}

			}
, 			{
				"patchline" : 				{
					"source" : [ "obj-36", 0 ],
					"destination" : [ "obj-37", 0 ],
					"hidden" : 0,
					"midpoints" : [  ]
				}

			}
, 			{
				"patchline" : 				{
					"source" : [ "obj-39", 0 ],
					"destination" : [ "obj-38", 0 ],
					"hidden" : 0,
					"midpoints" : [  ]
				}

			}
 ]
	}

}
