{
	"patcher" : 	{
		"fileversion" : 1,
		"rect" : [ 447.0, 89.0, 522.0, 487.0 ],
		"bglocked" : 0,
		"defrect" : [ 447.0, 89.0, 522.0, 487.0 ],
		"openrect" : [ 0.0, 0.0, 0.0, 0.0 ],
		"openinpresentation" : 0,
		"default_fontsize" : 12.0,
		"default_fontface" : 0,
		"default_fontname" : "Arial",
		"gridonopen" : 0,
		"gridsize" : [ 15.0, 15.0 ],
		"gridsnaponopen" : 0,
		"toolbarvisible" : 1,
		"boxanimatetime" : 200,
		"imprint" : 0,
		"boxes" : [ 			{
				"box" : 				{
					"maxclass" : "newobj",
					"text" : "t s clear",
					"id" : "obj-44",
					"fontname" : "Arial",
					"numinlets" : 1,
					"numoutlets" : 2,
					"fontsize" : 12.0,
					"outlettype" : [ "", "clear" ],
					"patching_rect" : [ 16.0, 388.0, 53.0, 20.0 ]
				}

			}
, 			{
				"box" : 				{
					"maxclass" : "newobj",
					"text" : "t i i",
					"id" : "obj-43",
					"fontname" : "Arial",
					"numinlets" : 1,
					"numoutlets" : 2,
					"fontsize" : 12.0,
					"outlettype" : [ "int", "int" ],
					"patching_rect" : [ 16.0, 293.0, 32.5, 20.0 ]
				}

			}
, 			{
				"box" : 				{
					"maxclass" : "newobj",
					"text" : "t i i",
					"id" : "obj-42",
					"fontname" : "Arial",
					"numinlets" : 1,
					"numoutlets" : 2,
					"fontsize" : 12.0,
					"outlettype" : [ "int", "int" ],
					"patching_rect" : [ 51.0, 293.0, 32.5, 20.0 ]
				}

			}
, 			{
				"box" : 				{
					"maxclass" : "newobj",
					"text" : "t i i",
					"id" : "obj-41",
					"fontname" : "Arial",
					"numinlets" : 1,
					"numoutlets" : 2,
					"fontsize" : 12.0,
					"outlettype" : [ "int", "int" ],
					"patching_rect" : [ 109.0, 294.0, 32.5, 20.0 ]
				}

			}
, 			{
				"box" : 				{
					"maxclass" : "newobj",
					"text" : "t i i",
					"id" : "obj-40",
					"fontname" : "Arial",
					"numinlets" : 1,
					"numoutlets" : 2,
					"fontsize" : 12.0,
					"outlettype" : [ "int", "int" ],
					"patching_rect" : [ 144.0, 294.0, 32.5, 20.0 ]
				}

			}
, 			{
				"box" : 				{
					"maxclass" : "newobj",
					"text" : "unpack 0 0 0",
					"id" : "obj-39",
					"fontname" : "Arial",
					"numinlets" : 1,
					"numoutlets" : 3,
					"fontsize" : 12.0,
					"outlettype" : [ "int", "int", "int" ],
					"patching_rect" : [ 186.0, 336.0, 104.0, 20.0 ]
				}

			}
, 			{
				"box" : 				{
					"maxclass" : "newobj",
					"text" : "t l l",
					"id" : "obj-38",
					"fontname" : "Arial",
					"numinlets" : 1,
					"numoutlets" : 2,
					"fontsize" : 12.0,
					"outlettype" : [ "", "" ],
					"patching_rect" : [ 186.0, 277.0, 32.5, 20.0 ]
				}

			}
, 			{
				"box" : 				{
					"maxclass" : "newobj",
					"text" : "unpack 0 0 0",
					"id" : "obj-37",
					"fontname" : "Arial",
					"numinlets" : 1,
					"numoutlets" : 3,
					"fontsize" : 12.0,
					"outlettype" : [ "int", "int", "int" ],
					"patching_rect" : [ 425.0, 332.0, 83.0, 20.0 ]
				}

			}
, 			{
				"box" : 				{
					"maxclass" : "newobj",
					"text" : "t l 0 l",
					"id" : "obj-32",
					"fontname" : "Arial",
					"numinlets" : 1,
					"numoutlets" : 3,
					"fontsize" : 12.0,
					"outlettype" : [ "", "int", "" ],
					"patching_rect" : [ 122.0, 156.0, 46.0, 20.0 ]
				}

			}
, 			{
				"box" : 				{
					"maxclass" : "newobj",
					"text" : "t i i",
					"id" : "obj-30",
					"fontname" : "Arial",
					"numinlets" : 1,
					"numoutlets" : 2,
					"fontsize" : 12.0,
					"outlettype" : [ "int", "int" ],
					"patching_rect" : [ 70.0, 101.0, 70.5, 20.0 ]
				}

			}
, 			{
				"box" : 				{
					"maxclass" : "comment",
					"text" : "onlick mouse coords [x,y]",
					"id" : "obj-29",
					"fontname" : "Arial",
					"numinlets" : 1,
					"numoutlets" : 0,
					"fontsize" : 11.0,
					"patching_rect" : [ 55.0, 20.0, 139.0, 19.0 ]
				}

			}
, 			{
				"box" : 				{
					"maxclass" : "comment",
					"text" : "r g b selection border color",
					"id" : "obj-28",
					"fontname" : "Arial",
					"numinlets" : 1,
					"numoutlets" : 0,
					"fontsize" : 11.0,
					"patching_rect" : [ 213.0, 159.0, 141.0, 19.0 ]
				}

			}
, 			{
				"box" : 				{
					"maxclass" : "comment",
					"text" : "is mouse down",
					"id" : "obj-27",
					"fontname" : "Arial",
					"numinlets" : 1,
					"numoutlets" : 0,
					"fontsize" : 11.0,
					"patching_rect" : [ 73.0, 64.0, 89.0, 19.0 ]
				}

			}
, 			{
				"box" : 				{
					"maxclass" : "comment",
					"text" : "selection data [x1, y1, x2, y2, r, g, b]",
					"id" : "obj-26",
					"fontname" : "Arial",
					"numinlets" : 1,
					"numoutlets" : 0,
					"fontsize" : 11.0,
					"patching_rect" : [ 323.0, 429.0, 189.0, 19.0 ]
				}

			}
, 			{
				"box" : 				{
					"maxclass" : "comment",
					"text" : "lcd drawing instructions",
					"id" : "obj-24",
					"fontname" : "Arial",
					"numinlets" : 1,
					"numoutlets" : 0,
					"fontsize" : 11.0,
					"patching_rect" : [ 43.0, 429.0, 139.0, 19.0 ]
				}

			}
, 			{
				"box" : 				{
					"maxclass" : "comment",
					"text" : "p.sort.i",
					"id" : "obj-20",
					"fontname" : "Arial",
					"numinlets" : 1,
					"numoutlets" : 0,
					"fontsize" : 11.0,
					"patching_rect" : [ 438.0, 24.0, 49.0, 19.0 ]
				}

			}
, 			{
				"box" : 				{
					"maxclass" : "comment",
					"text" : "dependencies",
					"id" : "obj-22",
					"fontname" : "Arial",
					"numinlets" : 1,
					"numoutlets" : 0,
					"fontsize" : 11.0,
					"patching_rect" : [ 421.0, 4.0, 78.0, 19.0 ]
				}

			}
, 			{
				"box" : 				{
					"maxclass" : "panel",
					"id" : "obj-23",
					"rounded" : 0,
					"bgcolor" : [ 0.901961, 0.901961, 0.901961, 1.0 ],
					"numinlets" : 1,
					"numoutlets" : 0,
					"patching_rect" : [ 415.0, 0.0, 88.0, 50.0 ]
				}

			}
, 			{
				"box" : 				{
					"maxclass" : "comment",
					"text" : "© 2013, Pierre-Emmanuel Lévesque",
					"id" : "obj-16",
					"fontname" : "Arial",
					"numinlets" : 1,
					"numoutlets" : 0,
					"fontsize" : 10.0,
					"patching_rect" : [ 348.0, 466.0, 171.0, 18.0 ]
				}

			}
, 			{
				"box" : 				{
					"maxclass" : "newobj",
					"text" : "p.sort.i",
					"id" : "obj-15",
					"fontname" : "Arial",
					"numinlets" : 3,
					"numoutlets" : 2,
					"fontsize" : 12.0,
					"outlettype" : [ "int", "int" ],
					"color" : [ 0.317647, 0.709804, 0.321569, 1.0 ],
					"patching_rect" : [ 109.0, 268.0, 54.0, 20.0 ]
				}

			}
, 			{
				"box" : 				{
					"maxclass" : "newobj",
					"text" : "p.sort.i",
					"id" : "obj-12",
					"fontname" : "Arial",
					"numinlets" : 3,
					"numoutlets" : 2,
					"fontsize" : 12.0,
					"outlettype" : [ "int", "int" ],
					"color" : [ 0.317647, 0.709804, 0.321569, 1.0 ],
					"patching_rect" : [ 16.0, 267.0, 54.0, 20.0 ]
				}

			}
, 			{
				"box" : 				{
					"maxclass" : "newobj",
					"text" : "sel 0",
					"id" : "obj-13",
					"fontname" : "Arial",
					"numinlets" : 2,
					"numoutlets" : 2,
					"fontsize" : 12.0,
					"outlettype" : [ "bang", "" ],
					"patching_rect" : [ 70.0, 129.0, 36.0, 20.0 ]
				}

			}
, 			{
				"box" : 				{
					"maxclass" : "newobj",
					"text" : "loadbang",
					"id" : "obj-11",
					"fontname" : "Arial",
					"numinlets" : 1,
					"numoutlets" : 1,
					"fontsize" : 12.0,
					"outlettype" : [ "bang" ],
					"patching_rect" : [ 209.0, 218.0, 62.0, 20.0 ]
				}

			}
, 			{
				"box" : 				{
					"maxclass" : "message",
					"text" : "#1 #2 #3",
					"id" : "obj-8",
					"fontname" : "Arial",
					"numinlets" : 2,
					"numoutlets" : 1,
					"fontsize" : 12.0,
					"outlettype" : [ "" ],
					"patching_rect" : [ 209.0, 246.0, 99.0, 18.0 ]
				}

			}
, 			{
				"box" : 				{
					"maxclass" : "newobj",
					"text" : "pack 0 0 0 0 0 0 0",
					"id" : "obj-7",
					"fontname" : "Arial",
					"numinlets" : 7,
					"numoutlets" : 1,
					"fontsize" : 12.0,
					"outlettype" : [ "" ],
					"patching_rect" : [ 296.0, 361.0, 212.0, 20.0 ]
				}

			}
, 			{
				"box" : 				{
					"maxclass" : "outlet",
					"id" : "obj-6",
					"numinlets" : 1,
					"numoutlets" : 0,
					"patching_rect" : [ 296.0, 426.0, 25.0, 25.0 ],
					"comment" : "(list) selection data [x1, y1, x2, y2, r g b]"
				}

			}
, 			{
				"box" : 				{
					"maxclass" : "inlet",
					"id" : "obj-9",
					"numinlets" : 0,
					"numoutlets" : 1,
					"outlettype" : [ "" ],
					"patching_rect" : [ 186.0, 157.0, 25.0, 25.0 ],
					"comment" : "(list) selection border color [r, g, b]"
				}

			}
, 			{
				"box" : 				{
					"maxclass" : "outlet",
					"id" : "obj-3",
					"numinlets" : 1,
					"numoutlets" : 0,
					"patching_rect" : [ 16.0, 426.0, 25.0, 25.0 ],
					"comment" : "(messages) lcd drawing instructions preceded by a 'clear'"
				}

			}
, 			{
				"box" : 				{
					"maxclass" : "inlet",
					"id" : "obj-2",
					"numinlets" : 0,
					"numoutlets" : 1,
					"outlettype" : [ "" ],
					"patching_rect" : [ 28.0, 18.0, 25.0, 25.0 ],
					"comment" : "(list) onclick mouse coordinates [x, y]"
				}

			}
, 			{
				"box" : 				{
					"maxclass" : "inlet",
					"id" : "obj-1",
					"numinlets" : 0,
					"numoutlets" : 1,
					"outlettype" : [ "" ],
					"patching_rect" : [ 47.0, 61.0, 25.0, 25.0 ],
					"comment" : "(bool) is mouse down "
				}

			}
, 			{
				"box" : 				{
					"maxclass" : "message",
					"text" : "1",
					"id" : "obj-35",
					"fontname" : "Arial",
					"numinlets" : 2,
					"numoutlets" : 1,
					"fontsize" : 12.0,
					"outlettype" : [ "" ],
					"patching_rect" : [ 70.0, 156.0, 29.5, 18.0 ]
				}

			}
, 			{
				"box" : 				{
					"maxclass" : "newobj",
					"text" : "gate",
					"id" : "obj-31",
					"fontname" : "Arial",
					"numinlets" : 2,
					"numoutlets" : 1,
					"fontsize" : 12.0,
					"outlettype" : [ "" ],
					"patching_rect" : [ 122.0, 129.0, 44.0, 20.0 ]
				}

			}
, 			{
				"box" : 				{
					"maxclass" : "newobj",
					"text" : "unpack",
					"id" : "obj-25",
					"fontname" : "Arial",
					"numinlets" : 1,
					"numoutlets" : 2,
					"fontsize" : 12.0,
					"outlettype" : [ "int", "int" ],
					"patching_rect" : [ 16.0, 201.0, 49.0, 20.0 ]
				}

			}
, 			{
				"box" : 				{
					"maxclass" : "newobj",
					"text" : "sprintf framerect %i %i %i %i %i %i %i",
					"id" : "obj-21",
					"fontname" : "Arial",
					"numinlets" : 7,
					"numoutlets" : 1,
					"fontsize" : 12.0,
					"outlettype" : [ "" ],
					"patching_rect" : [ 16.0, 361.0, 274.0, 20.0 ]
				}

			}
, 			{
				"box" : 				{
					"maxclass" : "newobj",
					"text" : "gate 1 1",
					"id" : "obj-14",
					"fontname" : "Arial",
					"numinlets" : 2,
					"numoutlets" : 1,
					"fontsize" : 12.0,
					"outlettype" : [ "" ],
					"patching_rect" : [ 70.0, 201.0, 98.0, 20.0 ]
				}

			}
, 			{
				"box" : 				{
					"maxclass" : "newobj",
					"text" : "unpack",
					"id" : "obj-17",
					"fontname" : "Arial",
					"numinlets" : 1,
					"numoutlets" : 2,
					"fontsize" : 12.0,
					"outlettype" : [ "int", "int" ],
					"patching_rect" : [ 70.0, 227.0, 93.0, 20.0 ]
				}

			}
 ],
		"lines" : [ 			{
				"patchline" : 				{
					"source" : [ "obj-25", 1 ],
					"destination" : [ "obj-15", 0 ],
					"hidden" : 0,
					"color" : [ 1.0, 0.337255, 0.619608, 1.0 ],
					"midpoints" : [ 55.5, 259.5, 118.5, 259.5 ]
				}

			}
, 			{
				"patchline" : 				{
					"source" : [ "obj-17", 1 ],
					"destination" : [ "obj-15", 1 ],
					"hidden" : 0,
					"midpoints" : [ 153.5, 259.0, 136.0, 259.0 ]
				}

			}
, 			{
				"patchline" : 				{
					"source" : [ "obj-15", 1 ],
					"destination" : [ "obj-40", 0 ],
					"hidden" : 0,
					"midpoints" : [  ]
				}

			}
, 			{
				"patchline" : 				{
					"source" : [ "obj-15", 0 ],
					"destination" : [ "obj-41", 0 ],
					"hidden" : 0,
					"midpoints" : [  ]
				}

			}
, 			{
				"patchline" : 				{
					"source" : [ "obj-17", 0 ],
					"destination" : [ "obj-12", 1 ],
					"hidden" : 0,
					"midpoints" : [ 79.5, 253.0, 43.0, 253.0 ]
				}

			}
, 			{
				"patchline" : 				{
					"source" : [ "obj-12", 1 ],
					"destination" : [ "obj-42", 0 ],
					"hidden" : 0,
					"midpoints" : [  ]
				}

			}
, 			{
				"patchline" : 				{
					"source" : [ "obj-12", 0 ],
					"destination" : [ "obj-43", 0 ],
					"hidden" : 0,
					"midpoints" : [  ]
				}

			}
, 			{
				"patchline" : 				{
					"source" : [ "obj-25", 0 ],
					"destination" : [ "obj-12", 0 ],
					"hidden" : 0,
					"midpoints" : [  ]
				}

			}
, 			{
				"patchline" : 				{
					"source" : [ "obj-13", 0 ],
					"destination" : [ "obj-35", 0 ],
					"hidden" : 0,
					"midpoints" : [  ]
				}

			}
, 			{
				"patchline" : 				{
					"source" : [ "obj-11", 0 ],
					"destination" : [ "obj-8", 0 ],
					"hidden" : 0,
					"midpoints" : [  ]
				}

			}
, 			{
				"patchline" : 				{
					"source" : [ "obj-2", 0 ],
					"destination" : [ "obj-31", 1 ],
					"hidden" : 0,
					"midpoints" : [ 37.5, 50.5, 156.5, 50.5 ]
				}

			}
, 			{
				"patchline" : 				{
					"source" : [ "obj-35", 0 ],
					"destination" : [ "obj-14", 0 ],
					"hidden" : 0,
					"color" : [ 1.0, 0.337255, 0.619608, 1.0 ],
					"midpoints" : [ 79.5, 193.0, 79.5, 193.0 ]
				}

			}
, 			{
				"patchline" : 				{
					"source" : [ "obj-14", 0 ],
					"destination" : [ "obj-17", 0 ],
					"hidden" : 0,
					"midpoints" : [  ]
				}

			}
, 			{
				"patchline" : 				{
					"source" : [ "obj-7", 0 ],
					"destination" : [ "obj-6", 0 ],
					"hidden" : 0,
					"midpoints" : [  ]
				}

			}
, 			{
				"patchline" : 				{
					"source" : [ "obj-1", 0 ],
					"destination" : [ "obj-30", 0 ],
					"hidden" : 0,
					"midpoints" : [ 56.5, 93.0, 79.5, 93.0 ]
				}

			}
, 			{
				"patchline" : 				{
					"source" : [ "obj-30", 1 ],
					"destination" : [ "obj-31", 0 ],
					"hidden" : 0,
					"midpoints" : [  ]
				}

			}
, 			{
				"patchline" : 				{
					"source" : [ "obj-30", 0 ],
					"destination" : [ "obj-13", 0 ],
					"hidden" : 0,
					"midpoints" : [  ]
				}

			}
, 			{
				"patchline" : 				{
					"source" : [ "obj-31", 0 ],
					"destination" : [ "obj-32", 0 ],
					"hidden" : 0,
					"midpoints" : [  ]
				}

			}
, 			{
				"patchline" : 				{
					"source" : [ "obj-32", 2 ],
					"destination" : [ "obj-14", 1 ],
					"hidden" : 0,
					"midpoints" : [  ]
				}

			}
, 			{
				"patchline" : 				{
					"source" : [ "obj-32", 1 ],
					"destination" : [ "obj-14", 0 ],
					"hidden" : 0,
					"midpoints" : [ 145.0, 194.5, 79.5, 194.5 ]
				}

			}
, 			{
				"patchline" : 				{
					"source" : [ "obj-32", 0 ],
					"destination" : [ "obj-25", 0 ],
					"hidden" : 0,
					"midpoints" : [ 131.5, 188.5, 25.5, 188.5 ]
				}

			}
, 			{
				"patchline" : 				{
					"source" : [ "obj-37", 0 ],
					"destination" : [ "obj-7", 4 ],
					"hidden" : 0,
					"midpoints" : [  ]
				}

			}
, 			{
				"patchline" : 				{
					"source" : [ "obj-37", 1 ],
					"destination" : [ "obj-7", 5 ],
					"hidden" : 0,
					"midpoints" : [  ]
				}

			}
, 			{
				"patchline" : 				{
					"source" : [ "obj-37", 2 ],
					"destination" : [ "obj-7", 6 ],
					"hidden" : 0,
					"midpoints" : [  ]
				}

			}
, 			{
				"patchline" : 				{
					"source" : [ "obj-8", 0 ],
					"destination" : [ "obj-38", 0 ],
					"hidden" : 0,
					"midpoints" : [ 218.5, 271.0, 195.5, 271.0 ]
				}

			}
, 			{
				"patchline" : 				{
					"source" : [ "obj-9", 0 ],
					"destination" : [ "obj-38", 0 ],
					"hidden" : 0,
					"midpoints" : [  ]
				}

			}
, 			{
				"patchline" : 				{
					"source" : [ "obj-38", 1 ],
					"destination" : [ "obj-37", 0 ],
					"hidden" : 0,
					"midpoints" : [ 209.0, 304.0, 434.5, 304.0 ]
				}

			}
, 			{
				"patchline" : 				{
					"source" : [ "obj-38", 0 ],
					"destination" : [ "obj-39", 0 ],
					"hidden" : 0,
					"midpoints" : [  ]
				}

			}
, 			{
				"patchline" : 				{
					"source" : [ "obj-39", 0 ],
					"destination" : [ "obj-21", 4 ],
					"hidden" : 0,
					"midpoints" : [  ]
				}

			}
, 			{
				"patchline" : 				{
					"source" : [ "obj-39", 1 ],
					"destination" : [ "obj-21", 5 ],
					"hidden" : 0,
					"midpoints" : [  ]
				}

			}
, 			{
				"patchline" : 				{
					"source" : [ "obj-39", 2 ],
					"destination" : [ "obj-21", 6 ],
					"hidden" : 0,
					"midpoints" : [  ]
				}

			}
, 			{
				"patchline" : 				{
					"source" : [ "obj-40", 1 ],
					"destination" : [ "obj-7", 3 ],
					"hidden" : 0,
					"color" : [ 0.317647, 0.709804, 0.321569, 1.0 ],
					"midpoints" : [ 167.0, 318.0, 402.0, 318.0 ]
				}

			}
, 			{
				"patchline" : 				{
					"source" : [ "obj-40", 0 ],
					"destination" : [ "obj-21", 3 ],
					"hidden" : 0,
					"color" : [ 1.0, 0.337255, 0.619608, 1.0 ],
					"midpoints" : [  ]
				}

			}
, 			{
				"patchline" : 				{
					"source" : [ "obj-41", 1 ],
					"destination" : [ "obj-7", 1 ],
					"hidden" : 0,
					"color" : [ 0.317647, 0.709804, 0.321569, 1.0 ],
					"midpoints" : [ 132.0, 322.0, 337.666656, 322.0 ]
				}

			}
, 			{
				"patchline" : 				{
					"source" : [ "obj-41", 0 ],
					"destination" : [ "obj-21", 1 ],
					"hidden" : 0,
					"color" : [ 1.0, 0.337255, 0.619608, 1.0 ],
					"midpoints" : [ 118.5, 344.5, 68.0, 344.5 ]
				}

			}
, 			{
				"patchline" : 				{
					"source" : [ "obj-42", 1 ],
					"destination" : [ "obj-7", 2 ],
					"hidden" : 0,
					"color" : [ 0.317647, 0.709804, 0.321569, 1.0 ],
					"midpoints" : [ 74.0, 326.5, 369.833344, 326.5 ]
				}

			}
, 			{
				"patchline" : 				{
					"source" : [ "obj-42", 0 ],
					"destination" : [ "obj-21", 2 ],
					"hidden" : 0,
					"color" : [ 1.0, 0.337255, 0.619608, 1.0 ],
					"midpoints" : [ 60.5, 336.0, 110.5, 336.0 ]
				}

			}
, 			{
				"patchline" : 				{
					"source" : [ "obj-43", 1 ],
					"destination" : [ "obj-7", 0 ],
					"hidden" : 0,
					"color" : [ 0.317647, 0.709804, 0.321569, 1.0 ],
					"midpoints" : [ 39.0, 330.5, 305.5, 330.5 ]
				}

			}
, 			{
				"patchline" : 				{
					"source" : [ "obj-43", 0 ],
					"destination" : [ "obj-21", 0 ],
					"hidden" : 0,
					"color" : [ 1.0, 0.337255, 0.619608, 1.0 ],
					"midpoints" : [  ]
				}

			}
, 			{
				"patchline" : 				{
					"source" : [ "obj-21", 0 ],
					"destination" : [ "obj-44", 0 ],
					"hidden" : 0,
					"midpoints" : [  ]
				}

			}
, 			{
				"patchline" : 				{
					"source" : [ "obj-44", 0 ],
					"destination" : [ "obj-3", 0 ],
					"hidden" : 0,
					"midpoints" : [  ]
				}

			}
, 			{
				"patchline" : 				{
					"source" : [ "obj-44", 1 ],
					"destination" : [ "obj-3", 0 ],
					"hidden" : 0,
					"midpoints" : [ 59.5, 413.0, 25.5, 413.0 ]
				}

			}
 ]
	}

}
