{
	"patcher" : 	{
		"fileversion" : 1,
		"rect" : [ 571.0, 65.0, 343.0, 661.0 ],
		"bglocked" : 0,
		"defrect" : [ 571.0, 65.0, 343.0, 661.0 ],
		"openrect" : [ 0.0, 0.0, 0.0, 0.0 ],
		"openinpresentation" : 0,
		"default_fontsize" : 12.0,
		"default_fontface" : 0,
		"default_fontname" : "Arial",
		"gridonopen" : 0,
		"gridsize" : [ 15.0, 15.0 ],
		"gridsnaponopen" : 0,
		"toolbarvisible" : 1,
		"boxanimatetime" : 200,
		"imprint" : 0,
		"boxes" : [ 			{
				"box" : 				{
					"maxclass" : "newobj",
					"text" : "r #2_playGain",
					"patching_rect" : [ 67.0, 391.0, 85.0, 20.0 ],
					"fontsize" : 12.0,
					"id" : "obj-16",
					"numinlets" : 0,
					"numoutlets" : 1,
					"outlettype" : [ "" ],
					"fontname" : "Arial"
				}

			}
, 			{
				"box" : 				{
					"maxclass" : "newobj",
					"text" : "r #1_playGain",
					"patching_rect" : [ 49.0, 365.0, 85.0, 20.0 ],
					"fontsize" : 12.0,
					"id" : "obj-15",
					"numinlets" : 0,
					"numoutlets" : 1,
					"outlettype" : [ "" ],
					"fontname" : "Arial"
				}

			}
, 			{
				"box" : 				{
					"maxclass" : "newobj",
					"text" : "*~ 1.",
					"patching_rect" : [ 16.0, 430.0, 52.0, 20.0 ],
					"fontsize" : 12.0,
					"id" : "obj-14",
					"numinlets" : 2,
					"numoutlets" : 1,
					"outlettype" : [ "signal" ],
					"fontname" : "Arial"
				}

			}
, 			{
				"box" : 				{
					"maxclass" : "newobj",
					"text" : "r #1_panFadeTime",
					"patching_rect" : [ 74.0, 515.0, 112.0, 20.0 ],
					"fontsize" : 12.0,
					"id" : "obj-13",
					"numinlets" : 0,
					"numoutlets" : 1,
					"outlettype" : [ "" ],
					"fontname" : "Arial"
				}

			}
, 			{
				"box" : 				{
					"maxclass" : "newobj",
					"text" : "r #1_panAmount",
					"patching_rect" : [ 35.0, 471.0, 99.0, 20.0 ],
					"fontsize" : 12.0,
					"id" : "obj-12",
					"numinlets" : 0,
					"numoutlets" : 1,
					"outlettype" : [ "" ],
					"fontname" : "Arial"
				}

			}
, 			{
				"box" : 				{
					"maxclass" : "newobj",
					"text" : "r #1_playSpeed",
					"patching_rect" : [ 52.0, 59.0, 95.0, 20.0 ],
					"fontsize" : 12.0,
					"id" : "obj-4",
					"numinlets" : 0,
					"numoutlets" : 1,
					"outlettype" : [ "" ],
					"fontname" : "Arial"
				}

			}
, 			{
				"box" : 				{
					"maxclass" : "newobj",
					"text" : "r #1_playEnvPeak",
					"patching_rect" : [ 194.0, 235.0, 108.0, 20.0 ],
					"fontsize" : 12.0,
					"id" : "obj-7",
					"numinlets" : 0,
					"numoutlets" : 1,
					"outlettype" : [ "" ],
					"fontname" : "Arial"
				}

			}
, 			{
				"box" : 				{
					"maxclass" : "newobj",
					"text" : "r #1_playEndTime",
					"patching_rect" : [ 158.0, 191.0, 108.0, 20.0 ],
					"fontsize" : 12.0,
					"id" : "obj-8",
					"numinlets" : 0,
					"numoutlets" : 1,
					"outlettype" : [ "" ],
					"fontname" : "Arial"
				}

			}
, 			{
				"box" : 				{
					"maxclass" : "newobj",
					"text" : "r #1_playStartTime",
					"patching_rect" : [ 123.0, 147.0, 112.0, 20.0 ],
					"fontsize" : 12.0,
					"id" : "obj-9",
					"numinlets" : 0,
					"numoutlets" : 1,
					"outlettype" : [ "" ],
					"fontname" : "Arial"
				}

			}
, 			{
				"box" : 				{
					"maxclass" : "newobj",
					"text" : "r #1_playPercentage",
					"patching_rect" : [ 87.0, 103.0, 121.0, 20.0 ],
					"fontsize" : 12.0,
					"id" : "obj-10",
					"numinlets" : 0,
					"numoutlets" : 1,
					"outlettype" : [ "" ],
					"fontname" : "Arial"
				}

			}
, 			{
				"box" : 				{
					"maxclass" : "newobj",
					"text" : "r #1_playCommands",
					"patching_rect" : [ 16.0, 15.0, 121.0, 20.0 ],
					"fontsize" : 12.0,
					"id" : "obj-11",
					"numinlets" : 0,
					"numoutlets" : 1,
					"outlettype" : [ "" ],
					"fontname" : "Arial"
				}

			}
, 			{
				"box" : 				{
					"maxclass" : "newobj",
					"text" : "send~ #1_audioR",
					"patching_rect" : [ 74.0, 598.0, 105.0, 20.0 ],
					"fontsize" : 12.0,
					"id" : "obj-1",
					"numinlets" : 1,
					"numoutlets" : 0,
					"fontname" : "Arial"
				}

			}
, 			{
				"box" : 				{
					"maxclass" : "newobj",
					"text" : "send~ #1_audioL",
					"patching_rect" : [ 16.0, 627.0, 103.0, 20.0 ],
					"fontsize" : 12.0,
					"id" : "obj-6",
					"numinlets" : 1,
					"numoutlets" : 0,
					"fontname" : "Arial"
				}

			}
, 			{
				"box" : 				{
					"maxclass" : "newobj",
					"text" : "r #2_panFadeTime",
					"patching_rect" : [ 89.0, 537.0, 112.0, 20.0 ],
					"fontsize" : 12.0,
					"id" : "obj-27",
					"numinlets" : 0,
					"numoutlets" : 1,
					"outlettype" : [ "" ],
					"fontname" : "Arial"
				}

			}
, 			{
				"box" : 				{
					"maxclass" : "newobj",
					"text" : "r #2_panAmount",
					"patching_rect" : [ 50.0, 493.0, 99.0, 20.0 ],
					"fontsize" : 12.0,
					"id" : "obj-19",
					"numinlets" : 0,
					"numoutlets" : 1,
					"outlettype" : [ "" ],
					"fontname" : "Arial"
				}

			}
, 			{
				"box" : 				{
					"maxclass" : "newobj",
					"text" : "pan2",
					"patching_rect" : [ 16.0, 567.0, 76.5, 20.0 ],
					"fontsize" : 12.0,
					"id" : "obj-5",
					"numinlets" : 4,
					"numoutlets" : 2,
					"outlettype" : [ "signal", "signal" ],
					"fontname" : "Arial"
				}

			}
, 			{
				"box" : 				{
					"maxclass" : "newobj",
					"text" : "s #2_playFileLength",
					"patching_rect" : [ 210.0, 316.0, 118.0, 20.0 ],
					"fontsize" : 12.0,
					"id" : "obj-22",
					"numinlets" : 1,
					"numoutlets" : 0,
					"fontname" : "Arial"
				}

			}
, 			{
				"box" : 				{
					"maxclass" : "newobj",
					"text" : "s #2_playState",
					"patching_rect" : [ 113.0, 337.0, 90.0, 20.0 ],
					"fontsize" : 12.0,
					"id" : "obj-20",
					"numinlets" : 1,
					"numoutlets" : 0,
					"fontname" : "Arial"
				}

			}
, 			{
				"box" : 				{
					"maxclass" : "newobj",
					"text" : "r #2_playSpeed",
					"patching_rect" : [ 68.0, 81.0, 95.0, 20.0 ],
					"fontsize" : 12.0,
					"id" : "obj-3",
					"numinlets" : 0,
					"numoutlets" : 1,
					"outlettype" : [ "" ],
					"fontname" : "Arial"
				}

			}
, 			{
				"box" : 				{
					"maxclass" : "newobj",
					"text" : "r #2_playEnvPeak",
					"patching_rect" : [ 210.0, 257.0, 108.0, 20.0 ],
					"fontsize" : 12.0,
					"id" : "obj-26",
					"numinlets" : 0,
					"numoutlets" : 1,
					"outlettype" : [ "" ],
					"fontname" : "Arial"
				}

			}
, 			{
				"box" : 				{
					"maxclass" : "newobj",
					"text" : "r #2_playEndTime",
					"patching_rect" : [ 175.0, 213.0, 108.0, 20.0 ],
					"fontsize" : 12.0,
					"id" : "obj-25",
					"numinlets" : 0,
					"numoutlets" : 1,
					"outlettype" : [ "" ],
					"fontname" : "Arial"
				}

			}
, 			{
				"box" : 				{
					"maxclass" : "newobj",
					"text" : "r #2_playStartTime",
					"patching_rect" : [ 140.0, 169.0, 112.0, 20.0 ],
					"fontsize" : 12.0,
					"id" : "obj-24",
					"numinlets" : 0,
					"numoutlets" : 1,
					"outlettype" : [ "" ],
					"fontname" : "Arial"
				}

			}
, 			{
				"box" : 				{
					"maxclass" : "newobj",
					"text" : "r #2_playPercentage",
					"patching_rect" : [ 103.0, 125.0, 121.0, 20.0 ],
					"fontsize" : 12.0,
					"id" : "obj-23",
					"numinlets" : 0,
					"numoutlets" : 1,
					"outlettype" : [ "" ],
					"fontname" : "Arial"
				}

			}
, 			{
				"box" : 				{
					"maxclass" : "newobj",
					"text" : "r #2_playCommands",
					"patching_rect" : [ 33.0, 37.0, 121.0, 20.0 ],
					"fontsize" : 12.0,
					"id" : "obj-21",
					"numinlets" : 0,
					"numoutlets" : 1,
					"outlettype" : [ "" ],
					"fontname" : "Arial"
				}

			}
, 			{
				"box" : 				{
					"maxclass" : "newobj",
					"text" : "p.play~ #2",
					"patching_rect" : [ 16.0, 291.0, 212.5, 20.0 ],
					"fontsize" : 12.0,
					"id" : "obj-2",
					"numinlets" : 6,
					"numoutlets" : 3,
					"outlettype" : [ "signal", "", "float" ],
					"fontname" : "Arial"
				}

			}
 ],
		"lines" : [ 			{
				"patchline" : 				{
					"source" : [ "obj-2", 0 ],
					"destination" : [ "obj-14", 0 ],
					"hidden" : 0,
					"midpoints" : [  ]
				}

			}
, 			{
				"patchline" : 				{
					"source" : [ "obj-14", 0 ],
					"destination" : [ "obj-5", 0 ],
					"hidden" : 0,
					"midpoints" : [  ]
				}

			}
, 			{
				"patchline" : 				{
					"source" : [ "obj-15", 0 ],
					"destination" : [ "obj-14", 1 ],
					"hidden" : 0,
					"midpoints" : [  ]
				}

			}
, 			{
				"patchline" : 				{
					"source" : [ "obj-16", 0 ],
					"destination" : [ "obj-14", 1 ],
					"hidden" : 0,
					"midpoints" : [ 76.5, 418.0, 58.5, 418.0 ]
				}

			}
, 			{
				"patchline" : 				{
					"source" : [ "obj-5", 1 ],
					"destination" : [ "obj-1", 0 ],
					"hidden" : 0,
					"midpoints" : [  ]
				}

			}
, 			{
				"patchline" : 				{
					"source" : [ "obj-5", 0 ],
					"destination" : [ "obj-6", 0 ],
					"hidden" : 0,
					"midpoints" : [  ]
				}

			}
, 			{
				"patchline" : 				{
					"source" : [ "obj-27", 0 ],
					"destination" : [ "obj-5", 3 ],
					"hidden" : 0,
					"midpoints" : [  ]
				}

			}
, 			{
				"patchline" : 				{
					"source" : [ "obj-13", 0 ],
					"destination" : [ "obj-5", 3 ],
					"hidden" : 0,
					"midpoints" : [  ]
				}

			}
, 			{
				"patchline" : 				{
					"source" : [ "obj-12", 0 ],
					"destination" : [ "obj-5", 1 ],
					"hidden" : 0,
					"midpoints" : [  ]
				}

			}
, 			{
				"patchline" : 				{
					"source" : [ "obj-19", 0 ],
					"destination" : [ "obj-5", 1 ],
					"hidden" : 0,
					"midpoints" : [  ]
				}

			}
, 			{
				"patchline" : 				{
					"source" : [ "obj-23", 0 ],
					"destination" : [ "obj-2", 2 ],
					"hidden" : 0,
					"midpoints" : [  ]
				}

			}
, 			{
				"patchline" : 				{
					"source" : [ "obj-24", 0 ],
					"destination" : [ "obj-2", 3 ],
					"hidden" : 0,
					"midpoints" : [  ]
				}

			}
, 			{
				"patchline" : 				{
					"source" : [ "obj-25", 0 ],
					"destination" : [ "obj-2", 4 ],
					"hidden" : 0,
					"midpoints" : [  ]
				}

			}
, 			{
				"patchline" : 				{
					"source" : [ "obj-26", 0 ],
					"destination" : [ "obj-2", 5 ],
					"hidden" : 0,
					"midpoints" : [  ]
				}

			}
, 			{
				"patchline" : 				{
					"source" : [ "obj-2", 2 ],
					"destination" : [ "obj-22", 0 ],
					"hidden" : 0,
					"midpoints" : [  ]
				}

			}
, 			{
				"patchline" : 				{
					"source" : [ "obj-2", 1 ],
					"destination" : [ "obj-20", 0 ],
					"hidden" : 0,
					"midpoints" : [  ]
				}

			}
, 			{
				"patchline" : 				{
					"source" : [ "obj-11", 0 ],
					"destination" : [ "obj-2", 0 ],
					"hidden" : 0,
					"midpoints" : [  ]
				}

			}
, 			{
				"patchline" : 				{
					"source" : [ "obj-4", 0 ],
					"destination" : [ "obj-2", 1 ],
					"hidden" : 0,
					"midpoints" : [  ]
				}

			}
, 			{
				"patchline" : 				{
					"source" : [ "obj-21", 0 ],
					"destination" : [ "obj-2", 0 ],
					"hidden" : 0,
					"midpoints" : [  ]
				}

			}
, 			{
				"patchline" : 				{
					"source" : [ "obj-3", 0 ],
					"destination" : [ "obj-2", 1 ],
					"hidden" : 0,
					"midpoints" : [  ]
				}

			}
, 			{
				"patchline" : 				{
					"source" : [ "obj-10", 0 ],
					"destination" : [ "obj-2", 2 ],
					"hidden" : 0,
					"midpoints" : [  ]
				}

			}
, 			{
				"patchline" : 				{
					"source" : [ "obj-9", 0 ],
					"destination" : [ "obj-2", 3 ],
					"hidden" : 0,
					"midpoints" : [  ]
				}

			}
, 			{
				"patchline" : 				{
					"source" : [ "obj-8", 0 ],
					"destination" : [ "obj-2", 4 ],
					"hidden" : 0,
					"midpoints" : [  ]
				}

			}
, 			{
				"patchline" : 				{
					"source" : [ "obj-7", 0 ],
					"destination" : [ "obj-2", 5 ],
					"hidden" : 0,
					"midpoints" : [  ]
				}

			}
 ]
	}

}
