{
	"patcher" : 	{
		"fileversion" : 1,
		"rect" : [ 193.0, 169.0, 966.0, 496.0 ],
		"bglocked" : 0,
		"defrect" : [ 193.0, 169.0, 966.0, 496.0 ],
		"openrect" : [ 0.0, 0.0, 0.0, 0.0 ],
		"openinpresentation" : 0,
		"default_fontsize" : 12.0,
		"default_fontface" : 0,
		"default_fontname" : "Arial",
		"gridonopen" : 0,
		"gridsize" : [ 15.0, 15.0 ],
		"gridsnaponopen" : 0,
		"toolbarvisible" : 1,
		"boxanimatetime" : 200,
		"imprint" : 0,
		"boxes" : [ 			{
				"box" : 				{
					"maxclass" : "newobj",
					"text" : "r #2_gain",
					"outlettype" : [ "" ],
					"fontsize" : 12.0,
					"numinlets" : 0,
					"patching_rect" : [ 697.0, 388.0, 61.0, 20.0 ],
					"id" : "obj-37",
					"numoutlets" : 1,
					"fontname" : "Arial"
				}

			}
, 			{
				"box" : 				{
					"maxclass" : "newobj",
					"text" : "r #1_gain",
					"outlettype" : [ "" ],
					"fontsize" : 12.0,
					"numinlets" : 0,
					"patching_rect" : [ 682.0, 366.0, 61.0, 20.0 ],
					"id" : "obj-36",
					"numoutlets" : 1,
					"fontname" : "Arial"
				}

			}
, 			{
				"box" : 				{
					"maxclass" : "newobj",
					"text" : "r #2_verbMix",
					"outlettype" : [ "" ],
					"fontsize" : 12.0,
					"numinlets" : 0,
					"patching_rect" : [ 674.0, 335.0, 80.0, 20.0 ],
					"id" : "obj-35",
					"numoutlets" : 1,
					"fontname" : "Arial"
				}

			}
, 			{
				"box" : 				{
					"maxclass" : "newobj",
					"text" : "r #1_verbMix",
					"outlettype" : [ "" ],
					"fontsize" : 12.0,
					"numinlets" : 0,
					"patching_rect" : [ 658.0, 312.0, 80.0, 20.0 ],
					"id" : "obj-34",
					"numoutlets" : 1,
					"fontname" : "Arial"
				}

			}
, 			{
				"box" : 				{
					"maxclass" : "newobj",
					"text" : "r #2_verbHighFreqDamping",
					"outlettype" : [ "" ],
					"fontsize" : 12.0,
					"numinlets" : 0,
					"patching_rect" : [ 728.0, 258.0, 159.0, 20.0 ],
					"id" : "obj-33",
					"numoutlets" : 1,
					"fontname" : "Arial"
				}

			}
, 			{
				"box" : 				{
					"maxclass" : "newobj",
					"text" : "r #1_verbHighFreqDamping",
					"outlettype" : [ "" ],
					"fontsize" : 12.0,
					"numinlets" : 0,
					"patching_rect" : [ 714.0, 236.0, 159.0, 20.0 ],
					"id" : "obj-32",
					"numoutlets" : 1,
					"fontname" : "Arial"
				}

			}
, 			{
				"box" : 				{
					"maxclass" : "newobj",
					"text" : "r #2_verbCrossOverFreq",
					"outlettype" : [ "" ],
					"fontsize" : 12.0,
					"numinlets" : 0,
					"patching_rect" : [ 695.0, 215.0, 143.0, 20.0 ],
					"id" : "obj-18",
					"numoutlets" : 1,
					"fontname" : "Arial"
				}

			}
, 			{
				"box" : 				{
					"maxclass" : "newobj",
					"text" : "r #1_verbCrossOverFreq",
					"outlettype" : [ "" ],
					"fontsize" : 12.0,
					"numinlets" : 0,
					"patching_rect" : [ 679.0, 193.0, 143.0, 20.0 ],
					"id" : "obj-17",
					"numoutlets" : 1,
					"fontname" : "Arial"
				}

			}
, 			{
				"box" : 				{
					"maxclass" : "newobj",
					"text" : "r #1_verbLiveness",
					"outlettype" : [ "" ],
					"fontsize" : 12.0,
					"numinlets" : 0,
					"patching_rect" : [ 645.0, 149.0, 109.0, 20.0 ],
					"id" : "obj-16",
					"numoutlets" : 1,
					"fontname" : "Arial"
				}

			}
, 			{
				"box" : 				{
					"maxclass" : "newobj",
					"text" : "r #1_verbDB",
					"outlettype" : [ "" ],
					"fontsize" : 12.0,
					"numinlets" : 0,
					"patching_rect" : [ 611.0, 105.0, 78.0, 20.0 ],
					"id" : "obj-15",
					"numoutlets" : 1,
					"fontname" : "Arial"
				}

			}
, 			{
				"box" : 				{
					"maxclass" : "newobj",
					"text" : "r #1_panFadeTime",
					"outlettype" : [ "" ],
					"fontsize" : 12.0,
					"numinlets" : 0,
					"patching_rect" : [ 483.0, 58.0, 112.0, 20.0 ],
					"id" : "obj-13",
					"numoutlets" : 1,
					"fontname" : "Arial"
				}

			}
, 			{
				"box" : 				{
					"maxclass" : "newobj",
					"text" : "r #1_panAmount",
					"outlettype" : [ "" ],
					"fontsize" : 12.0,
					"numinlets" : 0,
					"patching_rect" : [ 444.0, 14.0, 99.0, 20.0 ],
					"id" : "obj-12",
					"numoutlets" : 1,
					"fontname" : "Arial"
				}

			}
, 			{
				"box" : 				{
					"maxclass" : "newobj",
					"text" : "r #1_playSpeed",
					"outlettype" : [ "" ],
					"fontsize" : 12.0,
					"numinlets" : 0,
					"patching_rect" : [ 52.0, 59.0, 95.0, 20.0 ],
					"id" : "obj-4",
					"numoutlets" : 1,
					"fontname" : "Arial"
				}

			}
, 			{
				"box" : 				{
					"maxclass" : "newobj",
					"text" : "r #1_playEnvPeak",
					"outlettype" : [ "" ],
					"fontsize" : 12.0,
					"numinlets" : 0,
					"patching_rect" : [ 194.0, 235.0, 108.0, 20.0 ],
					"id" : "obj-7",
					"numoutlets" : 1,
					"fontname" : "Arial"
				}

			}
, 			{
				"box" : 				{
					"maxclass" : "newobj",
					"text" : "r #1_playEndTime",
					"outlettype" : [ "" ],
					"fontsize" : 12.0,
					"numinlets" : 0,
					"patching_rect" : [ 158.0, 191.0, 108.0, 20.0 ],
					"id" : "obj-8",
					"numoutlets" : 1,
					"fontname" : "Arial"
				}

			}
, 			{
				"box" : 				{
					"maxclass" : "newobj",
					"text" : "r #1_playStartTime",
					"outlettype" : [ "" ],
					"fontsize" : 12.0,
					"numinlets" : 0,
					"patching_rect" : [ 123.0, 147.0, 112.0, 20.0 ],
					"id" : "obj-9",
					"numoutlets" : 1,
					"fontname" : "Arial"
				}

			}
, 			{
				"box" : 				{
					"maxclass" : "newobj",
					"text" : "r #1_playPercentage",
					"outlettype" : [ "" ],
					"fontsize" : 12.0,
					"numinlets" : 0,
					"patching_rect" : [ 87.0, 103.0, 121.0, 20.0 ],
					"id" : "obj-10",
					"numoutlets" : 1,
					"fontname" : "Arial"
				}

			}
, 			{
				"box" : 				{
					"maxclass" : "newobj",
					"text" : "r #1_playCommands",
					"outlettype" : [ "" ],
					"fontsize" : 12.0,
					"numinlets" : 0,
					"patching_rect" : [ 16.0, 15.0, 121.0, 20.0 ],
					"id" : "obj-11",
					"numoutlets" : 1,
					"fontname" : "Arial"
				}

			}
, 			{
				"box" : 				{
					"maxclass" : "newobj",
					"text" : "send~ #1_audioR",
					"fontsize" : 12.0,
					"numinlets" : 1,
					"patching_rect" : [ 658.0, 462.0, 105.0, 20.0 ],
					"id" : "obj-1",
					"numoutlets" : 0,
					"fontname" : "Arial"
				}

			}
, 			{
				"box" : 				{
					"maxclass" : "newobj",
					"text" : "send~ #1_audioL",
					"fontsize" : 12.0,
					"numinlets" : 1,
					"patching_rect" : [ 426.0, 462.0, 103.0, 20.0 ],
					"id" : "obj-6",
					"numoutlets" : 0,
					"fontname" : "Arial"
				}

			}
, 			{
				"box" : 				{
					"maxclass" : "newobj",
					"text" : "*~ 1.",
					"outlettype" : [ "signal" ],
					"fontsize" : 12.0,
					"numinlets" : 2,
					"patching_rect" : [ 658.0, 433.0, 43.0, 20.0 ],
					"id" : "obj-52",
					"numoutlets" : 1,
					"fontname" : "Arial"
				}

			}
, 			{
				"box" : 				{
					"maxclass" : "newobj",
					"text" : "*~ 1.",
					"outlettype" : [ "signal" ],
					"fontsize" : 12.0,
					"numinlets" : 2,
					"patching_rect" : [ 426.0, 433.0, 44.0, 20.0 ],
					"id" : "obj-51",
					"numoutlets" : 1,
					"fontname" : "Arial"
				}

			}
, 			{
				"box" : 				{
					"maxclass" : "newobj",
					"text" : "p mix",
					"outlettype" : [ "signal", "signal" ],
					"fontsize" : 12.0,
					"numinlets" : 5,
					"patching_rect" : [ 426.0, 366.0, 251.0, 20.0 ],
					"id" : "obj-50",
					"numoutlets" : 2,
					"fontname" : "Arial",
					"patcher" : 					{
						"fileversion" : 1,
						"rect" : [ 472.0, 77.0, 315.0, 224.0 ],
						"bglocked" : 0,
						"defrect" : [ 472.0, 77.0, 315.0, 224.0 ],
						"openrect" : [ 0.0, 0.0, 0.0, 0.0 ],
						"openinpresentation" : 0,
						"default_fontsize" : 12.0,
						"default_fontface" : 0,
						"default_fontname" : "Arial",
						"gridonopen" : 0,
						"gridsize" : [ 15.0, 15.0 ],
						"gridsnaponopen" : 0,
						"toolbarvisible" : 1,
						"boxanimatetime" : 200,
						"imprint" : 0,
						"boxes" : [ 							{
								"box" : 								{
									"maxclass" : "inlet",
									"outlettype" : [ "signal" ],
									"numinlets" : 0,
									"patching_rect" : [ 159.0, 14.0, 25.0, 25.0 ],
									"id" : "obj-7",
									"numoutlets" : 1,
									"comment" : ""
								}

							}
, 							{
								"box" : 								{
									"maxclass" : "inlet",
									"outlettype" : [ "signal" ],
									"numinlets" : 0,
									"patching_rect" : [ 111.0, 14.0, 25.0, 25.0 ],
									"id" : "obj-6",
									"numoutlets" : 1,
									"comment" : ""
								}

							}
, 							{
								"box" : 								{
									"maxclass" : "inlet",
									"outlettype" : [ "signal" ],
									"numinlets" : 0,
									"patching_rect" : [ 61.0, 14.0, 25.0, 25.0 ],
									"id" : "obj-5",
									"numoutlets" : 1,
									"comment" : ""
								}

							}
, 							{
								"box" : 								{
									"maxclass" : "inlet",
									"outlettype" : [ "signal" ],
									"numinlets" : 0,
									"patching_rect" : [ 15.0, 14.0, 25.0, 25.0 ],
									"id" : "obj-4",
									"numoutlets" : 1,
									"comment" : ""
								}

							}
, 							{
								"box" : 								{
									"maxclass" : "outlet",
									"numinlets" : 1,
									"patching_rect" : [ 159.0, 186.0, 25.0, 25.0 ],
									"id" : "obj-3",
									"numoutlets" : 0,
									"comment" : ""
								}

							}
, 							{
								"box" : 								{
									"maxclass" : "outlet",
									"numinlets" : 1,
									"patching_rect" : [ 15.0, 186.0, 25.0, 25.0 ],
									"id" : "obj-2",
									"numoutlets" : 0,
									"comment" : ""
								}

							}
, 							{
								"box" : 								{
									"maxclass" : "inlet",
									"outlettype" : [ "" ],
									"numinlets" : 0,
									"patching_rect" : [ 274.0, 14.0, 25.0, 25.0 ],
									"id" : "obj-1",
									"numoutlets" : 1,
									"comment" : ""
								}

							}
, 							{
								"box" : 								{
									"maxclass" : "newobj",
									"text" : "scale 1. 0. 0. 1.",
									"outlettype" : [ "float" ],
									"fontsize" : 12.0,
									"numinlets" : 6,
									"patching_rect" : [ 184.0, 60.0, 92.0, 20.0 ],
									"id" : "obj-48",
									"numoutlets" : 1,
									"fontname" : "Arial"
								}

							}
, 							{
								"box" : 								{
									"maxclass" : "newobj",
									"text" : "*~ 0.5",
									"outlettype" : [ "signal" ],
									"fontsize" : 12.0,
									"numinlets" : 2,
									"patching_rect" : [ 61.0, 107.0, 42.0, 20.0 ],
									"id" : "obj-41",
									"numoutlets" : 1,
									"fontname" : "Arial"
								}

							}
, 							{
								"box" : 								{
									"maxclass" : "newobj",
									"text" : "*~ 0.5",
									"outlettype" : [ "signal" ],
									"fontsize" : 12.0,
									"numinlets" : 2,
									"patching_rect" : [ 15.0, 107.0, 42.0, 20.0 ],
									"id" : "obj-42",
									"numoutlets" : 1,
									"fontname" : "Arial"
								}

							}
, 							{
								"box" : 								{
									"maxclass" : "newobj",
									"text" : "*~ 0.5",
									"outlettype" : [ "signal" ],
									"fontsize" : 12.0,
									"numinlets" : 2,
									"patching_rect" : [ 159.0, 107.0, 42.0, 20.0 ],
									"id" : "obj-40",
									"numoutlets" : 1,
									"fontname" : "Arial"
								}

							}
, 							{
								"box" : 								{
									"maxclass" : "newobj",
									"text" : "*~ 0.5",
									"outlettype" : [ "signal" ],
									"fontsize" : 12.0,
									"numinlets" : 2,
									"patching_rect" : [ 111.0, 107.0, 42.0, 20.0 ],
									"id" : "obj-39",
									"numoutlets" : 1,
									"fontname" : "Arial"
								}

							}
 ],
						"lines" : [ 							{
								"patchline" : 								{
									"source" : [ "obj-7", 0 ],
									"destination" : [ "obj-40", 0 ],
									"hidden" : 0,
									"midpoints" : [  ]
								}

							}
, 							{
								"patchline" : 								{
									"source" : [ "obj-6", 0 ],
									"destination" : [ "obj-39", 0 ],
									"hidden" : 0,
									"midpoints" : [  ]
								}

							}
, 							{
								"patchline" : 								{
									"source" : [ "obj-5", 0 ],
									"destination" : [ "obj-41", 0 ],
									"hidden" : 0,
									"midpoints" : [  ]
								}

							}
, 							{
								"patchline" : 								{
									"source" : [ "obj-4", 0 ],
									"destination" : [ "obj-42", 0 ],
									"hidden" : 0,
									"midpoints" : [  ]
								}

							}
, 							{
								"patchline" : 								{
									"source" : [ "obj-1", 0 ],
									"destination" : [ "obj-40", 1 ],
									"hidden" : 0,
									"midpoints" : [ 283.5, 100.0, 191.5, 100.0 ]
								}

							}
, 							{
								"patchline" : 								{
									"source" : [ "obj-1", 0 ],
									"destination" : [ "obj-39", 1 ],
									"hidden" : 0,
									"midpoints" : [ 283.5, 100.0, 143.5, 100.0 ]
								}

							}
, 							{
								"patchline" : 								{
									"source" : [ "obj-40", 0 ],
									"destination" : [ "obj-3", 0 ],
									"hidden" : 0,
									"midpoints" : [  ]
								}

							}
, 							{
								"patchline" : 								{
									"source" : [ "obj-41", 0 ],
									"destination" : [ "obj-3", 0 ],
									"hidden" : 0,
									"midpoints" : [  ]
								}

							}
, 							{
								"patchline" : 								{
									"source" : [ "obj-39", 0 ],
									"destination" : [ "obj-2", 0 ],
									"hidden" : 0,
									"midpoints" : [  ]
								}

							}
, 							{
								"patchline" : 								{
									"source" : [ "obj-42", 0 ],
									"destination" : [ "obj-2", 0 ],
									"hidden" : 0,
									"midpoints" : [  ]
								}

							}
, 							{
								"patchline" : 								{
									"source" : [ "obj-1", 0 ],
									"destination" : [ "obj-48", 0 ],
									"hidden" : 0,
									"midpoints" : [ 283.5, 52.5, 193.5, 52.5 ]
								}

							}
, 							{
								"patchline" : 								{
									"source" : [ "obj-48", 0 ],
									"destination" : [ "obj-41", 1 ],
									"hidden" : 0,
									"midpoints" : [ 193.5, 88.0, 93.5, 88.0 ]
								}

							}
, 							{
								"patchline" : 								{
									"source" : [ "obj-48", 0 ],
									"destination" : [ "obj-42", 1 ],
									"hidden" : 0,
									"midpoints" : [ 193.5, 88.0, 47.5, 88.0 ]
								}

							}
 ]
					}
,
					"saved_object_attributes" : 					{
						"default_fontname" : "Arial",
						"globalpatchername" : "",
						"default_fontsize" : 12.0,
						"fontface" : 0,
						"fontsize" : 12.0,
						"default_fontface" : 0,
						"fontname" : "Arial"
					}

				}

			}
, 			{
				"box" : 				{
					"maxclass" : "newobj",
					"text" : "r #2_verbDB",
					"outlettype" : [ "" ],
					"fontsize" : 12.0,
					"numinlets" : 0,
					"patching_rect" : [ 627.0, 127.0, 78.0, 20.0 ],
					"id" : "obj-31",
					"numoutlets" : 1,
					"fontname" : "Arial"
				}

			}
, 			{
				"box" : 				{
					"maxclass" : "newobj",
					"text" : "r #2_verbLiveness",
					"outlettype" : [ "" ],
					"fontsize" : 12.0,
					"numinlets" : 0,
					"patching_rect" : [ 662.0, 171.0, 109.0, 20.0 ],
					"id" : "obj-28",
					"numoutlets" : 1,
					"fontname" : "Arial"
				}

			}
, 			{
				"box" : 				{
					"maxclass" : "newobj",
					"text" : "r #2_panFadeTime",
					"outlettype" : [ "" ],
					"fontsize" : 12.0,
					"numinlets" : 0,
					"patching_rect" : [ 498.0, 80.0, 112.0, 20.0 ],
					"id" : "obj-27",
					"numoutlets" : 1,
					"fontname" : "Arial"
				}

			}
, 			{
				"box" : 				{
					"maxclass" : "newobj",
					"text" : "r #2_panAmount",
					"outlettype" : [ "" ],
					"fontsize" : 12.0,
					"numinlets" : 0,
					"patching_rect" : [ 459.0, 36.0, 99.0, 20.0 ],
					"id" : "obj-19",
					"numoutlets" : 1,
					"fontname" : "Arial"
				}

			}
, 			{
				"box" : 				{
					"maxclass" : "newobj",
					"text" : "rev3~",
					"outlettype" : [ "signal", "signal", "signal", "signal" ],
					"fontsize" : 12.0,
					"numinlets" : 6,
					"patching_rect" : [ 542.0, 286.0, 190.5, 20.0 ],
					"id" : "obj-14",
					"numoutlets" : 4,
					"fontname" : "Arial"
				}

			}
, 			{
				"box" : 				{
					"maxclass" : "newobj",
					"text" : "pan2",
					"outlettype" : [ "signal", "signal" ],
					"fontsize" : 12.0,
					"numinlets" : 4,
					"patching_rect" : [ 425.0, 110.0, 76.5, 20.0 ],
					"id" : "obj-5",
					"numoutlets" : 2,
					"fontname" : "Arial"
				}

			}
, 			{
				"box" : 				{
					"maxclass" : "newobj",
					"text" : "s #2_playFileLength",
					"fontsize" : 12.0,
					"numinlets" : 1,
					"patching_rect" : [ 210.0, 318.0, 118.0, 20.0 ],
					"id" : "obj-22",
					"numoutlets" : 0,
					"fontname" : "Arial"
				}

			}
, 			{
				"box" : 				{
					"maxclass" : "newobj",
					"text" : "s #2_playState",
					"fontsize" : 12.0,
					"numinlets" : 1,
					"patching_rect" : [ 113.0, 340.0, 90.0, 20.0 ],
					"id" : "obj-20",
					"numoutlets" : 0,
					"fontname" : "Arial"
				}

			}
, 			{
				"box" : 				{
					"maxclass" : "newobj",
					"text" : "r #2_playSpeed",
					"outlettype" : [ "" ],
					"fontsize" : 12.0,
					"numinlets" : 0,
					"patching_rect" : [ 68.0, 81.0, 95.0, 20.0 ],
					"id" : "obj-3",
					"numoutlets" : 1,
					"fontname" : "Arial"
				}

			}
, 			{
				"box" : 				{
					"maxclass" : "newobj",
					"text" : "r #2_playEnvPeak",
					"outlettype" : [ "" ],
					"fontsize" : 12.0,
					"numinlets" : 0,
					"patching_rect" : [ 210.0, 257.0, 108.0, 20.0 ],
					"id" : "obj-26",
					"numoutlets" : 1,
					"fontname" : "Arial"
				}

			}
, 			{
				"box" : 				{
					"maxclass" : "newobj",
					"text" : "r #2_playEndTime",
					"outlettype" : [ "" ],
					"fontsize" : 12.0,
					"numinlets" : 0,
					"patching_rect" : [ 175.0, 213.0, 108.0, 20.0 ],
					"id" : "obj-25",
					"numoutlets" : 1,
					"fontname" : "Arial"
				}

			}
, 			{
				"box" : 				{
					"maxclass" : "newobj",
					"text" : "r #2_playStartTime",
					"outlettype" : [ "" ],
					"fontsize" : 12.0,
					"numinlets" : 0,
					"patching_rect" : [ 140.0, 169.0, 112.0, 20.0 ],
					"id" : "obj-24",
					"numoutlets" : 1,
					"fontname" : "Arial"
				}

			}
, 			{
				"box" : 				{
					"maxclass" : "newobj",
					"text" : "r #2_playPercentage",
					"outlettype" : [ "" ],
					"fontsize" : 12.0,
					"numinlets" : 0,
					"patching_rect" : [ 103.0, 125.0, 121.0, 20.0 ],
					"id" : "obj-23",
					"numoutlets" : 1,
					"fontname" : "Arial"
				}

			}
, 			{
				"box" : 				{
					"maxclass" : "newobj",
					"text" : "r #2_playCommands",
					"outlettype" : [ "" ],
					"fontsize" : 12.0,
					"numinlets" : 0,
					"patching_rect" : [ 33.0, 37.0, 121.0, 20.0 ],
					"id" : "obj-21",
					"numoutlets" : 1,
					"fontname" : "Arial"
				}

			}
, 			{
				"box" : 				{
					"maxclass" : "newobj",
					"text" : "p.play~ #2",
					"outlettype" : [ "signal", "", "float" ],
					"fontsize" : 12.0,
					"numinlets" : 6,
					"patching_rect" : [ 16.0, 291.0, 212.5, 20.0 ],
					"id" : "obj-2",
					"numoutlets" : 3,
					"fontname" : "Arial"
				}

			}
 ],
		"lines" : [ 			{
				"patchline" : 				{
					"source" : [ "obj-7", 0 ],
					"destination" : [ "obj-2", 5 ],
					"hidden" : 0,
					"midpoints" : [  ]
				}

			}
, 			{
				"patchline" : 				{
					"source" : [ "obj-8", 0 ],
					"destination" : [ "obj-2", 4 ],
					"hidden" : 0,
					"midpoints" : [  ]
				}

			}
, 			{
				"patchline" : 				{
					"source" : [ "obj-9", 0 ],
					"destination" : [ "obj-2", 3 ],
					"hidden" : 0,
					"midpoints" : [  ]
				}

			}
, 			{
				"patchline" : 				{
					"source" : [ "obj-10", 0 ],
					"destination" : [ "obj-2", 2 ],
					"hidden" : 0,
					"midpoints" : [  ]
				}

			}
, 			{
				"patchline" : 				{
					"source" : [ "obj-3", 0 ],
					"destination" : [ "obj-2", 1 ],
					"hidden" : 0,
					"midpoints" : [  ]
				}

			}
, 			{
				"patchline" : 				{
					"source" : [ "obj-21", 0 ],
					"destination" : [ "obj-2", 0 ],
					"hidden" : 0,
					"midpoints" : [  ]
				}

			}
, 			{
				"patchline" : 				{
					"source" : [ "obj-4", 0 ],
					"destination" : [ "obj-2", 1 ],
					"hidden" : 0,
					"midpoints" : [  ]
				}

			}
, 			{
				"patchline" : 				{
					"source" : [ "obj-11", 0 ],
					"destination" : [ "obj-2", 0 ],
					"hidden" : 0,
					"midpoints" : [  ]
				}

			}
, 			{
				"patchline" : 				{
					"source" : [ "obj-2", 1 ],
					"destination" : [ "obj-20", 0 ],
					"hidden" : 0,
					"midpoints" : [  ]
				}

			}
, 			{
				"patchline" : 				{
					"source" : [ "obj-2", 2 ],
					"destination" : [ "obj-22", 0 ],
					"hidden" : 0,
					"midpoints" : [  ]
				}

			}
, 			{
				"patchline" : 				{
					"source" : [ "obj-26", 0 ],
					"destination" : [ "obj-2", 5 ],
					"hidden" : 0,
					"midpoints" : [  ]
				}

			}
, 			{
				"patchline" : 				{
					"source" : [ "obj-25", 0 ],
					"destination" : [ "obj-2", 4 ],
					"hidden" : 0,
					"midpoints" : [  ]
				}

			}
, 			{
				"patchline" : 				{
					"source" : [ "obj-24", 0 ],
					"destination" : [ "obj-2", 3 ],
					"hidden" : 0,
					"midpoints" : [  ]
				}

			}
, 			{
				"patchline" : 				{
					"source" : [ "obj-23", 0 ],
					"destination" : [ "obj-2", 2 ],
					"hidden" : 0,
					"midpoints" : [  ]
				}

			}
, 			{
				"patchline" : 				{
					"source" : [ "obj-2", 0 ],
					"destination" : [ "obj-5", 0 ],
					"hidden" : 0,
					"midpoints" : [ 25.5, 372.0, 397.0, 372.0, 397.0, 102.0, 434.5, 102.0 ]
				}

			}
, 			{
				"patchline" : 				{
					"source" : [ "obj-50", 1 ],
					"destination" : [ "obj-52", 0 ],
					"hidden" : 0,
					"midpoints" : [  ]
				}

			}
, 			{
				"patchline" : 				{
					"source" : [ "obj-50", 0 ],
					"destination" : [ "obj-51", 0 ],
					"hidden" : 0,
					"midpoints" : [  ]
				}

			}
, 			{
				"patchline" : 				{
					"source" : [ "obj-14", 0 ],
					"destination" : [ "obj-50", 2 ],
					"hidden" : 0,
					"midpoints" : [  ]
				}

			}
, 			{
				"patchline" : 				{
					"source" : [ "obj-5", 0 ],
					"destination" : [ "obj-50", 0 ],
					"hidden" : 0,
					"midpoints" : [  ]
				}

			}
, 			{
				"patchline" : 				{
					"source" : [ "obj-5", 1 ],
					"destination" : [ "obj-50", 1 ],
					"hidden" : 0,
					"midpoints" : [  ]
				}

			}
, 			{
				"patchline" : 				{
					"source" : [ "obj-5", 0 ],
					"destination" : [ "obj-14", 0 ],
					"hidden" : 0,
					"midpoints" : [  ]
				}

			}
, 			{
				"patchline" : 				{
					"source" : [ "obj-5", 1 ],
					"destination" : [ "obj-14", 1 ],
					"hidden" : 0,
					"midpoints" : [  ]
				}

			}
, 			{
				"patchline" : 				{
					"source" : [ "obj-51", 0 ],
					"destination" : [ "obj-6", 0 ],
					"hidden" : 0,
					"midpoints" : [  ]
				}

			}
, 			{
				"patchline" : 				{
					"source" : [ "obj-31", 0 ],
					"destination" : [ "obj-14", 2 ],
					"hidden" : 0,
					"midpoints" : [  ]
				}

			}
, 			{
				"patchline" : 				{
					"source" : [ "obj-19", 0 ],
					"destination" : [ "obj-5", 1 ],
					"hidden" : 0,
					"midpoints" : [  ]
				}

			}
, 			{
				"patchline" : 				{
					"source" : [ "obj-12", 0 ],
					"destination" : [ "obj-5", 1 ],
					"hidden" : 0,
					"midpoints" : [  ]
				}

			}
, 			{
				"patchline" : 				{
					"source" : [ "obj-13", 0 ],
					"destination" : [ "obj-5", 3 ],
					"hidden" : 0,
					"midpoints" : [  ]
				}

			}
, 			{
				"patchline" : 				{
					"source" : [ "obj-27", 0 ],
					"destination" : [ "obj-5", 3 ],
					"hidden" : 0,
					"midpoints" : [  ]
				}

			}
, 			{
				"patchline" : 				{
					"source" : [ "obj-15", 0 ],
					"destination" : [ "obj-14", 2 ],
					"hidden" : 0,
					"midpoints" : [  ]
				}

			}
, 			{
				"patchline" : 				{
					"source" : [ "obj-16", 0 ],
					"destination" : [ "obj-14", 3 ],
					"hidden" : 0,
					"midpoints" : [  ]
				}

			}
, 			{
				"patchline" : 				{
					"source" : [ "obj-28", 0 ],
					"destination" : [ "obj-14", 3 ],
					"hidden" : 0,
					"midpoints" : [  ]
				}

			}
, 			{
				"patchline" : 				{
					"source" : [ "obj-17", 0 ],
					"destination" : [ "obj-14", 4 ],
					"hidden" : 0,
					"midpoints" : [  ]
				}

			}
, 			{
				"patchline" : 				{
					"source" : [ "obj-18", 0 ],
					"destination" : [ "obj-14", 4 ],
					"hidden" : 0,
					"midpoints" : [  ]
				}

			}
, 			{
				"patchline" : 				{
					"source" : [ "obj-32", 0 ],
					"destination" : [ "obj-14", 5 ],
					"hidden" : 0,
					"midpoints" : [  ]
				}

			}
, 			{
				"patchline" : 				{
					"source" : [ "obj-33", 0 ],
					"destination" : [ "obj-14", 5 ],
					"hidden" : 0,
					"midpoints" : [  ]
				}

			}
, 			{
				"patchline" : 				{
					"source" : [ "obj-14", 1 ],
					"destination" : [ "obj-50", 3 ],
					"hidden" : 0,
					"midpoints" : [  ]
				}

			}
, 			{
				"patchline" : 				{
					"source" : [ "obj-34", 0 ],
					"destination" : [ "obj-50", 4 ],
					"hidden" : 0,
					"midpoints" : [  ]
				}

			}
, 			{
				"patchline" : 				{
					"source" : [ "obj-35", 0 ],
					"destination" : [ "obj-50", 4 ],
					"hidden" : 0,
					"midpoints" : [  ]
				}

			}
, 			{
				"patchline" : 				{
					"source" : [ "obj-36", 0 ],
					"destination" : [ "obj-52", 1 ],
					"hidden" : 0,
					"midpoints" : [  ]
				}

			}
, 			{
				"patchline" : 				{
					"source" : [ "obj-36", 0 ],
					"destination" : [ "obj-51", 1 ],
					"hidden" : 0,
					"midpoints" : [ 691.5, 422.0, 460.5, 422.0 ]
				}

			}
, 			{
				"patchline" : 				{
					"source" : [ "obj-37", 0 ],
					"destination" : [ "obj-52", 1 ],
					"hidden" : 0,
					"color" : [ 1.0, 0.337255, 0.619608, 1.0 ],
					"midpoints" : [ 706.5, 426.5, 691.5, 426.5 ]
				}

			}
, 			{
				"patchline" : 				{
					"source" : [ "obj-37", 0 ],
					"destination" : [ "obj-51", 1 ],
					"hidden" : 0,
					"color" : [ 1.0, 0.337255, 0.619608, 1.0 ],
					"midpoints" : [ 706.5, 415.5, 460.5, 415.5 ]
				}

			}
, 			{
				"patchline" : 				{
					"source" : [ "obj-52", 0 ],
					"destination" : [ "obj-1", 0 ],
					"hidden" : 0,
					"midpoints" : [  ]
				}

			}
 ]
	}

}
